<?xml version="1.0" encoding="utf-8"?>
<!-- Generator: Adobe Illustrator 19.2.1, SVG Export Plug-In . SVG Version: 6.00 Build 0)  -->
<svg version="1.1" id="Capa_1" xmlns="http://www.w3.org/2000/svg" xmlns:xlink="http://www.w3.org/1999/xlink" x="0px" y="0px"
	 viewBox="0 0 353 256" enable-background="new 0 0 353 256" xml:space="preserve">
<g>
	<defs>
		<path id="SVGID_28_" d="M353,256H0V4c0-2.2,1.8-4,4-4h345c2.2,0,4,1.8,4,4V256z"/>
	</defs>
	<clipPath id="SVGID_2_">
		<use xlink:href="#SVGID_28_"  overflow="visible"/>
	</clipPath>
	<g clip-path="url(#SVGID_2_)">
		<g>
			<defs>
				<path id="SVGID_30_" d="M348.6,349.9H5c-2.4,0-4.3-1.9-4.3-4.3L0.1,4.3C0.1,1.9,2,0,4.4,0H348c2.4,0,4.3,1.9,4.3,4.3l0.6,341.2
					C352.9,347.9,351,349.9,348.6,349.9z"/>
			</defs>
			<clipPath id="SVGID_4_">
				<use xlink:href="#SVGID_30_"  overflow="visible"/>
			</clipPath>
		</g>
		<g>
			<defs>
				<path id="SVGID_32_" d="M348.6,349.9H5c-2.4,0-4.3-1.9-4.3-4.3L0.1,4.3C0.1,1.9,2,0,4.4,0H348c2.4,0,4.3,1.9,4.3,4.3l0.6,341.2
					C352.9,347.9,351,349.9,348.6,349.9z"/>
			</defs>
			<clipPath id="SVGID_6_">
				<use xlink:href="#SVGID_32_"  overflow="visible"/>
			</clipPath>
			<rect x="0" y="38.7" clip-path="url(#SVGID_6_)" fill="#1E90DA" width="352.3" height="92.7"/>
			
				<line clip-path="url(#SVGID_6_)" fill="none" stroke="#E6E6E6" stroke-width="0.1795" stroke-miterlimit="10" x1="0" y1="38.7" x2="352.2" y2="131.6"/>
			
				<line clip-path="url(#SVGID_6_)" fill="none" stroke="#E6E6E6" stroke-width="0.1795" stroke-miterlimit="10" x1="0" y1="131.6" x2="352.2" y2="38.7"/>
			<rect x="0" y="38.7" opacity="0.2" clip-path="url(#SVGID_6_)" fill="#5D5D5D" width="352.3" height="92.7"/>
			<g clip-path="url(#SVGID_6_)">
				<g>
					<rect x="0.1" fill="#CCCCCC" width="352.1" height="25.8"/>
					<circle fill="#FB635E" cx="5" cy="5.3" r="1.7"/>
					<circle fill="#EEA126" cx="10.5" cy="5.3" r="1.7"/>
					<circle fill="#35CA4A" cx="16" cy="5.3" r="1.7"/>
					<path fill="#E6E6E6" d="M84.8,10.1c0,0-1.3,0.2-1.9-1.1s-1.7-4-1.7-4s-0.6-1-1.8-1c-1.2,0-11.7,0-11.7,0h-1.9
						c0,0-10.3,0-11.5,0s-1.8,1-1.8,1s-1.1,2.9-1.7,4.2c-0.6,1.3-1.9,1-1.9,1"/>
					<path fill="#E6E6E6" d="M54.8,10.1c0,0-1.3,0.2-1.9-1.1c-0.6-1.3-1.7-4-1.7-4s-0.6-1-1.8-1S37.8,4,37.8,4h-1.9
						c0,0-10.3,0-11.5,0s-1.8,1-1.8,1s-1.1,2.9-1.7,4.2s-1.9,1-1.9,1"/>
					<g>
						<rect x="0.1" y="10.1" fill="#E6E6E6" width="352.1" height="15.7"/>
					</g>
					<path fill="#F2F2F2" d="M305.1,19.3H27.4c-1.1,0-2-0.9-2-2V14c0-1.1,0.9-2,2-2h277.7c1.1,0,2,0.9,2,2v3.3
						C307.1,18.4,306.2,19.3,305.1,19.3z"/>
				</g>
				<g>
					<path fill="#999999" d="M25.6,8.6L25.6,8.6c-1,0-1.8-0.8-1.8-1.8v0c0-1,0.8-1.8,1.8-1.8h0c1,0,1.8,0.8,1.8,1.8v0
						C27.5,7.7,26.6,8.6,25.6,8.6z"/>
				</g>
				
					<line fill="#999999" stroke="#999999" stroke-width="2" stroke-linecap="round" stroke-linejoin="round" stroke-miterlimit="10" x1="30.2" y1="6.7" x2="48.3" y2="6.7"/>
			</g>
			<g clip-path="url(#SVGID_6_)">
				<g>
					<rect x="0.1" y="25.8" fill="#FFFFFF" width="352.2" height="12.8"/>
				</g>
				
					<line fill="#0072BC" stroke="#0072BC" stroke-width="2.5325" stroke-linecap="round" stroke-miterlimit="10" x1="265.5" y1="32.3" x2="277.1" y2="32.3"/>
				
					<line fill="#0072BC" stroke="#0072BC" stroke-width="2.5325" stroke-linecap="round" stroke-miterlimit="10" x1="248" y1="32.3" x2="259.6" y2="32.3"/>
				
					<line fill="#0072BC" stroke="#0072BC" stroke-width="2.5325" stroke-linecap="round" stroke-miterlimit="10" x1="230.6" y1="32.3" x2="242.2" y2="32.3"/>
			</g>
			<g clip-path="url(#SVGID_6_)">
				<g>
					<rect x="0.4" y="178.8" fill="#F4F4F4" width="352.2" height="121.8"/>
				</g>
				<g>
					<path fill="#999999" d="M112.7,193.3H75.6c-1.8,0-3.3-1.5-3.3-3.3v0c0-1.8,1.5-3.3,3.3-3.3h37.1c1.8,0,3.3,1.5,3.3,3.3v0
						C116,191.8,114.5,193.3,112.7,193.3z"/>
				</g>
				<g>
					<path fill="#FFFFFF" d="M170.3,239.2H76.7c-2.2,0-4-1.8-4-4v-29.6c0-2.2,1.8-4,4-4h93.6c2.2,0,4,1.8,4,4v29.6
						C174.3,237.4,172.5,239.2,170.3,239.2z"/>
					<path fill="none" stroke="#CCCCCC" stroke-width="0.211" stroke-miterlimit="10" d="M170.3,239.2H76.7c-2.2,0-4-1.8-4-4v-29.6
						c0-2.2,1.8-4,4-4h93.6c2.2,0,4,1.8,4,4v29.6C174.3,237.4,172.5,239.2,170.3,239.2z"/>
				</g>
				<g>
					<path fill="#FFFFFF" d="M277.1,239.2h-93.6c-2.2,0-4-1.8-4-4v-29.6c0-2.2,1.8-4,4-4h93.6c2.2,0,4,1.8,4,4v29.6
						C281.1,237.4,279.3,239.2,277.1,239.2z"/>
					<path fill="none" stroke="#CCCCCC" stroke-width="0.211" stroke-miterlimit="10" d="M277.1,239.2h-93.6c-2.2,0-4-1.8-4-4v-29.6
						c0-2.2,1.8-4,4-4h93.6c2.2,0,4,1.8,4,4v29.6C281.1,237.4,279.3,239.2,277.1,239.2z"/>
				</g>
				<g>
					<line fill="#CCCCCC" x1="76.7" y1="224.8" x2="170.3" y2="225.7"/>
					
						<line fill="none" stroke="#CCCCCC" stroke-width="1.8768" stroke-linecap="round" stroke-miterlimit="10" x1="76.7" y1="224.8" x2="170.3" y2="225.7"/>
				</g>
				<g>
					<line fill="#CCCCCC" x1="76.7" y1="228.5" x2="170.3" y2="229.4"/>
					
						<line fill="none" stroke="#CCCCCC" stroke-width="1.8768" stroke-linecap="round" stroke-miterlimit="10" x1="76.7" y1="228.5" x2="170.3" y2="229.4"/>
				</g>
				<g>
					<line fill="#CCCCCC" x1="76.7" y1="232.1" x2="170.3" y2="233"/>
					
						<line fill="none" stroke="#CCCCCC" stroke-width="1.8768" stroke-linecap="round" stroke-miterlimit="10" x1="76.7" y1="232.1" x2="170.3" y2="233"/>
				</g>
				<g>
					<path fill="#999999" d="M147.4,212.2H78.2c-1.2,0-2.2-1-2.2-2.2l0,0c0-1.2,1-2.2,2.2-2.2h69.1c1.2,0,2.2,1,2.2,2.2l0,0
						C149.6,211.2,148.6,212.2,147.4,212.2z"/>
				</g>
				<g>
					<path fill="#999999" d="M162.6,218.7H78.2c-1.2,0-2.2-1-2.2-2.2l0,0c0-1.2,1-2.2,2.2-2.2h84.3c1.2,0,2.2,1,2.2,2.2l0,0
						C164.8,217.7,163.8,218.7,162.6,218.7z"/>
				</g>
				<g>
					<line fill="#CCCCCC" x1="183.6" y1="224.8" x2="277.1" y2="225.7"/>
					
						<line fill="none" stroke="#CCCCCC" stroke-width="1.8768" stroke-linecap="round" stroke-miterlimit="10" x1="183.6" y1="224.8" x2="277.1" y2="225.7"/>
				</g>
				<g>
					<line fill="#CCCCCC" x1="183.6" y1="228.5" x2="277.1" y2="229.4"/>
					
						<line fill="none" stroke="#CCCCCC" stroke-width="1.8768" stroke-linecap="round" stroke-miterlimit="10" x1="183.6" y1="228.5" x2="277.1" y2="229.4"/>
				</g>
				<g>
					<line fill="#CCCCCC" x1="183.6" y1="232.1" x2="277.1" y2="233"/>
					
						<line fill="none" stroke="#CCCCCC" stroke-width="1.8768" stroke-linecap="round" stroke-miterlimit="10" x1="183.6" y1="232.1" x2="277.1" y2="233"/>
				</g>
				<g>
					<path fill="#999999" d="M254.2,212.2h-69.1c-1.2,0-2.2-1-2.2-2.2l0,0c0-1.2,1-2.2,2.2-2.2h69.1c1.2,0,2.2,1,2.2,2.2l0,0
						C256.4,211.2,255.4,212.2,254.2,212.2z"/>
				</g>
				<g>
					<path fill="#999999" d="M269.4,218.7h-84.3c-1.2,0-2.2-1-2.2-2.2l0,0c0-1.2,1-2.2,2.2-2.2h84.3c1.2,0,2.2,1,2.2,2.2l0,0
						C271.6,217.7,270.6,218.7,269.4,218.7z"/>
				</g>
				
					<line fill="#CCCCCC" stroke="#CCCCCC" stroke-width="1.8994" stroke-linecap="round" stroke-miterlimit="10" x1="76.7" y1="249.4" x2="119.8" y2="249.4"/>
				
					<line fill="#CCCCCC" stroke="#CCCCCC" stroke-width="1.8994" stroke-linecap="round" stroke-miterlimit="10" x1="183.6" y1="249.4" x2="226.7" y2="249.4"/>
				<g>
					<g>
						<path fill="#FFFFFF" d="M170.3,282.4H76.7c-2.2,0-4-1.8-4-4v-29.6c0-2.2,1.8-4,4-4h93.6c2.2,0,4,1.8,4,4v29.6
							C174.3,280.6,172.5,282.4,170.3,282.4z"/>
						<path fill="none" stroke="#CCCCCC" stroke-width="0.211" stroke-miterlimit="10" d="M170.3,282.4H76.7c-2.2,0-4-1.8-4-4v-29.6
							c0-2.2,1.8-4,4-4h93.6c2.2,0,4,1.8,4,4v29.6C174.3,280.6,172.5,282.4,170.3,282.4z"/>
					</g>
					<g>
						<path fill="#FFFFFF" d="M277.1,282.4h-93.6c-2.2,0-4-1.8-4-4v-29.6c0-2.2,1.8-4,4-4h93.6c2.2,0,4,1.8,4,4v29.6
							C281.1,280.6,279.3,282.4,277.1,282.4z"/>
						<path fill="none" stroke="#CCCCCC" stroke-width="0.211" stroke-miterlimit="10" d="M277.1,282.4h-93.6c-2.2,0-4-1.8-4-4
							v-29.6c0-2.2,1.8-4,4-4h93.6c2.2,0,4,1.8,4,4v29.6C281.1,280.6,279.3,282.4,277.1,282.4z"/>
					</g>
					<g>
						<path fill="#999999" d="M147.4,255.5H78.2c-1.2,0-2.2-1-2.2-2.2l0,0c0-1.2,1-2.2,2.2-2.2h69.1c1.2,0,2.2,1,2.2,2.2l0,0
							C149.6,254.5,148.6,255.5,147.4,255.5z"/>
					</g>
					<g>
						<path fill="#999999" d="M254.2,255.5h-69.1c-1.2,0-2.2-1-2.2-2.2l0,0c0-1.2,1-2.2,2.2-2.2h69.1c1.2,0,2.2,1,2.2,2.2l0,0
							C256.4,254.5,255.4,255.5,254.2,255.5z"/>
					</g>
				</g>
			</g>
			<path clip-path="url(#SVGID_6_)" fill="#CCCCCC" d="M73.6,36.2h51.3c1.1,0,2-0.9,2-2v-3.8c0-1.1-0.9-2-2-2H73.6c-1.1,0-2,0.9-2,2
				v3.8C71.6,35.3,72.5,36.2,73.6,36.2z"/>
			<g clip-path="url(#SVGID_6_)">
				<g>
					<g>
						<path fill="#FFFFFF" d="M249.3,111.2H102.9c-1.1,0-2-0.9-2-2v-8.2c0-1.1,0.9-2,2-2h146.3c1.1,0,2,0.9,2,2v8.2
							C251.3,110.3,250.4,111.2,249.3,111.2z"/>
					</g>
					<path fill="#0072BC" d="M249.8,111.2c0.8,0,1.5-0.7,1.5-1.5v-9.2c0-0.8-0.7-1.5-1.5-1.5H239v12.2H249.8z"/>
					<g>
						<g>
							<path fill="#FFFFFF" d="M246.4,105.9h-0.3l-0.1-0.1c0.3-0.4,0.5-0.9,0.5-1.4c0-1.2-1-2.2-2.2-2.2c-1.2,0-2.2,1-2.2,2.2
								s1,2.2,2.2,2.2c0.6,0,1.1-0.2,1.4-0.5l0.1,0.1v0.3l1.7,1.7l0.5-0.5L246.4,105.9z M244.3,105.9c-0.9,0-1.5-0.7-1.5-1.5
								s0.7-1.5,1.5-1.5c0.9,0,1.5,0.7,1.5,1.5S245.2,105.9,244.3,105.9z"/>
						</g>
					</g>
				</g>
				<path fill="#FFFFFF" d="M127.5,71.5h97.2c3.5,0,6.3-2.8,6.3-6.3v0c0-3.5-2.8-6.3-6.3-6.3h-97.2c-3.5,0-6.3,2.8-6.3,6.3v0
					C121.2,68.7,124,71.5,127.5,71.5z"/>
				<path fill="#FFFFFF" d="M251.2,80.3H100.9c-1,0-1.8-0.8-1.8-1.8v0c0-1,0.8-1.8,1.8-1.8h150.3c1,0,1.8,0.8,1.8,1.8v0
					C253,79.5,252.2,80.3,251.2,80.3z"/>
				<path fill="#FFFFFF" d="M233.7,86.9H118.5c-1,0-1.8-0.8-1.8-1.8l0,0c0-1,0.8-1.8,1.8-1.8h115.3c1,0,1.8,0.8,1.8,1.8l0,0
					C235.5,86.1,234.7,86.9,233.7,86.9z"/>
			</g>
			<g clip-path="url(#SVGID_6_)">
				<g>
					<rect x="0.4" y="131.3" fill="#F4F4F4" width="352.2" height="47.4"/>
				</g>
				<g>
					<g>
						<path fill="#FFFFFF" d="M119.5,153.2H78.9c-2.2,0-4-1.8-4-4V144c0-2.2,1.8-4,4-4h40.6c2.2,0,4,1.8,4,4v5.2
							C123.5,151.5,121.7,153.2,119.5,153.2z"/>
						<path fill="none" stroke="#CCCCCC" stroke-width="0.211" stroke-miterlimit="10" d="M119.5,153.2H78.9c-2.2,0-4-1.8-4-4V144
							c0-2.2,1.8-4,4-4h40.6c2.2,0,4,1.8,4,4v5.2C123.5,151.5,121.7,153.2,119.5,153.2z"/>
					</g>
					<g>
						<path fill="#FFFFFF" d="M171,153.2h-40.6c-2.2,0-4-1.8-4-4V144c0-2.2,1.8-4,4-4H171c2.2,0,4,1.8,4,4v5.2
							C175,151.5,173.2,153.2,171,153.2z"/>
						<path fill="none" stroke="#CCCCCC" stroke-width="0.211" stroke-miterlimit="10" d="M171,153.2h-40.6c-2.2,0-4-1.8-4-4V144
							c0-2.2,1.8-4,4-4H171c2.2,0,4,1.8,4,4v5.2C175,151.5,173.2,153.2,171,153.2z"/>
					</g>
					<g>
						<path fill="#FFFFFF" d="M222.6,153.2H182c-2.2,0-4-1.8-4-4V144c0-2.2,1.8-4,4-4h40.6c2.2,0,4,1.8,4,4v5.2
							C226.6,151.5,224.8,153.2,222.6,153.2z"/>
						<path fill="none" stroke="#CCCCCC" stroke-width="0.211" stroke-miterlimit="10" d="M222.6,153.2H182c-2.2,0-4-1.8-4-4V144
							c0-2.2,1.8-4,4-4h40.6c2.2,0,4,1.8,4,4v5.2C226.6,151.5,224.8,153.2,222.6,153.2z"/>
					</g>
					<g>
						<circle fill="#CCCCCC" cx="81.4" cy="146.6" r="3.3"/>
						<g>
							
								<line fill="#CCCCCC" stroke="#CCCCCC" stroke-width="1.8994" stroke-linecap="round" stroke-miterlimit="10" x1="87.7" y1="144.9" x2="120.2" y2="144.9"/>
							
								<line fill="#CCCCCC" stroke="#CCCCCC" stroke-width="1.8994" stroke-linecap="round" stroke-miterlimit="10" x1="87.7" y1="148.4" x2="110" y2="148.4"/>
						</g>
					</g>
					<g>
						<circle fill="#CCCCCC" cx="133" cy="146.6" r="3.3"/>
						<g>
							
								<line fill="#CCCCCC" stroke="#CCCCCC" stroke-width="1.8994" stroke-linecap="round" stroke-miterlimit="10" x1="139.2" y1="144.9" x2="171.8" y2="144.9"/>
							
								<line fill="#CCCCCC" stroke="#CCCCCC" stroke-width="1.8994" stroke-linecap="round" stroke-miterlimit="10" x1="139.2" y1="148.4" x2="161.5" y2="148.4"/>
						</g>
					</g>
					<g>
						<circle fill="#CCCCCC" cx="184.5" cy="146.6" r="3.3"/>
						<g>
							
								<line fill="#CCCCCC" stroke="#CCCCCC" stroke-width="1.8994" stroke-linecap="round" stroke-miterlimit="10" x1="190.8" y1="144.9" x2="223.3" y2="144.9"/>
							
								<line fill="#CCCCCC" stroke="#CCCCCC" stroke-width="1.8994" stroke-linecap="round" stroke-miterlimit="10" x1="190.8" y1="148.4" x2="213.1" y2="148.4"/>
						</g>
					</g>
					<g>
						<path fill="#FFFFFF" d="M274.1,153.2h-40.6c-2.2,0-4-1.8-4-4V144c0-2.2,1.8-4,4-4h40.6c2.2,0,4,1.8,4,4v5.2
							C278.1,151.5,276.3,153.2,274.1,153.2z"/>
						<path fill="none" stroke="#CCCCCC" stroke-width="0.211" stroke-miterlimit="10" d="M274.1,153.2h-40.6c-2.2,0-4-1.8-4-4V144
							c0-2.2,1.8-4,4-4h40.6c2.2,0,4,1.8,4,4v5.2C278.1,151.5,276.3,153.2,274.1,153.2z"/>
					</g>
					<g>
						<circle fill="#CCCCCC" cx="236.1" cy="146.6" r="3.3"/>
						<g>
							
								<line fill="#CCCCCC" stroke="#CCCCCC" stroke-width="1.8994" stroke-linecap="round" stroke-miterlimit="10" x1="242.3" y1="144.9" x2="274.9" y2="144.9"/>
							
								<line fill="#CCCCCC" stroke="#CCCCCC" stroke-width="1.8994" stroke-linecap="round" stroke-miterlimit="10" x1="242.3" y1="148.4" x2="264.6" y2="148.4"/>
						</g>
					</g>
				</g>
				<g>
					<g>
						<path fill="#FFFFFF" d="M145.3,171.3h-40.6c-2.2,0-4-1.8-4-4v-5.2c0-2.2,1.8-4,4-4h40.6c2.2,0,4,1.8,4,4v5.2
							C149.3,169.5,147.5,171.3,145.3,171.3z"/>
						<path fill="none" stroke="#CCCCCC" stroke-width="0.211" stroke-miterlimit="10" d="M145.3,171.3h-40.6c-2.2,0-4-1.8-4-4v-5.2
							c0-2.2,1.8-4,4-4h40.6c2.2,0,4,1.8,4,4v5.2C149.3,169.5,147.5,171.3,145.3,171.3z"/>
					</g>
					<g>
						<path fill="#FFFFFF" d="M196.8,171.3h-40.6c-2.2,0-4-1.8-4-4v-5.2c0-2.2,1.8-4,4-4h40.6c2.2,0,4,1.8,4,4v5.2
							C200.8,169.5,199,171.3,196.8,171.3z"/>
						<path fill="none" stroke="#CCCCCC" stroke-width="0.211" stroke-miterlimit="10" d="M196.8,171.3h-40.6c-2.2,0-4-1.8-4-4v-5.2
							c0-2.2,1.8-4,4-4h40.6c2.2,0,4,1.8,4,4v5.2C200.8,169.5,199,171.3,196.8,171.3z"/>
					</g>
					<g>
						<path fill="#FFFFFF" d="M248.4,171.3h-40.6c-2.2,0-4-1.8-4-4v-5.2c0-2.2,1.8-4,4-4h40.6c2.2,0,4,1.8,4,4v5.2
							C252.4,169.5,250.6,171.3,248.4,171.3z"/>
						<path fill="none" stroke="#CCCCCC" stroke-width="0.211" stroke-miterlimit="10" d="M248.4,171.3h-40.6c-2.2,0-4-1.8-4-4v-5.2
							c0-2.2,1.8-4,4-4h40.6c2.2,0,4,1.8,4,4v5.2C252.4,169.5,250.6,171.3,248.4,171.3z"/>
					</g>
					<g>
						<circle fill="#CCCCCC" cx="107.2" cy="164.7" r="3.3"/>
						<g>
							
								<line fill="#CCCCCC" stroke="#CCCCCC" stroke-width="1.8994" stroke-linecap="round" stroke-miterlimit="10" x1="113.5" y1="163" x2="146" y2="163"/>
							
								<line fill="#CCCCCC" stroke="#CCCCCC" stroke-width="1.8994" stroke-linecap="round" stroke-miterlimit="10" x1="113.5" y1="166.4" x2="135.7" y2="166.4"/>
						</g>
					</g>
					<g>
						<circle fill="#CCCCCC" cx="158.7" cy="164.7" r="3.3"/>
						<g>
							
								<line fill="#CCCCCC" stroke="#CCCCCC" stroke-width="1.8994" stroke-linecap="round" stroke-miterlimit="10" x1="165" y1="163" x2="197.6" y2="163"/>
							
								<line fill="#CCCCCC" stroke="#CCCCCC" stroke-width="1.8994" stroke-linecap="round" stroke-miterlimit="10" x1="165" y1="166.4" x2="187.3" y2="166.4"/>
						</g>
					</g>
					<g>
						<circle fill="#CCCCCC" cx="210.3" cy="164.7" r="3.3"/>
						<g>
							
								<line fill="#CCCCCC" stroke="#CCCCCC" stroke-width="1.8994" stroke-linecap="round" stroke-miterlimit="10" x1="216.6" y1="163" x2="249.1" y2="163"/>
							
								<line fill="#CCCCCC" stroke="#CCCCCC" stroke-width="1.8994" stroke-linecap="round" stroke-miterlimit="10" x1="216.6" y1="166.4" x2="238.8" y2="166.4"/>
						</g>
					</g>
				</g>
			</g>
		</g>
		<g>
			<defs>
				<path id="SVGID_34_" d="M348.6,349.9H5c-2.4,0-4.3-1.9-4.3-4.3L0.1,4.3C0.1,1.9,2,0,4.4,0H348c2.4,0,4.3,1.9,4.3,4.3l0.6,341.2
					C352.9,347.9,351,349.9,348.6,349.9z"/>
			</defs>
			<clipPath id="SVGID_8_">
				<use xlink:href="#SVGID_34_"  overflow="visible"/>
			</clipPath>
		</g>
	</g>
	<linearGradient id="SVGID_9_" gradientUnits="userSpaceOnUse" x1="176.5" y1="392.188" x2="176.5" y2="131.3458">
		<stop  offset="0.4606" style="stop-color:#FFFFFF"/>
		<stop  offset="1" style="stop-color:#FFFFFF;stop-opacity:0"/>
	</linearGradient>
	<rect x="-6.3" y="131.3" clip-path="url(#SVGID_2_)" fill="url(#SVGID_9_)" width="365.6" height="260.8"/>
</g>
</svg>
