<?xml version="1.0" encoding="utf-8"?>
<!-- Generator: Adobe Illustrator 19.2.1, SVG Export Plug-In . SVG Version: 6.00 Build 0)  -->
<svg version="1.1" id="Capa_1" xmlns="http://www.w3.org/2000/svg" xmlns:xlink="http://www.w3.org/1999/xlink" x="0px" y="0px"
	 viewBox="0 0 353 256" enable-background="new 0 0 353 256" xml:space="preserve">
<g>
	<defs>
		<path id="SVGID_46_" d="M353,256H0V4c0-2.2,1.8-4,4-4h345c2.2,0,4,1.8,4,4V256z"/>
	</defs>
	<clipPath id="SVGID_2_">
		<use xlink:href="#SVGID_46_"  overflow="visible"/>
	</clipPath>
	<g clip-path="url(#SVGID_2_)">
		<g>
			<defs>
				<path id="SVGID_48_" d="M348.6,323.6H5c-2.4,0-4.3-1.9-4.3-4.3L0.1,4.2c0-2.4,1.9-4.3,4.3-4.3H348c2.4,0,4.3,1.9,4.3,4.3
					l0.6,315.1C352.9,321.7,351,323.6,348.6,323.6z"/>
			</defs>
			<clipPath id="SVGID_4_">
				<use xlink:href="#SVGID_48_"  overflow="visible"/>
			</clipPath>
		</g>
		<g>
			<defs>
				<path id="SVGID_50_" d="M348.6,323.6H5c-2.4,0-4.3-1.9-4.3-4.3L0.1,4.2c0-2.4,1.9-4.3,4.3-4.3H348c2.4,0,4.3,1.9,4.3,4.3
					l0.6,315.1C352.9,321.7,351,323.6,348.6,323.6z"/>
			</defs>
			<clipPath id="SVGID_6_">
				<use xlink:href="#SVGID_50_"  overflow="visible"/>
			</clipPath>
			<rect x="0" y="38.5" clip-path="url(#SVGID_6_)" fill="#1E90DA" width="352.3" height="180.5"/>
			
				<line clip-path="url(#SVGID_6_)" fill="none" stroke="#E6E6E6" stroke-width="0.1732" stroke-miterlimit="10" x1="0" y1="38.5" x2="352.2" y2="153.1"/>
			
				<line clip-path="url(#SVGID_6_)" fill="none" stroke="#E6E6E6" stroke-width="0.1732" stroke-miterlimit="10" x1="0" y1="153.1" x2="352.2" y2="38.5"/>
			<rect x="0.3" y="38.5" opacity="0.2" clip-path="url(#SVGID_6_)" fill="#5D5D5D" width="352.3" height="180.5"/>
			<g clip-path="url(#SVGID_6_)">
				<g>
					<g>
						<path fill="#FFFFFF" d="M249.3,111.1H103c-1.1,0-2-0.9-2-2v-8.2c0-1.1,0.9-2,2-2h146.3c1.1,0,2,0.9,2,2v8.2
							C251.3,110.2,250.4,111.1,249.3,111.1z"/>
					</g>
					<path fill="#0072BC" d="M249.9,111.1c0.8,0,1.5-0.7,1.5-1.5v-9.2c0-0.8-0.7-1.5-1.5-1.5h-10.8v12.2H249.9z"/>
					<g>
						<g>
							<path fill="#FFFFFF" d="M246.5,105.8h-0.3l-0.1-0.1c0.3-0.4,0.5-0.9,0.5-1.4c0-1.2-1-2.2-2.2-2.2c-1.2,0-2.2,1-2.2,2.2
								s1,2.2,2.2,2.2c0.6,0,1.1-0.2,1.4-0.5l0.1,0.1v0.3l1.7,1.7l0.5-0.5L246.5,105.8z M244.4,105.8c-0.9,0-1.5-0.7-1.5-1.5
								s0.7-1.5,1.5-1.5c0.9,0,1.5,0.7,1.5,1.5S245.3,105.8,244.4,105.8z"/>
						</g>
					</g>
				</g>
				<path fill="#FFFFFF" d="M127.6,71.4h97.2c3.5,0,6.3-2.8,6.3-6.3v0c0-3.5-2.8-6.3-6.3-6.3l-97.2,0c-3.5,0-6.3,2.8-6.3,6.3v0
					C121.3,68.6,124.1,71.4,127.6,71.4z"/>
				<path fill="#FFFFFF" d="M251.3,80.2H101c-1,0-1.8-0.8-1.8-1.8v0c0-1,0.8-1.8,1.8-1.8h150.3c1,0,1.8,0.8,1.8,1.8v0
					C253.1,79.4,252.3,80.2,251.3,80.2z"/>
				<path fill="#FFFFFF" d="M233.8,86.8H118.5c-1,0-1.8-0.8-1.8-1.8v0c0-1,0.8-1.8,1.8-1.8h115.3c1,0,1.8,0.8,1.8,1.8v0
					C235.6,86,234.8,86.8,233.8,86.8z"/>
			</g>
			<g clip-path="url(#SVGID_6_)">
				<rect x="-0.1" y="121.7" opacity="0.7" fill="#5D5D5D" width="352.3" height="31.7"/>
				<g>
					<path fill="#FFFFFF" d="M182.4,141.4h-12.6c-3.3,0-6-2.7-6-6v-2.9c0-3.3,2.7-6,6-6h12.6c3.3,0,6,2.7,6,6v2.9
						C188.4,138.7,185.7,141.4,182.4,141.4z"/>
					<path fill="#FFFFFF" d="M186.6,148.7h-21.1c-1,0-1.8-0.8-1.8-1.8v0c0-1,0.8-1.8,1.8-1.8h21.1c1,0,1.8,0.8,1.8,1.8v0
						C188.4,147.8,187.6,148.7,186.6,148.7z"/>
				</g>
				<g>
					<path fill="#FFFFFF" d="M224.9,141.4h-12.6c-3.3,0-6-2.7-6-6v-2.9c0-3.3,2.7-6,6-6h12.6c3.3,0,6,2.7,6,6v2.9
						C230.9,138.7,228.2,141.4,224.9,141.4z"/>
					<path fill="#FFFFFF" d="M229.1,148.7h-21.1c-1,0-1.8-0.8-1.8-1.8v0c0-1,0.8-1.8,1.8-1.8h21.1c1,0,1.8,0.8,1.8,1.8v0
						C230.9,147.8,230.1,148.7,229.1,148.7z"/>
				</g>
				<g>
					<path fill="#FFFFFF" d="M139.8,141.4h-12.6c-3.3,0-6-2.7-6-6v-2.9c0-3.3,2.7-6,6-6h12.6c3.3,0,6,2.7,6,6v2.9
						C145.8,138.7,143.1,141.4,139.8,141.4z"/>
					<path fill="#FFFFFF" d="M144,148.7h-21.1c-1,0-1.8-0.8-1.8-1.8v0c0-1,0.8-1.8,1.8-1.8H144c1,0,1.8,0.8,1.8,1.8v0
						C145.8,147.8,145,148.7,144,148.7z"/>
				</g>
			</g>
			<g clip-path="url(#SVGID_6_)">
				<g>
					<rect x="0.4" y="153.4" fill="#F4F4F4" width="352.2" height="121.8"/>
				</g>
				<path fill="#CCCCCC" d="M112.7,167.9H75.6c-1.8,0-3.3-1.5-3.3-3.3v0c0-1.8,1.5-3.3,3.3-3.3h37.1c1.8,0,3.3,1.5,3.3,3.3v0
					C116,166.4,114.5,167.9,112.7,167.9z"/>
				<g>
					<path fill="#FFFFFF" d="M170.3,213.8H76.7c-2.2,0-4-1.8-4-4v-29.6c0-2.2,1.8-4,4-4h93.6c2.2,0,4,1.8,4,4v29.6
						C174.3,212,172.5,213.8,170.3,213.8z"/>
					<path fill="none" stroke="#CCCCCC" stroke-width="0.1834" stroke-miterlimit="10" d="M170.3,213.8H76.7c-2.2,0-4-1.8-4-4v-29.6
						c0-2.2,1.8-4,4-4h93.6c2.2,0,4,1.8,4,4v29.6C174.3,212,172.5,213.8,170.3,213.8z"/>
				</g>
				<g>
					<path fill="#FFFFFF" d="M277.1,213.8h-93.6c-2.2,0-4-1.8-4-4v-29.6c0-2.2,1.8-4,4-4h93.6c2.2,0,4,1.8,4,4v29.6
						C281.1,212,279.3,213.8,277.1,213.8z"/>
					<path fill="none" stroke="#CCCCCC" stroke-width="0.1834" stroke-miterlimit="10" d="M277.1,213.8h-93.6c-2.2,0-4-1.8-4-4
						v-29.6c0-2.2,1.8-4,4-4h93.6c2.2,0,4,1.8,4,4v29.6C281.1,212,279.3,213.8,277.1,213.8z"/>
				</g>
				<g>
					<line fill="#CCCCCC" x1="76.7" y1="199.5" x2="170.3" y2="200.4"/>
					
						<line fill="none" stroke="#CCCCCC" stroke-width="1.6311" stroke-linecap="round" stroke-miterlimit="10" x1="76.7" y1="199.5" x2="170.3" y2="200.4"/>
				</g>
				<g>
					<line fill="#CCCCCC" x1="76.7" y1="203.1" x2="170.3" y2="204"/>
					
						<line fill="none" stroke="#CCCCCC" stroke-width="1.6311" stroke-linecap="round" stroke-miterlimit="10" x1="76.7" y1="203.1" x2="170.3" y2="204"/>
				</g>
				<g>
					<line fill="#CCCCCC" x1="76.7" y1="206.7" x2="170.3" y2="207.6"/>
					
						<line fill="none" stroke="#CCCCCC" stroke-width="1.6311" stroke-linecap="round" stroke-miterlimit="10" x1="76.7" y1="206.7" x2="170.3" y2="207.6"/>
				</g>
				<g>
					<path fill="#999999" d="M147.4,186.9H78.2c-1.2,0-2.2-1-2.2-2.2l0,0c0-1.2,1-2.2,2.2-2.2h69.1c1.2,0,2.2,1,2.2,2.2l0,0
						C149.6,185.9,148.6,186.9,147.4,186.9z"/>
				</g>
				<g>
					<path fill="#999999" d="M162.6,193.3H78.2c-1.2,0-2.2-1-2.2-2.2l0,0c0-1.2,1-2.2,2.2-2.2h84.3c1.2,0,2.2,1,2.2,2.2l0,0
						C164.8,192.3,163.8,193.3,162.6,193.3z"/>
				</g>
				<g>
					<line fill="#CCCCCC" x1="183.6" y1="199.5" x2="277.1" y2="200.4"/>
					
						<line fill="none" stroke="#CCCCCC" stroke-width="1.6311" stroke-linecap="round" stroke-miterlimit="10" x1="183.6" y1="199.5" x2="277.1" y2="200.4"/>
				</g>
				<g>
					<line fill="#CCCCCC" x1="183.6" y1="203.1" x2="277.1" y2="204"/>
					
						<line fill="none" stroke="#CCCCCC" stroke-width="1.6311" stroke-linecap="round" stroke-miterlimit="10" x1="183.6" y1="203.1" x2="277.1" y2="204"/>
				</g>
				<g>
					<line fill="#CCCCCC" x1="183.6" y1="206.7" x2="277.1" y2="207.6"/>
					
						<line fill="none" stroke="#CCCCCC" stroke-width="1.6311" stroke-linecap="round" stroke-miterlimit="10" x1="183.6" y1="206.7" x2="277.1" y2="207.6"/>
				</g>
				<g>
					<path fill="#999999" d="M254.2,186.9h-69.1c-1.2,0-2.2-1-2.2-2.2l0,0c0-1.2,1-2.2,2.2-2.2h69.1c1.2,0,2.2,1,2.2,2.2l0,0
						C256.4,185.9,255.4,186.9,254.2,186.9z"/>
				</g>
				<g>
					<path fill="#999999" d="M269.4,193.3h-84.3c-1.2,0-2.2-1-2.2-2.2l0,0c0-1.2,1-2.2,2.2-2.2h84.3c1.2,0,2.2,1,2.2,2.2l0,0
						C271.6,192.3,270.6,193.3,269.4,193.3z"/>
				</g>
				
					<line fill="#CCCCCC" stroke="#CCCCCC" stroke-width="1.6508" stroke-linecap="round" stroke-miterlimit="10" x1="76.7" y1="224" x2="119.8" y2="224"/>
				
					<line fill="#CCCCCC" stroke="#CCCCCC" stroke-width="1.6508" stroke-linecap="round" stroke-miterlimit="10" x1="183.6" y1="224" x2="226.7" y2="224"/>
				<g>
					<g>
						<path fill="#FFFFFF" d="M170.3,257.1H76.7c-2.2,0-4-1.8-4-4v-29.6c0-2.2,1.8-4,4-4h93.6c2.2,0,4,1.8,4,4v29.6
							C174.3,255.3,172.5,257.1,170.3,257.1z"/>
						<path fill="none" stroke="#CCCCCC" stroke-width="0.1834" stroke-miterlimit="10" d="M170.3,257.1H76.7c-2.2,0-4-1.8-4-4
							v-29.6c0-2.2,1.8-4,4-4h93.6c2.2,0,4,1.8,4,4v29.6C174.3,255.3,172.5,257.1,170.3,257.1z"/>
					</g>
					<g>
						<path fill="#FFFFFF" d="M277.1,257.1h-93.6c-2.2,0-4-1.8-4-4v-29.6c0-2.2,1.8-4,4-4h93.6c2.2,0,4,1.8,4,4v29.6
							C281.1,255.3,279.3,257.1,277.1,257.1z"/>
						<path fill="none" stroke="#CCCCCC" stroke-width="0.1834" stroke-miterlimit="10" d="M277.1,257.1h-93.6c-2.2,0-4-1.8-4-4
							v-29.6c0-2.2,1.8-4,4-4h93.6c2.2,0,4,1.8,4,4v29.6C281.1,255.3,279.3,257.1,277.1,257.1z"/>
					</g>
					<g>
						<line fill="#CCCCCC" x1="76.7" y1="242.7" x2="170.3" y2="243.6"/>
						
							<line fill="none" stroke="#CCCCCC" stroke-width="1.6311" stroke-linecap="round" stroke-miterlimit="10" x1="76.7" y1="242.7" x2="170.3" y2="243.6"/>
					</g>
					<g>
						<line fill="#CCCCCC" x1="76.7" y1="246.4" x2="170.3" y2="247.3"/>
						
							<line fill="none" stroke="#CCCCCC" stroke-width="1.6311" stroke-linecap="round" stroke-miterlimit="10" x1="76.7" y1="246.4" x2="170.3" y2="247.3"/>
					</g>
					<g>
						<line fill="#CCCCCC" x1="76.7" y1="250" x2="170.3" y2="250.9"/>
						
							<line fill="none" stroke="#CCCCCC" stroke-width="1.6311" stroke-linecap="round" stroke-miterlimit="10" x1="76.7" y1="250" x2="170.3" y2="250.9"/>
					</g>
					<g>
						<path fill="#999999" d="M147.4,230.1H78.2c-1.2,0-2.2-1-2.2-2.2l0,0c0-1.2,1-2.2,2.2-2.2h69.1c1.2,0,2.2,1,2.2,2.2l0,0
							C149.6,229.1,148.6,230.1,147.4,230.1z"/>
					</g>
					<g>
						<path fill="#999999" d="M162.6,236.6H78.2c-1.2,0-2.2-1-2.2-2.2l0,0c0-1.2,1-2.2,2.2-2.2h84.3c1.2,0,2.2,1,2.2,2.2l0,0
							C164.8,235.6,163.8,236.6,162.6,236.6z"/>
					</g>
					<g>
						<line fill="#CCCCCC" x1="183.6" y1="242.7" x2="277.1" y2="243.6"/>
						
							<line fill="none" stroke="#CCCCCC" stroke-width="1.6311" stroke-linecap="round" stroke-miterlimit="10" x1="183.6" y1="242.7" x2="277.1" y2="243.6"/>
					</g>
					<g>
						<line fill="#CCCCCC" x1="183.6" y1="246.4" x2="277.1" y2="247.3"/>
						
							<line fill="none" stroke="#CCCCCC" stroke-width="1.6311" stroke-linecap="round" stroke-miterlimit="10" x1="183.6" y1="246.4" x2="277.1" y2="247.3"/>
					</g>
					<g>
						<line fill="#CCCCCC" x1="183.6" y1="250" x2="277.1" y2="250.9"/>
						
							<line fill="none" stroke="#CCCCCC" stroke-width="1.6311" stroke-linecap="round" stroke-miterlimit="10" x1="183.6" y1="250" x2="277.1" y2="250.9"/>
					</g>
					<g>
						<path fill="#999999" d="M254.2,230.1h-69.1c-1.2,0-2.2-1-2.2-2.2l0,0c0-1.2,1-2.2,2.2-2.2h69.1c1.2,0,2.2,1,2.2,2.2l0,0
							C256.4,229.1,255.4,230.1,254.2,230.1z"/>
					</g>
					<g>
						<path fill="#999999" d="M269.4,236.6h-84.3c-1.2,0-2.2-1-2.2-2.2l0,0c0-1.2,1-2.2,2.2-2.2h84.3c1.2,0,2.2,1,2.2,2.2l0,0
							C271.6,235.6,270.6,236.6,269.4,236.6z"/>
					</g>
				</g>
			</g>
			<g clip-path="url(#SVGID_6_)">
				<g>
					<rect x="0.1" y="-0.2" fill="#CCCCCC" width="352.1" height="25.8"/>
					<circle fill="#FB635E" cx="5" cy="5.2" r="1.7"/>
					<circle fill="#EEA126" cx="10.5" cy="5.2" r="1.7"/>
					<circle fill="#35CA4A" cx="16" cy="5.2" r="1.7"/>
					<path fill="#E6E6E6" d="M84.8,10c0,0-1.3,0.2-1.9-1.1s-1.7-4.4-1.7-4.4S80.6,3,79.4,3c-1.2,0-11.7,0-11.7,0h-1.9
						c0,0-10.3,0-11.5,0s-1.8,1.4-1.8,1.4s-1.1,3.1-1.7,4.4c-0.6,1.3-1.9,1.1-1.9,1.1"/>
					<path fill="#E6E6E6" d="M54.8,10c0,0-1.3,0.2-1.9-1.1c-0.6-1.3-1.7-4.4-1.7-4.4S50.6,3,49.5,3S37.8,3,37.8,3h-1.9
						c0,0-10.3,0-11.5,0s-1.8,1.4-1.8,1.4s-1.1,3.1-1.7,4.4S18.9,10,18.9,10"/>
					<g>
						<rect x="0.1" y="10" fill="#E6E6E6" width="352.1" height="15.7"/>
					</g>
					<path fill="#F2F2F2" d="M305.1,19.2H27.4c-1.1,0-2-0.9-2-2v-3.3c0-1.1,0.9-2,2-2h277.7c1.1,0,2,0.9,2,2v3.3
						C307.1,18.3,306.2,19.2,305.1,19.2z"/>
				</g>
				<g>
					<path fill="#999999" d="M25.6,8.4L25.6,8.4c-1,0-1.8-0.8-1.8-1.8v0c0-1,0.8-1.8,1.8-1.8h0c1,0,1.8,0.8,1.8,1.8v0
						C27.5,7.6,26.6,8.4,25.6,8.4z"/>
				</g>
				
					<line fill="#999999" stroke="#999999" stroke-width="1.7382" stroke-linecap="round" stroke-linejoin="round" stroke-miterlimit="10" x1="30.2" y1="6.6" x2="48.3" y2="6.6"/>
			</g>
			<g clip-path="url(#SVGID_6_)">
				<g>
					<rect x="0.1" y="25.7" fill="#FFFFFF" width="352.2" height="12.8"/>
				</g>
				
					<line fill="#0072BC" stroke="#0072BC" stroke-width="2.201" stroke-linecap="round" stroke-miterlimit="10" x1="265.5" y1="32.1" x2="277.1" y2="32.1"/>
				
					<line fill="#0072BC" stroke="#0072BC" stroke-width="2.201" stroke-linecap="round" stroke-miterlimit="10" x1="248" y1="32.1" x2="259.6" y2="32.1"/>
				
					<line fill="#0072BC" stroke="#0072BC" stroke-width="2.201" stroke-linecap="round" stroke-miterlimit="10" x1="230.6" y1="32.1" x2="242.2" y2="32.1"/>
			</g>
			<path clip-path="url(#SVGID_6_)" fill="#CCCCCC" d="M73.6,36h51.3c1.1,0,2-0.9,2-2v-3.8c0-1.1-0.9-2-2-2H73.6c-1.1,0-2,0.9-2,2
				V34C71.6,35.1,72.5,36,73.6,36z"/>
		</g>
		<g>
			<defs>
				<path id="SVGID_52_" d="M348.6,323.6H5c-2.4,0-4.3-1.9-4.3-4.3L0.1,4.2c0-2.4,1.9-4.3,4.3-4.3H348c2.4,0,4.3,1.9,4.3,4.3
					l0.6,315.1C352.9,321.7,351,323.6,348.6,323.6z"/>
			</defs>
			<clipPath id="SVGID_8_">
				<use xlink:href="#SVGID_52_"  overflow="visible"/>
			</clipPath>
		</g>
	</g>
	<linearGradient id="SVGID_9_" gradientUnits="userSpaceOnUse" x1="176.5" y1="392.0376" x2="176.5" y2="131.1954">
		<stop  offset="0.4606" style="stop-color:#FFFFFF"/>
		<stop  offset="1" style="stop-color:#FFFFFF;stop-opacity:0"/>
	</linearGradient>
	<rect x="-6.3" y="131.2" clip-path="url(#SVGID_2_)" fill="url(#SVGID_9_)" width="365.6" height="260.8"/>
</g>
</svg>
