<?xml version="1.0" encoding="utf-8"?>
<!-- Generator: Adobe Illustrator 19.2.1, SVG Export Plug-In . SVG Version: 6.00 Build 0)  -->
<svg version="1.1" id="Capa_1" xmlns="http://www.w3.org/2000/svg" xmlns:xlink="http://www.w3.org/1999/xlink" x="0px" y="0px"
	 viewBox="0 0 353 256" enable-background="new 0 0 353 256" xml:space="preserve">
<g>
	<defs>
		<path id="SVGID_19_" d="M353,256H0V4c0-2.2,1.8-4,4-4h345c2.2,0,4,1.8,4,4V256z"/>
	</defs>
	<clipPath id="SVGID_2_">
		<use xlink:href="#SVGID_19_"  overflow="visible"/>
	</clipPath>
	<g clip-path="url(#SVGID_2_)">
		<g>
			<defs>
				<path id="SVGID_21_" d="M348.6,377.2H5c-2.4,0-4.3-1.9-4.3-4.3L0.1,4.3C0.1,1.9,2,0,4.4,0H348c2.4,0,4.3,1.9,4.3,4.3l0.6,368.5
					C352.9,375.3,351,377.2,348.6,377.2z"/>
			</defs>
			<clipPath id="SVGID_4_">
				<use xlink:href="#SVGID_21_"  overflow="visible"/>
			</clipPath>
		</g>
		<g>
			<defs>
				<path id="SVGID_23_" d="M348.6,377.2H5c-2.4,0-4.3-1.9-4.3-4.3L0.1,4.3C0.1,1.9,2,0,4.4,0H348c2.4,0,4.3,1.9,4.3,4.3l0.6,368.5
					C352.9,375.3,351,377.2,348.6,377.2z"/>
			</defs>
			<clipPath id="SVGID_6_">
				<use xlink:href="#SVGID_23_"  overflow="visible"/>
			</clipPath>
			<rect x="0" y="38.7" clip-path="url(#SVGID_6_)" fill="#1E90DA" width="352.3" height="92.8"/>
			
				<line clip-path="url(#SVGID_6_)" fill="none" stroke="#E6E6E6" stroke-width="0.1806" stroke-miterlimit="10" x1="0" y1="38.7" x2="352.2" y2="132.7"/>
			
				<line clip-path="url(#SVGID_6_)" fill="none" stroke="#E6E6E6" stroke-width="0.1806" stroke-miterlimit="10" x1="0" y1="132.7" x2="352.2" y2="38.7"/>
			<rect x="0" y="38.7" opacity="0.2" clip-path="url(#SVGID_6_)" fill="#5D5D5D" width="352.3" height="92.8"/>
			<g clip-path="url(#SVGID_6_)">
				<g>
					<rect x="0.1" fill="#CCCCCC" width="352.1" height="25.8"/>
					<circle fill="#FB635E" cx="5.7" cy="5.3" r="1.7"/>
					<circle fill="#EEA126" cx="11.2" cy="5.3" r="1.7"/>
					<circle fill="#35CA4A" cx="16.7" cy="5.3" r="1.7"/>
					<path fill="#E6E6E6" d="M85.4,10.1c0,0-1.3,0.2-1.9-1.1c-0.6-1.3-1.7-4-1.7-4s-0.6-1-1.8-1S68.4,4,68.4,4h-1.9
						c0,0-10.3,0-11.5,0s-1.8,1-1.8,1s-1.1,2.9-1.7,4.2c-0.6,1.3-1.9,1-1.9,1"/>
					<path fill="#E6E6E6" d="M55.4,10.1c0,0-1.3,0.2-1.9-1.1c-0.6-1.3-1.7-4-1.7-4s-0.6-1-1.8-1S38.5,4,38.5,4h-1.9
						c0,0-10.3,0-11.5,0s-1.8,1-1.8,1s-1.1,2.9-1.7,4.2s-1.9,1-1.9,1"/>
					<g>
						<rect x="0.1" y="10.1" fill="#E6E6E6" width="352.1" height="15.7"/>
					</g>
					<path fill="#F2F2F2" d="M305.1,19.3H27.4c-1.1,0-2-0.9-2-2V14c0-1.1,0.9-2,2-2h277.7c1.1,0,2,0.9,2,2v3.3
						C307.1,18.4,306.2,19.3,305.1,19.3z"/>
				</g>
				<g>
					<path fill="#999999" d="M25.6,8.6L25.6,8.6c-1,0-1.8-0.8-1.8-1.8v0c0-1,0.8-1.8,1.8-1.8h0c1,0,1.8,0.8,1.8,1.8v0
						C27.5,7.7,26.6,8.6,25.6,8.6z"/>
				</g>
				
					<line fill="#999999" stroke="#999999" stroke-width="2" stroke-linecap="round" stroke-linejoin="round" stroke-miterlimit="10" x1="30.2" y1="6.7" x2="48.3" y2="6.7"/>
			</g>
			<g clip-path="url(#SVGID_6_)">
				<g>
					<rect x="0.1" y="25.8" fill="#FFFFFF" width="352.2" height="12.8"/>
				</g>
				
					<line fill="#0072BC" stroke="#0072BC" stroke-width="2.5325" stroke-linecap="round" stroke-miterlimit="10" x1="265.5" y1="32.3" x2="277.1" y2="32.3"/>
				
					<line fill="#0072BC" stroke="#0072BC" stroke-width="2.5325" stroke-linecap="round" stroke-miterlimit="10" x1="248" y1="32.3" x2="259.6" y2="32.3"/>
				
					<line fill="#0072BC" stroke="#0072BC" stroke-width="2.5325" stroke-linecap="round" stroke-miterlimit="10" x1="230.6" y1="32.3" x2="242.2" y2="32.3"/>
			</g>
			<path clip-path="url(#SVGID_6_)" fill="#CCCCCC" d="M73.6,36.2h51.3c1.1,0,2-0.9,2-2v-3.8c0-1.1-0.9-2-2-2H73.6c-1.1,0-2,0.9-2,2
				v3.8C71.6,35.3,72.5,36.2,73.6,36.2z"/>
			<g clip-path="url(#SVGID_6_)">
				<g>
					<g>
						<path fill="#FFFFFF" d="M220.9,111.2H74.5c-1.1,0-2-0.9-2-2v-8.2c0-1.1,0.9-2,2-2h146.3c1.1,0,2,0.9,2,2v8.2
							C222.9,110.3,222,111.2,220.9,111.2z"/>
					</g>
					<path fill="#0072BC" d="M221.4,111.2c0.8,0,1.5-0.7,1.5-1.5v-9.2c0-0.8-0.7-1.5-1.5-1.5h-10.8v12.2H221.4z"/>
					<g>
						<g>
							<path fill="#FFFFFF" d="M218,105.9h-0.3l-0.1-0.1c0.3-0.4,0.5-0.9,0.5-1.4c0-1.2-1-2.2-2.2-2.2c-1.2,0-2.2,1-2.2,2.2
								s1,2.2,2.2,2.2c0.6,0,1.1-0.2,1.4-0.5l0.1,0.1v0.3l1.7,1.7l0.5-0.5L218,105.9z M216,105.9c-0.9,0-1.5-0.7-1.5-1.5
								s0.7-1.5,1.5-1.5c0.9,0,1.5,0.7,1.5,1.5S216.8,105.9,216,105.9z"/>
						</g>
					</g>
				</g>
				<path fill="#FFFFFF" d="M78.8,71.5H176c3.5,0,6.3-2.8,6.3-6.3v0c0-3.5-2.8-6.3-6.3-6.3H78.8c-3.5,0-6.3,2.8-6.3,6.3v0
					C72.5,68.7,75.4,71.5,78.8,71.5z"/>
				<path fill="#FFFFFF" d="M224.6,80.3H74.3c-1,0-1.8-0.8-1.8-1.8v0c0-1,0.8-1.8,1.8-1.8h150.3c1,0,1.8,0.8,1.8,1.8v0
					C226.4,79.5,225.6,80.3,224.6,80.3z"/>
				<path fill="#FFFFFF" d="M189.6,86.9H74.3c-1,0-1.8-0.8-1.8-1.8l0,0c0-1,0.8-1.8,1.8-1.8h115.3c1,0,1.8,0.8,1.8,1.8l0,0
					C191.4,86.1,190.6,86.9,189.6,86.9z"/>
				<g>
					<path fill="#FFFFFF" d="M272.3,104h-12.6c-3.3,0-6-2.7-6-6v-2.9c0-3.3,2.7-6,6-6h12.6c3.3,0,6,2.7,6,6V98
						C278.3,101.3,275.7,104,272.3,104z"/>
					<path fill="#FFFFFF" d="M276.5,111.2l-21.1,0c-1,0-1.8-0.8-1.8-1.8l0,0c0-1,0.8-1.8,1.8-1.8h21.1c1,0,1.8,0.8,1.8,1.8l0,0
						C278.3,110.4,277.5,111.2,276.5,111.2z"/>
				</g>
			</g>
			<g clip-path="url(#SVGID_6_)">
				<g>
					<rect x="0.4" y="206.5" fill="#F4F4F4" width="352.2" height="121.8"/>
				</g>
				<path fill="#CCCCCC" d="M112.7,221H75.6c-1.8,0-3.3-1.5-3.3-3.3l0,0c0-1.8,1.5-3.3,3.3-3.3h37.1c1.8,0,3.3,1.5,3.3,3.3l0,0
					C116,219.5,114.5,221,112.7,221z"/>
				<g>
					<path fill="#FFFFFF" d="M170.3,266.9H76.7c-2.2,0-4-1.8-4-4v-29.6c0-2.2,1.8-4,4-4h93.6c2.2,0,4,1.8,4,4v29.6
						C174.3,265.1,172.5,266.9,170.3,266.9z"/>
					<path fill="none" stroke="#CCCCCC" stroke-width="0.211" stroke-miterlimit="10" d="M170.3,266.9H76.7c-2.2,0-4-1.8-4-4v-29.6
						c0-2.2,1.8-4,4-4h93.6c2.2,0,4,1.8,4,4v29.6C174.3,265.1,172.5,266.9,170.3,266.9z"/>
				</g>
				<g>
					<path fill="#FFFFFF" d="M277.1,266.9h-93.6c-2.2,0-4-1.8-4-4v-29.6c0-2.2,1.8-4,4-4h93.6c2.2,0,4,1.8,4,4v29.6
						C281.1,265.1,279.3,266.9,277.1,266.9z"/>
					<path fill="none" stroke="#CCCCCC" stroke-width="0.211" stroke-miterlimit="10" d="M277.1,266.9h-93.6c-2.2,0-4-1.8-4-4v-29.6
						c0-2.2,1.8-4,4-4h93.6c2.2,0,4,1.8,4,4v29.6C281.1,265.1,279.3,266.9,277.1,266.9z"/>
				</g>
				<g>
					<line fill="#CCCCCC" x1="76.7" y1="252.6" x2="170.3" y2="253.5"/>
					
						<line fill="none" stroke="#CCCCCC" stroke-width="1.8768" stroke-linecap="round" stroke-miterlimit="10" x1="76.7" y1="252.6" x2="170.3" y2="253.5"/>
				</g>
				<g>
					
						<line fill="none" stroke="#CCCCCC" stroke-width="1.8768" stroke-linecap="round" stroke-miterlimit="10" x1="76.7" y1="256.2" x2="170.3" y2="257.1"/>
				</g>
				<g>
					<path fill="#999999" d="M147.4,240H78.2c-1.2,0-2.2-1-2.2-2.2v0c0-1.2,1-2.2,2.2-2.2h69.1c1.2,0,2.2,1,2.2,2.2v0
						C149.6,239,148.6,240,147.4,240z"/>
				</g>
				<g>
					<path fill="#999999" d="M162.6,246.5H78.2c-1.2,0-2.2-1-2.2-2.2v0c0-1.2,1-2.2,2.2-2.2h84.3c1.2,0,2.2,1,2.2,2.2v0
						C164.8,245.5,163.8,246.5,162.6,246.5z"/>
				</g>
				<g>
					<line fill="#CCCCCC" x1="183.6" y1="252.6" x2="277.1" y2="253.5"/>
					
						<line fill="none" stroke="#CCCCCC" stroke-width="1.8768" stroke-linecap="round" stroke-miterlimit="10" x1="183.6" y1="252.6" x2="277.1" y2="253.5"/>
				</g>
				<g>
					
						<line fill="none" stroke="#CCCCCC" stroke-width="1.8768" stroke-linecap="round" stroke-miterlimit="10" x1="183.6" y1="256.2" x2="277.1" y2="257.1"/>
				</g>
				<g>
					<path fill="#999999" d="M254.2,240h-69.1c-1.2,0-2.2-1-2.2-2.2v0c0-1.2,1-2.2,2.2-2.2h69.1c1.2,0,2.2,1,2.2,2.2v0
						C256.4,239,255.4,240,254.2,240z"/>
				</g>
				<g>
					<path fill="#999999" d="M269.4,246.5h-84.3c-1.2,0-2.2-1-2.2-2.2v0c0-1.2,1-2.2,2.2-2.2h84.3c1.2,0,2.2,1,2.2,2.2v0
						C271.6,245.5,270.6,246.5,269.4,246.5z"/>
				</g>
			</g>
			<g clip-path="url(#SVGID_6_)">
				<rect x="0.4" y="131.3" fill="#F5F5F5" width="352.2" height="75.2"/>
				<g>
					<g>
						<g>
							<path fill="#FFFFFF" d="M119.5,166.5H78.9c-2.2,0-4-1.8-4-4v-5.2c0-2.2,1.8-4,4-4h40.6c2.2,0,4,1.8,4,4v5.2
								C123.5,164.7,121.7,166.5,119.5,166.5z"/>
							<path fill="none" stroke="#CCCCCC" stroke-width="0.211" stroke-miterlimit="10" d="M119.5,166.5H78.9c-2.2,0-4-1.8-4-4v-5.2
								c0-2.2,1.8-4,4-4h40.6c2.2,0,4,1.8,4,4v5.2C123.5,164.7,121.7,166.5,119.5,166.5z"/>
						</g>
						<g>
							<path fill="#FFFFFF" d="M171,166.5h-40.6c-2.2,0-4-1.8-4-4v-5.2c0-2.2,1.8-4,4-4H171c2.2,0,4,1.8,4,4v5.2
								C175,164.7,173.2,166.5,171,166.5z"/>
							<path fill="none" stroke="#CCCCCC" stroke-width="0.211" stroke-miterlimit="10" d="M171,166.5h-40.6c-2.2,0-4-1.8-4-4v-5.2
								c0-2.2,1.8-4,4-4H171c2.2,0,4,1.8,4,4v5.2C175,164.7,173.2,166.5,171,166.5z"/>
						</g>
						<g>
							<path fill="#FFFFFF" d="M222.6,166.5H182c-2.2,0-4-1.8-4-4v-5.2c0-2.2,1.8-4,4-4h40.6c2.2,0,4,1.8,4,4v5.2
								C226.6,164.7,224.8,166.5,222.6,166.5z"/>
							<path fill="none" stroke="#CCCCCC" stroke-width="0.211" stroke-miterlimit="10" d="M222.6,166.5H182c-2.2,0-4-1.8-4-4v-5.2
								c0-2.2,1.8-4,4-4h40.6c2.2,0,4,1.8,4,4v5.2C226.6,164.7,224.8,166.5,222.6,166.5z"/>
						</g>
						<g>
							<circle fill="#CCCCCC" cx="81.4" cy="159.9" r="3.3"/>
							<g>
								
									<line fill="#CCCCCC" stroke="#CCCCCC" stroke-width="1.8994" stroke-linecap="round" stroke-miterlimit="10" x1="87.7" y1="158.2" x2="120.2" y2="158.2"/>
								
									<line fill="#CCCCCC" stroke="#CCCCCC" stroke-width="1.8994" stroke-linecap="round" stroke-miterlimit="10" x1="87.7" y1="161.6" x2="110" y2="161.6"/>
							</g>
						</g>
						<g>
							<circle fill="#CCCCCC" cx="133" cy="159.9" r="3.3"/>
							<g>
								
									<line fill="#CCCCCC" stroke="#CCCCCC" stroke-width="1.8994" stroke-linecap="round" stroke-miterlimit="10" x1="139.2" y1="158.2" x2="171.8" y2="158.2"/>
								
									<line fill="#CCCCCC" stroke="#CCCCCC" stroke-width="1.8994" stroke-linecap="round" stroke-miterlimit="10" x1="139.2" y1="161.6" x2="161.5" y2="161.6"/>
							</g>
						</g>
						<g>
							<circle fill="#CCCCCC" cx="184.5" cy="159.9" r="3.3"/>
							<g>
								
									<line fill="#CCCCCC" stroke="#CCCCCC" stroke-width="1.8994" stroke-linecap="round" stroke-miterlimit="10" x1="190.8" y1="158.2" x2="223.3" y2="158.2"/>
								
									<line fill="#CCCCCC" stroke="#CCCCCC" stroke-width="1.8994" stroke-linecap="round" stroke-miterlimit="10" x1="190.8" y1="161.6" x2="213.1" y2="161.6"/>
							</g>
						</g>
						<g>
							<path fill="#FFFFFF" d="M274.1,166.5h-40.6c-2.2,0-4-1.8-4-4v-5.2c0-2.2,1.8-4,4-4h40.6c2.2,0,4,1.8,4,4v5.2
								C278.1,164.7,276.3,166.5,274.1,166.5z"/>
							<path fill="none" stroke="#CCCCCC" stroke-width="0.211" stroke-miterlimit="10" d="M274.1,166.5h-40.6c-2.2,0-4-1.8-4-4
								v-5.2c0-2.2,1.8-4,4-4h40.6c2.2,0,4,1.8,4,4v5.2C278.1,164.7,276.3,166.5,274.1,166.5z"/>
						</g>
						<g>
							<circle fill="#CCCCCC" cx="236.1" cy="159.9" r="3.3"/>
							<g>
								
									<line fill="#CCCCCC" stroke="#CCCCCC" stroke-width="1.8994" stroke-linecap="round" stroke-miterlimit="10" x1="242.3" y1="158.2" x2="274.9" y2="158.2"/>
								
									<line fill="#CCCCCC" stroke="#CCCCCC" stroke-width="1.8994" stroke-linecap="round" stroke-miterlimit="10" x1="242.3" y1="161.6" x2="264.6" y2="161.6"/>
							</g>
						</g>
					</g>
					<g>
						<g>
							<path fill="#FFFFFF" d="M145.3,184.6h-40.6c-2.2,0-4-1.8-4-4v-5.2c0-2.2,1.8-4,4-4h40.6c2.2,0,4,1.8,4,4v5.2
								C149.3,182.8,147.5,184.6,145.3,184.6z"/>
							<path fill="none" stroke="#CCCCCC" stroke-width="0.211" stroke-miterlimit="10" d="M145.3,184.6h-40.6c-2.2,0-4-1.8-4-4
								v-5.2c0-2.2,1.8-4,4-4h40.6c2.2,0,4,1.8,4,4v5.2C149.3,182.8,147.5,184.6,145.3,184.6z"/>
						</g>
						<g>
							<path fill="#FFFFFF" d="M196.8,184.6h-40.6c-2.2,0-4-1.8-4-4v-5.2c0-2.2,1.8-4,4-4h40.6c2.2,0,4,1.8,4,4v5.2
								C200.8,182.8,199,184.6,196.8,184.6z"/>
							<path fill="none" stroke="#CCCCCC" stroke-width="0.211" stroke-miterlimit="10" d="M196.8,184.6h-40.6c-2.2,0-4-1.8-4-4
								v-5.2c0-2.2,1.8-4,4-4h40.6c2.2,0,4,1.8,4,4v5.2C200.8,182.8,199,184.6,196.8,184.6z"/>
						</g>
						<g>
							<path fill="#FFFFFF" d="M248.4,184.6h-40.6c-2.2,0-4-1.8-4-4v-5.2c0-2.2,1.8-4,4-4h40.6c2.2,0,4,1.8,4,4v5.2
								C252.4,182.8,250.6,184.6,248.4,184.6z"/>
							<path fill="none" stroke="#CCCCCC" stroke-width="0.211" stroke-miterlimit="10" d="M248.4,184.6h-40.6c-2.2,0-4-1.8-4-4
								v-5.2c0-2.2,1.8-4,4-4h40.6c2.2,0,4,1.8,4,4v5.2C252.4,182.8,250.6,184.6,248.4,184.6z"/>
						</g>
						<g>
							<circle fill="#CCCCCC" cx="107.2" cy="178" r="3.3"/>
							<g>
								
									<line fill="#CCCCCC" stroke="#CCCCCC" stroke-width="1.8994" stroke-linecap="round" stroke-miterlimit="10" x1="113.5" y1="176.2" x2="146" y2="176.2"/>
								
									<line fill="#CCCCCC" stroke="#CCCCCC" stroke-width="1.8994" stroke-linecap="round" stroke-miterlimit="10" x1="113.5" y1="179.7" x2="135.7" y2="179.7"/>
							</g>
						</g>
						<g>
							<circle fill="#CCCCCC" cx="158.7" cy="178" r="3.3"/>
							<g>
								
									<line fill="#CCCCCC" stroke="#CCCCCC" stroke-width="1.8994" stroke-linecap="round" stroke-miterlimit="10" x1="165" y1="176.2" x2="197.6" y2="176.2"/>
								
									<line fill="#CCCCCC" stroke="#CCCCCC" stroke-width="1.8994" stroke-linecap="round" stroke-miterlimit="10" x1="165" y1="179.7" x2="187.3" y2="179.7"/>
							</g>
						</g>
						<g>
							<circle fill="#CCCCCC" cx="210.3" cy="178" r="3.3"/>
							<g>
								
									<line fill="#CCCCCC" stroke="#CCCCCC" stroke-width="1.8994" stroke-linecap="round" stroke-miterlimit="10" x1="216.6" y1="176.2" x2="249.1" y2="176.2"/>
								
									<line fill="#CCCCCC" stroke="#CCCCCC" stroke-width="1.8994" stroke-linecap="round" stroke-miterlimit="10" x1="216.6" y1="179.7" x2="238.8" y2="179.7"/>
							</g>
						</g>
					</g>
				</g>
			</g>
		</g>
		<g>
			<defs>
				<path id="SVGID_25_" d="M348.6,377.2H5c-2.4,0-4.3-1.9-4.3-4.3L0.1,4.3C0.1,1.9,2,0,4.4,0H348c2.4,0,4.3,1.9,4.3,4.3l0.6,368.5
					C352.9,375.3,351,377.2,348.6,377.2z"/>
			</defs>
			<clipPath id="SVGID_8_">
				<use xlink:href="#SVGID_25_"  overflow="visible"/>
			</clipPath>
		</g>
	</g>
	<linearGradient id="SVGID_9_" gradientUnits="userSpaceOnUse" x1="176.5" y1="392.188" x2="176.5" y2="131.3458">
		<stop  offset="0.4606" style="stop-color:#FFFFFF"/>
		<stop  offset="1" style="stop-color:#FFFFFF;stop-opacity:0"/>
	</linearGradient>
	<rect x="-6.3" y="131.3" clip-path="url(#SVGID_2_)" fill="url(#SVGID_9_)" width="365.6" height="260.8"/>
	<g clip-path="url(#SVGID_2_)">
		<g>
			<g>
				<path fill="#FFFFFF" d="M119.5,166.5H78.9c-2.2,0-4-1.8-4-4v-5.2c0-2.2,1.8-4,4-4h40.6c2.2,0,4,1.8,4,4v5.2
					C123.5,164.7,121.7,166.5,119.5,166.5z"/>
				<path fill="none" stroke="#CCCCCC" stroke-width="0.211" stroke-miterlimit="10" d="M119.5,166.5H78.9c-2.2,0-4-1.8-4-4v-5.2
					c0-2.2,1.8-4,4-4h40.6c2.2,0,4,1.8,4,4v5.2C123.5,164.7,121.7,166.5,119.5,166.5z"/>
			</g>
			<g>
				<path fill="#FFFFFF" d="M171,166.5h-40.6c-2.2,0-4-1.8-4-4v-5.2c0-2.2,1.8-4,4-4H171c2.2,0,4,1.8,4,4v5.2
					C175,164.7,173.2,166.5,171,166.5z"/>
				<path fill="none" stroke="#CCCCCC" stroke-width="0.211" stroke-miterlimit="10" d="M171,166.5h-40.6c-2.2,0-4-1.8-4-4v-5.2
					c0-2.2,1.8-4,4-4H171c2.2,0,4,1.8,4,4v5.2C175,164.7,173.2,166.5,171,166.5z"/>
			</g>
			<g>
				<path fill="#FFFFFF" d="M222.6,166.5H182c-2.2,0-4-1.8-4-4v-5.2c0-2.2,1.8-4,4-4h40.6c2.2,0,4,1.8,4,4v5.2
					C226.6,164.7,224.8,166.5,222.6,166.5z"/>
				<path fill="none" stroke="#CCCCCC" stroke-width="0.211" stroke-miterlimit="10" d="M222.6,166.5H182c-2.2,0-4-1.8-4-4v-5.2
					c0-2.2,1.8-4,4-4h40.6c2.2,0,4,1.8,4,4v5.2C226.6,164.7,224.8,166.5,222.6,166.5z"/>
			</g>
			<g>
				<circle fill="#CCCCCC" cx="81.4" cy="159.9" r="3.3"/>
				<g>
					
						<line fill="#CCCCCC" stroke="#CCCCCC" stroke-width="1.8994" stroke-linecap="round" stroke-miterlimit="10" x1="87.7" y1="158.2" x2="120.2" y2="158.2"/>
					
						<line fill="#CCCCCC" stroke="#CCCCCC" stroke-width="1.8994" stroke-linecap="round" stroke-miterlimit="10" x1="87.7" y1="161.6" x2="110" y2="161.6"/>
				</g>
			</g>
			<g>
				<circle fill="#CCCCCC" cx="133" cy="159.9" r="3.3"/>
				<g>
					
						<line fill="#CCCCCC" stroke="#CCCCCC" stroke-width="1.8994" stroke-linecap="round" stroke-miterlimit="10" x1="139.2" y1="158.2" x2="171.8" y2="158.2"/>
					
						<line fill="#CCCCCC" stroke="#CCCCCC" stroke-width="1.8994" stroke-linecap="round" stroke-miterlimit="10" x1="139.2" y1="161.6" x2="161.5" y2="161.6"/>
				</g>
			</g>
			<g>
				<circle fill="#CCCCCC" cx="184.5" cy="159.9" r="3.3"/>
				<g>
					
						<line fill="#CCCCCC" stroke="#CCCCCC" stroke-width="1.8994" stroke-linecap="round" stroke-miterlimit="10" x1="190.8" y1="158.2" x2="223.3" y2="158.2"/>
					
						<line fill="#CCCCCC" stroke="#CCCCCC" stroke-width="1.8994" stroke-linecap="round" stroke-miterlimit="10" x1="190.8" y1="161.6" x2="213.1" y2="161.6"/>
				</g>
			</g>
			<g>
				<path fill="#FFFFFF" d="M274.1,166.5h-40.6c-2.2,0-4-1.8-4-4v-5.2c0-2.2,1.8-4,4-4h40.6c2.2,0,4,1.8,4,4v5.2
					C278.1,164.7,276.3,166.5,274.1,166.5z"/>
				<path fill="none" stroke="#CCCCCC" stroke-width="0.211" stroke-miterlimit="10" d="M274.1,166.5h-40.6c-2.2,0-4-1.8-4-4v-5.2
					c0-2.2,1.8-4,4-4h40.6c2.2,0,4,1.8,4,4v5.2C278.1,164.7,276.3,166.5,274.1,166.5z"/>
			</g>
			<g>
				<circle fill="#CCCCCC" cx="236.1" cy="159.9" r="3.3"/>
				<g>
					
						<line fill="#CCCCCC" stroke="#CCCCCC" stroke-width="1.8994" stroke-linecap="round" stroke-miterlimit="10" x1="242.3" y1="158.2" x2="274.9" y2="158.2"/>
					
						<line fill="#CCCCCC" stroke="#CCCCCC" stroke-width="1.8994" stroke-linecap="round" stroke-miterlimit="10" x1="242.3" y1="161.6" x2="264.6" y2="161.6"/>
				</g>
			</g>
		</g>
		<g>
			<g>
				<path fill="#FFFFFF" d="M145.3,184.6h-40.6c-2.2,0-4-1.8-4-4v-5.2c0-2.2,1.8-4,4-4h40.6c2.2,0,4,1.8,4,4v5.2
					C149.3,182.8,147.5,184.6,145.3,184.6z"/>
				<path fill="none" stroke="#CCCCCC" stroke-width="0.211" stroke-miterlimit="10" d="M145.3,184.6h-40.6c-2.2,0-4-1.8-4-4v-5.2
					c0-2.2,1.8-4,4-4h40.6c2.2,0,4,1.8,4,4v5.2C149.3,182.8,147.5,184.6,145.3,184.6z"/>
			</g>
			<g>
				<path fill="#FFFFFF" d="M196.8,184.6h-40.6c-2.2,0-4-1.8-4-4v-5.2c0-2.2,1.8-4,4-4h40.6c2.2,0,4,1.8,4,4v5.2
					C200.8,182.8,199,184.6,196.8,184.6z"/>
				<path fill="none" stroke="#CCCCCC" stroke-width="0.211" stroke-miterlimit="10" d="M196.8,184.6h-40.6c-2.2,0-4-1.8-4-4v-5.2
					c0-2.2,1.8-4,4-4h40.6c2.2,0,4,1.8,4,4v5.2C200.8,182.8,199,184.6,196.8,184.6z"/>
			</g>
			<g>
				<path fill="#FFFFFF" d="M248.4,184.6h-40.6c-2.2,0-4-1.8-4-4v-5.2c0-2.2,1.8-4,4-4h40.6c2.2,0,4,1.8,4,4v5.2
					C252.4,182.8,250.6,184.6,248.4,184.6z"/>
				<path fill="none" stroke="#CCCCCC" stroke-width="0.211" stroke-miterlimit="10" d="M248.4,184.6h-40.6c-2.2,0-4-1.8-4-4v-5.2
					c0-2.2,1.8-4,4-4h40.6c2.2,0,4,1.8,4,4v5.2C252.4,182.8,250.6,184.6,248.4,184.6z"/>
			</g>
			<g>
				<circle fill="#CCCCCC" cx="107.2" cy="178" r="3.3"/>
				<g>
					
						<line fill="#CCCCCC" stroke="#CCCCCC" stroke-width="1.8994" stroke-linecap="round" stroke-miterlimit="10" x1="113.5" y1="176.2" x2="146" y2="176.2"/>
					
						<line fill="#CCCCCC" stroke="#CCCCCC" stroke-width="1.8994" stroke-linecap="round" stroke-miterlimit="10" x1="113.5" y1="179.7" x2="135.7" y2="179.7"/>
				</g>
			</g>
			<g>
				<circle fill="#CCCCCC" cx="158.7" cy="178" r="3.3"/>
				<g>
					
						<line fill="#CCCCCC" stroke="#CCCCCC" stroke-width="1.8994" stroke-linecap="round" stroke-miterlimit="10" x1="165" y1="176.2" x2="197.6" y2="176.2"/>
					
						<line fill="#CCCCCC" stroke="#CCCCCC" stroke-width="1.8994" stroke-linecap="round" stroke-miterlimit="10" x1="165" y1="179.7" x2="187.3" y2="179.7"/>
				</g>
			</g>
			<g>
				<circle fill="#CCCCCC" cx="210.3" cy="178" r="3.3"/>
				<g>
					
						<line fill="#CCCCCC" stroke="#CCCCCC" stroke-width="1.8994" stroke-linecap="round" stroke-miterlimit="10" x1="216.6" y1="176.2" x2="249.1" y2="176.2"/>
					
						<line fill="#CCCCCC" stroke="#CCCCCC" stroke-width="1.8994" stroke-linecap="round" stroke-miterlimit="10" x1="216.6" y1="179.7" x2="238.8" y2="179.7"/>
				</g>
			</g>
		</g>
	</g>
</g>
</svg>
