<?xml version="1.0" encoding="utf-8"?>
<!-- Generator: Adobe Illustrator 19.2.1, SVG Export Plug-In . SVG Version: 6.00 Build 0)  -->
<svg version="1.1" id="Capa_1" xmlns="http://www.w3.org/2000/svg" xmlns:xlink="http://www.w3.org/1999/xlink" x="0px" y="0px"
	 viewBox="0 0 353 256" enable-background="new 0 0 353 256" xml:space="preserve">
<g>
	<defs>
		<path id="SVGID_1_" d="M353,256H0V4c0-2.2,1.8-4,4-4h345c2.2,0,4,1.8,4,4V256z"/>
	</defs>
	<clipPath id="SVGID_2_">
		<use xlink:href="#SVGID_1_"  overflow="visible"/>
	</clipPath>
	<g clip-path="url(#SVGID_2_)">
		<g>
			<defs>
				<path id="SVGID_3_" d="M348.6,293.1H5c-2.4,0-4.3-1.9-4.3-4.3L0.1-79.8c0-2.4,1.9-4.3,4.3-4.3H348c2.4,0,4.3,1.9,4.3,4.3
					l0.6,368.5C352.9,291.1,351,293.1,348.6,293.1z"/>
			</defs>
			<clipPath id="SVGID_4_">
				<use xlink:href="#SVGID_3_"  overflow="visible"/>
			</clipPath>
		</g>
		<g>
			<defs>
				<path id="SVGID_5_" d="M348.6,293.1H5c-2.4,0-4.3-1.9-4.3-4.3L0.1-79.8c0-2.4,1.9-4.3,4.3-4.3H348c2.4,0,4.3,1.9,4.3,4.3
					l0.6,368.5C352.9,291.1,351,293.1,348.6,293.1z"/>
			</defs>
			<clipPath id="SVGID_6_">
				<use xlink:href="#SVGID_5_"  overflow="visible"/>
			</clipPath>
			<rect x="0" y="-45.5" clip-path="url(#SVGID_6_)" fill="#FFFFFF" width="352.3" height="92.8"/>
			
				<line clip-path="url(#SVGID_6_)" fill="none" stroke="#E6E6E6" stroke-width="0.157" stroke-miterlimit="10" x1="0" y1="-45.5" x2="352.2" y2="48.6"/>
			
				<line clip-path="url(#SVGID_6_)" fill="none" stroke="#E6E6E6" stroke-width="0.157" stroke-miterlimit="10" x1="0" y1="48.6" x2="352.2" y2="-45.5"/>
			<rect x="0" y="-45.5" opacity="0.2" clip-path="url(#SVGID_6_)" fill="#5D5D5D" width="352.3" height="92.8"/>
			<g clip-path="url(#SVGID_6_)">
				<g>
					<g>
						<g>
							<rect x="0.4" y="244.1" fill="#FFFFFF" width="352.2" height="48.7"/>
						</g>
					</g>
				</g>
			</g>
			<g clip-path="url(#SVGID_6_)">
				<g>
					<g>
						<path fill="#FFFFFF" d="M220.9,27.1H74.5c-1.1,0-2-0.9-2-2v-8.2c0-1.1,0.9-2,2-2h146.3c1.1,0,2,0.9,2,2v8.2
							C222.9,26.2,222,27.1,220.9,27.1z"/>
					</g>
					<path fill="#989898" d="M221.4,27.1c0.8,0,1.5-0.7,1.5-1.5v-9.2c0-0.8-0.7-1.5-1.5-1.5h-10.8v12.2H221.4z"/>
					<g>
						<g>
							<path fill="#FFFFFF" d="M218,21.8h-0.3l-0.1-0.1c0.3-0.4,0.5-0.9,0.5-1.4c0-1.2-1-2.2-2.2-2.2c-1.2,0-2.2,1-2.2,2.2
								c0,1.2,1,2.2,2.2,2.2c0.6,0,1.1-0.2,1.4-0.5l0.1,0.1v0.3l1.7,1.7l0.5-0.5L218,21.8z M216,21.8c-0.9,0-1.5-0.7-1.5-1.5
								c0-0.9,0.7-1.5,1.5-1.5c0.9,0,1.5,0.7,1.5,1.5C217.5,21.1,216.8,21.8,216,21.8z"/>
						</g>
					</g>
				</g>
				<path fill="#FFFFFF" d="M189.6,2.8H74.3c-1,0-1.8-0.8-1.8-1.8V0.9c0-1,0.8-1.8,1.8-1.8l115.3,0c1,0,1.8,0.8,1.8,1.8V1
					C191.4,2,190.6,2.8,189.6,2.8z"/>
				<g>
					<path fill="#FFFFFF" d="M272.3,19.8h-12.6c-3.3,0-6-2.7-6-6v-2.9c0-3.3,2.7-6,6-6h12.6c3.3,0,6,2.7,6,6v2.9
						C278.3,17.1,275.7,19.8,272.3,19.8z"/>
					<path fill="#FFFFFF" d="M276.6,27.1h-21.1c-1,0-1.8-0.8-1.8-1.8v-0.1c0-1,0.8-1.8,1.8-1.8h21.1c1,0,1.8,0.8,1.8,1.8v0.1
						C278.3,26.3,277.6,27.1,276.6,27.1z"/>
				</g>
			</g>
			<g clip-path="url(#SVGID_6_)">
				<g>
					<rect x="0.4" y="122.4" fill="#F4F4F4" width="352.2" height="121.8"/>
				</g>
				<path fill="#CCCCCC" d="M112.8,136.9H75.6c-1.8,0-3.2-1.5-3.2-3.2v-0.1c0-1.8,1.5-3.2,3.2-3.2h37.2c1.8,0,3.2,1.5,3.2,3.2v0.1
					C116,135.4,114.6,136.9,112.8,136.9z"/>
				<g>
					<path fill="#FFFFFF" d="M170.3,182.8H76.7c-2.2,0-4-1.8-4-4v-29.6c0-2.2,1.8-4,4-4h93.6c2.2,0,4,1.8,4,4v29.6
						C174.3,181,172.5,182.8,170.3,182.8z"/>
					<path fill="none" stroke="#CCCCCC" stroke-width="0.1834" stroke-miterlimit="10" d="M170.3,182.8H76.7c-2.2,0-4-1.8-4-4v-29.6
						c0-2.2,1.8-4,4-4h93.6c2.2,0,4,1.8,4,4v29.6C174.3,181,172.5,182.8,170.3,182.8z"/>
				</g>
				<g>
					<path fill="#FFFFFF" d="M277.1,182.8h-93.6c-2.2,0-4-1.8-4-4v-29.6c0-2.2,1.8-4,4-4h93.6c2.2,0,4,1.8,4,4v29.6
						C281.1,181,279.3,182.8,277.1,182.8z"/>
					<path fill="none" stroke="#CCCCCC" stroke-width="0.1834" stroke-miterlimit="10" d="M277.1,182.8h-93.6c-2.2,0-4-1.8-4-4
						v-29.6c0-2.2,1.8-4,4-4h93.6c2.2,0,4,1.8,4,4v29.6C281.1,181,279.3,182.8,277.1,182.8z"/>
				</g>
				<g>
					<line fill="#CCCCCC" x1="76.7" y1="168.4" x2="170.3" y2="169.4"/>
					
						<line fill="none" stroke="#CCCCCC" stroke-width="1.6311" stroke-linecap="round" stroke-miterlimit="10" x1="76.7" y1="168.4" x2="170.3" y2="169.4"/>
				</g>
				<g>
					<line fill="#CCCCCC" x1="76.7" y1="172.1" x2="170.3" y2="173"/>
					
						<line fill="none" stroke="#CCCCCC" stroke-width="1.6311" stroke-linecap="round" stroke-miterlimit="10" x1="76.7" y1="172.1" x2="170.3" y2="173"/>
				</g>
				<g>
					<line fill="#CCCCCC" x1="76.7" y1="175.7" x2="170.3" y2="176.6"/>
					
						<line fill="none" stroke="#CCCCCC" stroke-width="1.6311" stroke-linecap="round" stroke-miterlimit="10" x1="76.7" y1="175.7" x2="170.3" y2="176.6"/>
				</g>
				<g>
					<path fill="#999999" d="M147.4,155.8H78.2c-1.2,0-2.2-1-2.2-2.2v-0.1c0-1.2,1-2.2,2.2-2.2h69.2c1.2,0,2.2,1,2.2,2.2v0.1
						C149.6,154.9,148.6,155.8,147.4,155.8z"/>
				</g>
				<g>
					<path fill="#999999" d="M162.6,162.3H78.2c-1.2,0-2.2-1-2.2-2.2V160c0-1.2,1-2.2,2.2-2.2h84.4c1.2,0,2.2,1,2.2,2.2v0.1
						C164.8,161.3,163.8,162.3,162.6,162.3z"/>
				</g>
				<g>
					<line fill="#CCCCCC" x1="183.6" y1="168.4" x2="277.1" y2="169.4"/>
					
						<line fill="none" stroke="#CCCCCC" stroke-width="1.6311" stroke-linecap="round" stroke-miterlimit="10" x1="183.6" y1="168.4" x2="277.1" y2="169.4"/>
				</g>
				<g>
					<line fill="#CCCCCC" x1="183.6" y1="172.1" x2="277.1" y2="173"/>
					
						<line fill="none" stroke="#CCCCCC" stroke-width="1.6311" stroke-linecap="round" stroke-miterlimit="10" x1="183.6" y1="172.1" x2="277.1" y2="173"/>
				</g>
				<g>
					<line fill="#CCCCCC" x1="183.6" y1="175.7" x2="277.1" y2="176.6"/>
					
						<line fill="none" stroke="#CCCCCC" stroke-width="1.6311" stroke-linecap="round" stroke-miterlimit="10" x1="183.6" y1="175.7" x2="277.1" y2="176.6"/>
				</g>
				<g>
					<path fill="#999999" d="M254.2,155.8H185c-1.2,0-2.2-1-2.2-2.2v-0.1c0-1.2,1-2.2,2.2-2.2h69.2c1.2,0,2.2,1,2.2,2.2v0.1
						C256.4,154.9,255.4,155.8,254.2,155.8z"/>
				</g>
				<g>
					<path fill="#999999" d="M269.4,162.3H185c-1.2,0-2.2-1-2.2-2.2V160c0-1.2,1-2.2,2.2-2.2h84.4c1.2,0,2.2,1,2.2,2.2v0.1
						C271.6,161.3,270.6,162.3,269.4,162.3z"/>
				</g>
				
					<line fill="#CCCCCC" stroke="#CCCCCC" stroke-width="1.6508" stroke-linecap="round" stroke-miterlimit="10" x1="76.7" y1="193" x2="119.8" y2="193"/>
				
					<line fill="#CCCCCC" stroke="#CCCCCC" stroke-width="1.6508" stroke-linecap="round" stroke-miterlimit="10" x1="183.6" y1="193" x2="226.7" y2="193"/>
				<g>
					<g>
						<path fill="#FFFFFF" d="M170.3,226H76.7c-2.2,0-4-1.8-4-4v-29.6c0-2.2,1.8-4,4-4h93.6c2.2,0,4,1.8,4,4V222
							C174.3,224.2,172.5,226,170.3,226z"/>
						<path fill="none" stroke="#CCCCCC" stroke-width="0.1834" stroke-miterlimit="10" d="M170.3,226H76.7c-2.2,0-4-1.8-4-4v-29.6
							c0-2.2,1.8-4,4-4h93.6c2.2,0,4,1.8,4,4V222C174.3,224.2,172.5,226,170.3,226z"/>
					</g>
					<g>
						<path fill="#FFFFFF" d="M277.1,226h-93.6c-2.2,0-4-1.8-4-4v-29.6c0-2.2,1.8-4,4-4h93.6c2.2,0,4,1.8,4,4V222
							C281.1,224.2,279.3,226,277.1,226z"/>
						<path fill="none" stroke="#CCCCCC" stroke-width="0.1834" stroke-miterlimit="10" d="M277.1,226h-93.6c-2.2,0-4-1.8-4-4v-29.6
							c0-2.2,1.8-4,4-4h93.6c2.2,0,4,1.8,4,4V222C281.1,224.2,279.3,226,277.1,226z"/>
					</g>
					<g>
						<line fill="#CCCCCC" x1="76.7" y1="211.7" x2="170.3" y2="212.6"/>
						
							<line fill="none" stroke="#CCCCCC" stroke-width="1.6311" stroke-linecap="round" stroke-miterlimit="10" x1="76.7" y1="211.7" x2="170.3" y2="212.6"/>
					</g>
					<g>
						<line fill="#CCCCCC" x1="76.7" y1="215.3" x2="170.3" y2="216.2"/>
						
							<line fill="none" stroke="#CCCCCC" stroke-width="1.6311" stroke-linecap="round" stroke-miterlimit="10" x1="76.7" y1="215.3" x2="170.3" y2="216.2"/>
					</g>
					<g>
						<line fill="#CCCCCC" x1="76.7" y1="218.9" x2="170.3" y2="219.8"/>
						
							<line fill="none" stroke="#CCCCCC" stroke-width="1.6311" stroke-linecap="round" stroke-miterlimit="10" x1="76.7" y1="218.9" x2="170.3" y2="219.8"/>
					</g>
					<g>
						<path fill="#999999" d="M147.4,199.1H78.2c-1.2,0-2.2-1-2.2-2.2v-0.1c0-1.2,1-2.2,2.2-2.2h69.2c1.2,0,2.2,1,2.2,2.2v0.1
							C149.6,198.1,148.6,199.1,147.4,199.1z"/>
					</g>
					<g>
						<path fill="#999999" d="M162.6,205.6H78.2c-1.2,0-2.2-1-2.2-2.2v-0.1c0-1.2,1-2.2,2.2-2.2h84.4c1.2,0,2.2,1,2.2,2.2v0.1
							C164.8,204.6,163.8,205.6,162.6,205.6z"/>
					</g>
					<g>
						<line fill="#CCCCCC" x1="183.6" y1="211.7" x2="277.1" y2="212.6"/>
						
							<line fill="none" stroke="#CCCCCC" stroke-width="1.6311" stroke-linecap="round" stroke-miterlimit="10" x1="183.6" y1="211.7" x2="277.1" y2="212.6"/>
					</g>
					<g>
						<line fill="#CCCCCC" x1="183.6" y1="215.3" x2="277.1" y2="216.2"/>
						
							<line fill="none" stroke="#CCCCCC" stroke-width="1.6311" stroke-linecap="round" stroke-miterlimit="10" x1="183.6" y1="215.3" x2="277.1" y2="216.2"/>
					</g>
					<g>
						<line fill="#CCCCCC" x1="183.6" y1="218.9" x2="277.1" y2="219.8"/>
						
							<line fill="none" stroke="#CCCCCC" stroke-width="1.6311" stroke-linecap="round" stroke-miterlimit="10" x1="183.6" y1="218.9" x2="277.1" y2="219.8"/>
					</g>
					<g>
						<path fill="#999999" d="M254.2,199.1H185c-1.2,0-2.2-1-2.2-2.2v-0.1c0-1.2,1-2.2,2.2-2.2h69.2c1.2,0,2.2,1,2.2,2.2v0.1
							C256.4,198.1,255.4,199.1,254.2,199.1z"/>
					</g>
					<g>
						<path fill="#999999" d="M269.4,205.6H185c-1.2,0-2.2-1-2.2-2.2v-0.1c0-1.2,1-2.2,2.2-2.2h84.4c1.2,0,2.2,1,2.2,2.2v0.1
							C271.6,204.6,270.6,205.6,269.4,205.6z"/>
					</g>
				</g>
			</g>
			<g clip-path="url(#SVGID_6_)">
				<rect x="0.4" y="47.2" fill="#F5F5F5" width="352.2" height="75.2"/>
				<g>
					<g>
						<g>
							<path fill="#FFFFFF" d="M119.5,82.4H78.9c-2.2,0-4-1.8-4-4v-5.2c0-2.2,1.8-4,4-4h40.6c2.2,0,4,1.8,4,4v5.2
								C123.5,80.6,121.7,82.4,119.5,82.4z"/>
							<path fill="none" stroke="#CCCCCC" stroke-width="0.1834" stroke-miterlimit="10" d="M119.5,82.4H78.9c-2.2,0-4-1.8-4-4v-5.2
								c0-2.2,1.8-4,4-4h40.6c2.2,0,4,1.8,4,4v5.2C123.5,80.6,121.7,82.4,119.5,82.4z"/>
						</g>
						<g>
							<path fill="#FFFFFF" d="M171,82.4h-40.6c-2.2,0-4-1.8-4-4v-5.2c0-2.2,1.8-4,4-4H171c2.2,0,4,1.8,4,4v5.2
								C175,80.6,173.2,82.4,171,82.4z"/>
							<path fill="none" stroke="#CCCCCC" stroke-width="0.1834" stroke-miterlimit="10" d="M171,82.4h-40.6c-2.2,0-4-1.8-4-4v-5.2
								c0-2.2,1.8-4,4-4H171c2.2,0,4,1.8,4,4v5.2C175,80.6,173.2,82.4,171,82.4z"/>
						</g>
						<g>
							<path fill="#FFFFFF" d="M222.6,82.4H182c-2.2,0-4-1.8-4-4v-5.2c0-2.2,1.8-4,4-4h40.6c2.2,0,4,1.8,4,4v5.2
								C226.6,80.6,224.8,82.4,222.6,82.4z"/>
							<path fill="none" stroke="#CCCCCC" stroke-width="0.1834" stroke-miterlimit="10" d="M222.6,82.4H182c-2.2,0-4-1.8-4-4v-5.2
								c0-2.2,1.8-4,4-4h40.6c2.2,0,4,1.8,4,4v5.2C226.6,80.6,224.8,82.4,222.6,82.4z"/>
						</g>
						<g>
							<circle fill="#0072BC" cx="81.4" cy="75.8" r="3.3"/>
							<g>
								
									<line fill="#0072BC" stroke="#0072BC" stroke-width="1.6508" stroke-linecap="round" stroke-miterlimit="10" x1="87.7" y1="74" x2="120.2" y2="74"/>
								
									<line fill="#0072BC" stroke="#0072BC" stroke-width="1.6508" stroke-linecap="round" stroke-miterlimit="10" x1="87.7" y1="77.5" x2="110" y2="77.5"/>
							</g>
						</g>
						<g>
							<circle fill="#0072BC" cx="133" cy="75.8" r="3.3"/>
							<g>
								
									<line fill="#0072BC" stroke="#0072BC" stroke-width="1.6508" stroke-linecap="round" stroke-miterlimit="10" x1="139.2" y1="74" x2="171.8" y2="74"/>
								
									<line fill="#0072BC" stroke="#0072BC" stroke-width="1.6508" stroke-linecap="round" stroke-miterlimit="10" x1="139.2" y1="77.5" x2="161.5" y2="77.5"/>
							</g>
						</g>
						<g>
							<circle fill="#0072BC" cx="184.5" cy="75.8" r="3.3"/>
							<g>
								
									<line fill="#0072BC" stroke="#0072BC" stroke-width="1.6508" stroke-linecap="round" stroke-miterlimit="10" x1="190.8" y1="74" x2="223.3" y2="74"/>
								
									<line fill="#0072BC" stroke="#0072BC" stroke-width="1.6508" stroke-linecap="round" stroke-miterlimit="10" x1="190.8" y1="77.5" x2="213.1" y2="77.5"/>
							</g>
						</g>
						<g>
							<path fill="#FFFFFF" d="M274.1,82.4h-40.6c-2.2,0-4-1.8-4-4v-5.2c0-2.2,1.8-4,4-4h40.6c2.2,0,4,1.8,4,4v5.2
								C278.1,80.6,276.3,82.4,274.1,82.4z"/>
							<path fill="none" stroke="#CCCCCC" stroke-width="0.1834" stroke-miterlimit="10" d="M274.1,82.4h-40.6c-2.2,0-4-1.8-4-4
								v-5.2c0-2.2,1.8-4,4-4h40.6c2.2,0,4,1.8,4,4v5.2C278.1,80.6,276.3,82.4,274.1,82.4z"/>
						</g>
						<g>
							<circle fill="#0072BC" cx="236.1" cy="75.8" r="3.3"/>
							<g>
								
									<line fill="#0072BC" stroke="#0072BC" stroke-width="1.6508" stroke-linecap="round" stroke-miterlimit="10" x1="242.3" y1="74" x2="274.9" y2="74"/>
								
									<line fill="#0072BC" stroke="#0072BC" stroke-width="1.6508" stroke-linecap="round" stroke-miterlimit="10" x1="242.3" y1="77.5" x2="264.6" y2="77.5"/>
							</g>
						</g>
					</g>
					<g>
						<g>
							<path fill="#FFFFFF" d="M145.3,100.4h-40.6c-2.2,0-4-1.8-4-4v-5.2c0-2.2,1.8-4,4-4h40.6c2.2,0,4,1.8,4,4v5.2
								C149.3,98.6,147.5,100.4,145.3,100.4z"/>
							<path fill="none" stroke="#CCCCCC" stroke-width="0.1834" stroke-miterlimit="10" d="M145.3,100.4h-40.6c-2.2,0-4-1.8-4-4
								v-5.2c0-2.2,1.8-4,4-4h40.6c2.2,0,4,1.8,4,4v5.2C149.3,98.6,147.5,100.4,145.3,100.4z"/>
						</g>
						<g>
							<path fill="#FFFFFF" d="M196.8,100.4h-40.6c-2.2,0-4-1.8-4-4v-5.2c0-2.2,1.8-4,4-4h40.6c2.2,0,4,1.8,4,4v5.2
								C200.8,98.6,199,100.4,196.8,100.4z"/>
							<path fill="none" stroke="#CCCCCC" stroke-width="0.1834" stroke-miterlimit="10" d="M196.8,100.4h-40.6c-2.2,0-4-1.8-4-4
								v-5.2c0-2.2,1.8-4,4-4h40.6c2.2,0,4,1.8,4,4v5.2C200.8,98.6,199,100.4,196.8,100.4z"/>
						</g>
						<g>
							<path fill="#FFFFFF" d="M248.4,100.4h-40.6c-2.2,0-4-1.8-4-4v-5.2c0-2.2,1.8-4,4-4h40.6c2.2,0,4,1.8,4,4v5.2
								C252.4,98.6,250.6,100.4,248.4,100.4z"/>
							<path fill="none" stroke="#CCCCCC" stroke-width="0.1834" stroke-miterlimit="10" d="M248.4,100.4h-40.6c-2.2,0-4-1.8-4-4
								v-5.2c0-2.2,1.8-4,4-4h40.6c2.2,0,4,1.8,4,4v5.2C252.4,98.6,250.6,100.4,248.4,100.4z"/>
						</g>
						<g>
							<circle fill="#0072BC" cx="107.2" cy="93.8" r="3.3"/>
							<g>
								
									<line fill="#0072BC" stroke="#0072BC" stroke-width="1.6508" stroke-linecap="round" stroke-miterlimit="10" x1="113.5" y1="92.1" x2="146" y2="92.1"/>
								
									<line fill="#0072BC" stroke="#0072BC" stroke-width="1.6508" stroke-linecap="round" stroke-miterlimit="10" x1="113.5" y1="95.6" x2="135.7" y2="95.6"/>
							</g>
						</g>
						<g>
							<circle fill="#0072BC" cx="158.7" cy="93.8" r="3.3"/>
							<g>
								
									<line fill="#0072BC" stroke="#0072BC" stroke-width="1.6508" stroke-linecap="round" stroke-miterlimit="10" x1="165" y1="92.1" x2="197.6" y2="92.1"/>
								
									<line fill="#0072BC" stroke="#0072BC" stroke-width="1.6508" stroke-linecap="round" stroke-miterlimit="10" x1="165" y1="95.6" x2="187.3" y2="95.6"/>
							</g>
						</g>
						<g>
							<circle fill="#0072BC" cx="210.3" cy="93.8" r="3.3"/>
							<g>
								
									<line fill="#0072BC" stroke="#0072BC" stroke-width="1.6508" stroke-linecap="round" stroke-miterlimit="10" x1="216.6" y1="92.1" x2="249.1" y2="92.1"/>
								
									<line fill="#0072BC" stroke="#0072BC" stroke-width="1.6508" stroke-linecap="round" stroke-miterlimit="10" x1="216.6" y1="95.6" x2="238.8" y2="95.6"/>
							</g>
						</g>
					</g>
				</g>
			</g>
		</g>
		<g>
			<defs>
				<path id="SVGID_7_" d="M348.6,293.1H5c-2.4,0-4.3-1.9-4.3-4.3L0.1-79.8c0-2.4,1.9-4.3,4.3-4.3H348c2.4,0,4.3,1.9,4.3,4.3
					l0.6,368.5C352.9,291.1,351,293.1,348.6,293.1z"/>
			</defs>
			<clipPath id="SVGID_8_">
				<use xlink:href="#SVGID_7_"  overflow="visible"/>
			</clipPath>
		</g>
	</g>
	<linearGradient id="SVGID_9_" gradientUnits="userSpaceOnUse" x1="176.5" y1="321.9093" x2="176.5" y2="61.067">
		<stop  offset="0.4606" style="stop-color:#FFFFFF"/>
		<stop  offset="1" style="stop-color:#FFFFFF;stop-opacity:0"/>
	</linearGradient>
	<rect x="-6.3" y="61.1" clip-path="url(#SVGID_2_)" fill="url(#SVGID_9_)" width="365.6" height="260.8"/>
</g>
</svg>
