<?xml version="1.0" encoding="utf-8"?>
<!-- Generator: Adobe Illustrator 19.2.1, SVG Export Plug-In . SVG Version: 6.00 Build 0)  -->
<svg version="1.1" id="Capa_1" xmlns="http://www.w3.org/2000/svg" xmlns:xlink="http://www.w3.org/1999/xlink" x="0px" y="0px"
	 viewBox="0 0 353 256" enable-background="new 0 0 353 256" xml:space="preserve">
<g>
	<defs>
		<path id="SVGID_10_" d="M353,256H0V4c0-2.2,1.8-4,4-4h345c2.2,0,4,1.8,4,4V256z"/>
	</defs>
	<clipPath id="SVGID_2_">
		<use xlink:href="#SVGID_10_"  overflow="visible"/>
	</clipPath>
	<g clip-path="url(#SVGID_2_)">
		<g>
			<defs>
				<path id="SVGID_12_" d="M348.6,292.1H5c-2.4,0-4.3-1.9-4.3-4.3L0.1-80.8c0-2.4,1.9-4.3,4.3-4.3H348c2.4,0,4.3,1.9,4.3,4.3
					l0.6,368.5C352.9,290.1,351,292.1,348.6,292.1z"/>
			</defs>
			<clipPath id="SVGID_4_">
				<use xlink:href="#SVGID_12_"  overflow="visible"/>
			</clipPath>
		</g>
		<g>
			<defs>
				<path id="SVGID_14_" d="M348.6,292.1H5c-2.4,0-4.3-1.9-4.3-4.3L0.1-80.8c0-2.4,1.9-4.3,4.3-4.3H348c2.4,0,4.3,1.9,4.3,4.3
					l0.6,368.5C352.9,290.1,351,292.1,348.6,292.1z"/>
			</defs>
			<clipPath id="SVGID_6_">
				<use xlink:href="#SVGID_14_"  overflow="visible"/>
			</clipPath>
			<rect x="0" y="-46.5" clip-path="url(#SVGID_6_)" fill="#FFFFFF" width="352.3" height="92.8"/>
			
				<line clip-path="url(#SVGID_6_)" fill="none" stroke="#E6E6E6" stroke-width="0.157" stroke-miterlimit="10" x1="0" y1="-46.5" x2="352.2" y2="47.6"/>
			
				<line clip-path="url(#SVGID_6_)" fill="none" stroke="#E6E6E6" stroke-width="0.157" stroke-miterlimit="10" x1="0" y1="47.6" x2="352.2" y2="-46.5"/>
			<rect x="0" y="-46.5" opacity="0.2" clip-path="url(#SVGID_6_)" fill="#5D5D5D" width="352.3" height="92.8"/>
			<g clip-path="url(#SVGID_6_)">
				<g>
					<g>
						<g>
							<rect x="0.4" y="243.1" fill="#FFFFFF" width="352.2" height="48.7"/>
						</g>
					</g>
				</g>
			</g>
			<g clip-path="url(#SVGID_6_)">
				<g>
					<g>
						<path fill="#FFFFFF" d="M220.9,26.1H74.5c-1.1,0-2-0.9-2-2v-8.2c0-1.1,0.9-2,2-2h146.3c1.1,0,2,0.9,2,2v8.2
							C222.9,25.2,222,26.1,220.9,26.1z"/>
					</g>
					<path fill="#989898" d="M221.4,26.1c0.8,0,1.5-0.7,1.5-1.5v-9.2c0-0.8-0.7-1.5-1.5-1.5h-10.8v12.2H221.4z"/>
					<g>
						<g>
							<path fill="#FFFFFF" d="M218,20.8h-0.3l-0.1-0.1c0.3-0.4,0.5-0.9,0.5-1.4c0-1.2-1-2.2-2.2-2.2c-1.2,0-2.2,1-2.2,2.2
								c0,1.2,1,2.2,2.2,2.2c0.6,0,1.1-0.2,1.4-0.5l0.1,0.1v0.3l1.7,1.7l0.5-0.5L218,20.8z M216,20.8c-0.9,0-1.5-0.7-1.5-1.5
								c0-0.9,0.7-1.5,1.5-1.5c0.9,0,1.5,0.7,1.5,1.5C217.5,20.1,216.8,20.8,216,20.8z"/>
						</g>
					</g>
				</g>
				<path fill="#FFFFFF" d="M189.6,1.8l-115.3,0c-1,0-1.8-0.8-1.8-1.8v-0.1c0-1,0.8-1.8,1.8-1.8h115.3c1,0,1.8,0.8,1.8,1.8V0
					C191.4,1,190.6,1.8,189.6,1.8z"/>
				<g>
					<path fill="#FFFFFF" d="M272.3,18.8h-12.6c-3.3,0-6-2.7-6-6V9.9c0-3.3,2.7-6,6-6h12.6c3.3,0,6,2.7,6,6v2.9
						C278.3,16.1,275.7,18.8,272.3,18.8z"/>
					<path fill="#FFFFFF" d="M276.6,26.1h-21.1c-1,0-1.8-0.8-1.8-1.8v-0.1c0-1,0.8-1.8,1.8-1.8h21.1c1,0,1.8,0.8,1.8,1.8v0.1
						C278.3,25.3,277.6,26.1,276.6,26.1z"/>
				</g>
			</g>
			<g clip-path="url(#SVGID_6_)">
				<g>
					<rect x="0.4" y="121.4" fill="#F4F4F4" width="352.2" height="121.8"/>
				</g>
				<path fill="#CCCCCC" d="M112.8,135.9H75.6c-1.8,0-3.2-1.5-3.2-3.2v-0.1c0-1.8,1.5-3.2,3.2-3.2h37.2c1.8,0,3.2,1.5,3.2,3.2v0.1
					C116,134.4,114.6,135.9,112.8,135.9z"/>
				<g>
					<path fill="#FFFFFF" d="M170.3,181.8H76.7c-2.2,0-4-1.8-4-4v-29.6c0-2.2,1.8-4,4-4h93.6c2.2,0,4,1.8,4,4v29.6
						C174.3,180,172.5,181.8,170.3,181.8z"/>
					<path fill="none" stroke="#CCCCCC" stroke-width="0.1834" stroke-miterlimit="10" d="M170.3,181.8H76.7c-2.2,0-4-1.8-4-4v-29.6
						c0-2.2,1.8-4,4-4h93.6c2.2,0,4,1.8,4,4v29.6C174.3,180,172.5,181.8,170.3,181.8z"/>
				</g>
				<g>
					<path fill="#FFFFFF" d="M277.1,181.8h-93.6c-2.2,0-4-1.8-4-4v-29.6c0-2.2,1.8-4,4-4h93.6c2.2,0,4,1.8,4,4v29.6
						C281.1,180,279.3,181.8,277.1,181.8z"/>
					<path fill="none" stroke="#CCCCCC" stroke-width="0.1834" stroke-miterlimit="10" d="M277.1,181.8h-93.6c-2.2,0-4-1.8-4-4
						v-29.6c0-2.2,1.8-4,4-4h93.6c2.2,0,4,1.8,4,4v29.6C281.1,180,279.3,181.8,277.1,181.8z"/>
				</g>
				<g>
					<line fill="#CCCCCC" x1="76.7" y1="167.4" x2="170.3" y2="168.4"/>
					
						<line fill="none" stroke="#CCCCCC" stroke-width="1.6311" stroke-linecap="round" stroke-miterlimit="10" x1="76.7" y1="167.4" x2="170.3" y2="168.4"/>
				</g>
				<g>
					<line fill="#CCCCCC" x1="76.7" y1="171.1" x2="170.3" y2="172"/>
					
						<line fill="none" stroke="#CCCCCC" stroke-width="1.6311" stroke-linecap="round" stroke-miterlimit="10" x1="76.7" y1="171.1" x2="170.3" y2="172"/>
				</g>
				<g>
					<line fill="#CCCCCC" x1="76.7" y1="174.7" x2="170.3" y2="175.6"/>
					
						<line fill="none" stroke="#CCCCCC" stroke-width="1.6311" stroke-linecap="round" stroke-miterlimit="10" x1="76.7" y1="174.7" x2="170.3" y2="175.6"/>
				</g>
				<g>
					<path fill="#999999" d="M147.4,154.8H78.2c-1.2,0-2.2-1-2.2-2.2v-0.1c0-1.2,1-2.2,2.2-2.2h69.2c1.2,0,2.2,1,2.2,2.2v0.1
						C149.6,153.9,148.6,154.8,147.4,154.8z"/>
				</g>
				<g>
					<path fill="#999999" d="M162.6,161.3H78.2c-1.2,0-2.2-1-2.2-2.2V159c0-1.2,1-2.2,2.2-2.2h84.4c1.2,0,2.2,1,2.2,2.2v0.1
						C164.8,160.3,163.8,161.3,162.6,161.3z"/>
				</g>
				<g>
					<line fill="#CCCCCC" x1="183.6" y1="167.4" x2="277.1" y2="168.4"/>
					
						<line fill="none" stroke="#CCCCCC" stroke-width="1.6311" stroke-linecap="round" stroke-miterlimit="10" x1="183.6" y1="167.4" x2="277.1" y2="168.4"/>
				</g>
				<g>
					<line fill="#CCCCCC" x1="183.6" y1="171.1" x2="277.1" y2="172"/>
					
						<line fill="none" stroke="#CCCCCC" stroke-width="1.6311" stroke-linecap="round" stroke-miterlimit="10" x1="183.6" y1="171.1" x2="277.1" y2="172"/>
				</g>
				<g>
					<line fill="#CCCCCC" x1="183.6" y1="174.7" x2="277.1" y2="175.6"/>
					
						<line fill="none" stroke="#CCCCCC" stroke-width="1.6311" stroke-linecap="round" stroke-miterlimit="10" x1="183.6" y1="174.7" x2="277.1" y2="175.6"/>
				</g>
				<g>
					<path fill="#999999" d="M254.2,154.8H185c-1.2,0-2.2-1-2.2-2.2v-0.1c0-1.2,1-2.2,2.2-2.2h69.2c1.2,0,2.2,1,2.2,2.2v0.1
						C256.4,153.9,255.4,154.8,254.2,154.8z"/>
				</g>
				<g>
					<path fill="#999999" d="M269.4,161.3H185c-1.2,0-2.2-1-2.2-2.2V159c0-1.2,1-2.2,2.2-2.2h84.4c1.2,0,2.2,1,2.2,2.2v0.1
						C271.6,160.3,270.6,161.3,269.4,161.3z"/>
				</g>
				
					<line fill="#CCCCCC" stroke="#CCCCCC" stroke-width="1.6508" stroke-linecap="round" stroke-miterlimit="10" x1="76.7" y1="192" x2="119.8" y2="192"/>
				
					<line fill="#CCCCCC" stroke="#CCCCCC" stroke-width="1.6508" stroke-linecap="round" stroke-miterlimit="10" x1="183.6" y1="192" x2="226.7" y2="192"/>
				<g>
					<g>
						<path fill="#FFFFFF" d="M170.3,225H76.7c-2.2,0-4-1.8-4-4v-29.6c0-2.2,1.8-4,4-4h93.6c2.2,0,4,1.8,4,4V221
							C174.3,223.2,172.5,225,170.3,225z"/>
						<path fill="none" stroke="#CCCCCC" stroke-width="0.1834" stroke-miterlimit="10" d="M170.3,225H76.7c-2.2,0-4-1.8-4-4v-29.6
							c0-2.2,1.8-4,4-4h93.6c2.2,0,4,1.8,4,4V221C174.3,223.2,172.5,225,170.3,225z"/>
					</g>
					<g>
						<path fill="#FFFFFF" d="M277.1,225h-93.6c-2.2,0-4-1.8-4-4v-29.6c0-2.2,1.8-4,4-4h93.6c2.2,0,4,1.8,4,4V221
							C281.1,223.2,279.3,225,277.1,225z"/>
						<path fill="none" stroke="#CCCCCC" stroke-width="0.1834" stroke-miterlimit="10" d="M277.1,225h-93.6c-2.2,0-4-1.8-4-4v-29.6
							c0-2.2,1.8-4,4-4h93.6c2.2,0,4,1.8,4,4V221C281.1,223.2,279.3,225,277.1,225z"/>
					</g>
					<g>
						<line fill="#CCCCCC" x1="76.7" y1="210.7" x2="170.3" y2="211.6"/>
						
							<line fill="none" stroke="#CCCCCC" stroke-width="1.6311" stroke-linecap="round" stroke-miterlimit="10" x1="76.7" y1="210.7" x2="170.3" y2="211.6"/>
					</g>
					<g>
						<line fill="#CCCCCC" x1="76.7" y1="214.3" x2="170.3" y2="215.2"/>
						
							<line fill="none" stroke="#CCCCCC" stroke-width="1.6311" stroke-linecap="round" stroke-miterlimit="10" x1="76.7" y1="214.3" x2="170.3" y2="215.2"/>
					</g>
					<g>
						<line fill="#CCCCCC" x1="76.7" y1="217.9" x2="170.3" y2="218.8"/>
						
							<line fill="none" stroke="#CCCCCC" stroke-width="1.6311" stroke-linecap="round" stroke-miterlimit="10" x1="76.7" y1="217.9" x2="170.3" y2="218.8"/>
					</g>
					<g>
						<path fill="#999999" d="M147.4,198.1H78.2c-1.2,0-2.2-1-2.2-2.2v-0.1c0-1.2,1-2.2,2.2-2.2h69.2c1.2,0,2.2,1,2.2,2.2v0.1
							C149.6,197.1,148.6,198.1,147.4,198.1z"/>
					</g>
					<g>
						<path fill="#999999" d="M162.6,204.6H78.2c-1.2,0-2.2-1-2.2-2.2v-0.1c0-1.2,1-2.2,2.2-2.2h84.4c1.2,0,2.2,1,2.2,2.2v0.1
							C164.8,203.6,163.8,204.6,162.6,204.6z"/>
					</g>
					<g>
						<line fill="#CCCCCC" x1="183.6" y1="210.7" x2="277.1" y2="211.6"/>
						
							<line fill="none" stroke="#CCCCCC" stroke-width="1.6311" stroke-linecap="round" stroke-miterlimit="10" x1="183.6" y1="210.7" x2="277.1" y2="211.6"/>
					</g>
					<g>
						<line fill="#CCCCCC" x1="183.6" y1="214.3" x2="277.1" y2="215.2"/>
						
							<line fill="none" stroke="#CCCCCC" stroke-width="1.6311" stroke-linecap="round" stroke-miterlimit="10" x1="183.6" y1="214.3" x2="277.1" y2="215.2"/>
					</g>
					<g>
						<line fill="#CCCCCC" x1="183.6" y1="217.9" x2="277.1" y2="218.8"/>
						
							<line fill="none" stroke="#CCCCCC" stroke-width="1.6311" stroke-linecap="round" stroke-miterlimit="10" x1="183.6" y1="217.9" x2="277.1" y2="218.8"/>
					</g>
					<g>
						<path fill="#999999" d="M254.2,198.1H185c-1.2,0-2.2-1-2.2-2.2v-0.1c0-1.2,1-2.2,2.2-2.2h69.2c1.2,0,2.2,1,2.2,2.2v0.1
							C256.4,197.1,255.4,198.1,254.2,198.1z"/>
					</g>
					<g>
						<path fill="#999999" d="M269.4,204.6H185c-1.2,0-2.2-1-2.2-2.2v-0.1c0-1.2,1-2.2,2.2-2.2h84.4c1.2,0,2.2,1,2.2,2.2v0.1
							C271.6,203.6,270.6,204.6,269.4,204.6z"/>
					</g>
				</g>
			</g>
			<g clip-path="url(#SVGID_6_)">
				<rect x="0.4" y="46.2" fill="#F5F5F5" width="352.2" height="75.2"/>
				<g>
					<path fill="#0072BC" d="M120,73H79.4c-2.2,0-4-1.8-4-4v-5.2c0-2.2,1.8-4,4-4H120c2.2,0,4,1.8,4,4V69C124,71.2,122.2,73,120,73z
						"/>
					<path fill="none" stroke="#CCCCCC" stroke-width="0.1834" stroke-miterlimit="10" d="M120,73H79.4c-2.2,0-4-1.8-4-4v-5.2
						c0-2.2,1.8-4,4-4H120c2.2,0,4,1.8,4,4V69C124,71.2,122.2,73,120,73z"/>
				</g>
				<g>
					<path fill="#0072BC" d="M171.6,73H131c-2.2,0-4-1.8-4-4v-5.2c0-2.2,1.8-4,4-4h40.6c2.2,0,4,1.8,4,4V69
						C175.6,71.2,173.8,73,171.6,73z"/>
					<path fill="none" stroke="#CCCCCC" stroke-width="0.1834" stroke-miterlimit="10" d="M171.6,73H131c-2.2,0-4-1.8-4-4v-5.2
						c0-2.2,1.8-4,4-4h40.6c2.2,0,4,1.8,4,4V69C175.6,71.2,173.8,73,171.6,73z"/>
				</g>
				<g>
					<path fill="#0072BC" d="M223.1,73h-40.6c-2.2,0-4-1.8-4-4v-5.2c0-2.2,1.8-4,4-4h40.6c2.2,0,4,1.8,4,4V69
						C227.1,71.2,225.3,73,223.1,73z"/>
					<path fill="none" stroke="#CCCCCC" stroke-width="0.1834" stroke-miterlimit="10" d="M223.1,73h-40.6c-2.2,0-4-1.8-4-4v-5.2
						c0-2.2,1.8-4,4-4h40.6c2.2,0,4,1.8,4,4V69C227.1,71.2,225.3,73,223.1,73z"/>
				</g>
				<g>
					<path fill="#0072BC" d="M274.7,73h-40.6c-2.2,0-4-1.8-4-4v-5.2c0-2.2,1.8-4,4-4h40.6c2.2,0,4,1.8,4,4V69
						C278.7,71.2,276.9,73,274.7,73z"/>
					<path fill="none" stroke="#CCCCCC" stroke-width="0.1834" stroke-miterlimit="10" d="M274.7,73h-40.6c-2.2,0-4-1.8-4-4v-5.2
						c0-2.2,1.8-4,4-4h40.6c2.2,0,4,1.8,4,4V69C278.7,71.2,276.9,73,274.7,73z"/>
				</g>
				<g>
					<g>
						
							<line fill="#FFFFFF" stroke="#FFFFFF" stroke-width="1.1005" stroke-linecap="round" stroke-miterlimit="10" x1="83.5" y1="64.6" x2="116" y2="64.6"/>
						
							<line fill="#FFFFFF" stroke="#FFFFFF" stroke-width="1.1005" stroke-linecap="round" stroke-miterlimit="10" x1="88.6" y1="68.1" x2="110.9" y2="68.1"/>
					</g>
				</g>
				<g>
					<g>
						
							<line fill="#FFFFFF" stroke="#FFFFFF" stroke-width="1.1005" stroke-linecap="round" stroke-miterlimit="10" x1="186.5" y1="64.6" x2="219.1" y2="64.6"/>
						
							<line fill="#FFFFFF" stroke="#FFFFFF" stroke-width="1.1005" stroke-linecap="round" stroke-miterlimit="10" x1="191.7" y1="68.1" x2="214" y2="68.1"/>
					</g>
				</g>
				<g>
					<g>
						
							<line fill="#FFFFFF" stroke="#FFFFFF" stroke-width="1.1005" stroke-linecap="round" stroke-miterlimit="10" x1="135" y1="64.6" x2="167.5" y2="64.6"/>
						
							<line fill="#FFFFFF" stroke="#FFFFFF" stroke-width="1.1005" stroke-linecap="round" stroke-miterlimit="10" x1="140.1" y1="68.1" x2="162.4" y2="68.1"/>
					</g>
				</g>
				<g>
					<g>
						
							<line fill="#FFFFFF" stroke="#FFFFFF" stroke-width="1.1005" stroke-linecap="round" stroke-miterlimit="10" x1="238.1" y1="64.6" x2="270.6" y2="64.6"/>
						
							<line fill="#FFFFFF" stroke="#FFFFFF" stroke-width="1.1005" stroke-linecap="round" stroke-miterlimit="10" x1="243.2" y1="68.1" x2="265.5" y2="68.1"/>
					</g>
				</g>
				<g>
					<path fill="#0072BC" d="M120,90.3H79.4c-2.2,0-4-1.8-4-4v-5.2c0-2.2,1.8-4,4-4H120c2.2,0,4,1.8,4,4v5.2
						C124,88.5,122.2,90.3,120,90.3z"/>
					<path fill="none" stroke="#CCCCCC" stroke-width="0.1834" stroke-miterlimit="10" d="M120,90.3H79.4c-2.2,0-4-1.8-4-4v-5.2
						c0-2.2,1.8-4,4-4H120c2.2,0,4,1.8,4,4v5.2C124,88.5,122.2,90.3,120,90.3z"/>
				</g>
				<g>
					<path fill="#0072BC" d="M171.6,90.3H131c-2.2,0-4-1.8-4-4v-5.2c0-2.2,1.8-4,4-4h40.6c2.2,0,4,1.8,4,4v5.2
						C175.6,88.5,173.8,90.3,171.6,90.3z"/>
					<path fill="none" stroke="#CCCCCC" stroke-width="0.1834" stroke-miterlimit="10" d="M171.6,90.3H131c-2.2,0-4-1.8-4-4v-5.2
						c0-2.2,1.8-4,4-4h40.6c2.2,0,4,1.8,4,4v5.2C175.6,88.5,173.8,90.3,171.6,90.3z"/>
				</g>
				<g>
					<path fill="#0072BC" d="M223.1,90.3h-40.6c-2.2,0-4-1.8-4-4v-5.2c0-2.2,1.8-4,4-4h40.6c2.2,0,4,1.8,4,4v5.2
						C227.1,88.5,225.3,90.3,223.1,90.3z"/>
					<path fill="none" stroke="#CCCCCC" stroke-width="0.1834" stroke-miterlimit="10" d="M223.1,90.3h-40.6c-2.2,0-4-1.8-4-4v-5.2
						c0-2.2,1.8-4,4-4h40.6c2.2,0,4,1.8,4,4v5.2C227.1,88.5,225.3,90.3,223.1,90.3z"/>
				</g>
				<g>
					<path fill="#0072BC" d="M274.7,90.3h-40.6c-2.2,0-4-1.8-4-4v-5.2c0-2.2,1.8-4,4-4h40.6c2.2,0,4,1.8,4,4v5.2
						C278.7,88.5,276.9,90.3,274.7,90.3z"/>
					<path fill="none" stroke="#CCCCCC" stroke-width="0.1834" stroke-miterlimit="10" d="M274.7,90.3h-40.6c-2.2,0-4-1.8-4-4v-5.2
						c0-2.2,1.8-4,4-4h40.6c2.2,0,4,1.8,4,4v5.2C278.7,88.5,276.9,90.3,274.7,90.3z"/>
				</g>
				<g>
					<path fill="#0072BC" d="M145.8,107.7h-40.6c-2.2,0-4-1.8-4-4v-5.2c0-2.2,1.8-4,4-4h40.6c2.2,0,4,1.8,4,4v5.2
						C149.8,105.9,148,107.7,145.8,107.7z"/>
					<path fill="none" stroke="#CCCCCC" stroke-width="0.1834" stroke-miterlimit="10" d="M145.8,107.7h-40.6c-2.2,0-4-1.8-4-4v-5.2
						c0-2.2,1.8-4,4-4h40.6c2.2,0,4,1.8,4,4v5.2C149.8,105.9,148,107.7,145.8,107.7z"/>
				</g>
				<g>
					<path fill="#0072BC" d="M197.3,107.7h-40.6c-2.2,0-4-1.8-4-4v-5.2c0-2.2,1.8-4,4-4h40.6c2.2,0,4,1.8,4,4v5.2
						C201.3,105.9,199.6,107.7,197.3,107.7z"/>
					<path fill="none" stroke="#CCCCCC" stroke-width="0.1834" stroke-miterlimit="10" d="M197.3,107.7h-40.6c-2.2,0-4-1.8-4-4v-5.2
						c0-2.2,1.8-4,4-4h40.6c2.2,0,4,1.8,4,4v5.2C201.3,105.9,199.6,107.7,197.3,107.7z"/>
				</g>
				<g>
					<path fill="#0072BC" d="M248.9,107.7h-40.6c-2.2,0-4-1.8-4-4v-5.2c0-2.2,1.8-4,4-4h40.6c2.2,0,4,1.8,4,4v5.2
						C252.9,105.9,251.1,107.7,248.9,107.7z"/>
					<path fill="none" stroke="#CCCCCC" stroke-width="0.1834" stroke-miterlimit="10" d="M248.9,107.7h-40.6c-2.2,0-4-1.8-4-4v-5.2
						c0-2.2,1.8-4,4-4h40.6c2.2,0,4,1.8,4,4v5.2C252.9,105.9,251.1,107.7,248.9,107.7z"/>
				</g>
				<g>
					<g>
						
							<line fill="#FFFFFF" stroke="#FFFFFF" stroke-width="1.1005" stroke-linecap="round" stroke-miterlimit="10" x1="83.5" y1="82" x2="116" y2="82"/>
						
							<line fill="#FFFFFF" stroke="#FFFFFF" stroke-width="1.1005" stroke-linecap="round" stroke-miterlimit="10" x1="88.6" y1="85.5" x2="110.9" y2="85.5"/>
					</g>
				</g>
				<g>
					<g>
						
							<line fill="#FFFFFF" stroke="#FFFFFF" stroke-width="1.1005" stroke-linecap="round" stroke-miterlimit="10" x1="186.5" y1="82" x2="219.1" y2="82"/>
						
							<line fill="#FFFFFF" stroke="#FFFFFF" stroke-width="1.1005" stroke-linecap="round" stroke-miterlimit="10" x1="191.7" y1="85.5" x2="214" y2="85.5"/>
					</g>
				</g>
				<g>
					<g>
						
							<line fill="#FFFFFF" stroke="#FFFFFF" stroke-width="1.1005" stroke-linecap="round" stroke-miterlimit="10" x1="135" y1="82" x2="167.5" y2="82"/>
						
							<line fill="#FFFFFF" stroke="#FFFFFF" stroke-width="1.1005" stroke-linecap="round" stroke-miterlimit="10" x1="140.1" y1="85.5" x2="162.4" y2="85.5"/>
					</g>
				</g>
				<g>
					<g>
						
							<line fill="#FFFFFF" stroke="#FFFFFF" stroke-width="1.1005" stroke-linecap="round" stroke-miterlimit="10" x1="160.8" y1="99.4" x2="193.3" y2="99.4"/>
						
							<line fill="#FFFFFF" stroke="#FFFFFF" stroke-width="1.1005" stroke-linecap="round" stroke-miterlimit="10" x1="165.9" y1="102.8" x2="188.2" y2="102.8"/>
					</g>
				</g>
				<g>
					<g>
						
							<line fill="#FFFFFF" stroke="#FFFFFF" stroke-width="1.1005" stroke-linecap="round" stroke-miterlimit="10" x1="212.3" y1="99.4" x2="244.9" y2="99.4"/>
						
							<line fill="#FFFFFF" stroke="#FFFFFF" stroke-width="1.1005" stroke-linecap="round" stroke-miterlimit="10" x1="217.5" y1="102.8" x2="239.7" y2="102.8"/>
					</g>
				</g>
				<g>
					<g>
						
							<line fill="#FFFFFF" stroke="#FFFFFF" stroke-width="1.1005" stroke-linecap="round" stroke-miterlimit="10" x1="109.2" y1="99.4" x2="141.8" y2="99.4"/>
						
							<line fill="#FFFFFF" stroke="#FFFFFF" stroke-width="1.1005" stroke-linecap="round" stroke-miterlimit="10" x1="114.4" y1="102.8" x2="136.6" y2="102.8"/>
					</g>
				</g>
				<g>
					<g>
						
							<line fill="#FFFFFF" stroke="#FFFFFF" stroke-width="1.1005" stroke-linecap="round" stroke-miterlimit="10" x1="238.1" y1="82" x2="270.6" y2="82"/>
						
							<line fill="#FFFFFF" stroke="#FFFFFF" stroke-width="1.1005" stroke-linecap="round" stroke-miterlimit="10" x1="243.2" y1="85.5" x2="265.5" y2="85.5"/>
					</g>
				</g>
			</g>
		</g>
		<g>
			<defs>
				<path id="SVGID_16_" d="M348.6,292.1H5c-2.4,0-4.3-1.9-4.3-4.3L0.1-80.8c0-2.4,1.9-4.3,4.3-4.3H348c2.4,0,4.3,1.9,4.3,4.3
					l0.6,368.5C352.9,290.1,351,292.1,348.6,292.1z"/>
			</defs>
			<clipPath id="SVGID_8_">
				<use xlink:href="#SVGID_16_"  overflow="visible"/>
			</clipPath>
		</g>
	</g>
	<linearGradient id="SVGID_9_" gradientUnits="userSpaceOnUse" x1="176.5" y1="307.0377" x2="176.5" y2="46.1954">
		<stop  offset="0.4606" style="stop-color:#FFFFFF"/>
		<stop  offset="1" style="stop-color:#FFFFFF;stop-opacity:0"/>
	</linearGradient>
	<rect x="-6.3" y="46.2" clip-path="url(#SVGID_2_)" fill="url(#SVGID_9_)" width="365.6" height="260.8"/>
</g>
</svg>
