<?xml version="1.0" encoding="utf-8"?>
<!-- Generator: Adobe Illustrator 19.1.0, SVG Export Plug-In . SVG Version: 6.00 Build 0)  -->
<svg version="1.1" id="Capa_1" xmlns="http://www.w3.org/2000/svg" xmlns:xlink="http://www.w3.org/1999/xlink" x="0px" y="0px"
	 viewBox="0 0 210 194" style="enable-background:new 0 0 210 194;" xml:space="preserve">
<style type="text/css">
	.st0{fill:none;stroke:#0695D6;stroke-width:3;stroke-linecap:round;stroke-linejoin:round;stroke-miterlimit:10;}
	.st1{fill:none;stroke:#0695D6;stroke-width:2;stroke-linecap:round;stroke-linejoin:round;stroke-miterlimit:10;}
</style>
<g>
	<g>
		<g>
			<path class="st0" d="M148.8,136.6c3.2,5.4,4.8,11.4,4.8,17.8c0,6.4-1.6,12.4-4.8,17.8c-3.2,5.4-7.5,9.7-12.9,12.9
				c-5.4,3.2-11.4,4.8-17.8,4.8s-12.4-1.6-17.8-4.8c-5.4-3.2-9.7-7.5-12.9-12.9c-3.2-5.4-4.8-11.4-4.8-17.8c0-6.4,1.6-12.4,4.8-17.8
				c3.2-5.4,7.5-9.7,12.9-12.9c5.4-3.2,11.4-4.8,17.8-4.8s12.4,1.6,17.8,4.8C141.3,126.8,145.6,131.1,148.8,136.6z"/>
		</g>
		<g>
			<g>
				<path class="st1" d="M127.7,140.6c2.7,2.7,4,5.9,4,9.7c0,3.8-1.3,7-4,9.7c-2.7,2.7-5.9,4-9.7,4c-3.8,0-7-1.3-9.7-4
					c-2.7-2.7-4-5.9-4-9.7c0-3.8,1.3-7,4-9.7c2.7-2.7,5.9-4,9.7-4C121.8,136.6,125,137.9,127.7,140.6z"/>
			</g>
		</g>
		<g>
			<path class="st1" d="M94.1,180.6c0,0,7.8-16.9,23.9-16.9s23.9,16.9,23.9,16.9"/>
		</g>
		<g>
			<path class="st0" d="M164.1,18.6c2.6,4.5,3.9,9.3,3.9,14.6s-1.3,10.1-3.9,14.6s-6.1,8-10.6,10.6c-4.5,2.6-9.3,3.9-14.6,3.9
				c-5.3,0-10.1-1.3-14.6-3.9c-4.5-2.6-8-6.1-10.6-10.6s-3.9-9.3-3.9-14.6s1.3-10.1,3.9-14.6s6.1-8,10.6-10.6
				c4.5-2.6,9.3-3.9,14.6-3.9c5.3,0,10.1,1.3,14.6,3.9C158,10.6,161.5,14.2,164.1,18.6z"/>
		</g>
		<g>
			<g>
				<path class="st1" d="M146.8,21.9c2.2,2.2,3.3,4.8,3.3,7.9c0,3.1-1.1,5.7-3.3,7.9c-2.2,2.2-4.8,3.3-7.9,3.3
					c-3.1,0-5.7-1.1-7.9-3.3c-2.2-2.2-3.3-4.8-3.3-7.9c0-3.1,1.1-5.7,3.3-7.9c2.2-2.2,4.8-3.3,7.9-3.3
					C142,18.6,144.7,19.7,146.8,21.9z"/>
			</g>
		</g>
		<g>
			<path class="st1" d="M119.3,54.7c0,0,6.3-13.8,19.6-13.8s19.6,13.8,19.6,13.8"/>
		</g>
		<g>
			<path class="st1" d="M175,87.6c1.4,2.3,2,4.8,2,7.6c0,2.7-0.7,5.3-2,7.6c-1.4,2.3-3.2,4.1-5.5,5.5c-2.3,1.4-4.8,2-7.6,2
				s-5.3-0.7-7.6-2c-2.3-1.4-4.1-3.2-5.5-5.5c-1.4-2.3-2-4.8-2-7.6c0-2.7,0.7-5.3,2-7.6c1.4-2.3,3.2-4.1,5.5-5.5
				c2.3-1.4,4.8-2,7.6-2s5.3,0.7,7.6,2C171.8,83.4,173.6,85.3,175,87.6z"/>
		</g>
		<g>
			<g>
				<path class="st1" d="M166,89.3c1.1,1.1,1.7,2.5,1.7,4.1c0,1.6-0.6,3-1.7,4.1c-1.1,1.1-2.5,1.7-4.1,1.7s-3-0.6-4.1-1.7
					c-1.1-1.1-1.7-2.5-1.7-4.1c0-1.6,0.6-3,1.7-4.1c1.1-1.1,2.5-1.7,4.1-1.7S164.9,88.2,166,89.3z"/>
			</g>
		</g>
		<g>
			<path class="st1" d="M151.7,106.4c0,0,3.3-7.2,10.2-7.2s10.2,7.2,10.2,7.2"/>
		</g>
		<g>
			<path class="st1" d="M61.2,26c1.4,2.3,2,4.8,2,7.6c0,2.7-0.7,5.3-2,7.6c-1.4,2.3-3.2,4.1-5.5,5.5c-2.3,1.4-4.8,2-7.6,2
				c-2.7,0-5.3-0.7-7.6-2c-2.3-1.4-4.1-3.2-5.5-5.5c-1.4-2.3-2-4.8-2-7.6c0-2.7,0.7-5.3,2-7.6c1.4-2.3,3.2-4.1,5.5-5.5
				c2.3-1.4,4.8-2,7.6-2c2.7,0,5.3,0.7,7.6,2C58,21.9,59.8,23.7,61.2,26z"/>
		</g>
		<g>
			<g>
				<path class="st1" d="M52.2,27.7c1.1,1.1,1.7,2.5,1.7,4.1c0,1.6-0.6,3-1.7,4.1c-1.1,1.1-2.5,1.7-4.1,1.7c-1.6,0-3-0.6-4.1-1.7
					c-1.1-1.1-1.7-2.5-1.7-4.1c0-1.6,0.6-3,1.7-4.1c1.1-1.1,2.5-1.7,4.1-1.7C49.7,26,51.1,26.6,52.2,27.7z"/>
			</g>
		</g>
		<g>
			<path class="st1" d="M37.9,44.8c0,0,3.3-7.2,10.2-7.2s10.2,7.2,10.2,7.2"/>
		</g>
		<g>
			<path class="st1" d="M63.3,123.1c1.4,2.3,2,4.8,2,7.6c0,2.7-0.7,5.3-2,7.6c-1.4,2.3-3.2,4.1-5.5,5.5c-2.3,1.4-4.8,2-7.6,2
				c-2.7,0-5.3-0.7-7.6-2c-2.3-1.4-4.1-3.2-5.5-5.5c-1.4-2.3-2-4.8-2-7.6c0-2.7,0.7-5.3,2-7.6c1.4-2.3,3.2-4.1,5.5-5.5
				c2.3-1.4,4.8-2,7.6-2c2.7,0,5.3,0.7,7.6,2C60.1,118.9,61.9,120.8,63.3,123.1z"/>
		</g>
		<g>
			<g>
				<path class="st1" d="M54.3,124.8c1.1,1.1,1.7,2.5,1.7,4.1c0,1.6-0.6,3-1.7,4.1c-1.1,1.1-2.5,1.7-4.1,1.7c-1.6,0-3-0.6-4.1-1.7
					c-1.1-1.1-1.7-2.5-1.7-4.1c0-1.6,0.6-3,1.7-4.1c1.1-1.1,2.5-1.7,4.1-1.7C51.8,123.1,53.2,123.7,54.3,124.8z"/>
			</g>
		</g>
		<g>
			<path class="st1" d="M40,141.8c0,0,3.3-7.2,10.2-7.2s10.2,7.2,10.2,7.2"/>
		</g>
		<g>
			<path class="st0" d="M107.4,71.8c1.9,3.3,2.9,6.9,2.9,10.8s-1,7.5-2.9,10.8c-1.9,3.3-4.5,5.9-7.8,7.8c-3.3,1.9-6.9,2.9-10.8,2.9
				c-3.9,0-7.5-1-10.8-2.9c-3.3-1.9-5.9-4.5-7.8-7.8c-1.9-3.3-2.9-6.9-2.9-10.8s1-7.5,2.9-10.8c1.9-3.3,4.5-5.9,7.8-7.8
				c3.3-1.9,6.9-2.9,10.8-2.9c3.9,0,7.5,1,10.8,2.9C102.9,65.9,105.5,68.5,107.4,71.8z"/>
		</g>
		<g>
			<g>
				<path class="st1" d="M94.7,74.3c1.6,1.6,2.4,3.6,2.4,5.8c0,2.3-0.8,4.2-2.4,5.8c-1.6,1.6-3.5,2.4-5.8,2.4
					c-2.3,0-4.2-0.8-5.8-2.4c-1.6-1.6-2.4-3.6-2.4-5.8c0-2.3,0.8-4.2,2.4-5.8c1.6-1.6,3.5-2.4,5.8-2.4C91.1,71.9,93,72.7,94.7,74.3z
					"/>
			</g>
		</g>
		<g>
			<path class="st1" d="M74.4,98.4c0,0,4.7-10.2,14.4-10.2s14.4,10.2,14.4,10.2"/>
		</g>
	</g>
</g>
</svg>
