<?xml version="1.0" encoding="utf-8"?>
<!-- Generator: Adobe Illustrator 19.1.0, SVG Export Plug-In . SVG Version: 6.00 Build 0)  -->
<svg version="1.1" id="Capa_1" xmlns="http://www.w3.org/2000/svg" xmlns:xlink="http://www.w3.org/1999/xlink" x="0px" y="0px"
	 viewBox="0 0 210 262" style="enable-background:new 0 0 210 262;" xml:space="preserve">
<style type="text/css">
	.st0{fill:none;stroke:#0695D6;stroke-width:3;stroke-linecap:round;stroke-linejoin:round;stroke-miterlimit:10;}
	.st1{fill:none;stroke:#0695D6;stroke-width:2;stroke-linecap:round;stroke-linejoin:round;stroke-miterlimit:10;}
	.st2{fill:none;stroke:#0695D6;stroke-width:1.5329;stroke-linecap:round;stroke-linejoin:round;stroke-miterlimit:10;}
	.st3{fill:none;stroke:#0695D6;stroke-linecap:round;stroke-linejoin:round;stroke-miterlimit:10;}
</style>
<path class="st0" d="M58.7,174.9c-3.8,6.4-5.6,13.5-5.6,21.1c0,7.6,1.9,14.7,5.6,21.1c3.8,6.4,8.9,11.5,15.3,15.3
	c6.4,3.8,13.5,5.6,21.1,5.6c7.6,0,14.7-1.9,21.1-5.6c6.4-3.8,11.5-8.9,15.3-15.3c3.8-6.4,5.6-13.5,5.6-21.1c0-7.6-1.9-14.7-5.6-21.1
	s-8.9-11.5-15.3-15.3c-6.4-3.8-13.5-5.6-21.1-5.6c-7.6,0-14.7,1.9-21.1,5.6C67.6,163.4,62.5,168.5,58.7,174.9z"/>
<path class="st1" d="M95.1,175c4.5,0,8.3,1.6,11.4,4.7c3.2,3.2,4.7,7,4.7,11.4c0,4.5-1.6,8.3-4.7,11.4c-3.1,3.1-7,4.7-11.4,4.7
	c-4.5,0-8.3-1.6-11.4-4.7c-3.2-3.2-4.7-7-4.7-11.4c0-4.5,1.6-8.3,4.7-11.4C86.8,176.6,90.6,175,95.1,175z"/>
<path class="st1" d="M123.4,227.1c0,0-9.2-20-28.3-20s-28.3,20-28.3,20"/>
<path class="st0" d="M40.6,35.3c-3.1,5.3-4.6,11-4.6,17.3s1.5,12,4.6,17.3c3.1,5.3,7.3,9.4,12.5,12.5c5.3,3.1,11,4.6,17.3,4.6
	c6.2,0,12-1.5,17.3-4.6c5.3-3.1,9.4-7.2,12.5-12.5c3.1-5.3,4.6-11,4.6-17.3s-1.5-12-4.6-17.3c-3.1-5.3-7.3-9.4-12.5-12.5
	c-5.3-3.1-11-4.6-17.3-4.6c-6.2,0-12,1.5-17.3,4.6C47.8,25.9,43.7,30,40.6,35.3z"/>
<path class="st1" d="M70.4,35.4c3.7,0,6.8,1.3,9.4,3.9c2.6,2.6,3.9,5.7,3.9,9.4c0,3.7-1.3,6.8-3.9,9.4c-2.6,2.6-5.7,3.9-9.4,3.9
	c-3.7,0-6.8-1.3-9.4-3.9c-2.6-2.6-3.9-5.7-3.9-9.4c0-3.7,1.3-6.8,3.9-9.4C63.6,36.6,66.7,35.4,70.4,35.4z"/>
<path class="st1" d="M93.6,78c0,0-7.5-16.4-23.2-16.4S47.2,78,47.2,78"/>
<path class="st0" d="M139.4,111.8c-2.3,3.9-3.4,8.1-3.4,12.7c0,4.6,1.1,8.8,3.4,12.7s5.3,7,9.2,9.2c3.9,2.3,8.1,3.4,12.7,3.4
	s8.8-1.1,12.7-3.4c3.9-2.3,7-5.3,9.2-9.2s3.4-8.1,3.4-12.7c0-4.6-1.1-8.8-3.4-12.7c-2.3-3.9-5.3-7-9.2-9.2
	c-3.9-2.3-8.1-3.4-12.7-3.4s-8.8,1.1-12.7,3.4C144.8,104.9,141.7,108,139.4,111.8z"/>
<path class="st1" d="M161.4,111.9c2.7,0,5,1,6.9,2.9c1.9,1.9,2.9,4.2,2.9,6.9c0,2.7-1,5-2.9,6.9c-1.9,1.9-4.2,2.9-6.9,2.9
	c-2.7,0-5-1-6.9-2.9c-1.9-1.9-2.9-4.2-2.9-6.9c0-2.7,1-5,2.9-6.9C156.4,112.8,158.7,111.9,161.4,111.9z"/>
<path class="st1" d="M178.5,143.4c0,0-5.5-12.1-17.1-12.1s-17.1,12.1-17.1,12.1"/>
<path class="st1" d="M175.9,41.4c1.3,2.2,1.9,4.6,1.9,7.2s-0.6,5-1.9,7.2s-3,4-5.2,5.2c-2.2,1.3-4.6,1.9-7.2,1.9
	c-2.6,0-5-0.6-7.2-1.9c-2.2-1.3-4-3-5.2-5.2c-1.3-2.2-1.9-4.6-1.9-7.2s0.6-5,1.9-7.2c1.3-2.2,3-4,5.2-5.2c2.2-1.3,4.6-1.9,7.2-1.9
	c2.6,0,5,0.6,7.2,1.9C172.8,37.4,174.6,39.1,175.9,41.4z"/>
<g>
	<path class="st3" d="M170.2,47.7v1.9c0,0.3-0.1,0.5-0.3,0.7c-0.2,0.2-0.4,0.3-0.7,0.3h-4v4c0,0.3-0.1,0.5-0.3,0.7
		c-0.2,0.2-0.4,0.3-0.7,0.3h-1.9c-0.3,0-0.5-0.1-0.7-0.3c-0.2-0.2-0.3-0.4-0.3-0.7v-4h-4c-0.3,0-0.5-0.1-0.7-0.3
		c-0.2-0.2-0.3-0.4-0.3-0.7v-1.9c0-0.3,0.1-0.5,0.3-0.7c0.2-0.2,0.4-0.3,0.7-0.3h4v-4c0-0.3,0.1-0.5,0.3-0.7
		c0.2-0.2,0.4-0.3,0.7-0.3h1.9c0.3,0,0.5,0.1,0.7,0.3c0.2,0.2,0.3,0.4,0.3,0.7v4h4c0.3,0,0.5,0.1,0.7,0.3
		C170.1,47.2,170.2,47.4,170.2,47.7z"/>
</g>
<path class="st1" d="M47.5,119.1c1.3,2.2,1.9,4.6,1.9,7.2c0,2.6-0.6,5-1.9,7.2c-1.3,2.2-3,4-5.2,5.2c-2.2,1.3-4.6,1.9-7.2,1.9
	s-5-0.6-7.2-1.9c-2.2-1.3-4-3-5.2-5.2c-1.3-2.2-1.9-4.6-1.9-7.2c0-2.6,0.6-5,1.9-7.2c1.3-2.2,3-4,5.2-5.2c2.2-1.3,4.6-1.9,7.2-1.9
	s5,0.6,7.2,1.9C44.5,115.2,46.2,116.9,47.5,119.1z"/>
<g>
	<path class="st3" d="M41.9,125.4v1.9c0,0.3-0.1,0.5-0.3,0.7c-0.2,0.2-0.4,0.3-0.7,0.3h-4v4c0,0.3-0.1,0.5-0.3,0.7
		c-0.2,0.2-0.4,0.3-0.7,0.3h-1.9c-0.3,0-0.5-0.1-0.7-0.3c-0.2-0.2-0.3-0.4-0.3-0.7v-4h-4c-0.3,0-0.5-0.1-0.7-0.3
		c-0.2-0.2-0.3-0.4-0.3-0.7v-1.9c0-0.3,0.1-0.5,0.3-0.7c0.2-0.2,0.4-0.3,0.7-0.3h4v-4c0-0.3,0.1-0.5,0.3-0.7
		c0.2-0.2,0.4-0.3,0.7-0.3H36c0.3,0,0.5,0.1,0.7,0.3c0.2,0.2,0.3,0.4,0.3,0.7v4h4c0.3,0,0.5,0.1,0.7,0.3
		C41.8,125,41.9,125.2,41.9,125.4z"/>
</g>
<path class="st1" d="M187.9,137.9c1,1.7,1.5,3.5,1.5,5.5s-0.5,3.8-1.5,5.5c-1,1.7-2.3,3-4,4c-1.7,1-3.5,1.5-5.5,1.5
	s-3.8-0.5-5.5-1.5c-1.7-1-3-2.3-4-4c-1-1.7-1.5-3.5-1.5-5.5s0.5-3.8,1.5-5.5c1-1.7,2.3-3,4-4c1.7-1,3.5-1.5,5.5-1.5s3.8,0.5,5.5,1.5
	C185.6,134.9,187,136.2,187.9,137.9z" style="fill:white"/>
<g>
	<path class="st3" d="M183.7,142.7v1.4c0,0.2-0.1,0.4-0.2,0.5c-0.1,0.1-0.3,0.2-0.5,0.2h-3.1v3.1c0,0.2-0.1,0.4-0.2,0.5
		c-0.1,0.1-0.3,0.2-0.5,0.2h-1.4c-0.2,0-0.4-0.1-0.5-0.2c-0.1-0.1-0.2-0.3-0.2-0.5v-3.1h-3.1c-0.2,0-0.4-0.1-0.5-0.2
		c-0.1-0.1-0.2-0.3-0.2-0.5v-1.4c0-0.2,0.1-0.4,0.2-0.5c0.1-0.1,0.3-0.2,0.5-0.2h3.1v-3.1c0-0.2,0.1-0.4,0.2-0.5
		c0.1-0.1,0.3-0.2,0.5-0.2h1.4c0.2,0,0.4,0.1,0.5,0.2c0.1,0.1,0.2,0.3,0.2,0.5v3.1h3.1c0.2,0,0.4,0.1,0.5,0.2
		C183.6,142.3,183.7,142.5,183.7,142.7z"/>
</g>
<path class="st1" d="M135.9,222.2c1.3,2.2,1.9,4.6,1.9,7.2c0,2.6-0.6,5-1.9,7.2c-1.3,2.2-3,4-5.2,5.2c-2.2,1.3-4.6,1.9-7.2,1.9
	s-5-0.6-7.2-1.9c-2.2-1.3-4-3-5.2-5.2c-1.3-2.2-1.9-4.6-1.9-7.2c0-2.6,0.6-5,1.9-7.2c1.3-2.2,3-4,5.2-5.2c2.2-1.3,4.6-1.9,7.2-1.9
	s5,0.6,7.2,1.9C132.9,218.2,134.6,220,135.9,222.2z" style="fill:white"/>
<g>
	<path class="st3" d="M130.3,228.5v1.9c0,0.3-0.1,0.5-0.3,0.7c-0.2,0.2-0.4,0.3-0.7,0.3h-4v4c0,0.3-0.1,0.5-0.3,0.7
		c-0.2,0.2-0.4,0.3-0.7,0.3h-1.9c-0.3,0-0.5-0.1-0.7-0.3c-0.2-0.2-0.3-0.4-0.3-0.7v-4h-4c-0.3,0-0.5-0.1-0.7-0.3
		c-0.2-0.2-0.3-0.4-0.3-0.7v-1.9c0-0.3,0.1-0.5,0.3-0.7c0.2-0.2,0.4-0.3,0.7-0.3h4v-4c0-0.3,0.1-0.5,0.3-0.7
		c0.2-0.2,0.4-0.3,0.7-0.3h1.9c0.3,0,0.5,0.1,0.7,0.3c0.2,0.2,0.3,0.4,0.3,0.7v4h4c0.3,0,0.5,0.1,0.7,0.3
		C130.2,228,130.3,228.2,130.3,228.5z"/>
</g>
<path class="st1" d="M110.5,70.8c1.3,2.2,1.9,4.6,1.9,7.2c0,2.6-0.6,5-1.9,7.2c-1.3,2.2-3,4-5.2,5.2c-2.2,1.3-4.6,1.9-7.2,1.9
	c-2.6,0-5-0.6-7.2-1.9c-2.2-1.3-4-3-5.2-5.2s-1.9-4.6-1.9-7.2c0-2.6,0.6-5,1.9-7.2s3-4,5.2-5.2c2.2-1.3,4.6-1.9,7.2-1.9
	c2.6,0,5,0.6,7.2,1.9C107.5,66.9,109.2,68.6,110.5,70.8z" style="fill:white"/>
<g>
	<path class="st3" d="M104.9,77.1V79c0,0.3-0.1,0.5-0.3,0.7c-0.2,0.2-0.4,0.3-0.7,0.3h-4v4c0,0.3-0.1,0.5-0.3,0.7
		c-0.2,0.2-0.4,0.3-0.7,0.3h-1.9c-0.3,0-0.5-0.1-0.7-0.3c-0.2-0.2-0.3-0.4-0.3-0.7v-4h-4c-0.3,0-0.5-0.1-0.7-0.3
		c-0.2-0.2-0.3-0.4-0.3-0.7v-1.9c0-0.3,0.1-0.5,0.3-0.7c0.2-0.2,0.4-0.3,0.7-0.3h4v-4c0-0.3,0.1-0.5,0.3-0.7
		c0.2-0.2,0.4-0.3,0.7-0.3H99c0.3,0,0.5,0.1,0.7,0.3c0.2,0.2,0.3,0.4,0.3,0.7v4h4c0.3,0,0.5,0.1,0.7,0.3
		C104.8,76.6,104.9,76.9,104.9,77.1z"/>
</g>
</svg>
