<?xml version="1.0" encoding="utf-8"?>
<!-- Generator: Adobe Illustrator 19.1.0, SVG Export Plug-In . SVG Version: 6.00 Build 0)  -->
<svg version="1.1" id="kit-svg" xmlns="http://www.w3.org/2000/svg" xmlns:xlink="http://www.w3.org/1999/xlink" x="0px" y="0px"
	 viewBox="0 0 210 262" style="visibility:hidden;enable-background:new 0 0 210 262;" xml:space="preserve">
<style type="text/css">
	.st0{fill:none;stroke:#0695D6;stroke-width:3;stroke-linejoin:round;stroke-miterlimit:10;}
	.st1{fill:none;stroke:#0695D6;stroke-width:3;stroke-linecap:round;stroke-linejoin:round;stroke-miterlimit:10;}
	.st2{fill:none;stroke:#0695D6;stroke-linecap:round;stroke-linejoin:round;stroke-miterlimit:10;}
	.st3{fill:none;stroke:#0695D6;stroke-width:0.75;stroke-linecap:round;stroke-linejoin:round;stroke-miterlimit:10;}
	.st4{fill:none;stroke:#0695D6;stroke-width:2;stroke-linecap:round;stroke-linejoin:round;stroke-miterlimit:10;}
</style>
<path class="st0" d="M28.4,216.6c-5.4-1.9-9.3-7.1-9.3-13.2V28.8c0-7.7,6.3-14,14-14H168c6.6,0,12.2,4.6,13.6,10.7"/>
<path class="st1" d="M176.9,227.3H42c-7.7,0-14-6.3-14-14V38.8c0-7.7,6.3-14,14-14h134.8c7.7,0,14,6.3,14,14v174.6
	C190.9,221.1,184.6,227.3,176.9,227.3z"/>
<g>
	<path class="st2" d="M49.4,119.6H41v-19h8.1c3.3,0,5.7,0.7,7.1,2.2c1.4,1.5,2.2,3.8,2.2,7.1c0,3.2-0.7,5.7-2.1,7.3
		C54.9,118.8,52.6,119.6,49.4,119.6z M51.7,110.3c0-1.7-0.2-2.8-0.5-3.4c-0.4-0.6-1.1-0.8-2.4-0.8h-1.2v8.3h1.2c1,0,1.7-0.2,2.2-0.7
		C51.5,113,51.7,111.9,51.7,110.3z"/>
	<path class="st2" d="M59.8,119.6l4.2-19h10l4.3,19h-6.7l-0.5-2.2h-4.4l-0.5,2.2H59.8z M68.7,105.8l-1.1,6.6h2.8l-1-6.6H68.7z"/>
	<path class="st2" d="M78.5,106v-5.4h14.3v5.4h-3.7v13.6h-6.6V106H78.5z"/>
	<path class="st2" d="M113.1,110.1c0,3.5-0.7,6-2.2,7.5c-1.4,1.6-3.8,2.3-6.9,2.3c-3.2,0-5.5-0.8-6.9-2.4c-1.5-1.6-2.2-4.1-2.2-7.5
		c0-3.4,0.7-5.9,2.2-7.5c1.4-1.6,3.8-2.3,6.9-2.3c3.2,0,5.5,0.8,6.9,2.3C112.4,104.2,113.1,106.7,113.1,110.1z M101.6,110.1
		c0,1.6,0.2,2.8,0.5,3.5c0.3,0.7,1,1.1,2,1.1c1,0,1.6-0.3,2-1c0.3-0.7,0.5-1.9,0.5-3.5c0-1.6-0.1-2.8-0.4-3.5c-0.3-0.7-0.9-1-2-1
		c-1,0-1.7,0.4-2,1.1C101.7,107.4,101.6,108.5,101.6,110.1z"/>
	<path class="st2" d="M130.7,106.1c-2.7-0.3-4.6-0.4-5.8-0.4c-1.2,0-1.9,0-2.1,0.1c-0.2,0.1-0.3,0.2-0.3,0.4c0,0.2,0.1,0.4,0.3,0.5
		c0.2,0.1,0.9,0.3,2.2,0.6c1.2,0.3,2.2,0.5,3,0.8c0.8,0.3,1.5,0.6,2.1,1.1c0.6,0.5,1,1,1.2,1.7c0.2,0.7,0.3,1.6,0.3,2.7
		c0,2.3-0.6,4-1.9,5c-1.3,1-3.1,1.5-5.7,1.5c-1.2,0-2.5-0.1-3.8-0.3c-1.3-0.2-2.4-0.3-3.1-0.5l-1.1-0.3l0.3-5
		c2.9,0.4,5.3,0.6,7.2,0.6c1,0,1.5-0.2,1.5-0.7c0-0.2-0.1-0.3-0.3-0.4c-0.2-0.1-0.8-0.2-1.9-0.4c-2.7-0.4-4.5-1.1-5.4-1.9
		c-1-0.9-1.4-2.3-1.4-4.3c0-2.5,0.6-4.3,1.9-5.2c1.2-0.9,3.1-1.4,5.7-1.4c1.8,0,3.9,0.2,6.4,0.5l1.2,0.2L130.7,106.1z"/>
	<path class="st2" d="M40,142.4l4.2-19h10l4.3,19h-6.7l-0.5-2.2H47l-0.5,2.2H40z M48.9,128.5l-1.1,6.6h2.8l-1-6.6H48.9z"/>
	<path class="st2" d="M115.6,137.5H114v4.9h-6.6v-19h8c2.9,0,5.1,0.5,6.3,1.5c1.3,1,1.9,2.8,1.9,5.4c0,2.6-0.7,4.5-2.1,5.7l1.9,6.5
		h-6.7L115.6,137.5z M115.6,132.3c0.9,0,1.4-0.6,1.4-1.9c0-1.2-0.5-1.9-1.6-1.9H114v3.7H115.6z"/>
	<path class="st2" d="M126,128.7v-5.4h14.3v5.4h-3.7v13.6h-6.6v-13.6H126z"/>
	<path class="st2" d="M160.5,132.9c0,3.5-0.7,6-2.2,7.5c-1.4,1.6-3.8,2.3-6.9,2.3c-3.2,0-5.5-0.8-6.9-2.4c-1.5-1.6-2.2-4.1-2.2-7.5
		c0-3.4,0.7-5.9,2.2-7.5c1.4-1.6,3.8-2.3,6.9-2.3c3.2,0,5.5,0.8,6.9,2.3C159.8,126.9,160.5,129.4,160.5,132.9z M149,132.9
		c0,1.6,0.2,2.8,0.5,3.5c0.3,0.7,1,1.1,2,1.1c1,0,1.6-0.3,2-1c0.3-0.7,0.5-1.9,0.5-3.5c0-1.6-0.1-2.8-0.4-3.5c-0.3-0.7-0.9-1-2-1
		c-1,0-1.7,0.4-2,1.1C149.2,130.1,149,131.3,149,132.9z"/>
	<path class="st2" d="M178.1,128.9c-2.7-0.3-4.6-0.4-5.8-0.4c-1.2,0-1.9,0-2.1,0.1c-0.2,0.1-0.3,0.2-0.3,0.4c0,0.2,0.1,0.4,0.3,0.5
		c0.2,0.1,0.9,0.3,2.2,0.6c1.2,0.3,2.2,0.5,3,0.8c0.8,0.3,1.5,0.6,2.1,1.1c0.6,0.5,1,1,1.2,1.7c0.2,0.7,0.3,1.6,0.3,2.7
		c0,2.3-0.6,4-1.9,5c-1.3,1-3.1,1.5-5.7,1.5c-1.2,0-2.5-0.1-3.8-0.3c-1.3-0.2-2.4-0.3-3.1-0.5l-1.1-0.3l0.3-5
		c2.9,0.4,5.3,0.6,7.2,0.6c1,0,1.5-0.2,1.5-0.7c0-0.2-0.1-0.3-0.3-0.4c-0.2-0.1-0.8-0.2-1.9-0.4c-2.7-0.4-4.5-1.1-5.4-1.9
		c-1-0.9-1.4-2.3-1.4-4.3c0-2.5,0.6-4.3,1.9-5.2c1.2-0.9,3.1-1.4,5.7-1.4c1.8,0,3.9,0.2,6.4,0.5l1.2,0.2L178.1,128.9z"/>
	<path class="st2" d="M61,123.4h8.6c4.7,0,7,1.6,7,4.7c0,1.2-0.1,2.1-0.4,2.7c-0.3,0.6-0.8,1.2-1.6,1.8c0.9,0.4,1.6,0.9,1.9,1.5
		c0.4,0.6,0.5,1.5,0.5,2.9c0,3.6-2.5,5.4-7.4,5.4H61V123.4z M69,127.7h-1.5v3h1.5c0.6,0,1-0.1,1.2-0.4c0.2-0.2,0.3-0.6,0.3-1.2
		s-0.1-0.9-0.4-1.1C70,127.8,69.6,127.7,69,127.7z M69.1,134.9h-1.5v3.1h1.5c0.7,0,1.1-0.1,1.3-0.3c0.2-0.2,0.3-0.6,0.3-1.2
		c0-0.6-0.1-1-0.4-1.2C70.2,135,69.8,134.9,69.1,134.9z"/>
	<path class="st2" d="M80,142.4v-19h6.6v19H80z"/>
	<path class="st2" d="M90,142.4v-19h14.3v5.2h-7.7v1.6h6v5.2h-6v1.7h7.7v5.2H90z"/>
	<g>
		<g>
			<path class="st3" d="M43.4,95.2h-2.2V84.5h2.2v4.7l1.4-0.2l1.8-4.5h2.5l-2.3,5.3l2.4,5.3h-2.5l-1.8-4.2l-1.4,0.2V95.2z"/>
			<path class="st3" d="M51.9,95.2V84.5H54v10.6H51.9z"/>
			<path class="st3" d="M56.7,86.4v-1.9h7.9v1.9h-2.8v8.7h-2.2v-8.7H56.7z"/>
			<path class="st3" d="M78.4,84.2v10.9h-2.1v-0.3c-0.7,0.3-1.4,0.5-1.9,0.5c-1.1,0-1.9-0.3-2.4-1c-0.5-0.7-0.7-1.7-0.7-3.1
				c0-1.4,0.3-2.5,0.8-3.1c0.5-0.7,1.4-1,2.4-1c0.3,0,0.8,0.1,1.4,0.2l0.3,0.1v-3.2H78.4z M76,93.3l0.2,0v-4.1
				C75.7,89,75.2,89,74.7,89c-0.8,0-1.3,0.8-1.3,2.2c0,0.8,0.1,1.4,0.3,1.7c0.2,0.3,0.5,0.5,0.9,0.5S75.6,93.4,76,93.3z"/>
			<path class="st3" d="M83.7,93.2c0.2,0.2,0.6,0.3,1.1,0.3c1,0,1.8,0,2.6-0.1l0.4,0l0,1.5c-1.2,0.3-2.3,0.4-3.3,0.4
				c-1.2,0-2-0.3-2.6-0.9c-0.5-0.6-0.8-1.6-0.8-3c0-2.8,1.2-4.2,3.5-4.2c2.3,0,3.4,1.2,3.4,3.5l-0.2,1.5h-4.6
				C83.3,92.6,83.4,93,83.7,93.2z M86,90.5c0-0.6-0.1-1.1-0.3-1.3c-0.2-0.2-0.5-0.4-1-0.4c-0.5,0-0.8,0.1-1.1,0.4
				c-0.2,0.3-0.3,0.7-0.3,1.3H86z"/>
		</g>
	</g>
</g>
<circle class="st1" cx="109.5" cy="224.8" r="22.4" style="fill:white" />
<path class="st4" d="M121.2,225.2c0,0.5-0.2,1-0.6,1.4l-9.8,9.8c-0.4,0.4-0.8,0.6-1.4,0.6c-0.5,0-1-0.2-1.4-0.6l-9.8-9.8
	c-0.4-0.4-0.6-0.8-0.6-1.4c0-0.5,0.2-1,0.6-1.4l1.1-1.1c0.4-0.4,0.8-0.6,1.4-0.6c0.5,0,1,0.2,1.4,0.6l4.4,4.4v-12.7
	c0-0.5,0.2-1,0.6-1.4c0.4-0.4,0.8-0.6,1.4-0.6h1.9c0.5,0,1,0.2,1.4,0.6c0.4,0.4,0.6,0.8,0.6,1.4v12.7l4.4-4.4
	c0.4-0.4,0.8-0.6,1.4-0.6c0.5,0,1,0.2,1.4,0.6l1.1,1.1C121,224.3,121.2,224.7,121.2,225.2z"/>
</svg>
