<?xml version="1.0" encoding="utf-8"?>
<!-- Generator: Adobe Illustrator 19.1.0, SVG Export Plug-In . SVG Version: 6.00 Build 0)  -->
<svg version="1.1" id="Capa_1" xmlns="http://www.w3.org/2000/svg" xmlns:xlink="http://www.w3.org/1999/xlink" x="0px" y="0px"
	 viewBox="0 0 210 194" style="enable-background:new 0 0 210 194;" xml:space="preserve">
<style type="text/css">
	.st0{fill:none;stroke:#0695D6;stroke-width:3;stroke-linecap:round;stroke-linejoin:round;stroke-miterlimit:10;}
	.st1{fill:#FFFFFF;}
	.st2{fill:none;stroke:#0695D6;stroke-width:2;stroke-linecap:round;stroke-linejoin:round;stroke-miterlimit:10;}
</style>
<g>
	<g>
		<g>
			<path class="st0" d="M83.2,166.4L61,173.1c-7.4,2.2-15.2-1.9-17.5-9.3L9.9,53.1c-2.2-7.4,1.9-15.2,9.3-17.5l33.8-10.3"/>
		</g>
		<g>
			<path class="st0" d="M82.6,161.3h-17c-7.7,0-14-6.3-14-14V31.6c0-7.7,6.3-14,14-14h34"/>
		</g>
		<g>
			<path class="st0" d="M175.4,164.5c-2.2,7.4-10.1,11.6-17.5,9.3l-83.7-25.5c-7.4-2.2-11.6-10.1-9.3-17.5L98.5,20.3
				c2.2-7.4,10.1-11.6,17.5-9.3L172.2,28l28.5,53.4L175.4,164.5z"/>
		</g>
		<polyline class="st0" points="172.2,28 159.7,69 200.7,81.4 		"/>
		<g>
			<circle class="st1" cx="105" cy="161.3" r="22.4"/>
			<circle class="st0" cx="105" cy="161.3" r="22.4"/>
		</g>
		<g>
			<g>
				<path class="st1" d="M116.7,161.7c0,0.5-0.2,1-0.6,1.4l-9.8,9.8c-0.4,0.4-0.8,0.6-1.4,0.6c-0.5,0-1-0.2-1.4-0.6l-9.8-9.8
					c-0.4-0.4-0.6-0.8-0.6-1.4c0-0.5,0.2-1,0.6-1.4l1.1-1.1c0.4-0.4,0.8-0.6,1.4-0.6c0.5,0,1,0.2,1.4,0.6l4.4,4.4V151
					c0-0.5,0.2-1,0.6-1.4c0.4-0.4,0.8-0.6,1.4-0.6h1.9c0.5,0,1,0.2,1.4,0.6c0.4,0.4,0.6,0.8,0.6,1.4v12.7l4.4-4.4
					c0.4-0.4,0.8-0.6,1.4-0.6c0.5,0,1,0.2,1.4,0.6l1.1,1.1C116.6,160.8,116.7,161.2,116.7,161.7z"/>
			</g>
			<g>
				<path class="st2" d="M116.7,161.7c0,0.5-0.2,1-0.6,1.4l-9.8,9.8c-0.4,0.4-0.8,0.6-1.4,0.6c-0.5,0-1-0.2-1.4-0.6l-9.8-9.8
					c-0.4-0.4-0.6-0.8-0.6-1.4c0-0.5,0.2-1,0.6-1.4l1.1-1.1c0.4-0.4,0.8-0.6,1.4-0.6c0.5,0,1,0.2,1.4,0.6l4.4,4.4V151
					c0-0.5,0.2-1,0.6-1.4c0.4-0.4,0.8-0.6,1.4-0.6h1.9c0.5,0,1,0.2,1.4,0.6c0.4,0.4,0.6,0.8,0.6,1.4v12.7l4.4-4.4
					c0.4-0.4,0.8-0.6,1.4-0.6c0.5,0,1,0.2,1.4,0.6l1.1,1.1C116.6,160.8,116.7,161.2,116.7,161.7z"/>
			</g>
		</g>
	</g>
</g>
</svg>
