<?xml version="1.0" encoding="utf-8"?>
<!-- Generator: Adobe Illustrator 19.1.0, SVG Export Plug-In . SVG Version: 6.00 Build 0)  -->
<svg version="1.1" id="Capa_1" xmlns="http://www.w3.org/2000/svg" xmlns:xlink="http://www.w3.org/1999/xlink" x="0px" y="0px"
	 viewBox="0 0 25 25" style="enable-background:new 0 0 25 25;" xml:space="preserve">
<style type="text/css">
	.st0{fill:#ffffff;}
	.st1{fill:#ffffff;}
</style>
<path class="st1" d="M15.7,7.5l-3.2,3.2L9.3,7.5L7.5,9.3l3.2,3.2l-3.2,3.2l1.8,1.8l3.2-3.2l3.2,3.2l1.8-1.8l-3.2-3.2l3.2-3.2
	L15.7,7.5z M12.5,0C5.6,0,0,5.6,0,12.5S5.6,25,12.5,25S25,19.4,25,12.5S19.4,0,12.5,0z M12.5,22.5c-5.5,0-10-4.5-10-10s4.5-10,10-10
	s10,4.5,10,10S18,22.5,12.5,22.5z"/>
</svg>
