<?xml version="1.0" encoding="utf-8"?>
<!-- Generator: Adobe Illustrator 21.1.0, SVG Export Plug-In . SVG Version: 6.00 Build 0)  -->
<svg version="1.1" id="Layer_1" xmlns="http://www.w3.org/2000/svg" xmlns:xlink="http://www.w3.org/1999/xlink" x="0px" y="0px"
	 viewBox="0 0 69 70" style="enable-background:new 0 0 69 70;" xml:space="preserve">
<style type="text/css">
	.st0{fill:#5592CE;}
</style>
<g>
	<path class="st0" d="M63.5,47.9c-1.5-0.9-3.4-0.4-4.3,1.2c-2.4,4.3-5.9,7.8-10.2,10.3c-4.3,2.4-9.1,3.8-14.1,3.8s-9.8-1.3-14.1-3.8
		c-4.3-2.5-7.8-6-10.3-10.3C8.1,44.8,6.8,39.9,6.8,35s1.3-9.8,3.8-14.1l0,0c2.5-4.3,6-7.8,10.3-10.3c3.4-2,7.1-3.1,10.9-3.6v28v0.1
		c0,0.1,0,0.2,0,0.3c0,0.1,0,0.2,0.1,0.3c0,0.1,0.1,0.2,0.1,0.3c0,0.1,0.1,0.2,0.1,0.3c0.1,0.1,0.1,0.2,0.2,0.2
		c0.1,0.1,0.1,0.2,0.2,0.2c0.1,0.1,0.2,0.2,0.2,0.2c0.1,0.1,0.2,0.2,0.2,0.2s0.2,0.2,0.2,0.2c0.1,0.1,0.2,0.2,0.3,0.2l0.1,0.1
		l17,9.8c0.5,0.3,1,0.4,1.6,0.4c1.1,0,2.1-0.5,2.7-1.6c0.9-1.5,0.3-3.4-1.2-4.3L38,33.2V3.7c0-1.7-1.4-3.1-3.1-3.1
		c-6,0-12,1.6-17.2,4.6S8.2,12.6,5.1,17.8l0,0C2.1,23,0.5,29,0.5,35s1.6,12,4.6,17.2s7.3,9.5,12.6,12.6c5.2,3,11.2,4.6,17.2,4.6
		s12-1.6,17.2-4.6c5.2-3,9.5-7.3,12.6-12.6C65.5,50.7,65.1,48.8,63.5,47.9z M34.9,36.2c-0.6,0-1.2-0.5-1.2-1.2s0.5-1.2,1.2-1.2
		s1.2,0.5,1.2,1.2S35.5,36.2,34.9,36.2z"/>
	<path class="st0" d="M49.4,10c0.4,0.2,0.8,0.3,1.2,0.3c0.9,0,1.6-0.5,2-1.2c0.6-1.1,0.2-2.6-0.9-3.2c-0.4-0.2-0.8-0.3-1.2-0.3l0,0
		c-0.9,0-1.6,0.5-2,1.2C47.9,7.9,48.3,9.3,49.4,10z"/>
	<path class="st0" d="M61.9,21.7c0.4,0,0.8-0.1,1.2-0.3c0.5-0.3,0.9-0.8,1.1-1.4s0.1-1.3-0.2-1.8c-0.4-0.7-1.2-1.2-2-1.2l0,0
		c-0.4,0-0.8,0.1-1.2,0.3c-1.1,0.6-1.5,2.1-0.9,3.2C60.4,21.2,61.2,21.7,61.9,21.7z"/>
	<circle class="st0" cx="66.2" cy="35" r="2.3"/>
</g>
</svg>
