<?xml version="1.0" encoding="utf-8"?>
<!-- Generator: Adobe Illustrator 19.2.1, SVG Export Plug-In . SVG Version: 6.00 Build 0)  -->
<svg version="1.1" id="Capa_1" xmlns="http://www.w3.org/2000/svg" xmlns:xlink="http://www.w3.org/1999/xlink" x="0px" y="0px"
	 viewBox="0 0 332 68" enable-background="new 0 0 332 68" xml:space="preserve">
<g>
	<g>
		<g>
			<path fill="#777777" d="M323.5,27.8H53.1c-1.7,0-3.1-1.4-3.1-3.1s1.4-3.1,3.1-3.1h270.3c1.7,0,3.1,1.4,3.1,3.1
				S325.2,27.8,323.5,27.8z"/>
		</g>
		<g>
			<path fill="#777777" d="M263.4,46.3H53.1c-1.7,0-3.1-1.4-3.1-3.1s1.4-3.1,3.1-3.1h210.2c1.7,0,3.1,1.4,3.1,3.1
				S265.1,46.3,263.4,46.3z"/>
		</g>
	</g>
	<g>
		<g>
			<g>
				<path fill="#777777" d="M24,56.7l-0.3-1.4c3.1-0.6,5.9-2.3,8.1-5c2.8-3.4,4.4-8,4.4-12.8s-1.6-9.4-4.4-12.8
					c-2.8-3.4-6.5-5.2-10.4-5.2c-3.9,0-7.6,1.9-10.4,5.2c-2.8,3.4-4.4,8-4.4,12.8s1.6,9.4,4.4,12.8c2.2,2.7,5,4.4,8.1,5l-0.3,1.4
					c-3.4-0.7-6.5-2.6-8.9-5.5c-3-3.7-4.7-8.5-4.7-13.7s1.7-10,4.7-13.7C12.9,20,17,18,21.4,18c4.4,0,8.5,2,11.6,5.8
					c3,3.7,4.7,8.5,4.7,13.7s-1.7,10-4.7,13.7C30.5,54.1,27.4,56,24,56.7z"/>
			</g>
		</g>
		<g>
			<rect x="5.7" y="36.5" fill="#777777" width="13.2" height="1.6"/>
		</g>
		<g>
			<rect x="23.7" y="36.5" fill="#777777" width="13.2" height="1.6"/>
		</g>
		<g>
			<path fill="#777777" d="M16.6,34.5c-0.2,0-0.4-0.1-0.5-0.2c-0.2-0.2-0.2-0.5-0.2-0.7l3.1-9.8c0.1-0.2,0.3-0.4,0.5-0.5
				c0.3-0.1,0.5,0,0.7,0.2l6.9,7.6c0.2,0.2,0.2,0.5,0.2,0.7c-0.1,0.2-0.3,0.4-0.5,0.5l-10,2.2C16.7,34.5,16.7,34.5,16.6,34.5z
				 M20,25.4l-2.4,7.4l7.6-1.7L20,25.4z"/>
		</g>
		<path fill="#777777" d="M21.4,15.7c2.3,0,4.5,0.6,6.6,1.6c0.1-0.5,0.2-1,0.2-1.5c0-3.7-3-6.8-6.8-6.8c-3.7,0-6.8,3-6.8,6.8
			c0,0.5,0.1,1,0.2,1.5C16.8,16.2,19.1,15.7,21.4,15.7z"/>
		<g>
			<rect x="20.5" y="32.8" fill="#777777" width="1.6" height="9"/>
		</g>
		<g>
			<rect x="20.5" y="48.1" fill="#777777" width="1.6" height="3.7"/>
		</g>
		<g>
			<g>
				
					<rect x="18" y="55.4" transform="matrix(0.7071 -0.7071 0.7071 0.7071 -33.4472 31.5496)" fill="#777777" width="6.6" height="1.4"/>
			</g>
			<g>
				
					<rect x="20.6" y="52.8" transform="matrix(0.7071 -0.7071 0.7071 0.7071 -33.4466 31.5483)" fill="#777777" width="1.4" height="6.6"/>
			</g>
		</g>
		<g>
			<path fill="#777777" d="M13,53.3l-1.1-1l5.4-5.8c0.2-0.2,0.5-0.3,0.7-0.2l5.4,1.4l2.1-3l-6.5-2.2L8.5,48l-0.7-1.3L18.7,41
				c0.2-0.1,0.4-0.1,0.6,0l7.7,2.6c0.2,0.1,0.4,0.2,0.4,0.5c0.1,0.2,0,0.5-0.1,0.6l-3,4.2c-0.2,0.2-0.5,0.4-0.8,0.3l-5.4-1.4
				L13,53.3z"/>
		</g>
		<g>
			<g>
				<path fill="#777777" d="M30.2,53.3l-5.1-5.5l-0.1,0c-0.3,0.1-0.6,0-0.8-0.3c-0.2-0.2-0.2-0.6,0-0.8l1.4-2.1L21.3,43
					c-0.3-0.1-0.5-0.4-0.5-0.7c0-0.3,0.2-0.6,0.4-0.7l3.3-1.4c0.2-0.1,0.5-0.1,0.7,0.1l10.1,6.5L34.6,48l-9.8-6.3l-1.3,0.6l3.4,1.3
					c0.2,0.1,0.4,0.2,0.4,0.5c0.1,0.2,0,0.4-0.1,0.6L26,46.6l5.3,5.7L30.2,53.3z"/>
			</g>
			<g>
				<path fill="#777777" d="M19.5,49.2c-0.2,0-0.4-0.1-0.6-0.3l-1.1-1.3c-0.2-0.2-0.2-0.6-0.1-0.8c0.2-0.3,0.5-0.4,0.8-0.3l3.2,0.8
					c0.3,0.1,0.5,0.4,0.5,0.7c0,0.3-0.2,0.6-0.5,0.7l-2.1,0.5C19.6,49.2,19.6,49.2,19.5,49.2z"/>
			</g>
		</g>
	</g>
</g>
</svg>
