<svg id="Capa_1" data-name="Capa 1" xmlns="http://www.w3.org/2000/svg" viewBox="0 0 264.99 50">
    <title>logo_ministerio</title><path d="M42.62,11.51h1.87l3,4.71,3-4.71h1.87v10H50.67V14.33L47.52,19H47.46l-3.12-4.67v7.12H42.62v-10Z" style="fill:#4d8fca"/><path d="M54.53,11.16h1.85V12.8H54.53V11.16ZM54.6,14h1.72v7.52H54.6V14Z" style="fill:#4d8fca"/><path d="M58.3,14H60v1.15a2.72,2.72,0,0,1,2.35-1.31A2.58,2.58,0,0,1,65,16.67v4.8H63.33V17.2a1.58,1.58,0,0,0-1.61-1.84A1.67,1.67,0,0,0,60,17.23v4.24H58.3V14Z" style="fill:#4d8fca"/><path d="M66.87,11.16h1.85V12.8H66.87V11.16ZM66.94,14h1.72v7.52H66.94V14Z" style="fill:#4d8fca"/><path
        d="M70,20.49l0.77-1.17a4.25,4.25,0,0,0,2.46.93,1,1,0,0,0,1.17-.81v0c0-.58-0.8-0.78-1.68-1.05-1.11-.31-2.35-0.77-2.35-2.21v0a2.4,2.4,0,0,1,2.68-2.29,5.21,5.21,0,0,1,2.76.85l-0.68,1.22A4.36,4.36,0,0,0,73,15.19a0.87,0.87,0,0,0-1.05.74v0c0,0.56.81,0.78,1.69,1.07,1.1,0.34,2.33.84,2.33,2.19v0c0,1.58-1.22,2.36-2.79,2.36A5.28,5.28,0,0,1,70,20.49Z"
        style="fill:#4d8fca"/><path d="M77.85,19.39v-4h-1V14h1V11.89h1.72V14h2v1.48h-2v3.69a0.82,0.82,0,0,0,.93.94,2.32,2.32,0,0,0,1.07-.26v1.41A3,3,0,0,1,80,21.6,1.93,1.93,0,0,1,77.85,19.39Z" style="fill:#4d8fca"/><path
        d="M82.66,17.74v0a3.73,3.73,0,0,1,3.67-3.92c2.39,0,3.6,1.88,3.6,4,0,0.16,0,.31,0,0.48H84.39a2.1,2.1,0,0,0,2.16,1.91,2.73,2.73,0,0,0,2-.9l1,0.9a3.8,3.8,0,0,1-3.07,1.41A3.75,3.75,0,0,1,82.66,17.74Zm5.57-.56a2,2,0,0,0-1.91-2,2,2,0,0,0-2,2h3.86Z"
        style="fill:#4d8fca"/><path d="M91.41,14h1.72v1.69a2.66,2.66,0,0,1,2.66-1.84v1.82h-0.1c-1.51,0-2.56,1-2.56,3v2.86H91.41V14Z" style="fill:#4d8fca"/><path d="M97,11.16h1.85V12.8H97V11.16ZM97.1,14h1.72v7.52H97.1V14Z" style="fill:#4d8fca"/><path d="M100.39,17.76v0a4,4,0,0,1,8,0v0a3.93,3.93,0,0,1-4,3.92A3.89,3.89,0,0,1,100.39,17.76Zm6.29,0v0a2.32,2.32,0,0,0-2.31-2.42,2.26,2.26,0,0,0-2.26,2.39v0a2.32,2.32,0,0,0,2.29,2.41A2.25,2.25,0,0,0,106.69,17.76Z" style="fill:#4d8fca"/><path
        d="M113.49,17.73v0A3.59,3.59,0,0,1,117,13.8a3.07,3.07,0,0,1,2.56,1.32v-4h1.72V21.47h-1.72V20.22A3,3,0,0,1,117,21.63,3.6,3.6,0,0,1,113.49,17.73Zm6.08,0v0a2.26,2.26,0,0,0-2.18-2.41,2.2,2.2,0,0,0-2.16,2.41v0a2.24,2.24,0,0,0,2.16,2.41A2.26,2.26,0,0,0,119.57,17.73Z"
        style="fill:#4d8fca"/><path
        d="M122.74,17.74v0a3.73,3.73,0,0,1,3.67-3.92c2.39,0,3.6,1.88,3.6,4,0,0.16,0,.31,0,0.48h-5.52a2.1,2.1,0,0,0,2.16,1.91,2.73,2.73,0,0,0,2-.9l1,0.9a3.8,3.8,0,0,1-3.07,1.41A3.75,3.75,0,0,1,122.74,17.74Zm5.57-.56a2,2,0,0,0-1.91-2,2,2,0,0,0-2,2h3.86Z"
        style="fill:#4d8fca"/><path d="M135.68,11.51h1.87l3,4.71,3-4.71h1.87v10h-1.75V14.33L140.58,19h-0.06l-3.12-4.67v7.12h-1.72v-10Z" style="fill:#4d8fca"/><path d="M147.14,17.76v0a4,4,0,0,1,8,0v0a3.93,3.93,0,0,1-4,3.92A3.89,3.89,0,0,1,147.14,17.76Zm6.29,0v0a2.32,2.32,0,0,0-2.31-2.42,2.26,2.26,0,0,0-2.26,2.39v0a2.32,2.32,0,0,0,2.29,2.41A2.26,2.26,0,0,0,153.44,17.76Z" style="fill:#4d8fca"/><path
        d="M156.26,17.73v0a3.59,3.59,0,0,1,3.49-3.9,3.07,3.07,0,0,1,2.56,1.32v-4H164V21.47h-1.72V20.22a3,3,0,0,1-2.56,1.41A3.6,3.6,0,0,1,156.26,17.73Zm6.08,0v0a2.26,2.26,0,0,0-2.18-2.41A2.2,2.2,0,0,0,158,17.7v0a2.24,2.24,0,0,0,2.16,2.41A2.26,2.26,0,0,0,162.33,17.73Z"
        style="fill:#4d8fca"/><path
        d="M165.5,17.74v0a3.73,3.73,0,0,1,3.67-3.92c2.39,0,3.6,1.88,3.6,4,0,0.16,0,.31,0,0.48h-5.52a2.1,2.1,0,0,0,2.16,1.91,2.73,2.73,0,0,0,2-.9l1,0.9a3.8,3.8,0,0,1-3.08,1.41A3.75,3.75,0,0,1,165.5,17.74Zm5.57-.56a2,2,0,0,0-1.91-2,2,2,0,0,0-2,2h3.86Z"
        style="fill:#4d8fca"/><path d="M174.24,14H176v1.69a2.66,2.66,0,0,1,2.66-1.84v1.82h-0.1c-1.51,0-2.56,1-2.56,3v2.86h-1.72V14Z" style="fill:#4d8fca"/><path d="M179.85,14h1.72v1.15a2.72,2.72,0,0,1,2.35-1.31,2.58,2.58,0,0,1,2.68,2.88v4.8h-1.72V17.2a1.58,1.58,0,0,0-1.61-1.84,1.67,1.67,0,0,0-1.69,1.86v4.24h-1.72V14Z" style="fill:#4d8fca"/><path d="M188.42,11.16h1.85V12.8h-1.85V11.16ZM188.49,14h1.72v7.52h-1.72V14Z" style="fill:#4d8fca"/><path d="M191.84,20.29l4.34-4.93H192V14h6.38v1.18L194,20.06h4.34v1.41h-6.53V20.29Z" style="fill:#4d8fca"/><path
        d="M199.37,19.31v0c0-1.62,1.27-2.42,3.1-2.42a6.28,6.28,0,0,1,2,.31V17a1.58,1.58,0,0,0-1.87-1.64,5.23,5.23,0,0,0-2.15.47L200,14.47a6.42,6.42,0,0,1,2.83-.61,3.37,3.37,0,0,1,2.49.84,3.12,3.12,0,0,1,.81,2.32v4.46h-1.68V20.53a3.06,3.06,0,0,1-2.45,1.1A2.4,2.4,0,0,1,199.37,19.31Zm5.15-.54V18.25a4.77,4.77,0,0,0-1.71-.3c-1.11,0-1.77.47-1.77,1.25v0a1.26,1.26,0,0,0,1.47,1.14A1.78,1.78,0,0,0,204.53,18.77Z"
        style="fill:#4d8fca"/><path d="M207.55,17.76v0a3.88,3.88,0,0,1,3.92-3.93,3.8,3.8,0,0,1,3,1.3l-1.08,1.15a2.52,2.52,0,0,0-1.94-.94,2.27,2.27,0,0,0-2.18,2.39v0a2.27,2.27,0,0,0,2.25,2.41,2.63,2.63,0,0,0,2-.93l1,1A3.94,3.94,0,0,1,207.55,17.76Z" style="fill:#4d8fca"/><path d="M215.83,11.16h1.85V12.8h-1.85V11.16ZM215.91,14h1.72v7.52h-1.72V14Z" style="fill:#4d8fca"/><path
        d="M219.19,17.76v0a4,4,0,0,1,8,0v0a3.93,3.93,0,0,1-4,3.92A3.89,3.89,0,0,1,219.19,17.76Zm6.29,0v0a2.32,2.32,0,0,0-2.31-2.42,2.26,2.26,0,0,0-2.26,2.39v0a2.32,2.32,0,0,0,2.29,2.41A2.26,2.26,0,0,0,225.49,17.76ZM224,10.67l1.57,0.7L223.81,13h-1.29Z"
        style="fill:#4d8fca"/><path d="M228.68,14h1.72v1.15a2.72,2.72,0,0,1,2.35-1.31,2.58,2.58,0,0,1,2.68,2.88v4.8H233.7V17.2a1.58,1.58,0,0,0-1.61-1.84,1.67,1.67,0,0,0-1.69,1.86v4.24h-1.72V14Z" style="fill:#4d8fca"/><path d="M42.59,26.93h5.08c3,0,4.9,1.71,4.9,4.31v0c0,2.89-2.32,4.4-5.15,4.4H44.86v4.14H42.59V26.93Zm4.9,6.7c1.71,0,2.78-1,2.78-2.3v0c0-1.51-1.09-2.3-2.78-2.3H44.86v4.64h2.63Z" style="fill:#4d8fca"/><path d="M54.45,30.1h2.23v2.19a3.45,3.45,0,0,1,3.44-2.37v2.36H60c-2,0-3.31,1.27-3.31,3.85v3.7H54.45V30.1Z" style="fill:#4d8fca"/><path
        d="M61.33,35v0a4.82,4.82,0,0,1,4.75-5.06c3.09,0,4.66,2.43,4.66,5.23,0,0.2,0,.41,0,0.63H63.56a2.71,2.71,0,0,0,2.8,2.47A3.53,3.53,0,0,0,69,37.06l1.31,1.16a4.92,4.92,0,0,1-4,1.82,4.85,4.85,0,0,1-5-5m7.2-.72a2.52,2.52,0,0,0-2.47-2.56,2.63,2.63,0,0,0-2.52,2.56h5Z"
        style="fill:#4d8fca"/><path
        d="M72,38.55L73,37a5.45,5.45,0,0,0,3.18,1.2c1,0,1.51-.41,1.51-1v0c0-.75-1-1-2.17-1.36-1.44-.4-3-1-3-2.85v0c0-1.84,1.53-3,3.46-3A6.73,6.73,0,0,1,79.52,31l-0.88,1.58a5.64,5.64,0,0,0-2.74-.92,1.13,1.13,0,0,0-1.36,1v0c0,0.7,1,1,2.19,1.36,1.42,0.44,3,1.09,3,2.83v0c0,2-1.58,3.06-3.61,3.06A6.83,6.83,0,0,1,72,38.55"
        style="fill:#4d8fca"/><path d="M81.85,26.49h2.39v2.12H81.85V26.49Zm0.09,3.61h2.23v9.72H81.94V30.1Z" style="fill:#4d8fca"/><path
        d="M86.4,35v0c0-3.22,2.19-5,4.51-5a4,4,0,0,1,3.31,1.71V26.38h2.23V39.82H94.22V38.2A3.89,3.89,0,0,1,90.91,40c-2.28,0-4.51-1.82-4.51-5m7.86,0v0a2.92,2.92,0,0,0-2.82-3.11,2.85,2.85,0,0,0-2.8,3.11v0a2.89,2.89,0,0,0,2.8,3.11A2.93,2.93,0,0,0,94.26,35"
        style="fill:#4d8fca"/><path
        d="M98.51,35v0a4.82,4.82,0,0,1,4.75-5.06c3.09,0,4.66,2.43,4.66,5.23,0,0.2,0,.41,0,0.63h-7.14a2.71,2.71,0,0,0,2.8,2.47,3.53,3.53,0,0,0,2.63-1.16l1.31,1.16a4.92,4.92,0,0,1-4,1.82,4.85,4.85,0,0,1-5-5m7.2-.72a2.52,2.52,0,0,0-2.47-2.56,2.63,2.63,0,0,0-2.52,2.56h5Z"
        style="fill:#4d8fca"/><path d="M110,30.1h2.23v1.51a3.5,3.5,0,0,1,3-1.71c2.19,0,3.46,1.47,3.46,3.74v6.18h-2.23V34.3c0-1.51-.75-2.37-2.08-2.37a2.16,2.16,0,0,0-2.19,2.41v5.48H110V30.1Z" style="fill:#4d8fca"/><path d="M120.67,35v0a5,5,0,0,1,5-5.08,4.86,4.86,0,0,1,3.88,1.67l-1.38,1.49a3.27,3.27,0,0,0-2.52-1.21,2.92,2.92,0,0,0-2.8,3.09v0a3,3,0,0,0,2.91,3.13,3.42,3.42,0,0,0,2.52-1.21l1.34,1.33a5.1,5.1,0,0,1-9-3.2" style="fill:#4d8fca"/><path d="M131.56,26.49H134v2.12h-2.39V26.49Zm0.09,3.61h2.23v9.72h-2.23V30.1Z" style="fill:#4d8fca"/><path
        d="M142.55,39.82v-1.2A3.93,3.93,0,0,1,139.4,40c-1.84,0-3.46-1-3.46-3v0c0-2.15,1.67-3.18,3.94-3.18a8.18,8.18,0,0,1,2.69.4V34c0-1.34-.85-2.08-2.39-2.08a6.77,6.77,0,0,0-2.78.61l-0.61-1.79a8.34,8.34,0,0,1,3.7-.81c2.87,0,4.27,1.51,4.27,4.1v5.76h-2.21Zm0.06-4.07a6.36,6.36,0,0,0-2.23-.39c-1.4,0-2.23.57-2.23,1.51v0c0,0.92.83,1.44,1.88,1.44,1.47,0,2.58-.83,2.58-2V35.75Z"
        style="fill:#4d8fca"/><path
        d="M152.07,35v0c0-3.22,2.19-5,4.51-5a4,4,0,0,1,3.31,1.71V26.38h2.23V39.82h-2.23V38.2A3.89,3.89,0,0,1,156.58,40c-2.28,0-4.51-1.82-4.51-5m7.86,0v0a2.92,2.92,0,0,0-2.82-3.11,2.85,2.85,0,0,0-2.8,3.11v0a2.89,2.89,0,0,0,2.8,3.11A2.93,2.93,0,0,0,159.93,35"
        style="fill:#4d8fca"/><path
        d="M164.18,35v0a4.82,4.82,0,0,1,4.75-5.06c3.09,0,4.66,2.43,4.66,5.23,0,0.2,0,.41,0,0.63H166.4a2.71,2.71,0,0,0,2.8,2.47,3.53,3.53,0,0,0,2.63-1.16l1.31,1.16a4.92,4.92,0,0,1-4,1.82,4.85,4.85,0,0,1-5-5m7.2-.72a2.52,2.52,0,0,0-2.47-2.56,2.63,2.63,0,0,0-2.52,2.56h5Z"
        style="fill:#4d8fca"/><rect x="181.11" y="26.38" width="2.23" height="13.44" style="fill:#4d8fca"/><path
        d="M192,39.82v-1.2a3.93,3.93,0,0,1-3.15,1.4c-1.84,0-3.46-1-3.46-3v0c0-2.15,1.67-3.18,3.94-3.18a8.18,8.18,0,0,1,2.69.4V34c0-1.34-.85-2.08-2.39-2.08a6.77,6.77,0,0,0-2.78.61l-0.61-1.79a8.33,8.33,0,0,1,3.7-.81c2.87,0,4.27,1.51,4.27,4.1v5.76H192Zm0.06-4.07a6.36,6.36,0,0,0-2.23-.39c-1.4,0-2.23.57-2.23,1.51v0c0,0.92.83,1.44,1.88,1.44,1.47,0,2.58-.83,2.58-2V35.75Z"
        style="fill:#4d8fca"/><polygon points="202.28 26.93 204.37 26.93 211.28 35.84 211.28 26.93 213.5 26.93 213.5 39.82 211.61 39.82 204.5 30.65 204.5 39.82 202.28 39.82 202.28 26.93" style="fill:#4d8fca"/><path
        d="M222.32,39.82v-1.2a3.93,3.93,0,0,1-3.15,1.4c-1.84,0-3.46-1-3.46-3v0c0-2.15,1.68-3.18,3.94-3.18a8.18,8.18,0,0,1,2.69.4V34c0-1.34-.85-2.08-2.39-2.08a6.77,6.77,0,0,0-2.78.61l-0.61-1.79a8.34,8.34,0,0,1,3.7-.81c2.87,0,4.27,1.51,4.27,4.1v5.76h-2.21Zm0.06-4.07a6.36,6.36,0,0,0-2.23-.39c-1.4,0-2.23.57-2.23,1.51v0c0,0.92.83,1.44,1.88,1.44,1.47,0,2.58-.83,2.58-2V35.75Z"
        style="fill:#4d8fca"/><path d="M226.46,35v0a5,5,0,0,1,5-5.08,4.86,4.86,0,0,1,3.88,1.67L234,33.06a3.27,3.27,0,0,0-2.52-1.21,2.92,2.92,0,0,0-2.8,3.09v0a3,3,0,0,0,2.91,3.13,3.42,3.42,0,0,0,2.52-1.21l1.34,1.33a5.1,5.1,0,0,1-9-3.2" style="fill:#4d8fca"/><path d="M237.36,26.49h2.39v2.12h-2.39V26.49Zm0.09,3.61h2.23v9.72h-2.23V30.1Z" style="fill:#4d8fca"/><path d="M241.86,35v0a5.18,5.18,0,0,1,10.36,0v0A5.08,5.08,0,0,1,247,40a5,5,0,0,1-5.15-5M250,35v0a3,3,0,0,0-3-3.13,2.92,2.92,0,0,0-2.93,3.09v0a3,3,0,0,0,3,3.13A2.93,2.93,0,0,0,250,35m-1.93-9.17,2,0.9-2.26,2.12h-1.67Z" style="fill:#4d8fca"/><path d="M254.31,30.1h2.23v1.51a3.5,3.5,0,0,1,3-1.71c2.19,0,3.46,1.47,3.46,3.74v6.18H260.8V34.3c0-1.51-.75-2.37-2.08-2.37a2.16,2.16,0,0,0-2.19,2.41v5.48h-2.23V30.1Z" style="fill:#4d8fca"/><path
        d="M16.67,24.3H14a1.32,1.32,0,0,1-1.07-.45,1.38,1.38,0,0,1-.28-0.66,0.35,0.35,0,0,1,0-.06,2.52,2.52,0,0,1,0-.81,8.41,8.41,0,0,1,1.63-3.66l-0.19-.08a1,1,0,0,1-.47-1.11,2.92,2.92,0,0,1,.75-1.27,3.5,3.5,0,0,1,2.46-1.14,3.15,3.15,0,0,1,3,1.8A16.59,16.59,0,0,1,21.5,22.5v0.07a1.63,1.63,0,0,1,0,.66l0,0.06a1.23,1.23,0,0,1-.27.47,1.77,1.77,0,0,1-1.05.5,3.08,3.08,0,0,1-.47,0H17.48v3.79h12a20.9,20.9,0,0,0-1-6.39,17.34,17.34,0,0,0-2.66-5.21A12.78,12.78,0,0,0,21.87,13a9.63,9.63,0,0,0-9.57,0,12.77,12.77,0,0,0-3.93,3.49A17.34,17.34,0,0,0,5.69,21.7a20.9,20.9,0,0,0-1,6.39h12V24.3Z"
        style="fill:#4d8fca"/><path d="M4.72,28.09A21.2,21.2,0,0,0,5.28,33c5.35-.61,8.54-1.24,9.49-1.87a3,3,0,0,1,1.9-.72V28.09h-12Z" style="fill:#fff"/><path d="M17.48,30.5a4.37,4.37,0,0,1,1.22.41h0.12a5.29,5.29,0,0,1,2.07.47l0.74,0.26a35.17,35.17,0,0,0,7.22,1.43,21.2,21.2,0,0,0,.58-5h-12V30.5Z" style="fill:#fff"/><path
        d="M22.35,35.72a1,1,0,0,1-.22.31,1.18,1.18,0,0,1-.8.31,1.22,1.22,0,0,1-1.25.72,1.37,1.37,0,0,1-.21.28,1.11,1.11,0,0,1-1,.31,1.61,1.61,0,0,1-.41.24,1.68,1.68,0,0,1-1,.08v3.17a0.4,0.4,0,0,1-.8,0v-3a1.51,1.51,0,0,1-.52.1l-0.21,0a1,1,0,0,1-.57-0.35,1.55,1.55,0,0,1-1.07-.15,0.8,0.8,0,0,1-.3-0.38,2,2,0,0,1-.38-0.08,1.05,1.05,0,0,1-.7-0.59l-0.28,0a1,1,0,0,1-.81-0.51,0.83,0.83,0,0,1-.06-0.22c-1.7.88-3.65,1.75-4.52,2.14a16.08,16.08,0,0,0,1.1,1.66,12.77,12.77,0,0,0,3.93,3.49,10.25,10.25,0,0,0,2.11.89,0.92,0.92,0,0,1,.31-0.34,3.43,3.43,0,0,1,2.36,0,3.43,3.43,0,0,1,2.36,0,0.92,0.92,0,0,1,.31.34,10.24,10.24,0,0,0,2.12-.89,12.78,12.78,0,0,0,3.93-3.49,16.21,16.21,0,0,0,1-1.56,21.73,21.73,0,0,1-4.49-2.41"
        style="fill:#fff"/><path
        d="M18.17,46.58a1.13,1.13,0,0,0,0-.27,1.08,1.08,0,0,0,0-.25,2.53,2.53,0,0,0,1.42-.72,1.16,1.16,0,0,0,.26-0.9,0.93,0.93,0,0,0-.42-0.7,3.44,3.44,0,0,0-2.36,0,3.44,3.44,0,0,0-2.36,0,0.93,0.93,0,0,0-.42.7,1.17,1.17,0,0,0,.26.9,2.53,2.53,0,0,0,1.43.72,1.11,1.11,0,0,0,0,.25,1.14,1.14,0,0,0,0,.27,4.58,4.58,0,0,1-2.6,1.27,2,2,0,0,0,.4.48,5.1,5.1,0,0,0,2.47-1.26l0.13,0.12a2.35,2.35,0,0,1-1.93,1.57,3.29,3.29,0,0,0,.89.25,2.63,2.63,0,0,0,1.53-1.59l0.22,0,0.21,0A2.64,2.64,0,0,0,18.82,49a3.28,3.28,0,0,0,.89-0.25,2.35,2.35,0,0,1-1.93-1.56l0.13-.12a5.1,5.1,0,0,0,2.46,1.25,1.94,1.94,0,0,0,.4-0.48,4.58,4.58,0,0,1-2.6-1.26"
        style="fill:#4d8fca"/><path d="M19.15,44.18a0.4,0.4,0,0,1,.19.31,0.64,0.64,0,0,1-.14.5,1.54,1.54,0,0,1-.69.42,1,1,0,0,0,.05-0.8,1.21,1.21,0,0,0-.43-0.56,1.73,1.73,0,0,1,1,.12" style="fill:#fff"/><path d="M16.1,44.81a1.08,1.08,0,0,1,1-.54h0a1.52,1.52,0,0,1,.43.07,0.8,0.8,0,0,1,.55.47,0.68,0.68,0,0,1-.23.65,1.12,1.12,0,0,0-1.5,0,0.68,0.68,0,0,1-.23-0.66" style="fill:#fff"/><path d="M15.65,45.42A1.55,1.55,0,0,1,15,45a0.64,0.64,0,0,1-.14-0.5A0.4,0.4,0,0,1,15,44.18,1.28,1.28,0,0,1,15.68,44l0.34,0a1.22,1.22,0,0,0-.43.57,1,1,0,0,0,.05.8" style="fill:#fff"/><path d="M16.49,46.3a0.6,0.6,0,1,1,.6.6,0.6,0.6,0,0,1-.6-0.6" style="fill:#fff"/><path d="M20.37,48.32a5.1,5.1,0,0,1-2.46-1.25l-0.13.12a2.35,2.35,0,0,0,1.93,1.56,2.6,2.6,0,0,0,.66-0.43" style="fill:#fff"/><path d="M16.25,47.06a5.11,5.11,0,0,1-2.47,1.26,2.59,2.59,0,0,0,.66.43,2.35,2.35,0,0,0,1.93-1.57l-0.13-.12" style="fill:#fff"/><path
        d="M32,31.27A0.26,0.26,0,0,0,31.77,31a3.62,3.62,0,0,0,.14-0.34,5.2,5.2,0,0,0,.29-1.74,0.26,0.26,0,0,0-.11-0.22,0.26,0.26,0,0,0-.18,0c0-.11.07-0.22,0.1-0.33a5.2,5.2,0,0,0,.12-1.76,0.26,0.26,0,0,0-.32-0.23c0-.13.06-0.26,0.08-0.39a5.21,5.21,0,0,0-.06-1.76A0.25,0.25,0,0,0,31.56,24c0-.09,0-0.18,0-0.27a5.22,5.22,0,0,0-.14-1.76,0.26,0.26,0,0,0-.16-0.18,0.26,0.26,0,0,0-.24,0h0a3.86,3.86,0,0,0,0-.43,5.21,5.21,0,0,0-.38-1.72,0.26,0.26,0,0,0-.38-0.12,3.86,3.86,0,0,0,0-.39,5.19,5.19,0,0,0-.56-1.68,0.26,0.26,0,0,0-.39-0.08A3.69,3.69,0,0,0,29.25,17a5.27,5.27,0,0,0-.75-1.6,0.26,0.26,0,0,0-.22-0.11,0.25,0.25,0,0,0-.21.11A3.94,3.94,0,0,0,27.92,15a5.26,5.26,0,0,0-1-1.46,0.26,0.26,0,0,0-.4,0,3.76,3.76,0,0,0-.23-0.41,5.18,5.18,0,0,0-1.19-1.27,0.26,0.26,0,0,0-.39.09,3,3,0,0,0-1.4-1l0.32,0a3.81,3.81,0,0,0,1.23-.11,0.32,0.32,0,0,0-.08-0.63,2.75,2.75,0,0,1-1.44-.4l-0.22-.12,1.82-.27a0.32,0.32,0,0,0,0-.64l-1.81-.26c0.21-.06.45-0.13,0.7-0.21a3.83,3.83,0,0,0,1.09-.58,0.32,0.32,0,0,0-.32-0.56,2.74,2.74,0,0,1-1.48.18l-0.24,0,1.57-.94a0.32,0.32,0,0,0-.25-0.59l-1.77.45C22.62,6.15,22.81,6,23,5.81a3.78,3.78,0,0,0,.79-1,0.32,0.32,0,0,0-.5-0.39,2.75,2.75,0,0,1-1.3.74l-0.23.07,1.09-1.47a0.32,0.32,0,0,0-.45-0.45l-1.47,1.1C21,4.26,21.17,4,21.29,3.79a3.8,3.8,0,0,0,.36-1.18A0.32,0.32,0,0,0,21,2.44a2.74,2.74,0,0,1-.91,1.18l-0.18.15L20.38,2a0.32,0.32,0,0,0-.59-0.25L18.84,3.34c0-.22.06-0.48,0.07-0.75a3.8,3.8,0,0,0-.12-1.23,0.32,0.32,0,0,0-.63.08,2.74,2.74,0,0,1-.39,1.44l-0.11.21L17.4,1.28a0.32,0.32,0,0,0-.64,0L16.5,3.08c-0.06-.21-0.13-0.45-0.21-0.69a3.78,3.78,0,0,0-.58-1.09,0.32,0.32,0,0,0-.56.32,2.74,2.74,0,0,1,.18,1.48c0,0.08,0,.16,0,0.25l-1-1.58a0.32,0.32,0,0,0-.59.25l0.45,1.76c-0.13-.17-0.29-0.37-0.46-0.56a3.79,3.79,0,0,0-1-.79,0.32,0.32,0,0,0-.39.5,2.75,2.75,0,0,1,.74,1.3l0.07,0.24-1.48-1.1a0.32,0.32,0,0,0-.45.46l1.1,1.46C12.2,5.17,12,5,11.74,4.93a3.81,3.81,0,0,0-1.18-.37,0.32,0.32,0,0,0-.17.62,2.75,2.75,0,0,1,1.18.91l0.15,0.19L9.94,5.84a0.32,0.32,0,0,0-.24.59l1.58,0.94c-0.22,0-.47-0.06-0.74-0.07a3.8,3.8,0,0,0-1.23.12A0.32,0.32,0,0,0,9.38,8a2.74,2.74,0,0,1,1.44.39L11,8.55l-1.81.27a0.32,0.32,0,0,0,0,.64L11,9.73c-0.21.06-.46,0.13-0.72,0.22a3.81,3.81,0,0,0-1.09.58,0.32,0.32,0,0,0,.32.56,3.09,3.09,0,0,1,1-.22,7.13,7.13,0,0,0-.81.79l-0.2.28a0.26,0.26,0,0,0-.38-0.07A5.3,5.3,0,0,0,7.9,13.16a3.81,3.81,0,0,0-.23.41,0.26,0.26,0,0,0-.4,0,5.27,5.27,0,0,0-1,1.46,3.87,3.87,0,0,0-.15.4,0.26,0.26,0,0,0-.38,0A5.21,5.21,0,0,0,4.92,17a3.88,3.88,0,0,0-.1.41,0.26,0.26,0,0,0-.42.05,5.19,5.19,0,0,0-.57,1.67,3.81,3.81,0,0,0,0,.4,0.26,0.26,0,0,0-.4.11A5.19,5.19,0,0,0,3,21.36c0,0.13,0,.26,0,0.39a0.26,0.26,0,0,0-.38.16,5.2,5.2,0,0,0-.14,1.76c0,0.1,0,.2,0,0.3L2.47,24a0.25,0.25,0,0,0-.15.19,5.21,5.21,0,0,0-.06,1.76,3.85,3.85,0,0,0,.08.4l-0.1,0a0.26,0.26,0,0,0-.14.2,5.2,5.2,0,0,0,.06,1.76c0,0.11.06,0.23,0.09,0.34a0.26,0.26,0,0,0-.29.25,5.2,5.2,0,0,0,.24,1.75,3.77,3.77,0,0,0,.17.43h0a0.26,0.26,0,0,0-.32.29,5.23,5.23,0,0,0,.54,1.68l0.16,0.27a0.26,0.26,0,0,0-.18.31,5.22,5.22,0,0,0,.67,1.64c0.07,0.11.14,0.21,0.22,0.31a0.26,0.26,0,0,0-.21.34,5.23,5.23,0,0,0,.85,1.55l0.24,0.26a0.25,0.25,0,0,0-.15.12,0.26,0.26,0,0,0,0,.24,5.27,5.27,0,0,0,1,1.44l0.26,0.23a0.26,0.26,0,0,0-.11.37,5.28,5.28,0,0,0,1.18,1.33,3.7,3.7,0,0,0,.4.27l-0.05,0a0.26,0.26,0,0,0-.1.42,6.11,6.11,0,0,0,1.37,1.1,3.69,3.69,0,0,0,1.13.43,2.48,2.48,0,0,0,.91,0h0.05a13.53,13.53,0,0,0,2.52,1.4,12.4,12.4,0,0,0,2.23.7l0.45,0.09a2,2,0,0,1-.86-0.56l-0.1-.15a11.93,11.93,0,0,1-1.53-.53,13.05,13.05,0,0,1-2.41-1.34v0a2.52,2.52,0,0,0-.09-0.78A11.29,11.29,0,0,0,12,43.62a10.68,10.68,0,0,0,2.27.95s0-.09,0-0.14a1,1,0,0,1,.11-0.36,10.22,10.22,0,0,1-2.11-.89,12.77,12.77,0,0,1-3.93-3.5A15.93,15.93,0,0,1,7.26,38c0.87-.39,2.82-1.26,4.52-2.14a0.84,0.84,0,0,0,.06.22,1,1,0,0,0,.81.51l0.28,0a1.05,1.05,0,0,0,.7.59,2,2,0,0,0,.38.08,0.8,0.8,0,0,0,.3.38,1.55,1.55,0,0,0,1.07.15,1,1,0,0,0,.57.35l0.21,0a1.51,1.51,0,0,0,.52-0.1v3a0.4,0.4,0,1,0,.8,0V38a1.68,1.68,0,0,0,1-.08,1.6,1.6,0,0,0,.41-0.24,1.11,1.11,0,0,0,1-.31,1.34,1.34,0,0,0,.21-0.28,1.25,1.25,0,0,0,1-.41,1.27,1.27,0,0,0,.2-0.31,1.18,1.18,0,0,0,.8-0.31,1.05,1.05,0,0,0,.22-0.31,21.82,21.82,0,0,0,4.49,2.41,16,16,0,0,1-1,1.56,12.77,12.77,0,0,1-3.93,3.5,10.26,10.26,0,0,1-2.12.89,1,1,0,0,1,.11.36,1.26,1.26,0,0,1,0,.14,10.69,10.69,0,0,0,2.27-.95,11.58,11.58,0,0,0,1.6-1.12,2.5,2.5,0,0,0-.09.79s0,0,0,0a10.7,10.7,0,0,1-1.77,1.07,11.68,11.68,0,0,1-2.11.79l-0.09,0-0.09.12a2,2,0,0,1-.87.57,11.19,11.19,0,0,0,1.19-.25,12.1,12.1,0,0,0,2.2-.83A11,11,0,0,0,24,43.7h0a2.49,2.49,0,0,0,.92,0A3.68,3.68,0,0,0,26,43.28a6.09,6.09,0,0,0,1.37-1.1,0.26,0.26,0,0,0-.1-0.42h0a3.9,3.9,0,0,0,.41-0.28,5.28,5.28,0,0,0,1.18-1.33,0.26,0.26,0,0,0-.11-0.37L29,39.54a5.26,5.26,0,0,0,1-1.44,0.26,0.26,0,0,0-.19-0.37l0.26-.28a5.25,5.25,0,0,0,.85-1.55,0.26,0.26,0,0,0-.23-0.34h0l0.22-.29a5.22,5.22,0,0,0,.69-1.63,0.26,0.26,0,0,0-.27-0.32,3.93,3.93,0,0,0,.2-0.35,5.21,5.21,0,0,0,.49-1.7m-0.3-2h0a4.49,4.49,0,0,1-.24,1.2,3,3,0,0,1-.53.94,2.34,2.34,0,0,1-.64.53h0a2.8,2.8,0,0,1-.52-1.76,3.86,3.86,0,0,1,.07-0.66h0a3.36,3.36,0,0,1,.49.91,0.19,0.19,0,0,0,.35,0,3.06,3.06,0,0,1,1-1.19h0m0-2.3h0a4.49,4.49,0,0,1-.12,1.22,3,3,0,0,1-.44,1,2.34,2.34,0,0,1-.58.59h0a3.43,3.43,0,0,1-.67-2.32h0a4,4,0,0,1,.56.82,0.19,0.19,0,0,0,.35,0A3,3,0,0,1,31.69,27m-0.25-2.34h0a4.48,4.48,0,0,1,0,1.23,3,3,0,0,1-.34,1,2.32,2.32,0,0,1-.53.65h0a3.51,3.51,0,0,1-.86-2.24h0a4,4,0,0,1,.62.74A0.19,0.19,0,0,0,30.71,26a3,3,0,0,1,.73-1.35m-0.37-2.22h0a4.48,4.48,0,0,1,.06,1.23,3,3,0,0,1-.29,1,2.31,2.31,0,0,1-.49.67h0a3,3,0,0,1-.88-1.55,4.81,4.81,0,0,1-.11-0.65h0a4.05,4.05,0,0,1,.68.73,0.19,0.19,0,0,0,.34-0.07,3,3,0,0,1,.67-1.39m-17.73.14,0-.09a7.9,7.9,0,0,1,1.35-3.18,5.22,5.22,0,0,1,.79-0.87l0.14-.11a0.36,0.36,0,0,0-.44-0.58L15,17.85a0.55,0.55,0,0,1-.59.13,0.36,0.36,0,0,1-.13-0.39,2.28,2.28,0,0,1,.57-0.91l0,0a2.85,2.85,0,0,1,2-.9h0a2.37,2.37,0,0,1,.84.12,2.51,2.51,0,0,1,1.47,1.3A14.09,14.09,0,0,1,20.32,20a4.59,4.59,0,0,1-1.2-.67,0.36,0.36,0,0,0-.46.56,5,5,0,0,0,1.86.93c0.07,0.33.13,0.68,0.2,1.1a5.17,5.17,0,0,0-1-.34,5.16,5.16,0,0,1-.56-0.17,5.83,5.83,0,0,1-1.27-.73,0.36,0.36,0,0,0-.45.57,6.57,6.57,0,0,0,1.45.84,5.53,5.53,0,0,0,.65.2c0.87,0.23,1.26.4,1.28,0.83a0.55,0.55,0,0,1-.11.18,1.57,1.57,0,0,1-1.09.32H18.76A3.47,3.47,0,0,1,17,23.1c-1.84-1.19-2.68-1-3.71-.55m3.14,1.05H14a0.65,0.65,0,0,1-.53-0.19l-0.06-.09c1-.47,1.59-0.64,3.08.28m1,4.48V24.3h2.19a3.08,3.08,0,0,0,.47,0,1.77,1.77,0,0,0,1.05-.5,1.23,1.23,0,0,0,.27-0.47l0-.06a1.64,1.64,0,0,0,0-.66V22.5a16.58,16.58,0,0,0-1.66-5.63,3.15,3.15,0,0,0-3-1.8A3.5,3.5,0,0,0,14.4,16.2a2.92,2.92,0,0,0-.75,1.27,1,1,0,0,0,.47,1.11l0.19,0.08a8.41,8.41,0,0,0-1.63,3.66,2.5,2.5,0,0,0,0,.81,0.29,0.29,0,0,0,0,.06,1.37,1.37,0,0,0,.28.66A1.31,1.31,0,0,0,14,24.3h2.68v6.1a3,3,0,0,0-1.9.72c-0.95.63-4.14,1.26-9.49,1.87a21.2,21.2,0,0,1-.57-4.91,20.88,20.88,0,0,1,1-6.39,17.34,17.34,0,0,1,2.66-5.21A12.77,12.77,0,0,1,12.29,13a9.63,9.63,0,0,1,9.57,0,12.77,12.77,0,0,1,3.93,3.49,17.34,17.34,0,0,1,2.66,5.21,20.9,20.9,0,0,1,1,6.39,21.2,21.2,0,0,1-.58,5,35.17,35.17,0,0,1-7.22-1.43l-0.74-.26a5.27,5.27,0,0,0-2.07-.47H18.7a4.37,4.37,0,0,0-1.22-.41V28.09ZM22.53,11a4.77,4.77,0,0,1-.85.25,3.45,3.45,0,0,1-.62.06,2,2,0,0,1-1.2-.35h0a2.62,2.62,0,0,1,.7-0.28,2.52,2.52,0,0,1,1,0,3,3,0,0,1,1,.34h0M23,12.29h0a2.18,2.18,0,0,1-.61.11H22.29a2.61,2.61,0,0,1-1.61-.61h0a2.84,2.84,0,0,1,.7-0.13,2,2,0,0,1,1.63.62m-2.56-2.05a3.86,3.86,0,0,1-1.16.31,0.19,0.19,0,0,0-.08.35,4,4,0,0,1,.76.71,0,0,0,0,1,0,0h0a3,3,0,0,1-2.25-1,0,0,0,0,1,0,0,1.8,1.8,0,0,1,.61-0.38,3.51,3.51,0,0,1,2.13,0h0m-2.39-.39a3.34,3.34,0,0,1-1.09.53,0.19,0.19,0,0,0,0,.36,3.38,3.38,0,0,1,.86.5,0,0,0,0,1,0,0h0l-0.48,0a3.19,3.19,0,0,1-1.91-.55,0,0,0,0,1,0,0,1.79,1.79,0,0,1,.52-0.49A3.53,3.53,0,0,1,18,9.82h0a0,0,0,0,1,0,0m-2.46,0a2.63,2.63,0,0,1-1,.75,0.19,0.19,0,0,0,0,.36,4.13,4.13,0,0,1,1,.32h0a4.68,4.68,0,0,1-.63.16,3.84,3.84,0,0,1-.66.06,2.71,2.71,0,0,1-1.14-.23,0,0,0,0,1,0,0,1.78,1.78,0,0,1,.4-0.59,3.53,3.53,0,0,1,2-.86h0a0,0,0,0,1,0,0m-3.16,1.51a0.19,0.19,0,0,0,.13.34h0a4,4,0,0,1,.49,0,3.31,3.31,0,0,1,.51.11h0a4.92,4.92,0,0,1-.61.26,3.54,3.54,0,0,1-1.15.21,2.46,2.46,0,0,1-.68-0.09v0a2.85,2.85,0,0,1,2.17-2h0a0,0,0,0,1,0,0,3.11,3.11,0,0,1-.86,1.1M29.89,21.62a3,3,0,0,1,.47-1.47h0a4.5,4.5,0,0,1,.22,1.21,3,3,0,0,1-.15,1.07,2.33,2.33,0,0,1-.39.73h0a2.85,2.85,0,0,1-1.11-1.43,4.25,4.25,0,0,1-.19-0.62h0a4.07,4.07,0,0,1,.78.64,0.19,0.19,0,0,0,.33-0.12M29.13,19.5A3,3,0,0,1,29.45,18h0a4.52,4.52,0,0,1,.35,1.18,3,3,0,0,1,0,1.08,2.3,2.3,0,0,1-.32.76h0a2.86,2.86,0,0,1-1.25-1.31,4.25,4.25,0,0,1-.25-0.6,0,0,0,0,1,0,0h0a4.07,4.07,0,0,1,.85.56,0.19,0.19,0,0,0,.32-0.15m-1.07-1.8h0a0.19,0.19,0,0,0,.09-0.2A3,3,0,0,1,28.3,16h0a4.54,4.54,0,0,1,.49,1.13,3,3,0,0,1,.09,1.08,2.27,2.27,0,0,1-.22.79h0a2.82,2.82,0,0,1-1.44-1.17,3.74,3.74,0,0,1-.31-0.59,0,0,0,0,1,0,0h0a3.07,3.07,0,0,1,.92.48,0.19,0.19,0,0,0,.22,0m-1.43-1.84a0.19,0.19,0,0,0,.29-0.21,3.37,3.37,0,0,1-.1-1.52h0a4.52,4.52,0,0,1,.65,1,3,3,0,0,1,.27,1,2.27,2.27,0,0,1-.09.82h0a2.89,2.89,0,0,1-1.57-.92,4.31,4.31,0,0,1-.44-0.55,0,0,0,0,1,0,0h0a2.18,2.18,0,0,1,1,.33M25.2,14.23A0.19,0.19,0,0,0,25.44,14a3,3,0,0,1-.35-1.49h0a4.51,4.51,0,0,1,.8.91,3.13,3.13,0,0,1,.43,1,2.46,2.46,0,0,1,.05.84h0a2.78,2.78,0,0,1-1.61-.64,5,5,0,0,1-.55-0.5,0,0,0,0,1,0,0h0.08a3,3,0,0,1,.93.17m-0.57-1.49a2.5,2.5,0,0,1,.17.93H24.68a4.54,4.54,0,0,1-2.19-.85h0a2.65,2.65,0,0,1,1,0,0.19,0.19,0,0,0,.19-0.31,3.92,3.92,0,0,1-.61-1.14,0,0,0,0,1,0,0h0a2.35,2.35,0,0,1,1.55,1.38M10.36,10.42l0.11,0a10.58,10.58,0,0,1,1.12-.32,3.06,3.06,0,0,0,.88-0.35,0.13,0.13,0,0,0-.05-0.24l-2.27-.33,2.27-.33a0.13,0.13,0,0,0,0-.26,4.36,4.36,0,0,1-1-.3L11,8a3.5,3.5,0,0,0-.65-0.29h0.12a10.45,10.45,0,0,1,1.16.14,3,3,0,0,0,1,0,0.13,0.13,0,0,0,0-.24l-2-1.17,2.22,0.56A0.13,0.13,0,0,0,13,6.81a4.33,4.33,0,0,1-.81-0.67C12.1,6,12,5.92,11.92,5.81a3.45,3.45,0,0,0-.49-0.52l0.11,0.05a10.81,10.81,0,0,1,1,.57,3.06,3.06,0,0,0,.87.38,0.13,0.13,0,0,0,.13-0.21L12.19,4.25,14,5.62a0.13,0.13,0,0,0,.17,0,0.13,0.13,0,0,0,0-.17,4.32,4.32,0,0,1-.49-0.92c-0.06-.15-0.1-0.29-0.14-0.43a3.57,3.57,0,0,0-.25-0.67L13.42,3.5a10.62,10.62,0,0,1,.72.92,3,3,0,0,0,.66.69A0.13,0.13,0,0,0,15,5L14.44,2.75l1.18,2a0.13,0.13,0,0,0,.24-0.1,4.37,4.37,0,0,1-.1-1c0-.16,0-0.31,0-0.44a3.56,3.56,0,0,0,0-.71l0,0.11a10.59,10.59,0,0,1,.32,1.12,3,3,0,0,0,.35.89,0.13,0.13,0,0,0,.24-0.05l0.32-2.25,0.33,2.25a0.13,0.13,0,0,0,.26,0,4.3,4.3,0,0,1,.3-1c0.07-.15.13-0.27,0.2-0.4a3.53,3.53,0,0,0,.29-0.65s0,0.08,0,.12a10.61,10.61,0,0,1-.14,1.16,3.06,3.06,0,0,0,0,1,0.13,0.13,0,0,0,.24,0l1.17-2L19.16,5a0.13,0.13,0,0,0,.24.1,4.34,4.34,0,0,1,.66-0.81L20.41,4a3.53,3.53,0,0,0,.52-0.49l-0.05.11a10.57,10.57,0,0,1-.57,1,3.07,3.07,0,0,0-.38.87,0.13,0.13,0,0,0,.21.13L22,4.25,20.6,6.09a0.13,0.13,0,0,0,.18.18,4.38,4.38,0,0,1,.92-0.49l0.42-.14a3.47,3.47,0,0,0,.67-0.25l-0.09.08a10.56,10.56,0,0,1-.92.72,3.08,3.08,0,0,0-.68.66,0.13,0.13,0,0,0,.14.2l2.22-.56-2,1.18a0.13,0.13,0,0,0,.1.24,4.29,4.29,0,0,1,1-.1l0.44,0a3.56,3.56,0,0,0,.71,0l-0.11,0a10.65,10.65,0,0,1-1.13.32,3,3,0,0,0-.89.35,0.13,0.13,0,0,0,.05.24L24,9.14l-2.26.34a0.13,0.13,0,0,0-.11.13,0.13,0.13,0,0,0,.11.13,4.26,4.26,0,0,1,1,.31l0.4,0.2a3.54,3.54,0,0,0,.65.3H23.65a10.58,10.58,0,0,1-1.16-.14H22.43a3.2,3.2,0,0,0-1.25-.28h0A0.26,0.26,0,0,0,21,9.91a5.4,5.4,0,0,0-1.72-.33,3.55,3.55,0,0,0-.55,0,0.25,0.25,0,0,0,0-.07,0.26,0.26,0,0,0-.2-0.14,5.4,5.4,0,0,0-1.75,0,3.45,3.45,0,0,0-.58.17,0.26,0.26,0,0,0-.07-0.15,0.26,0.26,0,0,0-.21-0.08,5.39,5.39,0,0,0-1.7.39L13.85,10a0.26,0.26,0,0,0-.33-0.22,5.3,5.3,0,0,0-1.62.72l0,0H11.52l-0.44,0a3.52,3.52,0,0,0-.71,0M11,11.08h0a3,3,0,0,1-.5,1.45,0.19,0.19,0,0,0,.2.29,4.13,4.13,0,0,1,1-.06h0a0,0,0,0,1,0,0,3.75,3.75,0,0,1-2.16.9H9.42A3.07,3.07,0,0,1,11,11.08m-3.12,3.3a3,3,0,0,1,.43-1,4.58,4.58,0,0,1,.82-0.93h0A3,3,0,0,1,8.78,14a0.19,0.19,0,0,0,.23.27,3.79,3.79,0,0,1,1-.17h0a0,0,0,0,1,0,0,6,6,0,0,1-.57.5,2.73,2.73,0,0,1-1.51.65H7.82a2.27,2.27,0,0,1,0-.84m-0.5-.26h0a3,3,0,0,1-.11,1.53,0.19,0.19,0,0,0,.29.22,2.21,2.21,0,0,1,1-.33h0a0,0,0,0,1,0,0,3.45,3.45,0,0,1-2,1.47h0a3,3,0,0,1,.84-2.91m-2,3A4.52,4.52,0,0,1,5.89,16h0A3,3,0,0,1,6,17.53a0.19,0.19,0,0,0,.32.17,1.86,1.86,0,0,1,.93-0.46h0a0,0,0,0,1,0,0,4.28,4.28,0,0,1-.38.63A2.77,2.77,0,0,1,5.43,19h0a2.3,2.3,0,0,1-.19-0.81,3,3,0,0,1,.14-1.07M4.28,19.17A4.51,4.51,0,0,1,4.64,18h0A3,3,0,0,1,5,19.5a0.19,0.19,0,0,0,.32.15,3.93,3.93,0,0,1,.9-0.57h0a0,0,0,0,1,0,0A2.93,2.93,0,0,1,4.63,21h0a2.29,2.29,0,0,1-.31-0.76,3,3,0,0,1,0-1.08m-0.58,1h0a3,3,0,0,1,.49,1.46,0.19,0.19,0,0,0,.34.11A3.42,3.42,0,0,1,5.37,21h0a3,3,0,0,1-.13.6,2.75,2.75,0,0,1-1.19,1.51h0a2.31,2.31,0,0,1-.41-0.72,3,3,0,0,1-.16-1.07,4.52,4.52,0,0,1,.21-1.21M3,22.38h0a3.05,3.05,0,0,1,.67,1.39,0.19,0.19,0,0,0,.34.07,4,4,0,0,1,.71-0.75h0a3.38,3.38,0,0,1-.08.6,3,3,0,0,1-.95,1.63h0a2.3,2.3,0,0,1-.49-0.66,3,3,0,0,1-.29-1A4.5,4.5,0,0,1,3,22.38M2.7,24.63h0A3.06,3.06,0,0,1,3.45,26a0.19,0.19,0,0,0,.17.14A0.19,0.19,0,0,0,3.81,26a2.82,2.82,0,0,1,.6-0.79h0a4.23,4.23,0,0,1-.06.68,2.73,2.73,0,0,1-.8,1.61h0A2.33,2.33,0,0,1,3,26.89a3,3,0,0,1-.34-1,4.47,4.47,0,0,1,0-1.23M2.51,27h0l0.14,0.14a3.12,3.12,0,0,1,.68,1.17,0.19,0.19,0,0,0,.37,0,1.65,1.65,0,0,1,.49-0.85h0a3.54,3.54,0,0,1,0,1.12,2.28,2.28,0,0,1-.66,1.3h0A3,3,0,0,1,2.51,27M2.42,29.29h0l0.16,0.13a3.14,3.14,0,0,1,.8,1.09,0.19,0.19,0,0,0,.17.11h0a0.19,0.19,0,0,0,.17-0.12,3.88,3.88,0,0,1,.55-0.9h0A3,3,0,0,1,3.76,32h0a3.07,3.07,0,0,1-1.34-2.71h0m0.12,2.39h0a3.07,3.07,0,0,1,1.15,1,0.19,0.19,0,0,0,.2.08,0.19,0.19,0,0,0,.15-0.15h0a3.92,3.92,0,0,1,.39-1h0a2.75,2.75,0,0,1,.21.61,2.56,2.56,0,0,1-.32,1.88h0a2.33,2.33,0,0,1-.72-0.44A3,3,0,0,1,3,32.84a4.52,4.52,0,0,1-.42-1.16M3.08,33.9a0,0,0,0,1,0,0h0L3.28,34a3.15,3.15,0,0,1,1,.86,0.19,0.19,0,0,0,.34-0.09,4,4,0,0,1,.29-1H5a3,3,0,0,1,.09,2.45h0a3.08,3.08,0,0,1-2-2.31m1.33,3.28a4.55,4.55,0,0,1-.63-1.06,0,0,0,0,1,0,0h0L4,36.17a3.16,3.16,0,0,1,1.14.74,0.19,0.19,0,0,0,.33-0.13,4,4,0,0,1,.17-1h0a3.91,3.91,0,0,1,.28.59A2.79,2.79,0,0,1,6,38.18H6a2.35,2.35,0,0,1-.78-0.29,3.08,3.08,0,0,1-.82-0.72m0.33,1.05a0,0,0,0,1,0,0h0a3.12,3.12,0,0,1,1.41.65,0.19,0.19,0,0,0,.21,0,0.19,0.19,0,0,0,.1-0.19,3.46,3.46,0,0,1,0-1h0a4.5,4.5,0,0,1,.34.57A3,3,0,0,1,7.21,40h0a2.34,2.34,0,0,1-.81-0.2,3.1,3.1,0,0,1-.9-0.62,4.57,4.57,0,0,1-.75-1m4.41,3.83a3.69,3.69,0,0,1-.23-1h0a2.84,2.84,0,0,1,1.14,2.18h0a1.79,1.79,0,0,1-.3,0,2.34,2.34,0,0,1-.45,0,4.15,4.15,0,0,1-2-1.12,0,0,0,0,1,0,0h0a3.13,3.13,0,0,1,1.54.21,0.19,0.19,0,0,0,.21,0,0.19,0.19,0,0,0,0-.21M7.41,40.69a0.19,0.19,0,0,0,.29-0.21,3.14,3.14,0,0,1-.06-1h0a3.49,3.49,0,0,1,.91,2.24H8.46a2.4,2.4,0,0,1-.74-0.12,3.09,3.09,0,0,1-1-.52,4.58,4.58,0,0,1-.85-0.89,0,0,0,0,1,0,0h0a3.12,3.12,0,0,1,1.47.5m7.48-5-0.18.12a1.82,1.82,0,0,0-.76.9l-0.15,0a0.37,0.37,0,0,1-.33-0.32,0.71,0.71,0,0,1,.31-0.54,1.14,1.14,0,0,1,.71-0.4,0.45,0.45,0,0,1,.21,0,0.34,0.34,0,0,1,.18.16,0.13,0.13,0,0,1,0,.06m0.39,1.58a1.06,1.06,0,0,1-.63-0.06,0.22,0.22,0,0,1-.1-0.18,1,1,0,0,1,.52-0.7A1.51,1.51,0,0,1,15.81,36a0.37,0.37,0,0,1,.25.1,0.22,0.22,0,0,1,.1.15,0.54,0.54,0,0,1-.21.29,1.85,1.85,0,0,0-.67.75m1.62,0.05a1.32,1.32,0,0,1-.84.3,0.35,0.35,0,0,1-.19-0.11,1.69,1.69,0,0,1,.72-0.64,0.48,0.48,0,0,1,.52-0.08,0.22,0.22,0,0,1,.1.18,0.65,0.65,0,0,1-.28.34l0,0m-3.41-2.1-0.15.14a1.59,1.59,0,0,0-.47.7l-0.13,0a0.48,0.48,0,0,1-.34-0.15,0.26,0.26,0,0,1,.07-0.28,1.19,1.19,0,0,1,.82-0.41h0.1l0.11,0m8.21,0.4a0.62,0.62,0,0,1-.42.14,5.63,5.63,0,0,0-1.84-1.64,0.32,0.32,0,1,0-.28.57,5,5,0,0,1,1.6,1.44,0.62,0.62,0,0,1-.09.14,0.66,0.66,0,0,1-.52.2,2.83,2.83,0,0,0-.43-0.61,5.8,5.8,0,0,0-.84-0.72,0.32,0.32,0,0,0-.24-0.05,0.31,0.31,0,0,0-.21.13,0.32,0.32,0,0,0,.08.44,5.09,5.09,0,0,1,.73.61,2.17,2.17,0,0,1,.33.47,0.76,0.76,0,0,1-.15.2,0.49,0.49,0,0,1-.42.13,3.56,3.56,0,0,0-.58-0.88,0.32,0.32,0,0,0-.45,0,0.31,0.31,0,0,0-.11.22,0.32,0.32,0,0,0,.08.23,3,3,0,0,1,.44.64l-0.17.08a1.05,1.05,0,0,1-.51.06A0.89,0.89,0,0,0,17.84,37a0.84,0.84,0,0,0-.28-0.7,0.88,0.88,0,0,0-.77-0.21,0.85,0.85,0,0,0-.31-0.53,1,1,0,0,0-1-.21h0A0.94,0.94,0,0,0,15,34.88a1.11,1.11,0,0,0-.85-0.06,1.31,1.31,0,0,0-.7-0.27,1.76,1.76,0,0,0-1.33.49c-1.82,1-4.16,2-5.11,2.45a18.45,18.45,0,0,1-1.27-3c-0.09-.29-0.18-0.59-0.26-0.89,2.68-.31,4.83-0.62,6.4-0.93a10.1,10.1,0,0,0,3.25-1A2.35,2.35,0,0,1,16.77,31l0.39,0a1.71,1.71,0,0,0-.33.18c-0.25.18-.41,0.3-0.54,0.41a4.37,4.37,0,0,1-.42.31,4.5,4.5,0,0,1-.44.23,1.38,1.38,0,0,0-.76.58,0.78,0.78,0,0,0,.13.78,1.16,1.16,0,0,0,1.12.35,3.16,3.16,0,0,0,1.3-.39l0.35-.22a1.5,1.5,0,0,1,.4-0.22h0a1.76,1.76,0,0,1,1.12.11,6.27,6.27,0,0,1,1.12.61,7.44,7.44,0,0,1,1.64,1.5,0.51,0.51,0,0,1-.14.29m1.16-.25a3.21,3.21,0,0,1-.55-0.5h0l0-.06a7.93,7.93,0,0,0-1.69-1.52,3.64,3.64,0,0,0-2.74-.81,1.88,1.88,0,0,0-.61.31l-0.32.2a2.52,2.52,0,0,1-1,.31,0.69,0.69,0,0,1-.57-0.09A0.17,0.17,0,0,1,15.26,33a3,3,0,0,1,.45-0.25,4.81,4.81,0,0,0,.51-0.27,4.89,4.89,0,0,0,.48-0.35c0.13-.1.27-0.22,0.51-0.39a2,2,0,0,1,1.19-.24h0.45a4.82,4.82,0,0,1,1.84.44l0.76,0.27s1.08,0.34,2.49.68a30.19,30.19,0,0,0,4.73.77c-0.08.27-.16,0.55-0.24,0.81a18.38,18.38,0,0,1-1.32,3.12,22.19,22.19,0,0,1-4.24-2.24m4,6.78a4.11,4.11,0,0,1-2,1.12,2.35,2.35,0,0,1-.45,0,1.74,1.74,0,0,1-.3,0h0a2.4,2.4,0,0,1,.66-1.69,3.93,3.93,0,0,1,.49-0.48h0a4.07,4.07,0,0,1-.24,1,0.19,0.19,0,0,0,.25.25,3.15,3.15,0,0,1,1.54-.21h0a0,0,0,0,1,0,0m1.45-1.92a4.59,4.59,0,0,1-.85.89,3.09,3.09,0,0,1-1,.52,2.41,2.41,0,0,1-.74.12h-0.1A2.83,2.83,0,0,1,26.12,40a4.26,4.26,0,0,1,.4-0.53h0a4,4,0,0,1-.05,1,0.19,0.19,0,0,0,.29.2,3.13,3.13,0,0,1,1.47-.5h0a0,0,0,0,1,0,0m0.44-1a3.1,3.1,0,0,1-.9.62A2.36,2.36,0,0,1,27,40h0a2.82,2.82,0,0,1,.32-1.77,4.31,4.31,0,0,1,.34-0.56h0a4,4,0,0,1,.05,1,0.19,0.19,0,0,0,.31.17,3.13,3.13,0,0,1,1.41-.64h0a0,0,0,0,1,0,0,4.54,4.54,0,0,1-.75,1m1.06-2.06a3.08,3.08,0,0,1-.82.72,2.35,2.35,0,0,1-.78.29h0a2.86,2.86,0,0,1,.11-1.82,4,4,0,0,1,.26-0.57h0a4.44,4.44,0,0,1,.18,1,0.19,0.19,0,0,0,.33.12,2.77,2.77,0,0,1,1.13-.77l0.2-.06h0a0,0,0,0,1,0,0,4.57,4.57,0,0,1-.64,1.09M30.57,35a3.07,3.07,0,0,1-.74.79,2.36,2.36,0,0,1-.75.37h0A3,3,0,0,1,29,34.32a4.6,4.6,0,0,1,.21-0.64h0a4.35,4.35,0,0,1,.28,1,0.19,0.19,0,0,0,.34.1,3.11,3.11,0,0,1,1.24-.93h0a0,0,0,0,1,0,0A4.52,4.52,0,0,1,30.57,35m0.59-2.24a3.05,3.05,0,0,1-.64.88,2.32,2.32,0,0,1-.69.46h0a3,3,0,0,1-.31-1.84,4.29,4.29,0,0,1,.13-0.65h0a4.41,4.41,0,0,1,.4,1,0.19,0.19,0,0,0,.35.06,3.08,3.08,0,0,1,1.11-1.07h0a4.49,4.49,0,0,1-.38,1.17"
        style="fill:#211915"/><path
        d="M21.18,10.11a3.2,3.2,0,0,1,1.25.28h0.06a10.56,10.56,0,0,0,1.16.14h0.12a3.5,3.5,0,0,1-.65-0.3l-0.4-.2a4.26,4.26,0,0,0-1-.31,0.13,0.13,0,0,1,0-.26L24,9.14l-2.26-.32a0.13,0.13,0,0,1-.11-0.1,0.13,0.13,0,0,1,.06-0.14,3,3,0,0,1,.89-0.35,10.43,10.43,0,0,0,1.12-.32l0.11,0a3.57,3.57,0,0,1-.71,0l-0.44,0a4.29,4.29,0,0,0-1,.1,0.13,0.13,0,0,1-.1-0.24l2-1.18-2.22.56a0.13,0.13,0,0,1-.14-0.2,3.09,3.09,0,0,1,.69-0.66,10.53,10.53,0,0,0,.92-0.72l0.09-.08a3.52,3.52,0,0,1-.67.25l-0.43.14a4.37,4.37,0,0,0-.92.49,0.13,0.13,0,0,1-.17,0,0.13,0.13,0,0,1,0-.17L22,4.25,20.13,5.62a0.13,0.13,0,0,1-.21-0.13,3,3,0,0,1,.38-0.87,10.57,10.57,0,0,0,.57-1l0.05-.11a3.53,3.53,0,0,1-.52.49l-0.34.29a4.3,4.3,0,0,0-.66.81A0.13,0.13,0,0,1,19.16,5l0.56-2.22-1.17,2a0.13,0.13,0,0,1-.24,0,3.06,3.06,0,0,1,0-1,10.46,10.46,0,0,0,.14-1.16s0-.08,0-0.12a3.58,3.58,0,0,1-.29.65C18.1,3.22,18,3.34,18,3.49a4.26,4.26,0,0,0-.3,1,0.13,0.13,0,0,1-.26,0L17.08,2.25,16.76,4.49a0.13,0.13,0,0,1-.1.11,0.13,0.13,0,0,1-.14-0.06,3,3,0,0,1-.35-0.89,10.35,10.35,0,0,0-.31-1.13l0-.11a3.51,3.51,0,0,1,0,.71c0,0.14,0,.28,0,0.44a4.33,4.33,0,0,0,.1,1,0.13,0.13,0,0,1-.24.1l-1.18-2L15,5a0.13,0.13,0,0,1-.2.14,3,3,0,0,1-.66-0.69,10.44,10.44,0,0,0-.72-0.92l-0.08-.09a3.48,3.48,0,0,1,.25.67c0,0.13.08,0.27,0.14,0.43a4.31,4.31,0,0,0,.49.92,0.13,0.13,0,0,1-.18.18L12.19,4.25l1.37,1.83a0.13,0.13,0,0,1,0,.15,0.13,0.13,0,0,1-.14.06,3,3,0,0,1-.87-0.38,10.77,10.77,0,0,0-1-.57l-0.11-.05a3.56,3.56,0,0,1,.49.52C12,5.92,12.1,6,12.21,6.15a4.36,4.36,0,0,0,.81.67,0.13,0.13,0,0,1-.1.24L10.69,6.5l2,1.17a0.13,0.13,0,0,1,0,.24,3,3,0,0,1-1,0,10.33,10.33,0,0,0-1.16-.14H10.39A3.5,3.5,0,0,1,11,8l0.4,0.2a4.35,4.35,0,0,0,1,.3,0.13,0.13,0,0,1,0,.26l-2.27.33,2.27,0.33a0.13,0.13,0,0,1,.05.24,3.05,3.05,0,0,1-.89.35,10.54,10.54,0,0,0-1.12.32l-0.11,0a3.46,3.46,0,0,1,.71,0l0.44,0h0.35l0,0a5.3,5.3,0,0,1,1.62-.72,0.26,0.26,0,0,1,.23,0,0.26,0.26,0,0,1,.09.17l0.37-.18a5.39,5.39,0,0,1,1.7-.39,0.25,0.25,0,0,1,.21.08,0.26,0.26,0,0,1,.07.15,3.46,3.46,0,0,1,.58-0.17,5.41,5.41,0,0,1,1.75,0,0.26,0.26,0,0,1,.2.14,0.26,0.26,0,0,1,0,.07,3.54,3.54,0,0,1,.55,0A5.4,5.4,0,0,1,21,9.91a0.26,0.26,0,0,1,.17.19h0"
        style="fill:#ecc400"/><path d="M17.88,7.25c2.2-.35,2.45.29,2.45,0.29a0.19,0.19,0,0,0,.24.1s0.15,0,.07-0.19a1.54,1.54,0,0,0-1.41-.85,4.66,4.66,0,0,0-1.27,0,0.61,0.61,0,0,0-.25.47,0.13,0.13,0,0,0,.17.15" style="fill:#211915"/><path
        d="M16,7.68a2.7,2.7,0,0,0-.88-0.1,1.33,1.33,0,0,0-1.26.65C13.78,8.44,14,8.46,14,8.46a0.22,0.22,0,0,0,.28-0.12,0.6,0.6,0,0,1,.47-0.28,0.52,0.52,0,0,0,0,.19,0.51,0.51,0,0,0,1,0,0.5,0.5,0,0,0,0-.2,0.65,0.65,0,0,1,.36.33,0.29,0.29,0,0,0,.3.1c0.2,0,.15-0.13.15-0.13A1,1,0,0,0,16,7.68"
        style="fill:#211915"/><path
        d="M17.84,8.49a0.29,0.29,0,0,0,.3-0.1,0.65,0.65,0,0,1,.36-0.33,0.51,0.51,0,1,0,1,.2,0.52,0.52,0,0,0,0-.19,0.6,0.6,0,0,1,.47.28,0.22,0.22,0,0,0,.28.12s0.18,0,.09-0.23A1.33,1.33,0,0,0,19,7.58a2.7,2.7,0,0,0-.88.1,1,1,0,0,0-.45.67s0,0.13.15,0.13"
        style="fill:#211915"/><path d="M13.57,7.63a0.19,0.19,0,0,0,.24-0.1s0.24-.64,2.45-0.29a0.13,0.13,0,0,0,.17-0.15,0.61,0.61,0,0,0-.25-0.47,4.67,4.67,0,0,0-1.27,0,1.54,1.54,0,0,0-1.41.85c-0.08.18,0.07,0.19,0.07,0.19" style="fill:#211915"/><path d="M26.81,42.11a3.15,3.15,0,0,0-1.54.21A0.19,0.19,0,0,1,25,42.07a4,4,0,0,0,.25-1h0a3.93,3.93,0,0,0-.49.48,2.41,2.41,0,0,0-.66,1.69h0a1.75,1.75,0,0,0,.3,0,2.35,2.35,0,0,0,.46,0,4.11,4.11,0,0,0,2-1.12h0" style="fill:#629a3b"/><path d="M8.93,41.08h0a3.66,3.66,0,0,0,.23,1,0.19,0.19,0,0,1-.25.25,3.13,3.13,0,0,0-1.54-.21h0a0,0,0,0,0,0,0,4.14,4.14,0,0,0,2,1.12,2.29,2.29,0,0,0,.45,0,1.69,1.69,0,0,0,.3,0h0a2.84,2.84,0,0,0-1.14-2.18" style="fill:#629a3b"/><path
        d="M28.25,40.19a3.13,3.13,0,0,0-1.47.5,0.19,0.19,0,0,1-.29-0.2,3.91,3.91,0,0,0,.05-1h0a4.27,4.27,0,0,0-.4.53,2.83,2.83,0,0,0-.51,1.73h0.1a2.41,2.41,0,0,0,.74-0.12,3.09,3.09,0,0,0,1-.52,4.55,4.55,0,0,0,.85-0.89,0,0,0,0,0,0,0h0"
        style="fill:#629a3b"/><path d="M29.44,38.21a3.12,3.12,0,0,0-1.41.64,0.19,0.19,0,0,1-.31-0.17,4,4,0,0,0-.05-1h0a4.23,4.23,0,0,0-.34.56A2.82,2.82,0,0,0,27,40h0a2.37,2.37,0,0,0,.81-0.2,3.1,3.1,0,0,0,.9-0.62,4.54,4.54,0,0,0,.75-1,0,0,0,0,0,0,0h0" style="fill:#629a3b"/><path
        d="M30.39,36l-0.2.06a2.77,2.77,0,0,0-1.13.77,0.19,0.19,0,0,1-.33-0.12,4.49,4.49,0,0,0-.18-1h0a3.93,3.93,0,0,0-.26.57,2.87,2.87,0,0,0-.11,1.82h0a2.35,2.35,0,0,0,.78-0.3,3.07,3.07,0,0,0,.82-0.72,4.57,4.57,0,0,0,.64-1.09,0,0,0,0,0,0,0h0"
        style="fill:#629a3b"/><path d="M31.07,33.87a3.1,3.1,0,0,0-1.24.93,0.19,0.19,0,0,1-.34-0.1,4.36,4.36,0,0,0-.28-1h0a4.6,4.6,0,0,0-.21.64,3,3,0,0,0,.08,1.83h0a2.36,2.36,0,0,0,.75-0.37A3.09,3.09,0,0,0,30.57,35a4.55,4.55,0,0,0,.52-1.11,0,0,0,0,0,0,0h0" style="fill:#629a3b"/><path d="M31.52,31.57a3.09,3.09,0,0,0-1.12,1.07,0.19,0.19,0,0,1-.35-0.06,4.42,4.42,0,0,0-.4-1h0a4.2,4.2,0,0,0-.13.65,3,3,0,0,0,.31,1.84h0a2.34,2.34,0,0,0,.69-0.46,3,3,0,0,0,.64-0.88,4.52,4.52,0,0,0,.38-1.17h0" style="fill:#629a3b"/><path d="M30.74,30.45a0.19,0.19,0,0,1-.35,0,3.36,3.36,0,0,0-.49-0.91h0a3.86,3.86,0,0,0-.07.66,2.8,2.8,0,0,0,.52,1.76h0A2.34,2.34,0,0,0,31,31.42a3,3,0,0,0,.53-0.94,4.49,4.49,0,0,0,.24-1.2h0a3.06,3.06,0,0,0-1,1.19" style="fill:#629a3b"/><path d="M30.66,28.36a0.19,0.19,0,0,1-.18-0.11,4,4,0,0,0-.56-0.82h0a3.43,3.43,0,0,0,.67,2.32h0a2.32,2.32,0,0,0,.58-0.59,3,3,0,0,0,.44-1A4.49,4.49,0,0,0,31.71,27h0a3,3,0,0,0-.86,1.28,0.19,0.19,0,0,1-.17.13" style="fill:#629a3b"/><path d="M30.55,26.12A0.19,0.19,0,0,1,30.36,26a4.07,4.07,0,0,0-.62-0.74h0a3.52,3.52,0,0,0,.86,2.24h0a2.29,2.29,0,0,0,.53-0.65,3,3,0,0,0,.34-1,4.47,4.47,0,0,0,0-1.23h0A3.06,3.06,0,0,0,30.71,26a0.19,0.19,0,0,1-.16.14" style="fill:#629a3b"/><path
        d="M30.25,23.94a0.19,0.19,0,0,1-.2-0.08,4.08,4.08,0,0,0-.68-0.73h0a4.68,4.68,0,0,0,.11.65,3,3,0,0,0,.88,1.55h0a2.31,2.31,0,0,0,.49-0.67,3,3,0,0,0,.29-1,4.48,4.48,0,0,0-.06-1.23h0a3.05,3.05,0,0,0-.67,1.39,0.19,0.19,0,0,1-.15.15"
        style="fill:#629a3b"/><path
        d="M29.77,21.79a0.19,0.19,0,0,1-.2-0.05,4.06,4.06,0,0,0-.79-0.64h0a4.28,4.28,0,0,0,.19.62,2.85,2.85,0,0,0,1.11,1.43h0a2.3,2.3,0,0,0,.4-0.73,3,3,0,0,0,.14-1.07,4.5,4.5,0,0,0-.22-1.21h0a3,3,0,0,0-.47,1.47,0.19,0.19,0,0,1-.13.17"
        style="fill:#629a3b"/><path d="M28.81,19.66A4.09,4.09,0,0,0,28,19.1h0a0,0,0,0,0,0,0,4.24,4.24,0,0,0,.25.6A2.86,2.86,0,0,0,29.46,21h0a2.3,2.3,0,0,0,.32-0.76,3,3,0,0,0,0-1.08A4.48,4.48,0,0,0,29.47,18h0a3,3,0,0,0-.32,1.5,0.19,0.19,0,0,1-.32.15" style="fill:#629a3b"/><path d="M26.91,17.22a0,0,0,0,0,0,0,3.73,3.73,0,0,0,.31.59A2.82,2.82,0,0,0,28.66,19h0a2.29,2.29,0,0,0,.22-0.79,3,3,0,0,0-.09-1.08A4.57,4.57,0,0,0,28.32,16h0a3,3,0,0,0-.14,1.53,0.19,0.19,0,0,1-.31.18,3.07,3.07,0,0,0-.93-0.48h0" style="fill:#629a3b"/><path d="M25.65,15.54a0,0,0,0,0,0,0,4.3,4.3,0,0,0,.44.55,2.9,2.9,0,0,0,1.57.92h0a2.26,2.26,0,0,0,.09-0.82,3,3,0,0,0-.27-1,4.57,4.57,0,0,0-.65-1h0a3.38,3.38,0,0,0,.1,1.52,0.19,0.19,0,0,1-.29.21,2.18,2.18,0,0,0-1-.33h0" style="fill:#629a3b"/><path
        d="M25.41,14.18a0.19,0.19,0,0,1-.21,0,3,3,0,0,0-.93-0.17H24.18a0,0,0,0,0,0,0,5,5,0,0,0,.55.5,2.78,2.78,0,0,0,1.61.64h0a2.48,2.48,0,0,0-.05-0.84,3.16,3.16,0,0,0-.43-1,4.47,4.47,0,0,0-.8-0.91h0A3,3,0,0,0,25.44,14a0.19,0.19,0,0,1,0,.22"
        style="fill:#629a3b"/><path d="M8.46,41.75h0.1a3.49,3.49,0,0,0-.91-2.24h0a3.14,3.14,0,0,0,.06,1,0.19,0.19,0,0,1-.29.21,3.12,3.12,0,0,0-1.47-.5h0a0,0,0,0,0,0,0,4.57,4.57,0,0,0,.85.89,3.12,3.12,0,0,0,1,.52,2.41,2.41,0,0,0,.74.12" style="fill:#629a3b"/><path d="M7.19,40h0a3,3,0,0,0-.32-1.76,4.5,4.5,0,0,0-.34-0.57h0a3.49,3.49,0,0,0,0,1,0.19,0.19,0,0,1-.31.17,3.11,3.11,0,0,0-1.41-.65h0a0,0,0,0,0,0,0,4.53,4.53,0,0,0,.75,1,3.1,3.1,0,0,0,.9.62,2.34,2.34,0,0,0,.81.2" style="fill:#629a3b"/><path
        d="M6,38.19H6a2.8,2.8,0,0,0-.1-1.82,3.93,3.93,0,0,0-.28-0.59h0a4,4,0,0,0-.17,1,0.19,0.19,0,0,1-.33.13A3.18,3.18,0,0,0,4,36.17L3.8,36.11h0a0,0,0,0,0,0,0,4.51,4.51,0,0,0,.63,1.06,3.07,3.07,0,0,0,.82.72,2.37,2.37,0,0,0,.78.3"
        style="fill:#629a3b"/><path d="M5.05,36.21h0A3,3,0,0,0,5,33.75H5a4,4,0,0,0-.29,1,0.19,0.19,0,0,1-.34.09,3.15,3.15,0,0,0-1-.86L3.1,33.88h0a0,0,0,0,0,0,0,3.08,3.08,0,0,0,2,2.31" style="fill:#629a3b"/><path d="M3.62,33.69a2.33,2.33,0,0,0,.72.44h0a2.56,2.56,0,0,0,.32-1.88,2.75,2.75,0,0,0-.21-0.61h0a3.91,3.91,0,0,0-.39,1h0a0.19,0.19,0,0,1-.35.07,3.07,3.07,0,0,0-1.15-1h0A4.52,4.52,0,0,0,3,32.84a3,3,0,0,0,.67.86" style="fill:#629a3b"/><path d="M3.75,32h0a3,3,0,0,0,.54-2.41h0a3.93,3.93,0,0,0-.55.9,0.19,0.19,0,0,1-.17.12h0a0.19,0.19,0,0,1-.18-0.11,3.13,3.13,0,0,0-.8-1.09l-0.16-.13h0A3.07,3.07,0,0,0,3.75,32" style="fill:#629a3b"/><path d="M3.56,29.84h0a2.28,2.28,0,0,0,.66-1.3,3.54,3.54,0,0,0,0-1.12h0a1.66,1.66,0,0,0-.49.85,0.19,0.19,0,0,1-.37,0,3.13,3.13,0,0,0-.68-1.17L2.53,27h0a3,3,0,0,0,1.05,2.84" style="fill:#629a3b"/><path d="M3,26.89a2.31,2.31,0,0,0,.52.64h0a2.74,2.74,0,0,0,.8-1.61,4.31,4.31,0,0,0,.05-0.68h0a2.83,2.83,0,0,0-.6.78,0.19,0.19,0,0,1-.36,0,3.05,3.05,0,0,0-.73-1.36h0a4.53,4.53,0,0,0,0,1.23,3,3,0,0,0,.34,1" style="fill:#629a3b"/><path d="M3.27,24.65a2.3,2.3,0,0,0,.49.66h0a3,3,0,0,0,.95-1.63,3.53,3.53,0,0,0,.08-0.6h0a4,4,0,0,0-.71.75,0.19,0.19,0,0,1-.35-0.07,3,3,0,0,0-.67-1.39H3A4.47,4.47,0,0,0,3,23.61a3,3,0,0,0,.29,1" style="fill:#629a3b"/><path d="M4.05,23.14h0a2.75,2.75,0,0,0,1.19-1.51A3,3,0,0,0,5.39,21h0a3.43,3.43,0,0,0-.82.68,0.19,0.19,0,0,1-.2.06,0.19,0.19,0,0,1-.13-0.17,3,3,0,0,0-.49-1.46h0a4.52,4.52,0,0,0-.21,1.21,3,3,0,0,0,.16,1.07,2.32,2.32,0,0,0,.41.72" style="fill:#629a3b"/><path d="M4.61,21h0A2.93,2.93,0,0,0,6.2,19.11h0a3.94,3.94,0,0,0-.9.57A0.19,0.19,0,0,1,5,19.5,3,3,0,0,0,4.66,18h0a4.53,4.53,0,0,0-.36,1.18,3,3,0,0,0,0,1.08,2.28,2.28,0,0,0,.31.76" style="fill:#629a3b"/><path d="M5.41,19h0A2.77,2.77,0,0,0,6.88,17.9a4.2,4.2,0,0,0,.38-0.63,0,0,0,0,0,0,0h0a1.85,1.85,0,0,0-.93.46A0.19,0.19,0,0,1,6,17.53,3,3,0,0,0,5.91,16h0a4.51,4.51,0,0,0-.53,1.11,3,3,0,0,0-.14,1.07,2.31,2.31,0,0,0,.19.81" style="fill:#629a3b"/><path d="M6.53,17h0a3.45,3.45,0,0,0,2-1.48,0,0,0,0,0,0,0h0a2.22,2.22,0,0,0-1,.33,0.19,0.19,0,0,1-.29-0.22,3,3,0,0,0,.11-1.53h0A3,3,0,0,0,6.52,17h0" style="fill:#629a3b"/><path d="M7.83,15.23H7.9a2.73,2.73,0,0,0,1.51-.65,6.09,6.09,0,0,0,.57-0.5,0,0,0,0,0,0,0h0a3.81,3.81,0,0,0-1,.17A0.19,0.19,0,0,1,8.78,14a3,3,0,0,0,.36-1.49h0a4.59,4.59,0,0,0-.82.93,3,3,0,0,0-.43,1,2.26,2.26,0,0,0,0,.84h0" style="fill:#629a3b"/><path d="M11.68,12.77a4.06,4.06,0,0,0-1,.06,0.19,0.19,0,0,1-.2-0.29,3,3,0,0,0,.5-1.45h0a3.07,3.07,0,0,0-1.55,2.6H9.53a3.74,3.74,0,0,0,2.16-.9h0" style="fill:#629a3b"/><path
        d="M13.56,11.87a3.23,3.23,0,0,0-.51-0.11,4.07,4.07,0,0,0-.49,0h0a0.19,0.19,0,0,1-.13-0.34,3.11,3.11,0,0,0,.86-1.1,0,0,0,0,0,0,0h0a2.85,2.85,0,0,0-2.17,2h0a2.45,2.45,0,0,0,.68.09A3.52,3.52,0,0,0,13,12.15a4.81,4.81,0,0,0,.61-0.26h0"
        style="fill:#629a3b"/><path
        d="M15.61,11.32a4.11,4.11,0,0,0-1-.32,0.19,0.19,0,0,1,0-.36,2.64,2.64,0,0,0,1-.75,0,0,0,0,0,0,0h0a3.53,3.53,0,0,0-2,.86,1.77,1.77,0,0,0-.4.59,0,0,0,0,0,0,0,2.73,2.73,0,0,0,1.14.23A3.77,3.77,0,0,0,15,11.5a4.55,4.55,0,0,0,.63-0.16h0"
        style="fill:#629a3b"/><path d="M17,10.74a0.19,0.19,0,0,1,0-.36,3.34,3.34,0,0,0,1.09-.53,0,0,0,0,0,0,0h0a3.53,3.53,0,0,0-2.11.41,1.8,1.8,0,0,0-.52.49,0,0,0,0,0,0,0,3.19,3.19,0,0,0,1.91.55l0.48,0h0a0,0,0,0,0,0,0,3.39,3.39,0,0,0-.86-0.5" style="fill:#629a3b"/><path d="M19.2,10.89a0.19,0.19,0,0,1-.08-0.2,0.19,0.19,0,0,1,.16-0.14,3.86,3.86,0,0,0,1.16-.31h0a3.51,3.51,0,0,0-2.13,0,1.8,1.8,0,0,0-.61.38,0,0,0,0,0,0,0,3,3,0,0,0,2.25,1h0a0,0,0,0,0,0,0,4,4,0,0,0-.76-0.71" style="fill:#629a3b"/><path d="M24.78,13.69h0a2.53,2.53,0,0,0-.17-0.93,2.36,2.36,0,0,0-1.55-1.38h0a3.93,3.93,0,0,0,.61,1.15,0.19,0.19,0,0,1-.19.31,2.62,2.62,0,0,0-1,0h0a4.54,4.54,0,0,0,2.19.85h0.1" style="fill:#629a3b"/><path d="M23,12.3h0a2,2,0,0,0-1.63-.62,2.91,2.91,0,0,0-.7.13h0a2.61,2.61,0,0,0,1.61.61h0.09A2.16,2.16,0,0,0,23,12.31h0" style="fill:#629a3b"/><path d="M19.86,10.92h0a2,2,0,0,0,1.2.35,3.44,3.44,0,0,0,.62-0.06A4.78,4.78,0,0,0,22.54,11h0a3,3,0,0,0-1-.34,2.53,2.53,0,0,0-1,0,2.64,2.64,0,0,0-.7.28h0" style="fill:#629a3b"/><path d="M13.46,23.41a0.65,0.65,0,0,0,.53.19h2.48c-1.49-.92-2-0.76-3.08-0.28l0.06,0.09" style="fill:#c5470a"/><path
        d="M19.52,22.28a5.77,5.77,0,0,1-.65-0.2,6.59,6.59,0,0,1-1.45-.84,0.36,0.36,0,0,1,.45-0.57,5.87,5.87,0,0,0,1.27.73,5.39,5.39,0,0,0,.56.17,5.1,5.1,0,0,1,1,.34c-0.06-.41-0.13-0.76-0.2-1.1a5,5,0,0,1-1.86-.93,0.36,0.36,0,0,1,.46-0.56,4.63,4.63,0,0,0,1.2.67,14.12,14.12,0,0,0-1.09-2.83,2.51,2.51,0,0,0-1.47-1.3,2.33,2.33,0,0,0-.84-0.12h0a2.85,2.85,0,0,0-2,.9l0,0a2.29,2.29,0,0,0-.57.91,0.36,0.36,0,0,0,.13.39A0.55,0.55,0,0,0,15,17.85l0.15-.12a0.36,0.36,0,0,1,.44.58l-0.14.11a5.19,5.19,0,0,0-.79.87,7.88,7.88,0,0,0-1.35,3.18l0,0.09c1-.45,1.87-0.63,3.71.55a3.47,3.47,0,0,0,1.71.5H19.6a1.57,1.57,0,0,0,1.09-.32,0.54,0.54,0,0,0,.11-0.18c0-.43-0.41-0.6-1.27-0.83"
        style="fill:#c5470a"/><path d="M15.95,36.5a0.54,0.54,0,0,0,.21-0.29,0.22,0.22,0,0,0-.1-0.15,0.37,0.37,0,0,0-.25-0.1,1.51,1.51,0,0,0-.73.36,1,1,0,0,0-.52.7,0.22,0.22,0,0,0,.1.18,1.06,1.06,0,0,0,.63.06,1.85,1.85,0,0,1,.67-0.75" style="fill:#e9c184"/><path d="M17.21,36.94a0.22,0.22,0,0,0-.1-0.18,0.48,0.48,0,0,0-.52.08,1.7,1.7,0,0,0-.72.64,0.35,0.35,0,0,0,.19.11,1.32,1.32,0,0,0,.84-0.3l0,0a0.64,0.64,0,0,0,.28-0.34" style="fill:#e9c184"/><path d="M13.36,35.18H13.29a1.19,1.19,0,0,0-.82.41,0.26,0.26,0,0,0-.07.28,0.49,0.49,0,0,0,.34.15l0.13,0a1.6,1.6,0,0,1,.47-0.7l0.15-.14-0.11,0h0" style="fill:#e9c184"/><path d="M13.47,36.33a0.37,0.37,0,0,0,.33.32l0.15,0a1.82,1.82,0,0,1,.76-0.9l0.18-.12a0.13,0.13,0,0,0,0-.06,0.34,0.34,0,0,0-.18-0.16,0.45,0.45,0,0,0-.21,0,1.13,1.13,0,0,0-.71.4,0.72,0.72,0,0,0-.31.54" style="fill:#e9c184"/><path
        d="M21.28,35.74a0.63,0.63,0,0,0,.42-0.14,0.52,0.52,0,0,0,.14-0.29,7.45,7.45,0,0,0-1.64-1.51,6.27,6.27,0,0,0-1.12-.61A1.76,1.76,0,0,0,18,33.08h0a1.48,1.48,0,0,0-.4.22l-0.36.22a3.16,3.16,0,0,1-1.3.39,1.16,1.16,0,0,1-1.12-.35,0.77,0.77,0,0,1-.13-0.78,1.38,1.38,0,0,1,.76-0.58A4.59,4.59,0,0,0,15.87,32a4.26,4.26,0,0,0,.42-0.31c0.14-.11.29-0.24,0.54-0.41a1.76,1.76,0,0,1,.33-0.18l-0.39,0a2.36,2.36,0,0,0-1.65.61,10.07,10.07,0,0,1-3.25,1c-1.57.31-3.72,0.63-6.4,0.93,0.08,0.3.17,0.6,0.26,0.89a18.41,18.41,0,0,0,1.27,3c1-.42,3.29-1.48,5.11-2.45a1.76,1.76,0,0,1,1.33-.49,1.3,1.3,0,0,1,.7.27,1.11,1.11,0,0,1,.85.06,1,1,0,0,1,.48.49,1,1,0,0,1,1,.21,0.86,0.86,0,0,1,.31.53,0.88,0.88,0,0,1,.77.21,0.84,0.84,0,0,1,.28.7,0.9,0.9,0,0,1-.14.39,1,1,0,0,0,.51-0.06l0.17-.08a3,3,0,0,0-.44-0.64,0.31,0.31,0,0,1-.08-0.23,0.32,0.32,0,0,1,.56-0.19,3.55,3.55,0,0,1,.58.88,0.49,0.49,0,0,0,.42-0.13,0.75,0.75,0,0,0,.14-0.2,2.13,2.13,0,0,0-.33-0.47,5.12,5.12,0,0,0-.73-0.61,0.32,0.32,0,1,1,.37-0.52,5.79,5.79,0,0,1,.84.72,2.79,2.79,0,0,1,.43.61,0.66,0.66,0,0,0,.52-0.2,0.64,0.64,0,0,0,.09-0.15,5,5,0,0,0-1.6-1.44,0.32,0.32,0,0,1,.28-0.57,5.64,5.64,0,0,1,1.84,1.64"
        style="fill:#e9c184"/><path
        d="M17.21,32.77a1.87,1.87,0,0,1,.61-0.31,3.64,3.64,0,0,1,2.74.81,7.92,7.92,0,0,1,1.69,1.52l0,0.06h0a3.22,3.22,0,0,0,.56.5,22.14,22.14,0,0,0,4.24,2.24,18.33,18.33,0,0,0,1.32-3.12c0.08-.26.17-0.53,0.24-0.81a30.19,30.19,0,0,1-4.73-.77c-1.41-.34-2.45-0.66-2.49-0.68l-0.76-.27a4.82,4.82,0,0,0-1.84-.44H18.39a2,2,0,0,0-1.19.24c-0.23.16-.38,0.28-0.51,0.39a5.08,5.08,0,0,1-.48.35,4.89,4.89,0,0,1-.51.27,2.91,2.91,0,0,0-.45.25,0.17,0.17,0,0,0,.06.16,0.68,0.68,0,0,0,.57.09,2.52,2.52,0,0,0,1-.31l0.32-.2"
        style="fill:#e9c184"/></svg>
