<svg id="Capa_1" data-name="Capa 1" xmlns="http://www.w3.org/2000/svg" viewBox="0 0 327.05 56.95"><defs><style>.cls-1{fill:#777;}.cls-2{fill:#0072bc;}.cls-3{fill:#fff;}.cls-4{fill:#231f20;}.cls-5{fill:#facc63;}.cls-6{fill:#0b9e5c;}.cls-7{fill:#efb780;}.cls-8{fill:#168fba;}.cls-9{fill:#d93e26;}</style></defs><title>ministerio-modernizacion-color</title><path class="cls-1" d="M47.07,12.19H50.3l3.58,5.75,3.58-5.75h3.23V25.8h-3V16.92l-3.83,5.81H53.8L50,17V25.8H47.07V12.19Z"/><path class="cls-1" d="M63.7,11.61h3.11v2.62H63.7V11.61Zm0.08,3.77h3V25.8h-3V15.38Z"/><path class="cls-1" d="M69.51,15.38h3v1.48a3.69,3.69,0,0,1,3.05-1.67c2.24,0,3.54,1.48,3.54,3.87V25.8h-3V20c0-1.4-.66-2.12-1.79-2.12s-1.85.72-1.85,2.12V25.8h-3V15.38Z"/><path class="cls-1" d="M81.68,11.61h3.11v2.62H81.68V11.61Zm0.08,3.77h3V25.8h-3V15.38Z"/><path class="cls-1" d="M86.68,24.42l1.26-1.94a5.89,5.89,0,0,0,3.29,1.24c0.86,0,1.24-.31,1.24-0.78v0c0-.64-1-0.86-2.16-1.21-1.46-.43-3.11-1.11-3.11-3.13v0c0-2.12,1.71-3.3,3.81-3.3a7.21,7.21,0,0,1,3.89,1.21l-1.13,2a6.17,6.17,0,0,0-2.82-1c-0.72,0-1.09.31-1.09,0.72v0c0,0.58,1,.86,2.12,1.24,1.46,0.49,3.15,1.19,3.15,3.09v0c0,2.31-1.73,3.36-4,3.36A7.3,7.3,0,0,1,86.68,24.42Z"/><path class="cls-1" d="M97.55,22.85V17.91H96.31V15.38h1.24V12.72h3v2.66H103v2.53H100.5v4.45a0.86,0.86,0,0,0,1,1,3,3,0,0,0,1.46-.37v2.37a4.35,4.35,0,0,1-2.33.6C98.77,26,97.55,25.26,97.55,22.85Z"/><path class="cls-1" d="M104.34,20.65v0a5.19,5.19,0,0,1,5.15-5.42c3.48,0,5.07,2.7,5.07,5.66,0,0.23,0,.51,0,0.78h-7.25a2.42,2.42,0,0,0,2.55,2,3.41,3.41,0,0,0,2.53-1.07l1.69,1.5A5.5,5.5,0,0,1,104.34,20.65Zm7.35-.87a2.23,2.23,0,0,0-2.2-2.22,2.32,2.32,0,0,0-2.25,2.22h4.45Z"/><path class="cls-1" d="M116.76,15.38h3v2.1A3.22,3.22,0,0,1,123,15.19v3.09h-0.16c-2,0-3.17,1.19-3.17,3.67V25.8h-3V15.38Z"/><path class="cls-1" d="M124.95,11.61h3.11v2.62h-3.11V11.61ZM125,15.38h3V25.8h-3V15.38Z"/><path class="cls-1" d="M130.25,20.65v0a5.64,5.64,0,0,1,11.27,0v0A5.64,5.64,0,0,1,130.25,20.65Zm8.36,0v0a2.77,2.77,0,0,0-2.74-2.88,2.67,2.67,0,0,0-2.7,2.84v0a2.77,2.77,0,0,0,2.74,2.88A2.67,2.67,0,0,0,138.61,20.65Z"/><path class="cls-1" d="M149,20.61v0c0-3.48,2.27-5.38,4.74-5.38A4,4,0,0,1,157,16.74V11.61h3V25.8h-3V24.3A3.83,3.83,0,0,1,153.78,26C151.35,26,149,24.09,149,20.61Zm8,0v0a2.56,2.56,0,1,0-5.07,0v0A2.56,2.56,0,1,0,157.07,20.61Z"/><path class="cls-1" d="M162.12,20.65v0a5.19,5.19,0,0,1,5.15-5.42c3.48,0,5.07,2.7,5.07,5.66,0,0.23,0,.51,0,0.78h-7.25a2.42,2.42,0,0,0,2.55,2,3.41,3.41,0,0,0,2.53-1.07l1.69,1.5A5.5,5.5,0,0,1,162.12,20.65Zm7.35-.87a2.23,2.23,0,0,0-2.2-2.22A2.32,2.32,0,0,0,165,19.77h4.45Z"/><path class="cls-1" d="M180.69,12.19h3.23l3.58,5.75,3.58-5.75h3.23V25.8h-3V16.92l-3.83,5.81h-0.08L183.63,17V25.8h-2.94V12.19Z"/><path class="cls-1" d="M196.75,20.65v0a5.64,5.64,0,0,1,11.28,0v0A5.64,5.64,0,0,1,196.75,20.65Zm8.36,0v0a2.77,2.77,0,0,0-2.74-2.88,2.67,2.67,0,0,0-2.7,2.84v0a2.77,2.77,0,0,0,2.74,2.88A2.67,2.67,0,0,0,205.11,20.65Z"/><path class="cls-1" d="M209.7,20.61v0c0-3.48,2.27-5.38,4.74-5.38a4,4,0,0,1,3.25,1.56V11.61h3V25.8h-3V24.3A3.82,3.82,0,0,1,214.45,26C212,26,209.7,24.09,209.7,20.61Zm8,0v0a2.56,2.56,0,1,0-5.07,0v0A2.56,2.56,0,1,0,217.73,20.61Z"/><path class="cls-1" d="M222.79,20.65v0a5.19,5.19,0,0,1,5.15-5.42c3.48,0,5.07,2.7,5.07,5.66,0,0.23,0,.51,0,0.78h-7.25a2.42,2.42,0,0,0,2.55,2,3.41,3.41,0,0,0,2.53-1.07l1.69,1.5A5.5,5.5,0,0,1,222.79,20.65Zm7.35-.87a2.24,2.24,0,0,0-2.2-2.22,2.32,2.32,0,0,0-2.25,2.22h4.45Z"/><path class="cls-1" d="M235.22,15.38h3v2.1a3.22,3.22,0,0,1,3.32-2.29v3.09h-0.16c-2,0-3.17,1.19-3.17,3.67V25.8h-3V15.38Z"/><path class="cls-1" d="M243.34,15.38h3v1.48a3.69,3.69,0,0,1,3.05-1.67c2.24,0,3.54,1.48,3.54,3.87V25.8h-3V20c0-1.4-.66-2.12-1.79-2.12s-1.85.72-1.85,2.12V25.8h-3V15.38Z"/><path class="cls-1" d="M255.52,11.61h3.11v2.62h-3.11V11.61Zm0.08,3.77h3V25.8h-3V15.38Z"/><path class="cls-1" d="M261,23.72l5.38-5.95h-5.21V15.38H270v2.08l-5.4,5.95H270V25.8H261V23.72Z"/><path class="cls-1" d="M271.65,22.81v0c0-2.27,1.73-3.32,4.2-3.32a7.41,7.41,0,0,1,2.55.43V19.7c0-1.22-.76-1.91-2.24-1.91a7.66,7.66,0,0,0-2.88.56l-0.74-2.25a9.19,9.19,0,0,1,4-.84,4.81,4.81,0,0,1,3.52,1.17,4.54,4.54,0,0,1,1.13,3.32v6h-2.86V24.67A4,4,0,0,1,275.23,26C273.27,26,271.65,24.87,271.65,22.81Zm6.78-.68V21.6a4.58,4.58,0,0,0-1.89-.39c-1.26,0-2,.51-2,1.44v0A1.37,1.37,0,0,0,276.13,24C277.51,24,278.44,23.19,278.44,22.13Z"/><path class="cls-1" d="M283.28,20.65v0a5.35,5.35,0,0,1,5.46-5.42,5.13,5.13,0,0,1,4.16,1.75l-1.81,1.94a3,3,0,0,0-2.37-1.15,2.66,2.66,0,0,0-2.53,2.84v0a2.67,2.67,0,0,0,2.64,2.88,3.3,3.3,0,0,0,2.39-1.11L293,24.13A5.25,5.25,0,0,1,288.71,26,5.32,5.32,0,0,1,283.28,20.65Z"/><path class="cls-1" d="M294.95,11.61h3.11v2.62h-3.11V11.61ZM295,15.38h3V25.8h-3V15.38Z"/><path class="cls-1" d="M300.26,20.65v0a5.64,5.64,0,0,1,11.28,0v0A5.64,5.64,0,0,1,300.26,20.65Zm8.36,0v0a2.77,2.77,0,0,0-2.74-2.88,2.67,2.67,0,0,0-2.7,2.84v0a2.77,2.77,0,0,0,2.74,2.88A2.67,2.67,0,0,0,308.62,20.65Zm-1.73-9.86,2.55,1.11-2.53,2.33h-2.18Z"/><path class="cls-1" d="M313.67,15.38h3v1.48a3.69,3.69,0,0,1,3.05-1.67c2.24,0,3.54,1.48,3.54,3.87V25.8h-3V20c0-1.4-.66-2.12-1.79-2.12s-1.85.72-1.85,2.12V25.8h-3V15.38Z"/><path class="cls-2" d="M47.2,35.55h5.37c3.17,0,5.17,1.81,5.17,4.55v0c0,3.05-2.45,4.65-5.44,4.65h-2.7v4.37H47.2V35.55Zm5.17,7.08c1.81,0,2.94-1,2.94-2.43v0c0-1.59-1.15-2.43-2.94-2.43H49.59v4.9h2.78Z"/><path class="cls-2" d="M59.92,38.9h2.35v2.31A3.64,3.64,0,0,1,65.9,38.7v2.49H65.77c-2.06,0-3.5,1.34-3.5,4.06v3.91H59.92V38.9Z"/><path class="cls-2" d="M67.38,44.07v0a5.09,5.09,0,0,1,5-5.35c3.27,0,4.92,2.57,4.92,5.52,0,0.21,0,.43,0,0.66H69.74a2.87,2.87,0,0,0,3,2.6,3.73,3.73,0,0,0,2.78-1.22l1.38,1.22a5.19,5.19,0,0,1-4.2,1.92A5.12,5.12,0,0,1,67.38,44.07Zm7.6-.76a2.66,2.66,0,0,0-2.61-2.7,2.78,2.78,0,0,0-2.66,2.7H75Z"/><path class="cls-2" d="M78.86,47.82l1.05-1.59a5.76,5.76,0,0,0,3.36,1.26c1,0,1.59-.43,1.59-1.11v0c0-.8-1.09-1.07-2.29-1.44-1.52-.43-3.21-1-3.21-3v0c0-1.94,1.61-3.13,3.66-3.13a7.12,7.12,0,0,1,3.77,1.17l-0.93,1.67a6,6,0,0,0-2.9-1,1.19,1.19,0,0,0-1.44,1v0c0,0.74,1.11,1,2.31,1.44,1.5,0.47,3.19,1.15,3.19,3v0c0,2.16-1.67,3.23-3.81,3.23A7.21,7.21,0,0,1,78.86,47.82Z"/><path class="cls-2" d="M89.45,35.08H92v2.24H89.45V35.08Zm0.1,3.81H91.9V49.16H89.55V38.9Z"/><path class="cls-2" d="M94.45,44v0c0-3.4,2.31-5.33,4.76-5.33a4.25,4.25,0,0,1,3.5,1.81V35h2.35V49.16h-2.35V47.45a4.11,4.11,0,0,1-3.5,1.92C96.8,49.37,94.45,47.45,94.45,44Zm8.3,0v0a3.08,3.08,0,0,0-3-3.29,3,3,0,0,0-3,3.29v0a3.05,3.05,0,0,0,3,3.29A3.09,3.09,0,0,0,102.75,44Z"/><path class="cls-2" d="M107.44,44.07v0a5.09,5.09,0,0,1,5-5.35c3.27,0,4.92,2.57,4.92,5.52,0,0.21,0,.43,0,0.66h-7.54a2.87,2.87,0,0,0,3,2.6,3.73,3.73,0,0,0,2.78-1.22l1.38,1.22a5.19,5.19,0,0,1-4.2,1.92A5.12,5.12,0,0,1,107.44,44.07Zm7.6-.76a2.66,2.66,0,0,0-2.61-2.7,2.78,2.78,0,0,0-2.66,2.7H115Z"/><path class="cls-2" d="M119.75,38.9h2.35v1.59a3.69,3.69,0,0,1,3.21-1.81c2.31,0,3.65,1.56,3.65,3.95v6.53h-2.35V43.33c0-1.59-.8-2.51-2.2-2.51a2.28,2.28,0,0,0-2.31,2.55v5.79h-2.35V38.9Z"/><path class="cls-2" d="M131.24,44.09v0a5.29,5.29,0,0,1,5.33-5.37,5.13,5.13,0,0,1,4.1,1.77L139.21,42a3.45,3.45,0,0,0-2.66-1.28,3.08,3.08,0,0,0-3,3.27v0a3.12,3.12,0,0,0,3.07,3.31,3.61,3.61,0,0,0,2.66-1.28l1.42,1.4A5.38,5.38,0,0,1,131.24,44.09Z"/><path class="cls-2" d="M142.95,35.08h2.53v2.24h-2.53V35.08ZM143,38.9h2.35V49.16H143V38.9Z"/><path class="cls-2" d="M154.75,49.16V47.9a4.15,4.15,0,0,1-3.32,1.48c-1.94,0-3.66-1.11-3.66-3.17v0c0-2.27,1.77-3.36,4.16-3.36a8.64,8.64,0,0,1,2.84.43V43c0-1.42-.89-2.2-2.53-2.2a7.15,7.15,0,0,0-2.94.64l-0.64-1.89a8.8,8.8,0,0,1,3.91-.86c3,0,4.51,1.59,4.51,4.34v6.08h-2.33Zm0.06-4.3a6.72,6.72,0,0,0-2.35-.41c-1.48,0-2.35.6-2.35,1.59v0c0,1,.87,1.52,2,1.52,1.56,0,2.72-.88,2.72-2.16V44.86Z"/><path class="cls-2" d="M165.19,44v0c0-3.4,2.31-5.33,4.76-5.33a4.25,4.25,0,0,1,3.5,1.81V35h2.35V49.16h-2.35V47.45a4.11,4.11,0,0,1-3.5,1.92C167.54,49.37,165.19,47.45,165.19,44Zm8.3,0v0a3.08,3.08,0,0,0-3-3.29,3,3,0,0,0-3,3.29v0a3.05,3.05,0,0,0,3,3.29A3.09,3.09,0,0,0,173.49,44Z"/><path class="cls-2" d="M178.18,44.07v0a5.09,5.09,0,0,1,5-5.35c3.27,0,4.92,2.57,4.92,5.52,0,0.21,0,.43,0,0.66h-7.54a2.87,2.87,0,0,0,3,2.6,3.73,3.73,0,0,0,2.78-1.22l1.38,1.22a5.19,5.19,0,0,1-4.2,1.92A5.12,5.12,0,0,1,178.18,44.07Zm7.6-.76a2.66,2.66,0,0,0-2.6-2.7,2.78,2.78,0,0,0-2.66,2.7h5.27Z"/><path class="cls-2" d="M196.46,35h2.35V49.16h-2.35V35Z"/><path class="cls-2" d="M208.16,49.16V47.9a4.15,4.15,0,0,1-3.32,1.48c-1.94,0-3.66-1.11-3.66-3.17v0c0-2.27,1.77-3.36,4.16-3.36a8.64,8.64,0,0,1,2.84.43V43c0-1.42-.89-2.2-2.53-2.2a7.15,7.15,0,0,0-2.94.64l-0.64-1.89a8.8,8.8,0,0,1,3.91-.86c3,0,4.51,1.59,4.51,4.34v6.08h-2.33Zm0.06-4.3a6.71,6.71,0,0,0-2.35-.41c-1.48,0-2.35.6-2.35,1.59v0c0,1,.87,1.52,2,1.52,1.56,0,2.72-.88,2.72-2.16V44.86Z"/><path class="cls-2" d="M219.4,35.55h2.22L228.91,45V35.55h2.35V49.16h-2l-7.5-9.68v9.68H219.4V35.55Z"/><path class="cls-2" d="M240.77,49.16V47.9a4.15,4.15,0,0,1-3.32,1.48c-1.94,0-3.66-1.11-3.66-3.17v0c0-2.27,1.77-3.36,4.16-3.36a8.64,8.64,0,0,1,2.84.43V43c0-1.42-.89-2.2-2.53-2.2a7.15,7.15,0,0,0-2.94.64l-0.64-1.89a8.8,8.8,0,0,1,3.91-.86c3,0,4.51,1.59,4.51,4.34v6.08h-2.33Zm0.06-4.3a6.71,6.71,0,0,0-2.35-.41c-1.48,0-2.35.6-2.35,1.59v0c0,1,.88,1.52,2,1.52,1.56,0,2.72-.88,2.72-2.16V44.86Z"/><path class="cls-2" d="M245.34,44.09v0a5.29,5.29,0,0,1,5.33-5.37,5.13,5.13,0,0,1,4.1,1.77L253.31,42a3.45,3.45,0,0,0-2.66-1.28,3.08,3.08,0,0,0-3,3.27v0a3.12,3.12,0,0,0,3.07,3.31,3.61,3.61,0,0,0,2.66-1.28l1.42,1.4A5.38,5.38,0,0,1,245.34,44.09Z"/><path class="cls-2" d="M257,35.08h2.53v2.24H257V35.08Zm0.1,3.81h2.35V49.16h-2.35V38.9Z"/><path class="cls-2" d="M262,44.09v0a5.47,5.47,0,0,1,10.95,0v0a5.37,5.37,0,0,1-5.5,5.35A5.31,5.31,0,0,1,262,44.09Zm8.59,0v0a3.17,3.17,0,0,0-3.15-3.3A3.08,3.08,0,0,0,264.36,44v0a3.18,3.18,0,0,0,3.13,3.31A3.1,3.1,0,0,0,270.6,44.09Zm-2-9.68,2.14,1-2.37,2.24h-1.83Z"/><path class="cls-2" d="M275.34,38.9h2.35v1.59a3.69,3.69,0,0,1,3.21-1.81c2.31,0,3.66,1.56,3.66,3.95v6.53h-2.35V43.33c0-1.59-.8-2.51-2.2-2.51a2.28,2.28,0,0,0-2.31,2.55v5.79h-2.35V38.9Z"/><path class="cls-3" d="M18.34,47.82C11.23,47.82,5.73,40,5.73,30.88H31c0,9.2-5.48,16.94-12.61,16.94"/><path class="cls-4" d="M21.13,9.73h0.21s-0.13-.93-1.78-0.82H19.17L19,9.44l1.13-.08a1.15,1.15,0,0,1,1,.37"/><path class="cls-4" d="M19.31,10.35a2,2,0,0,1,.26-0.28h0.05a0.4,0.4,0,0,0,0,.12,0.42,0.42,0,0,0,.28.4,1.64,1.64,0,0,0,.28,0,0.42,0.42,0,0,0,.27-0.4s0-.07,0-0.11a0.58,0.58,0,0,1,.41.28h0.35s-0.2-.87-1.77-0.63c0,0-.39.56-0.4,0.6a0.85,0.85,0,0,0,.36,0"/><path class="cls-4" d="M15.73,10.35l0.36,0a0.51,0.51,0,0,1,.4-0.26,0.28,0.28,0,0,0,0,.11,0.41,0.41,0,0,0,.27.4,0.79,0.79,0,0,0,.28,0,0.42,0.42,0,0,0,.29-0.4,0.32,0.32,0,0,0,0-.05l0.07,0,0.22,0.23a0.52,0.52,0,0,0,.36,0s-0.39-.58-0.39-0.58c-1.58-.28-1.8.63-1.8,0.63"/><path class="cls-4" d="M16.68,9.35l1.17,0.07s-0.13-.47-0.13-0.49h-0.3c-1.77-.11-1.92.79-1.92,0.79l0.21,0a1.06,1.06,0,0,1,1-.35"/><path class="cls-4" d="M20,21.53L20,21.5s0.06,0.05.07,0"/><path class="cls-4" d="M19.76,50.07a18.17,18.17,0,0,0,6.06-2.73c1.38,0.12,1.92-1,2.92-1.48a0.61,0.61,0,0,0-.28-0.18A17.33,17.33,0,0,0,30,44.37a0.75,0.75,0,0,0-.49-0.15c0.93-.32.29-0.7,1.2-1.36a0.43,0.43,0,0,0-.16-0.11c0.6-.39.56-0.94,1.1-1.52a0.88,0.88,0,0,0-.54-0.14c1-.33.93-1,1.58-1.71l-0.43,0c0.56-.46.39-1.07,0.84-1.73a0.91,0.91,0,0,0-.62-0.08c0.91-.41.79-1.25,1.29-2.07a0.62,0.62,0,0,0-.4-0.1c0.73-.72-0.19-0.47.38-2a0.68,0.68,0,0,0-.59,0c0.75-.61.6-1.36,1-2.29a2.72,2.72,0,0,0-1.93,1.32V32.37a1.59,1.59,0,0,1,.65-0.72c1.11-.8.69-1.53,1-2.6a2.48,2.48,0,0,0-1.72,1.47c0-.07,0-0.14,0-0.19a1.63,1.63,0,0,1,.8-1c1-.53.66-1.47,1-2.53a0.92,0.92,0,0,0-.54.13c0.21-.67-0.22-1.15-0.14-2a2,2,0,0,0-1.26,1.64,0.67,0.67,0,0,0-.17-0.26,1.4,1.4,0,0,1,.58-0.89c0.93-1.09.15-1.71,0.26-2.78a0.53,0.53,0,0,0-.3.08c0-.54-0.44-0.89-0.49-1.58a1.71,1.71,0,0,0-1,1.73,1.15,1.15,0,0,0-.25-0.27,1.52,1.52,0,0,1,.49-0.93c0.51-1.06,0-1.57-.07-2.62a0.84,0.84,0,0,0-.49.24,7.07,7.07,0,0,0-.61-1.78,1.36,1.36,0,0,0-.8,1,2.26,2.26,0,0,1,.13-0.74c0-1.38-.55-1.5-1-2.58a1.5,1.5,0,0,0-.42.8,5.38,5.38,0,0,0-1-2,2.35,2.35,0,0,0-.35,1.81,1.34,1.34,0,0,1,0-.85,3.53,3.53,0,0,0-1.19-2.11,1.68,1.68,0,0,0,.85-0.33,1.76,1.76,0,0,1-.73-0.09c-0.28-.12-0.46-0.43-0.72-0.55a3.31,3.31,0,0,1-1.07-.28l2.71-.57-2.67-.52A0.77,0.77,0,0,1,24,10.4a1.06,1.06,0,0,0,.84-0.27,1.31,1.31,0,0,1,1.23-.47,1.42,1.42,0,0,0-1.48,0,2,2,0,0,1-1.17.05s2.23-1.41,2.23-1.44L23,8.78c0.42-.66.84-0.34,1.09-1.15a1.78,1.78,0,0,1,.85-0.74,1.69,1.69,0,0,0-1.56.74,6.22,6.22,0,0,1-.92.33S24,5.72,24,5.72s-1.56,1.09-2.27,1.51v0c0.1-.61.51-0.52,0.6-1.18a1.53,1.53,0,0,1,.49-1.26A1.62,1.62,0,0,0,21.67,6a6.11,6.11,0,0,1-.74.69L21.46,4,19.93,6.29A0.35,0.35,0,0,1,19.84,6,1.49,1.49,0,0,0,20,5a1.41,1.41,0,0,1,0-1.41c-0.86.52-.46,1.24-0.7,1.78a6.71,6.71,0,0,1-.4.71L18.51,3.47,18,6.12a2.48,2.48,0,0,1-.3-1C17.42,4.61,17,4.7,17,3.6a1.61,1.61,0,0,0,.08,1.73c0.07,0.12-.07.6,0,1L15.54,4,16.09,6.7a2.22,2.22,0,0,1-.7-0.84,1.79,1.79,0,0,1-1.2-1.11,1.42,1.42,0,0,0,.66,1.47,3,3,0,0,1,.41,1L13,5.72,14.53,8C14,8,14,7.35,13,7.39a1.45,1.45,0,0,1-1-.48c0.31,1.16,1.14.82,1.44,1.29a6.82,6.82,0,0,1,.49.56L11.34,8.2l2.27,1.45c-0.4.22-.89-0.31-1.37,0a1.29,1.29,0,0,1-1.36,0,1.39,1.39,0,0,0,1.4.56,2.6,2.6,0,0,1,1.14.41l-2.69.53,2.66,0.5c-0.32.3-.84,0.08-1.2,0.4a1.51,1.51,0,0,1-1.32.57,1.34,1.34,0,0,0,1.46.2,3.88,3.88,0,0,0-.69.65A0.81,0.81,0,0,0,11.44,13c-0.49.75-1.14,0.82-1.35,1.77a1.13,1.13,0,0,0-.27-0.59c-0.46.82-1,.95-1.14,1.84a0.83,0.83,0,0,0-.29-0.5c-0.44,1-1.17,1.26-1,2.64a1.46,1.46,0,0,1,.09.78,1.27,1.27,0,0,0-.7-1.15,4.27,4.27,0,0,0-.74,1.68,0.73,0.73,0,0,0-.39-0.18c-0.08,1-.9,1.38-0.13,2.6a1.27,1.27,0,0,1,.4,1,0.43,0.43,0,0,0-.13.16,1.75,1.75,0,0,0-1-1.67,11.44,11.44,0,0,0-.38,1.74A0.79,0.79,0,0,0,4,22.95c0.11,1.05-.66,1.48.31,2.54a1.33,1.33,0,0,1,.58.86,0.69,0.69,0,0,0-.17.26,1.87,1.87,0,0,0-1.24-1.56C3.63,26.22,3.05,26.17,3.4,27a1.08,1.08,0,0,0-.55-0.16c0.29,1,0,1.9,1,2.49a1.71,1.71,0,0,1,.79.92,0.44,0.44,0,0,0-.06.2A2.43,2.43,0,0,0,2.86,29c0.29,0.91.11,1.75,0.64,2.3A1.33,1.33,0,0,0,2.59,31c0.49,1,.22,1.59,1.17,2.47a1,1,0,0,0-.82-0.11c0.26,0.71.18,1.25,0.44,1.75a1.08,1.08,0,0,0-.4.09c0.53,0.85.35,1.51,1.18,2a0.77,0.77,0,0,0-.49.08C4,38,4.07,38.49,4.36,39A0.58,0.58,0,0,0,4,39.1c0.65,0.62.66,1.29,1.39,1.67A0.77,0.77,0,0,0,5,40.9c0.51,0.52.69,1,1.16,1.4a0.74,0.74,0,0,0-.5.2c0.75,0.53.81,1.13,1.61,1.42a0.86,0.86,0,0,0-.51.14c0.94,0.75.33,1,1.21,1.36a0.36,0.36,0,0,0-.16.13c1,0.54,1.1,1.76,3.28,1.75h0A11.82,11.82,0,0,0,17,50ZM33.13,34c-0.25.68,0,1.1-.59,1.6a0.61,0.61,0,0,0-.51.34,1.75,1.75,0,0,1,.31-0.67,1.09,1.09,0,0,0-.43.42,1,1,0,0,1-.49-0.5,2.93,2.93,0,0,1-.17-1.39,6.77,6.77,0,0,1,.82,1.33A1.77,1.77,0,0,1,33.13,34M32,34.32a1.62,1.62,0,0,1,.6-0.55,2,2,0,0,0-.58.76,1.48,1.48,0,0,0,0-.22m1.42-2.68c-0.33.73-.09,1.07-0.77,1.68a1,1,0,0,0-.55.44,2.27,2.27,0,0,1,.38-0.71,1.92,1.92,0,0,0-.5.51,0.63,0.63,0,0,1-.46-0.37,2.47,2.47,0,0,1-.07-1.29A3.94,3.94,0,0,1,32.2,33a2.89,2.89,0,0,1,1.23-1.35M32.22,31a2.63,2.63,0,0,1,1-1.48c-0.2.76,0.11,1.05-.49,1.73a0.85,0.85,0,0,0-.48.51A2,2,0,0,1,32.51,31a2,2,0,0,0-.4.56,0.68,0.68,0,0,1-.55-0.3,2.45,2.45,0,0,1-.28-1.23,3.79,3.79,0,0,1,.95,1m-0.79-1.59a2.21,2.21,0,0,1,.54.68,3.41,3.41,0,0,0-.53-0.44c0-.07,0-0.15,0-0.23m1.8-2.12c-0.18.73,0.12,1-.49,1.68a0.89,0.89,0,0,0-.49.47,1.83,1.83,0,0,1,.25-0.7,1.52,1.52,0,0,0-.4.52A0.85,0.85,0,0,1,31.55,29a2.33,2.33,0,0,1-.31-1.22,4.24,4.24,0,0,1,1,1,2.4,2.4,0,0,1,1-1.39m-1.11-.18a2.25,2.25,0,0,1,.75-1.49c-0.06.73,0.31,1-.17,1.69a0.89,0.89,0,0,0-.41.52,1.75,1.75,0,0,1,.14-0.72,1.27,1.27,0,0,0-.32.57,0.81,0.81,0,0,1-.61-0.26A2.21,2.21,0,0,1,31,26.32a4.61,4.61,0,0,1,1.16.83M30.57,37c0-.11.08-0.25,0.1-0.39a0.11,0.11,0,0,0,0,.08c0.28,0.88.51,0.93,0.43,1.53a0.35,0.35,0,0,0,0,.08,2.24,2.24,0,0,0-.51-1.3M29.5,41.4a2.49,2.49,0,0,0-.32-0.88,2.65,2.65,0,0,1,.15-0.27,3.64,3.64,0,0,1,.17,1.16m0.89-.2a2.2,2.2,0,0,0-.93.5s0-.06,0-0.09a2.14,2.14,0,0,1,.89-0.4m-1.71-1.25a7.61,7.61,0,0,1-5-1.46A2.09,2.09,0,0,0,23.9,37c-0.07-.35-0.07-0.05-0.17.16a1.69,1.69,0,0,1-.74.93,6.41,6.41,0,0,0-2-1.45,9.42,9.42,0,0,1-1.24-.94c-0.72.35-1.87,1-2.44,0.61-0.48-.24.55-0.51,1-1.16a1.21,1.21,0,0,1,1.38-.5A18.66,18.66,0,0,1,23,36.07a39.42,39.42,0,0,1,5.64,1.21,6,6,0,0,0,1.1.17,15,15,0,0,1-1.09,2.49m-9-2.23c0.62,0.69,1.17.82,1.55,1.65a0.4,0.4,0,0,1-.61.16c-0.92-1-1.77-1.19-1.43-1.67a0.32,0.32,0,0,0-.3.39c0.16,0.73,1,1,1.22,1.64-0.11.51-1.09,0.06-1.56-1.22l0-.06c-0.18.37-.34,0.5,0.32,1.28,0.15,0.29.25,0.61-.26,0.55,0.09,0.08-.24,0-0.09,0h0.09a0.15,0.15,0,0,0-.1-0.05,0.74,0.74,0,0,0-.89-1c0.17-.46-0.48-0.92-1.15-0.62,0.1-.34-0.61-0.88-1.58-0.5-0.14-.34-1-0.69-1.84.34-1.47.14-3.89,1.44-5.35,0.78-0.06.06-.92-2.38-1-2.45,1.71-.17,5.56-0.43,6.93-1a5.52,5.52,0,0,1,3.56-.79c0,0.37-.9,1.07-0.45,1.43,0.75,0.72,2,.38,2.78-0.1,0.85,0.86,2.22,1,2.75,2.15L22.16,39c-0.29.2-.31,0.2-0.64-0.27-0.82-1.08-1.59-.84-1.73-1.59-0.29.09-.09,0.42-0.09,0.59m-3.95,2.21c-0.3.13,0.13-.17,0.24-0.25l0.13-.16c0.26-.24.61-0.55,0.85-0.07,0.14,0.31-.88.88-1,0.93a0.21,0.21,0,0,1-.32-0.1,0.22,0.22,0,0,1,.14-0.36m-0.89-.09a0.33,0.33,0,0,1-.42-0.08,1,1,0,0,1,.36-0.67A0.48,0.48,0,0,1,15,38.94l0.18-.17c0.39-.06.34,0,0.42,0.17a1.64,1.64,0,0,1-.77.9M17.32,40s0.4-.44.58,0.17a0.89,0.89,0,0,1-.78.63c-0.24-.11-0.71-0.09.19-0.8m-3.48-.85c-0.16.06-.41-0.22-0.27-0.28l0.17-.32c0.27-.1.45-0.23,0.55-0.1a1,1,0,0,1-.44.7M7.36,40.2l-0.14.28a2.31,2.31,0,0,0,.09-0.39,0.3,0.3,0,0,1,.05.11M7.07,41.36A1.74,1.74,0,0,0,6.5,41a2.85,2.85,0,0,1,.53.23,1.34,1.34,0,0,0,0,.14M5.61,38a0.19,0.19,0,0,0,0-.06,2.83,2.83,0,0,1,.4-1.5c0,0.12.06,0.22,0.09,0.34A2,2,0,0,0,5.61,38M5.75,25.87l-0.42.2c0.11-.11.26-0.19,0.46-0.35a0.65,0.65,0,0,1,0,.15M5.86,31H17.69v3.48a7.47,7.47,0,0,0-2.26,0c-2.17.4-1.45,1.46-9,1.57A19.35,19.35,0,0,1,5.86,31m7.33-17.21a0.82,0.82,0,0,0,.32-0.59c0.3-.94.81-0.82,1.46-1.26,0.22,0.29-.57,1.33-1.06,1.65a3.87,3.87,0,0,1,1.19.5,2.27,2.27,0,0,1-1.25.19,0.69,0.69,0,0,1-.45-0.41,2.06,2.06,0,0,0,.42-0.55,2.1,2.1,0,0,1-.62.48m9-.3a1.55,1.55,0,0,1-.6-0.15A3.29,3.29,0,0,0,22.45,13a1,1,0,0,1,1,.79,2.52,2.52,0,0,0-1.16.26,3,3,0,0,1-1.42-.33,0.43,0.43,0,0,1-.21-0.32,2.18,2.18,0,0,0,.79,0l0,0.08a1.34,1.34,0,0,0,.83,0m-1.9-.76a1.43,1.43,0,0,0,.78-0.17,2,2,0,0,1-.57,0,1.84,1.84,0,0,1,1.1-.5c0.66,0,.66.39,1.06,0.19,0,0.36-1.88,1.22-2.37.47m-0.93-.12a4.78,4.78,0,0,1,1,1,2.24,2.24,0,0,1-1.22-.37,0.81,0.81,0,0,1-.32-0.56,1.22,1.22,0,0,0,.51-0.37,1.71,1.71,0,0,1-.69.22,0.74,0.74,0,0,0,.45-0.45c0.6-.57.92-0.26,1.63-0.41a2.21,2.21,0,0,1-1.35.94m-1.55.13a4,4,0,0,1,1.1.78,2.11,2.11,0,0,1-1.22-.11A0.79,0.79,0,0,1,17.33,13a1.54,1.54,0,0,0,.46-0.47,1.66,1.66,0,0,1-.65.34,0.83,0.83,0,0,0,.39-0.53c0.52-.68.77-0.41,1.44-0.72a2.14,2.14,0,0,1-1.1,1.2m-1.06.94a2.07,2.07,0,0,1-1.24,0,0.75,0.75,0,0,1-.43-0.42,1.37,1.37,0,0,0,.43-0.52,1.79,1.79,0,0,1-.63.42,0.85,0.85,0,0,0,.37-0.57c0.51-.73.86-0.52,1.52-0.88A2.68,2.68,0,0,1,15.66,13a3.81,3.81,0,0,1,1.14.68m8.55,2.47h0.2c-0.06,0-.11,0-0.15,0a0.12,0.12,0,0,1,0,0m4.37,6a3.34,3.34,0,0,0,.32.2l-0.28-.1a0.81,0.81,0,0,1,0-.1M23.48,35.44C22.32,35.22,20.78,33.9,19,34V31H30.83A27.25,27.25,0,0,1,30,36.72c-2.37,0-4.59-1.34-6.51-1.28m7.41-9.71c0.19,0.16.36,0.26,0.49,0.38a3.37,3.37,0,0,0-.44-0.23c0-.06,0-0.1,0-0.15m1.38-2.25c0,0.72.33,1-.16,1.68a0.82,0.82,0,0,0-.4.49,1.8,1.8,0,0,1,.12-0.71,1.71,1.71,0,0,0-.31.55,0.77,0.77,0,0,1-.62-0.25,2.26,2.26,0,0,1-.53-1.17,5.47,5.47,0,0,1,1.15.87,2.16,2.16,0,0,1,.74-1.45m-1.15-.07a2,2,0,0,1,.45-1.54c0.1,0.72.52,1,.17,1.68a0.7,0.7,0,0,0-.29.55,1.82,1.82,0,0,1,0-.73,1.23,1.23,0,0,0-.2.6,0.82,0.82,0,0,1-.67-0.18,2.48,2.48,0,0,1-.77-1.09,6,6,0,0,1,1.33.73m-0.57-3.63c0.08,0.74.51,1,.15,1.69a0.59,0.59,0,0,0-.29.53,1.85,1.85,0,0,1,0-.73,1.23,1.23,0,0,0-.19.57,0.88,0.88,0,0,1-.67-0.21,2.5,2.5,0,0,1-.75-1.09,5.58,5.58,0,0,1,1.31.75,1.89,1.89,0,0,1,.47-1.51m-1-1.53c0.23,0.71.67,0.89,0.48,1.65a0.65,0.65,0,0,0-.2.57,1.81,1.81,0,0,1-.15-0.72,1,1,0,0,0-.08.6,0.86,0.86,0,0,1-.69-0.11,3,3,0,0,1-1-1,6.71,6.71,0,0,1,1.45.58,1.87,1.87,0,0,1,.18-1.56M29,19.4a1,1,0,0,0-.37-0.27,1.17,1.17,0,0,1,.35.2,0.36,0.36,0,0,0,0,.07m-0.85-3.16c0.32,0.71.57,0.64,0.55,1.55a0.94,0.94,0,0,0,0,.71,2.09,2.09,0,0,1-.27-0.75,1.94,1.94,0,0,0,0,.71,0.64,0.64,0,0,1-.59.08,2.41,2.41,0,0,1-1-.81,3.67,3.67,0,0,1,1.33.2,2.39,2.39,0,0,1,0-1.69M27,16.6A2.38,2.38,0,0,1,26.81,15c0.4,0.66.65,0.52,0.71,1.4a0.93,0.93,0,0,0,0,.71,1.87,1.87,0,0,1-.34-0.71,1.77,1.77,0,0,0,.12.69,0.75,0.75,0,0,1-.59.17,2.21,2.21,0,0,1-1.09-.64,3.43,3.43,0,0,1,1.34,0m-1.91-3.16c0.42,0.64.87,0.59,0.94,1.47a0.84,0.84,0,0,0,0,.67,1.9,1.9,0,0,1-.37-0.67,1.73,1.73,0,0,0,.13.67,0.82,0.82,0,0,1-.61.19,2.17,2.17,0,0,1-1.13-.57,4.37,4.37,0,0,1,1.4-.06,2.45,2.45,0,0,1-.4-1.7m-0.31-.51c0,0.07,0,.17-0.06.28a1.22,1.22,0,0,0-.27-0.31l0.33,0m-0.17.63a0.86,0.86,0,0,0,.15.71l-0.13,0a3.11,3.11,0,0,1-.42-0.55,1.4,1.4,0,0,0,.24.72,0.48,0.48,0,0,1-.4.16,1.39,1.39,0,0,1-1.1-.26,1.46,1.46,0,0,1,1.14-.3,0.58,0.58,0,0,0,0-.14h0a1.43,1.43,0,0,0-.4-0.51,1.59,1.59,0,0,1-.29-0.91c0.54,0.52,1,.3,1.25,1.11m-0.45-1.22H23.58a2.19,2.19,0,0,1-.2-0.19,7.78,7.78,0,0,1,.78.19M14,11.86a1.82,1.82,0,0,0,.64-0.39L13,11.05l1.68-.35a3.21,3.21,0,0,0-1-.4,1.27,1.27,0,0,0-.85-0.42,2.19,2.19,0,0,1,.76.17,4.06,4.06,0,0,0,1.22,0,15.56,15.56,0,0,0-1.66-1.12s1.09,0.29,2,.49c0-.09-0.69-0.62-1.14-1.17a2.77,2.77,0,0,0-.25-0.32,2.46,2.46,0,0,1,.72.47,4.52,4.52,0,0,0,1.05.4C15,8.07,14.29,7.08,14.29,7.08L16,8.25a4.83,4.83,0,0,0-.41-1,3.36,3.36,0,0,0-.31-0.94,3.79,3.79,0,0,0,1.34,1.5l-0.3-2.13,1,1.88a3.73,3.73,0,0,0,0-1,1.84,1.84,0,0,0,0-1.12,3.38,3.38,0,0,1,.18.83A9.19,9.19,0,0,0,18,7.44l0.43-2s0.33,2,.28,2c0.22-.41.19-0.65,0.41-1a3.8,3.8,0,0,0,.42-1c-0.16.82-.14,0.55-0.21,1a2.66,2.66,0,0,0,.11,1.09L20.7,5.81,20.21,7.89c0.14,0,.64-0.69,1.1-1a5.42,5.42,0,0,0,.36-0.48,5.56,5.56,0,0,0-.51.89,8.44,8.44,0,0,0-.38,1l1.75-1.21-1.2,1.73a2.06,2.06,0,0,0,.88-0.4,3.48,3.48,0,0,0,1.1-.48,6.59,6.59,0,0,0-1.59,1.47l2-.41L22,10c0.09,0.11.79-.09,1.3,0a2.39,2.39,0,0,0,.89,0c-0.51.18-.66,0.08-1.23,0.3a4.07,4.07,0,0,0-.8.44l2,0.36s-2,.45-2.29.58H21.48l-0.25,0a0.7,0.7,0,0,0,.1-0.43c-0.66.17-1.29,0-1.81,0.11a0.51,0.51,0,0,0,0-.38c-0.83.37-1.51,0.19-2.19,0.74a1.09,1.09,0,0,0-.1-0.55c-0.7.39-1.33,0.14-1.82,0.59a0.6,0.6,0,0,0,0-.36,4.63,4.63,0,0,0-1.88.93l-0.45-.06a0.25,0.25,0,0,0,0-.08l-0.07.08a1.56,1.56,0,0,0-.35,0,8.91,8.91,0,0,0,1.4-.43m-2.34,2.36c0.22-.79.65-0.69,1.16-1.19a2.14,2.14,0,0,1-.63,1.5,5.16,5.16,0,0,1,1.37.31,2.32,2.32,0,0,1-1.21.34,0.9,0.9,0,0,1-.58-0.28,1.31,1.31,0,0,0,.22-0.6,1.57,1.57,0,0,1-.46.55,0.73,0.73,0,0,0,.13-0.64m1.07,0.11a0.13,0.13,0,0,0-.06,0,0,0,0,0,1,0,0h0Zm-2.32.93c0.09-.86.5-0.81,0.93-1.44a2.43,2.43,0,0,1-.4,1.66,3.67,3.67,0,0,1,1.36.08,2.26,2.26,0,0,1-1.11.55,0.73,0.73,0,0,1-.59-0.19,1.92,1.92,0,0,0,.14-0.65,2.23,2.23,0,0,1-.36.65,0.89,0.89,0,0,0,0-.66M10,16a2.35,2.35,0,0,1-.1.32,0,0,0,0,1,0,0A1.76,1.76,0,0,0,10,16M9,16.43A2.32,2.32,0,0,1,9.67,15a2.37,2.37,0,0,1-.17,1.65,3.58,3.58,0,0,1,1.32,0,2,2,0,0,1-1.06.64,0.85,0.85,0,0,1-.59-0.15,2,2,0,0,0,.11-0.68,1.71,1.71,0,0,1-.33.68,0.91,0.91,0,0,0,0-.68m-0.61-.08a2.58,2.58,0,0,1,0,1.71,3.65,3.65,0,0,1,1.3-.2,2.35,2.35,0,0,1-1,.79A0.68,0.68,0,0,1,8,18.58a1.84,1.84,0,0,0,.05-0.69,2.31,2.31,0,0,1-.27.74,0.92,0.92,0,0,0,0-.68,2.57,2.57,0,0,1,.57-1.59M7.48,19.44a2.15,2.15,0,0,1,.25-0.16,0.86,0.86,0,0,0-.26.21v0m-0.54-1a1.73,1.73,0,0,1,.17,1.53,5.85,5.85,0,0,1,1.42-.59,2.92,2.92,0,0,1-.94,1,1,1,0,0,1-.68.12,1.36,1.36,0,0,0-.09-0.59,1.53,1.53,0,0,1-.16.7A0.53,0.53,0,0,0,6.48,20c-0.21-.74.26-0.93,0.47-1.61M5.84,21.55C5.48,20.83,5.9,20.61,6,19.9a1.86,1.86,0,0,1,.46,1.47,7.53,7.53,0,0,1,1.29-.76A2.58,2.58,0,0,1,7,21.72a1.06,1.06,0,0,1-.65.2,1.16,1.16,0,0,0-.19-0.57,1.6,1.6,0,0,1,0,.7,0.57,0.57,0,0,0-.29-0.51m1.08,0.66a1.19,1.19,0,0,1-.07.18,3.3,3.3,0,0,0-.58.24,4.47,4.47,0,0,1,.66-0.42m-1.81-.27a1.91,1.91,0,0,1,.46,1.51,5.31,5.31,0,0,1,1.29-.7,2.41,2.41,0,0,1-.75,1.06,1.06,1.06,0,0,1-.65.18,1.53,1.53,0,0,0-.18-0.59,1.64,1.64,0,0,1,0,.71A0.64,0.64,0,0,0,5,23.58c-0.35-.71.08-0.92,0.16-1.63M4.57,25.17c-0.46-.67-0.1-0.94-0.15-1.65a2.07,2.07,0,0,1,.74,1.43,5,5,0,0,1,1.13-.87,2.25,2.25,0,0,1-.54,1.17,0.74,0.74,0,0,1-.61.25,1.28,1.28,0,0,0-.3-0.55,1.66,1.66,0,0,1,.12.71,0.64,0.64,0,0,0-.4-0.49m-0.74.47a2.1,2.1,0,0,1,.74,1.46,5.6,5.6,0,0,1,1.14-.82,2.16,2.16,0,0,1-.52,1.14,0.76,0.76,0,0,1-.61.22,1.33,1.33,0,0,0-.3-0.55,1.89,1.89,0,0,1,.14.72A0.74,0.74,0,0,0,4,27.31c-0.47-.69-0.1-1-0.17-1.67m0.75,3.57a1.67,1.67,0,0,0-.4-0.53,1.82,1.82,0,0,1,.26.71A1,1,0,0,0,4,28.93c-0.59-.64-0.35-0.79-0.54-1.51a2.34,2.34,0,0,1,1.06,1.25,4.15,4.15,0,0,1,.94-1,2.21,2.21,0,0,1-.29,1.21,0.72,0.72,0,0,1-.55.32m0.68,0.13v0.25a2.56,2.56,0,0,0-.54.44,2.57,2.57,0,0,1,.54-0.69m-1.84.25a2.6,2.6,0,0,1,1.06,1.32A3.93,3.93,0,0,1,5.41,30a2.23,2.23,0,0,1-.27,1.21,0.77,0.77,0,0,1-.53.3,1.78,1.78,0,0,0-.4-0.54,2.18,2.18,0,0,1,.26.72A1,1,0,0,0,4,31.16c-0.59-.64-0.35-0.82-0.55-1.56m1.06,2.64v0.08a2.94,2.94,0,0,0-.66-0.79,1.41,1.41,0,0,1,.66.7m-1.15-.52a2.41,2.41,0,0,1,1.16,1.13,3.71,3.71,0,0,1,.73-1.08A2.17,2.17,0,0,1,5.16,33a0.63,0.63,0,0,1-.45.36,2.24,2.24,0,0,0-.48-0.51,2.15,2.15,0,0,1,.37.7,0.94,0.94,0,0,0-.54-0.43c-1-.91.06,0.3-0.73-1.46m1.35,2.48s0,0.1,0,.17A2,2,0,0,0,4,33.62a3.06,3.06,0,0,1,.7.57m0,0.71a6.3,6.3,0,0,1,.79-1.31,2.82,2.82,0,0,1-.16,1.35,1.11,1.11,0,0,1-.48.51A1.15,1.15,0,0,0,4.36,35a1.64,1.64,0,0,1,.32.66,0.64,0.64,0,0,0-.49-0.35C3.57,34.87,3.85,34.65,3.6,34a1.52,1.52,0,0,1,1,.93m-0.93.66A1.87,1.87,0,0,1,5,36.47a5.18,5.18,0,0,1,.58-1.38,2.54,2.54,0,0,1,.05,1.31,1,1,0,0,1-.4.58,1.08,1.08,0,0,0-.5-0.35,1.72,1.72,0,0,1,.42.56A0.66,0.66,0,0,0,4.57,37c-0.69-.39-0.5-0.8-0.86-1.42m2,3a5.27,5.27,0,0,1,.56-1.36,2.41,2.41,0,0,1,.08,1.3,0.91,0.91,0,0,1-.39.54,1.56,1.56,0,0,0-.51-0.33,1.94,1.94,0,0,1,.43.57A0.71,0.71,0,0,0,5.3,39c-0.72-.35-0.51-0.78-0.9-1.39a1.93,1.93,0,0,1,1.31.89m-0.86.76A2.12,2.12,0,0,1,6.33,40a5,5,0,0,1,.34-1.41A2.36,2.36,0,0,1,7,39.8a0.81,0.81,0,0,1-.3.59,1,1,0,0,0-.57-0.24,1.65,1.65,0,0,1,.53.48A0.7,0.7,0,0,0,6,40.48c-0.78-.22-0.67-0.66-1.17-1.19m0.91,1.83a2.22,2.22,0,0,1,1.49.73,4.32,4.32,0,0,1,.39-1.36,2.4,2.4,0,0,1,.27,1.23,0.82,0.82,0,0,1-.33.56A1.48,1.48,0,0,0,7,42a1.76,1.76,0,0,1,.53.49,0.71,0.71,0,0,0-.63-0.15c-0.8-.26-0.64-0.69-1.14-1.24m0.71,1.52a2.47,2.47,0,0,1,1.65.48,3.87,3.87,0,0,1,.14-1.35,2.41,2.41,0,0,1,.51,1.14,0.8,0.8,0,0,1-.25.59,1.51,1.51,0,0,0-.63-0.16,1.46,1.46,0,0,1,.61.38,0.77,0.77,0,0,0-.65-0.07c-0.84-.13-0.79-0.55-1.38-1m2.32,1.51a1.45,1.45,0,0,0,.07.24A2,2,0,0,0,8,44a2.17,2.17,0,0,1,.76.15m-1.34.11a2.59,2.59,0,0,1,1.66.6,3.66,3.66,0,0,1,.2-1.32,2.14,2.14,0,0,1,.47,1.16,0.68,0.68,0,0,1-.25.56A1.56,1.56,0,0,0,8.88,45a1.74,1.74,0,0,1,.63.44,0.9,0.9,0,0,0-.67-0.12C8,45.16,8,44.75,7.45,44.27m3.74,2.65a0.68,0.68,0,0,0-.69-0.21c-0.91-.09-1.15-0.67-1.83-1a2.9,2.9,0,0,1,1.77.35,3.61,3.61,0,0,1-.06-1.28,2.18,2.18,0,0,1,.69,1,6.63,6.63,0,0,0,.16,1,1.76,1.76,0,0,0-.49-0.33,2,2,0,0,1,.44.51M10.09,45.6h0Zm5.85,3.67c-2-.6-3.7-1.54-4.14-2.22a6.17,6.17,0,0,1-.31-1.36s0,0,0,0a11.27,11.27,0,0,0,4.58,2.46H15.92c-0.55.68-.26,1,0,1.17m2.34-1.6C12.84,47.55,9.63,43.12,8.4,41c-0.19-.25,3.09-1.29,3.83-1.48l0.91-.23c0,0.41.73,0.54,0.68,0.38a1.6,1.6,0,0,0,.36.65c0.45,0.31.71,0.13,0.77,0-0.27.28,0.67,0.78,1.23,0.44-0.08.27,0.38,0.38,0.48,0.38a1.13,1.13,0,0,0,1,0v3c0.05,0.56.08,0.69,0.34,0.79,1.2,0.11,1-.28,1.08-0.64,0-1.29-.07-3.15-0.07-3.14A1.61,1.61,0,0,0,20,40.77a0.7,0.7,0,0,0,.84-0.37,0.83,0.83,0,0,0,.95-0.45,1.17,1.17,0,0,0,1.18-.89c0.8,0.26,3.73,1.81,5.09,2.24-0.62,1-4,6.37-9.75,6.37m9.45-3.15a1.21,1.21,0,0,1,.47-0.12,2.47,2.47,0,0,0-.53.27,0.55,0.55,0,0,0,.06-0.15m-1.34,1.35h0M25,45.93c-0.1.52-.15,0.88-0.24,1.23-0.5.93-3,1.75-4.05,2.09a0.74,0.74,0,0,0,.05-1.16H20.64A11.62,11.62,0,0,0,25,45.87a0.07,0.07,0,0,0,0,.06m1.24,0.9a1,1,0,0,0-.86.3,2.73,2.73,0,0,1,.5-0.58,1.86,1.86,0,0,0-.53.25,6.11,6.11,0,0,1,0-.77A2.47,2.47,0,0,1,26.1,45,3.41,3.41,0,0,1,26,46.3,3,3,0,0,1,27.84,46c-0.7.38-.71,0.81-1.63,0.87m1.45-1.19a1,1,0,0,0-.69.12,2.84,2.84,0,0,1,.64-0.44,1.7,1.7,0,0,0-.65.23A0.77,0.77,0,0,1,26.73,45a2.14,2.14,0,0,1,.5-1.15,3.92,3.92,0,0,1,.17,1.35,2.7,2.7,0,0,1,1.71-.6c-0.61.49-.55,0.91-1.44,1.09m1-1.6a0.83,0.83,0,0,0-.67.09,2,2,0,0,1,.63-0.42,1.49,1.49,0,0,0-.65.18,0.86,0.86,0,0,1-.23-0.61,2.07,2.07,0,0,1,.52-1.15,4.67,4.67,0,0,1,.15,1.37A2.23,2.23,0,0,1,30.08,43c-0.6.45-.52,0.88-1.4,1m1-1.34a0.74,0.74,0,0,0-.63.18,1.62,1.62,0,0,1,.54-0.5,1.37,1.37,0,0,0-.58.26,0.87,0.87,0,0,1-.35-0.56,2.17,2.17,0,0,1,.29-1.25,5.24,5.24,0,0,1,.39,1.39,2.14,2.14,0,0,1,1.51-.75c-0.48.55-.36,1-1.17,1.24m1-1.91a0.69,0.69,0,0,0-.62.15,1.87,1.87,0,0,1,.55-0.5,1.49,1.49,0,0,0-.59.26,1,1,0,0,1-.31-0.61A2.42,2.42,0,0,1,30,38.84a4.73,4.73,0,0,1,.35,1.42,2,2,0,0,1,1.49-.67c-0.5.53-.38,1-1.18,1.2m0.72-1.48a0.63,0.63,0,0,0-.57.23A1.63,1.63,0,0,1,31.26,39a1.18,1.18,0,0,0-.51.34,1,1,0,0,1-.4-0.56,2.58,2.58,0,0,1,.08-1.34A6.3,6.3,0,0,1,31,38.8a2.15,2.15,0,0,1,1.32-.91c-0.4.62-.19,1.08-0.93,1.42m0.16-1.46a0.76,0.76,0,0,1,.34-0.17,1.34,1.34,0,0,0-.34.17m0.58-.66a0.74,0.74,0,0,0-.57.24A1.67,1.67,0,0,1,32,36.87a1.23,1.23,0,0,0-.5.33,0.91,0.91,0,0,1-.42-0.55,2.68,2.68,0,0,1,.06-1.35,6.56,6.56,0,0,1,.59,1.41A1.83,1.83,0,0,1,33,35.77c-0.37.63-.16,1.08-0.88,1.43"/><path class="cls-5" d="M14,11.86a2.09,2.09,0,0,0,.66-0.39L13,11.05l1.68-.35a3.23,3.23,0,0,0-1-.4,1.27,1.27,0,0,0-.85-0.42,2.18,2.18,0,0,1,.76.17,4.08,4.08,0,0,0,1.22,0,15.42,15.42,0,0,0-1.66-1.12s1.09,0.29,2,.49c0-.09-0.69-0.62-1.14-1.17a2.66,2.66,0,0,0-.25-0.32,2.46,2.46,0,0,1,.72.47,4.57,4.57,0,0,0,1.05.4C15,8.07,14.29,7.08,14.29,7.08L16,8.24a4.85,4.85,0,0,0-.42-1,3.06,3.06,0,0,0-.31-0.94,3.76,3.76,0,0,0,1.35,1.5L16.33,5.72l1,1.88a2.89,2.89,0,0,0,0-1,1.78,1.78,0,0,0,0-1.12,3.39,3.39,0,0,1,.18.83A9.2,9.2,0,0,0,18,7.44l0.43-2s0.33,2,.28,2c0.22-.41.19-0.65,0.4-1a3.62,3.62,0,0,0,.42-1c-0.16.82-.14,0.55-0.21,1a2.91,2.91,0,0,0,.11,1.09L20.7,5.81,20.21,7.89c0.14,0,.64-0.69,1.1-1,0.13-.14.38-0.48,0.38-0.48a4.61,4.61,0,0,0-.53.89,8.41,8.41,0,0,0-.38,1l1.75-1.21-1.2,1.73a2.06,2.06,0,0,0,.88-0.4,3.47,3.47,0,0,0,1.1-.48,6.57,6.57,0,0,0-1.59,1.47l2-.41L22,10c0.09,0.11.79-.09,1.3,0a2.4,2.4,0,0,0,.89,0c-0.51.18-.66,0.08-1.22,0.3a3.9,3.9,0,0,0-.81.44l2,0.36s-2,.45-2.29.58H21.48l-0.25,0a0.73,0.73,0,0,0,.1-0.43c-0.66.17-1.29,0-1.81,0.11a0.51,0.51,0,0,0,0-.38c-0.82.37-1.51,0.19-2.19,0.74a1.15,1.15,0,0,0-.1-0.55c-0.71.39-1.33,0.14-1.83,0.58a0.68,0.68,0,0,0,0-.38,4.92,4.92,0,0,0-1.88.94l-0.45-.06A0.49,0.49,0,0,0,13,12.21l-0.07.08a1.61,1.61,0,0,0-.35,0,8.79,8.79,0,0,0,1.4-.44"/><path class="cls-4" d="M21.13,9.73h0.21s-0.13-.93-1.78-0.82H19.17S19,9.44,19,9.44l1.13-.08a1.15,1.15,0,0,1,1,.37"/><path class="cls-4" d="M19.31,10.35a2,2,0,0,1,.26-0.28h0.05a0.35,0.35,0,0,0,0,.12,0.41,0.41,0,0,0,.26.4,1.75,1.75,0,0,0,.29,0,0.42,0.42,0,0,0,.26-0.4,0.35,0.35,0,0,0,0-.11,0.59,0.59,0,0,1,.41.28h0.35s-0.2-.87-1.77-0.63a6.74,6.74,0,0,0-.39.6,0.78,0.78,0,0,0,.34,0"/><path class="cls-4" d="M15.73,10.35l0.36,0a0.55,0.55,0,0,1,.4-0.26,0.28,0.28,0,0,0,0,.11,0.41,0.41,0,0,0,.27.4,0.82,0.82,0,0,0,.28,0,0.42,0.42,0,0,0,.29-0.4,0.32,0.32,0,0,0,0-.05l0.07,0,0.22,0.23a0.52,0.52,0,0,0,.36,0s-0.38-.58-0.38-0.58c-1.59-.28-1.8.63-1.8,0.63"/><path class="cls-4" d="M16.68,9.35l1.17,0.07s-0.13-.47-0.13-0.49h-0.3c-1.77-.11-1.92.77-1.92,0.77h0.22a1,1,0,0,1,1-.35"/><path class="cls-6" d="M33.15,34c-0.26.69,0,1.12-.62,1.6a0.61,0.61,0,0,0-.5.34,1.58,1.58,0,0,1,.3-0.66,1.16,1.16,0,0,0-.42.42,1,1,0,0,1-.48-0.51,3.12,3.12,0,0,1-.19-1.38,7.66,7.66,0,0,1,.82,1.32A1.8,1.8,0,0,1,33.15,34"/><path class="cls-6" d="M33.43,31.64c-0.31.73-.08,1.07-0.77,1.68a0.94,0.94,0,0,0-.55.45,2.1,2.1,0,0,1,.37-0.72,2.14,2.14,0,0,0-.49.51,0.62,0.62,0,0,1-.47-0.36,2.54,2.54,0,0,1-.07-1.3,4.27,4.27,0,0,1,.76,1.1,2.85,2.85,0,0,1,1.21-1.36"/><path class="cls-6" d="M32.22,31a2.78,2.78,0,0,1,1-1.48c-0.2.76,0.09,1.05-.5,1.73a0.93,0.93,0,0,0-.49.51,2,2,0,0,1,.27-0.74,1.88,1.88,0,0,0-.41.54,0.67,0.67,0,0,1-.54-0.3,2.43,2.43,0,0,1-.29-1.23,3.74,3.74,0,0,1,.94,1"/><path class="cls-6" d="M33.24,27.34c-0.2.73,0.1,1-.49,1.67a0.88,0.88,0,0,0-.49.47,1.87,1.87,0,0,1,.25-0.7,1.67,1.67,0,0,0-.41.52A0.79,0.79,0,0,1,31.55,29a2.49,2.49,0,0,1-.3-1.22,5.68,5.68,0,0,1,1,1,2.42,2.42,0,0,1,1-1.39"/><path class="cls-6" d="M32.12,27.15a2.29,2.29,0,0,1,.74-1.49c0,0.74.31,1-.16,1.69a0.81,0.81,0,0,0-.41.53,1.64,1.64,0,0,1,.13-0.72,1.31,1.31,0,0,0-.31.57,0.76,0.76,0,0,1-.62-0.26A2.28,2.28,0,0,1,31,26.32a4.91,4.91,0,0,1,1.16.83"/><path class="cls-6" d="M13.2,13.83a0.89,0.89,0,0,0,.32-0.6c0.29-.93.81-0.82,1.46-1.26,0.23,0.29-.57,1.34-1.07,1.65a3.6,3.6,0,0,1,1.2.52,2.41,2.41,0,0,1-1.26.17,0.8,0.8,0,0,1-.45-0.39,2.22,2.22,0,0,0,.42-0.57,1.86,1.86,0,0,1-.62.49"/><path class="cls-6" d="M22.24,13.52a1.74,1.74,0,0,1-.59-0.13,3.22,3.22,0,0,0,.8-0.36,1.05,1.05,0,0,1,1,.79,2.5,2.5,0,0,0-1.16.26,3,3,0,0,1-1.42-.3,0.5,0.5,0,0,1-.23-0.34,2.19,2.19,0,0,0,.79,0v0.08a1.34,1.34,0,0,0,.82,0"/><path class="cls-6" d="M20.35,12.78a1.6,1.6,0,0,0,.78-0.17,1.76,1.76,0,0,1-.56,0,1.77,1.77,0,0,1,1.09-.5c0.66,0,.67.39,1.08,0.2,0,0.34-1.88,1.22-2.38.48"/><path class="cls-6" d="M19.41,12.64a4.31,4.31,0,0,1,1,1,2.39,2.39,0,0,1-1.2-.35,0.82,0.82,0,0,1-.32-0.57,1.44,1.44,0,0,0,.51-0.38,1.59,1.59,0,0,1-.7.22,0.7,0.7,0,0,0,.45-0.45c0.6-.57.92-0.26,1.63-0.41a2.19,2.19,0,0,1-1.35.94"/><path class="cls-6" d="M17.87,12.78a4.21,4.21,0,0,1,1.1.79,2.19,2.19,0,0,1-1.23-.11,0.86,0.86,0,0,1-.4-0.48,1.54,1.54,0,0,0,.46-0.48,2.11,2.11,0,0,1-.65.36,1,1,0,0,0,.38-0.56c0.53-.68.76-0.41,1.46-0.72a2.22,2.22,0,0,1-1.11,1.2"/><path class="cls-6" d="M16.82,13.72a2.15,2.15,0,0,1-1.26,0,0.7,0.7,0,0,1-.42-0.42,1.56,1.56,0,0,0,.45-0.52,1.88,1.88,0,0,1-.65.42,0.85,0.85,0,0,0,.38-0.57c0.5-.73.85-0.51,1.52-0.88A2.57,2.57,0,0,1,15.67,13a5.06,5.06,0,0,1,1.15.68"/><path class="cls-6" d="M32.28,23.49c0,0.74.33,1-.16,1.68a0.78,0.78,0,0,0-.4.5,1.78,1.78,0,0,1,.12-0.73,1.31,1.31,0,0,0-.29.58,0.94,0.94,0,0,1-.61-0.29,2.15,2.15,0,0,1-.56-1.17,5.71,5.71,0,0,1,1.17.88,2,2,0,0,1,.74-1.46"/><path class="cls-6" d="M31.12,23.42a2,2,0,0,1,.46-1.54c0.08,0.73.51,0.95,0.15,1.68a0.66,0.66,0,0,0-.28.54,1.59,1.59,0,0,1,0-.72,1.35,1.35,0,0,0-.19.58,0.82,0.82,0,0,1-.67-0.17,2.43,2.43,0,0,1-.77-1.08,5.59,5.59,0,0,1,1.32.71"/><path class="cls-6" d="M30.55,19.8c0.09,0.73.51,1,.15,1.68a0.68,0.68,0,0,0-.29.53,1.71,1.71,0,0,1,0-.71,1.27,1.27,0,0,0-.2.57,1,1,0,0,1-.66-0.2,2.72,2.72,0,0,1-.76-1.11,6,6,0,0,1,1.32.75,1.85,1.85,0,0,1,.46-1.5"/><path class="cls-6" d="M29.56,18.28c0.23,0.7.68,0.88,0.48,1.64a0.6,0.6,0,0,0-.19.56,1.67,1.67,0,0,1-.16-0.72,1.25,1.25,0,0,0-.08.62,1.07,1.07,0,0,1-.69-0.13,2.68,2.68,0,0,1-1-1,5.47,5.47,0,0,1,1.43.6,1.87,1.87,0,0,1,.17-1.57"/><path class="cls-6" d="M28.2,16.23a2.37,2.37,0,0,1,.54,1.57,1,1,0,0,0,0,.72,2.72,2.72,0,0,1-.27-0.77,1.67,1.67,0,0,0,.06.71,0.67,0.67,0,0,1-.6.08,2.36,2.36,0,0,1-1-.81,4.13,4.13,0,0,1,1.33.2,2.48,2.48,0,0,1,0-1.69"/><path class="cls-6" d="M27,16.6A2.24,2.24,0,0,1,26.82,15c0.38,0.66.65,0.52,0.7,1.42a1,1,0,0,0,0,.69,1.83,1.83,0,0,1-.35-0.69,1.72,1.72,0,0,0,.12.68,0.71,0.71,0,0,1-.6.17,2.25,2.25,0,0,1-1.09-.64,3.76,3.76,0,0,1,1.35,0"/><path class="cls-6" d="M25.08,13.45c0.43,0.63.86,0.58,0.95,1.46a0.83,0.83,0,0,0,0,.67,2.18,2.18,0,0,1-.38-0.65,1.72,1.72,0,0,0,.15.65,0.72,0.72,0,0,1-.61.19,2,2,0,0,1-1.13-.57,4.12,4.12,0,0,1,1.39-.05,2.46,2.46,0,0,1-.4-1.7"/><path class="cls-6" d="M24.61,13.59a0.82,0.82,0,0,0,.15.68,0.9,0.9,0,0,0-.13,0,3.73,3.73,0,0,1-.42-0.55,1.61,1.61,0,0,0,.24.73,0.5,0.5,0,0,1-.39.17,1.48,1.48,0,0,1-1.11-.28A1.45,1.45,0,0,1,24.08,14a0.23,0.23,0,0,0,0-.13h0a1.27,1.27,0,0,0-.4-0.5,1.31,1.31,0,0,1-.26-0.92c0.51,0.52,1,.3,1.23,1.14"/><path class="cls-6" d="M11.65,14.24c0.22-.8.64-0.69,1.15-1.2a2.08,2.08,0,0,1-.63,1.53,4.19,4.19,0,0,1,1.37.3,2.12,2.12,0,0,1-1.2.34,0.83,0.83,0,0,1-.59-0.29,1.52,1.52,0,0,0,.23-0.6,1.67,1.67,0,0,1-.47.55,0.76,0.76,0,0,0,.14-0.63"/><path class="cls-6" d="M10.4,15.26c0.09-.85.51-0.81,0.94-1.44a2.61,2.61,0,0,1-.4,1.67,3.52,3.52,0,0,1,1.35.08,2.38,2.38,0,0,1-1.1.55,0.78,0.78,0,0,1-.6-0.2,1.48,1.48,0,0,0,.14-0.65,1.87,1.87,0,0,1-.36.66,0.88,0.88,0,0,0,0-.67"/><path class="cls-6" d="M9,16.44A2.25,2.25,0,0,1,9.68,15a2.46,2.46,0,0,1-.18,1.66,4,4,0,0,1,1.33,0,2.16,2.16,0,0,1-1.07.66,0.89,0.89,0,0,1-.58-0.16,1.82,1.82,0,0,0,.11-0.68,1.55,1.55,0,0,1-.34.68,0.89,0.89,0,0,0,0-.67"/><path class="cls-6" d="M8.35,16.35a2.48,2.48,0,0,1,0,1.71,3.87,3.87,0,0,1,1.32-.2,2.48,2.48,0,0,1-1,.81A0.69,0.69,0,0,1,8,18.58a1.59,1.59,0,0,0,.06-0.68,2.32,2.32,0,0,1-.26.73,1,1,0,0,0-.06-0.68,2.59,2.59,0,0,1,.57-1.59"/><path class="cls-6" d="M7,18.41a1.75,1.75,0,0,1,.16,1.53,6.89,6.89,0,0,1,1.43-.59,3.1,3.1,0,0,1-.94,1,1.24,1.24,0,0,1-.69.13,1.15,1.15,0,0,0-.08-0.62,1.61,1.61,0,0,1-.16.72A0.56,0.56,0,0,0,6.49,20c-0.2-.75.26-0.94,0.47-1.62"/><path class="cls-6" d="M5.84,21.55c-0.35-.72.07-0.94,0.14-1.65a1.85,1.85,0,0,1,.47,1.48,5.18,5.18,0,0,1,1.3-.75A2.91,2.91,0,0,1,7,21.72a1.07,1.07,0,0,1-.65.21,1.25,1.25,0,0,0-.2-0.56,1.49,1.49,0,0,1,0,.7,0.62,0.62,0,0,0-.3-0.51"/><path class="cls-6" d="M5.12,22a1.92,1.92,0,0,1,.44,1.51,5.11,5.11,0,0,1,1.31-.7,2.68,2.68,0,0,1-.77,1.06,1,1,0,0,1-.64.18,1.34,1.34,0,0,0-.2-0.58,1.54,1.54,0,0,1,0,.71A0.62,0.62,0,0,0,5,23.58C4.61,22.87,5,22.66,5.12,22"/><path class="cls-6" d="M4.59,25.17c-0.48-.66-0.1-0.93-0.16-1.64A2,2,0,0,1,5.16,25a4.86,4.86,0,0,1,1.14-.87,2.38,2.38,0,0,1-.53,1.15,0.76,0.76,0,0,1-.61.25A1.45,1.45,0,0,0,4.86,25a1.68,1.68,0,0,1,.12.7,0.78,0.78,0,0,0-.4-0.49"/><path class="cls-6" d="M3.85,25.66a2.17,2.17,0,0,1,.73,1.46,5.24,5.24,0,0,1,1.14-.83,2.36,2.36,0,0,1-.53,1.14,0.86,0.86,0,0,1-.61.24,1.46,1.46,0,0,0-.3-0.56,1.67,1.67,0,0,1,.12.73A0.73,0.73,0,0,0,4,27.32c-0.47-.7-0.11-0.94-0.17-1.66"/><path class="cls-6" d="M4.6,29.22a1.53,1.53,0,0,0-.4-0.51,1.69,1.69,0,0,1,.24.7A0.76,0.76,0,0,0,4,28.94c-0.6-.64-0.35-0.8-0.55-1.52a2.39,2.39,0,0,1,1.06,1.25,4.61,4.61,0,0,1,.95-1,2,2,0,0,1-.3,1.21,0.74,0.74,0,0,1-.53.33"/><path class="cls-6" d="M3.43,29.59a2.56,2.56,0,0,1,1.06,1.32A4.68,4.68,0,0,1,5.41,30a2.13,2.13,0,0,1-.27,1.21,0.76,0.76,0,0,1-.53.3A1.54,1.54,0,0,0,4.21,31a2.1,2.1,0,0,1,.26.7A1,1,0,0,0,4,31.18c-0.59-.66-0.36-0.83-0.56-1.59"/><path class="cls-6" d="M3.35,31.71a2.38,2.38,0,0,1,1.16,1.14,4.37,4.37,0,0,1,.72-1.08A2.22,2.22,0,0,1,5.17,33a0.59,0.59,0,0,1-.45.36,2,2,0,0,0-.49-0.49,1.89,1.89,0,0,1,.38.69,1,1,0,0,0-.54-0.44c-1-.91.06,0.31-0.72-1.46"/><path class="cls-6" d="M4.65,34.91a5.82,5.82,0,0,1,.78-1.31,2.68,2.68,0,0,1-.16,1.34,1.15,1.15,0,0,1-.48.51A1.26,1.26,0,0,0,4.36,35a1.78,1.78,0,0,1,.33.66,0.66,0.66,0,0,0-.5-0.34c-0.6-.47-0.33-0.7-0.57-1.37a1.49,1.49,0,0,1,1,.93"/><path class="cls-6" d="M3.72,35.56A1.86,1.86,0,0,1,5,36.49a5.72,5.72,0,0,1,.58-1.4,2.41,2.41,0,0,1,.06,1.32,1,1,0,0,1-.4.57,1.1,1.1,0,0,0-.5-0.35,1.59,1.59,0,0,1,.41.57A0.61,0.61,0,0,0,4.59,37c-0.7-.36-0.51-0.8-0.87-1.42"/><path class="cls-6" d="M5.71,38.55a5.52,5.52,0,0,1,.56-1.38,2.56,2.56,0,0,1,.08,1.31,0.89,0.89,0,0,1-.4.56,1.33,1.33,0,0,0-.5-0.34,1.91,1.91,0,0,1,.43.58A0.65,0.65,0,0,0,5.32,39c-0.73-.35-0.54-0.78-0.91-1.39a1.89,1.89,0,0,1,1.3.9"/><path class="cls-6" d="M4.86,39.31A2,2,0,0,1,6.34,40a5.72,5.72,0,0,1,.33-1.41A2.37,2.37,0,0,1,7,39.81a0.89,0.89,0,0,1-.31.58,1.26,1.26,0,0,0-.58-0.24,1.89,1.89,0,0,1,.55.48A0.83,0.83,0,0,0,6,40.48c-0.79-.2-0.67-0.66-1.16-1.17"/><path class="cls-6" d="M5.77,41.15a2.1,2.1,0,0,1,1.48.71,5,5,0,0,1,.38-1.34,2.22,2.22,0,0,1,.27,1.23,0.8,0.8,0,0,1-.32.55A1.49,1.49,0,0,0,7,42a1.53,1.53,0,0,1,.52.49,0.67,0.67,0,0,0-.61-0.15c-0.81-.26-0.66-0.69-1.14-1.22"/><path class="cls-6" d="M6.47,42.66a2.4,2.4,0,0,1,1.64.47,4,4,0,0,1,.15-1.35,2.28,2.28,0,0,1,.5,1.16,0.71,0.71,0,0,1-.24.57,1.56,1.56,0,0,0-.63-0.16,1.79,1.79,0,0,1,.61.39,0.81,0.81,0,0,0-.66-0.07c-0.84-.14-0.8-0.56-1.38-1"/><path class="cls-6" d="M7.46,44.27a2.71,2.71,0,0,1,1.66.6,3.72,3.72,0,0,1,.19-1.32,2.3,2.3,0,0,1,.46,1.16,0.7,0.7,0,0,1-.25.56A1.85,1.85,0,0,0,8.89,45a2.06,2.06,0,0,1,.63.45,0.86,0.86,0,0,0-.67-0.13C8,45.17,8,44.75,7.46,44.27"/><path class="cls-6" d="M11.19,46.92a0.73,0.73,0,0,0-.7-0.21c-0.91-.09-1.14-0.65-1.81-1a2.87,2.87,0,0,1,1.77.37,3.37,3.37,0,0,1-.06-1.3,2.33,2.33,0,0,1,.69,1,5.52,5.52,0,0,0,.16,1,1.63,1.63,0,0,0-.49-0.34,2.09,2.09,0,0,1,.44.5"/><path class="cls-6" d="M26.22,46.83a1,1,0,0,0-.85.31,2.1,2.1,0,0,1,.49-0.56,1.32,1.32,0,0,0-.52.23,4.84,4.84,0,0,1,0-.78A2.46,2.46,0,0,1,26.12,45,4,4,0,0,1,26,46.3,3,3,0,0,1,27.84,46c-0.7.39-.71,0.81-1.63,0.87"/><path class="cls-6" d="M27.67,45.64a1,1,0,0,0-.68.12,2.61,2.61,0,0,1,.66-0.44,2.08,2.08,0,0,0-.66.23A0.82,0.82,0,0,1,26.73,45a2.15,2.15,0,0,1,.51-1.15,4.35,4.35,0,0,1,.17,1.35,2.65,2.65,0,0,1,1.69-.6c-0.61.49-.54,0.92-1.44,1.09"/><path class="cls-6" d="M28.68,44.05a0.81,0.81,0,0,0-.67.07,2,2,0,0,1,.64-0.42,1.75,1.75,0,0,0-.64.18,0.83,0.83,0,0,1-.25-0.6,2.17,2.17,0,0,1,.52-1.16,4.6,4.6,0,0,1,.15,1.38,2.41,2.41,0,0,1,1.66-.5c-0.6.45-.53,0.88-1.41,1"/><path class="cls-6" d="M29.65,42.71a0.71,0.71,0,0,0-.62.17,1.77,1.77,0,0,1,.53-0.5,1.41,1.41,0,0,0-.59.26,0.87,0.87,0,0,1-.34-0.56,2.35,2.35,0,0,1,.28-1.25,4.81,4.81,0,0,1,.4,1.39,2.19,2.19,0,0,1,1.51-.75c-0.49.55-.37,1-1.17,1.25"/><path class="cls-6" d="M30.67,40.8a0.69,0.69,0,0,0-.62.14,2.22,2.22,0,0,1,.55-0.5,1.49,1.49,0,0,0-.58.26,0.88,0.88,0,0,1-.31-0.61A2.34,2.34,0,0,1,30,38.84a4.62,4.62,0,0,1,.34,1.44,2,2,0,0,1,1.51-.69c-0.49.54-.37,1-1.19,1.21"/><path class="cls-6" d="M31.41,39.32a0.72,0.72,0,0,0-.58.23A1.66,1.66,0,0,1,31.26,39a1.36,1.36,0,0,0-.51.34,0.94,0.94,0,0,1-.39-0.56,2.48,2.48,0,0,1,.08-1.33A5.61,5.61,0,0,1,31,38.8a2.17,2.17,0,0,1,1.33-.91c-0.4.64-.2,1.08-0.92,1.43"/><path class="cls-6" d="M32.15,37.21a0.65,0.65,0,0,0-.56.25A1.42,1.42,0,0,1,32,36.87a1.26,1.26,0,0,0-.52.34,1,1,0,0,1-.42-0.56,2.84,2.84,0,0,1,.06-1.35,5.55,5.55,0,0,1,.59,1.41A1.79,1.79,0,0,1,33,35.78c-0.37.61-.17,1.06-0.88,1.42"/><path class="cls-7" d="M28.68,39.95a7.62,7.62,0,0,1-5-1.46A2.1,2.1,0,0,0,23.89,37c-0.06-.35-0.08-0.05-0.16.16a1.62,1.62,0,0,1-.75.93,6.39,6.39,0,0,0-2-1.44,8.41,8.41,0,0,1-1.24-.93c-0.72.34-1.88,1-2.45,0.61-0.47-.24.56-0.51,1-1.14a1.18,1.18,0,0,1,1.38-.51A17.82,17.82,0,0,1,23,36.07a39.94,39.94,0,0,1,5.64,1.22,6.47,6.47,0,0,0,1.09.16,14.71,14.71,0,0,1-1.08,2.49"/><path class="cls-7" d="M19.7,37.72c0.61,0.69,1.16.82,1.55,1.65a0.42,0.42,0,0,1-.63.16c-0.92-1-1.75-1.19-1.41-1.67a0.34,0.34,0,0,0-.31.4c0.15,0.72,1,1,1.23,1.65-0.12.49-1.12,0-1.56-1.24l0-.06c-0.19.37-.34,0.5,0.32,1.3,0.13,0.29.23,0.59-.26,0.53,0.09,0.08-.24,0-0.1,0h0.1a0.46,0.46,0,0,1-.1-0.05,0.75,0.75,0,0,0-.9-1c0.18-.43-0.49-0.92-1.15-0.62,0.1-.34-0.61-0.88-1.57-0.49-0.14-.35-1-0.7-1.84.35-1.48.12-3.89,1.42-5.36,0.76-0.06.06-.92-2.38-0.94-2.45,1.7-.17,5.56-0.43,6.92-1a5.62,5.62,0,0,1,3.57-.79c0,0.37-.91,1.07-0.47,1.43,0.77,0.72,2,.39,2.8-0.1,0.85,0.88,2.22,1,2.75,2.15L22.16,39c-0.3.19-.31,0.19-0.65-0.28-0.81-1.09-1.58-.85-1.72-1.59-0.3.1-.09,0.42-0.09,0.59"/><path class="cls-7" d="M15.76,39.95c-0.31.13,0.13-.19,0.23-0.26l0.13-.16c0.25-.24.61-0.55,0.84-0.05,0.14,0.29-.87.86-1,0.91a0.21,0.21,0,0,1-.31-0.1,0.22,0.22,0,0,1,.16-0.34"/><path class="cls-7" d="M14.87,39.84a0.35,0.35,0,0,1-.43-0.08,1,1,0,0,1,.36-0.67A0.52,0.52,0,0,1,15,38.94l0.19-.17c0.38,0,.34,0,0.41.17a1.67,1.67,0,0,1-.77.9"/><path class="cls-7" d="M17.32,40a0.32,0.32,0,0,1,.59.16,0.9,0.9,0,0,1-.79.63c-0.22-.11-0.69-0.09.2-0.79"/><path class="cls-7" d="M13.85,39.15c-0.16.07-.41-0.22-0.28-0.28l0.16-.32c0.28-.1.45-0.23,0.54-0.1a0.93,0.93,0,0,1-.43.7"/><path class="cls-8" d="M18.34,14.27c-6.74,0-12.22,7.13-12.47,16.07H30.8c-0.26-8.94-5.73-16.07-12.46-16.07"/><path class="cls-4" d="M19,34V26.92s2.42,0,3,0a1.71,1.71,0,0,0,1-1.12,10.27,10.27,0,0,0-.39-2.39,1.3,1.3,0,0,1-.48-0.67,11,11,0,0,0-.79-3.45,3.42,3.42,0,0,0-3.15-1.62,2.67,2.67,0,0,0-2.8,2,0.9,0.9,0,0,0,1,1,7.57,7.57,0,0,0-.66.64,8.78,8.78,0,0,0-1.1,1.58A5,5,0,0,0,14,25.74a2.71,2.71,0,0,0,2,1.18,5.28,5.28,0,0,0,1.61-.06v7.05Z"/><path class="cls-9" d="M16.42,24.29c-0.71,0-1,.4-1.64.42a6,6,0,0,1,1.44-2.88,9.14,9.14,0,0,1,2.42-1.57l0-.14c-0.57.08-2.06,0.37-2.47-.29-0.08-.67.82-1.4,2.06-1.48a3.27,3.27,0,0,1,1.91.58,2.81,2.81,0,0,1,1.1,2,7.79,7.79,0,0,0-1.15.59,4.49,4.49,0,0,0,.56.06,2.55,2.55,0,0,0,.64-0.06V22a0.63,0.63,0,0,1,.15.19,7.86,7.86,0,0,1-2.35.86,4.45,4.45,0,0,0,.62.08,6.54,6.54,0,0,0,1.77-.37,0.59,0.59,0,0,0,.44.7v0h0c-1.52.82-2.11,0.74-2.22,0.66L18.55,24a6,6,0,0,0,1.43.71,6.44,6.44,0,0,0,2.08-.55l0.19,0.69c-0.92,0-1.91,1.32-3.3.84a4.75,4.75,0,0,0-2.53-1.35"/><path class="cls-9" d="M17.69,26.17c-0.7,0-1.78,0-1.81,0a1.87,1.87,0,0,1-1.11-.7,2.94,2.94,0,0,0,1.14-.31c0.91-.37,1.72.82,1.78,1.06"/><path class="cls-9" d="M22.38,25.46a1,1,0,0,1-.52.71c-0.19,0-1.07,0-1.57,0A1.69,1.69,0,0,0,21.09,26c1.45-.72,1.29-0.5,1.29-0.5"/><path class="cls-3" d="M17.59,51.59a0.91,0.91,0,0,0,0-.55,4.82,4.82,0,0,1-1.16,1.12,7.35,7.35,0,0,1-1.81.62,2.8,2.8,0,0,0,.43.4,4.12,4.12,0,0,0,1.72-.58,2.87,2.87,0,0,0,.86-1"/><path class="cls-8" d="M19.16,51.59a1.09,1.09,0,0,1,0-.55,4.77,4.77,0,0,0,1.17,1.12,7.23,7.23,0,0,0,1.81.62,3.72,3.72,0,0,0,.48-0.55,13.11,13.11,0,0,1-1.83-.39,2.24,2.24,0,0,1-1.38-1,0.83,0.83,0,0,1,.22-0.69c0.13-.12,1.64-0.23,1.58-1.5-0.06-1.5-2.55-1.08-2.86-1s-2.8-.48-2.85,1C15.47,49.91,17,50,17.11,50.14a0.86,0.86,0,0,1,.2.69,2.24,2.24,0,0,1-1.37,1,13.62,13.62,0,0,1-1.84.39,4.1,4.1,0,0,0,.48.55,7.34,7.34,0,0,0,1.81-.62A4.84,4.84,0,0,0,17.55,51a0.92,0.92,0,0,1,0,.55,2.88,2.88,0,0,1-.86,1,4.12,4.12,0,0,1-1.72.58,1.25,1.25,0,0,0,.74.29,2.68,2.68,0,0,0,2.17-1.8,1,1,0,0,0,.45.17h0a0.92,0.92,0,0,0,.44-0.17A2.72,2.72,0,0,0,21,53.47a1.2,1.2,0,0,0,.72-0.29A4.24,4.24,0,0,1,20,52.6a3,3,0,0,1-.86-1"/><path class="cls-3" d="M22.16,52.78a7.23,7.23,0,0,1-1.81-.62A4.77,4.77,0,0,1,19.18,51a1.09,1.09,0,0,0,0,.55,3,3,0,0,0,.86,1,4.24,4.24,0,0,0,1.71.58h0a2.42,2.42,0,0,0,.43-0.4"/><path class="cls-3" d="M17.2,48.1a1.27,1.27,0,0,0-.45.67,1.77,1.77,0,0,0,.11.72,1.1,1.1,0,0,1-.79-0.82c0.05-.79,1.13-0.57,1.13-0.57"/><path class="cls-3" d="M19.56,48.1a1.26,1.26,0,0,1,.42.67,1.69,1.69,0,0,1-.08.72,1.07,1.07,0,0,0,.78-0.82c-0.06-.79-1.12-0.57-1.12-0.57"/><path class="cls-3" d="M18.43,48.39H18.31c-1.38,0-.59,1.27-0.59,1.27a1.06,1.06,0,0,1,.58-0.18h0.16a1.13,1.13,0,0,1,.59.18s0.79-1.28-.6-1.27"/><path class="cls-3" d="M18.45,50.1H18.3c-0.38,0-.35.19-0.35,0.37a1.07,1.07,0,0,0,.39.95H18.4c0.31,0,.39-0.76.39-0.95s0-.37-0.34-0.37"/></svg>