<?xml version="1.0" encoding="utf-8"?>
<!-- Generator: Adobe Illustrator 19.1.0, SVG Export Plug-In . SVG Version: 6.00 Build 0)  -->
<svg version="1.1" id="Capa_1" xmlns="http://www.w3.org/2000/svg" xmlns:xlink="http://www.w3.org/1999/xlink" x="0px" y="0px"
	 viewBox="0 0 337 68" style="enable-background:new 0 0 337 68;" xml:space="preserve">
<style type="text/css">
	.st0{fill:#58595B;}
	.st1{fill:#0072BC;}
	.st2{fill:#FFFFFF;}
	.st3{fill:#231F20;}
	.st4{fill:#FACC63;}
	.st5{fill:#0B9E5C;}
	.st6{fill:#EFB780;}
	.st7{fill:#168FBA;}
	.st8{fill:#D93E26;}
</style>
<g>
	<g>
		<g>
			<path class="st0" d="M63.2,21h2.4l2.6,4.3l2.6-4.3h2.4V31H71v-6.6l-2.8,4.3h-0.1l-2.8-4.3V31h-2.2V21z"/>
			<path class="st0" d="M75.5,20.5h2.3v1.9h-2.3V20.5z M75.5,23.3h2.2V31h-2.2V23.3z"/>
			<path class="st0" d="M79.8,23.3H82v1.1c0.5-0.6,1.1-1.2,2.3-1.2c1.7,0,2.6,1.1,2.6,2.9v5h-2.2v-4.3c0-1-0.5-1.6-1.3-1.6
				c-0.8,0-1.4,0.5-1.4,1.6V31h-2.2V23.3z"/>
			<path class="st0" d="M88.8,20.5h2.3v1.9h-2.3V20.5z M88.8,23.3H91V31h-2.2V23.3z"/>
			<path class="st0" d="M92.5,30l0.9-1.4c0.8,0.6,1.7,0.9,2.4,0.9c0.6,0,0.9-0.2,0.9-0.6v0c0-0.5-0.7-0.6-1.6-0.9
				c-1.1-0.3-2.3-0.8-2.3-2.3v0c0-1.6,1.3-2.4,2.8-2.4c1,0,2,0.3,2.9,0.9l-0.8,1.5c-0.8-0.4-1.5-0.7-2.1-0.7c-0.5,0-0.8,0.2-0.8,0.5
				v0c0,0.4,0.7,0.6,1.6,0.9c1.1,0.4,2.3,0.9,2.3,2.3v0c0,1.7-1.3,2.5-2.9,2.5C94.7,31.2,93.5,30.8,92.5,30z"/>
			<path class="st0" d="M100.5,28.9v-3.7h-0.9v-1.9h0.9v-2h2.2v2h1.8v1.9h-1.8v3.3c0,0.5,0.2,0.7,0.7,0.7c0.4,0,0.8-0.1,1.1-0.3v1.8
				c-0.5,0.3-1,0.4-1.7,0.4C101.4,31.2,100.5,30.6,100.5,28.9z"/>
			<path class="st0" d="M105.5,27.2L105.5,27.2c0-2.2,1.6-4,3.8-4c2.6,0,3.8,2,3.8,4.2c0,0.2,0,0.4,0,0.6h-5.4
				c0.2,1,0.9,1.5,1.9,1.5c0.7,0,1.3-0.2,1.9-0.8l1.3,1.1c-0.7,0.9-1.8,1.4-3.1,1.4C107.2,31.2,105.5,29.6,105.5,27.2z M110.9,26.6
				c-0.1-1-0.7-1.6-1.6-1.6c-0.9,0-1.5,0.6-1.7,1.6H110.9z"/>
			<path class="st0" d="M114.7,23.3h2.2v1.6c0.4-1.1,1.2-1.8,2.5-1.7v2.3h-0.1c-1.5,0-2.3,0.9-2.3,2.7V31h-2.2V23.3z"/>
			<path class="st0" d="M120.7,20.5h2.3v1.9h-2.3V20.5z M120.8,23.3h2.2V31h-2.2V23.3z"/>
			<path class="st0" d="M124.7,27.2L124.7,27.2c0-2.2,1.8-4,4.2-4c2.4,0,4.2,1.8,4.2,4v0c0,2.2-1.8,4-4.2,4
				C126.4,31.2,124.7,29.4,124.7,27.2z M130.8,27.2L130.8,27.2c0-1.2-0.8-2.2-2-2.2c-1.3,0-2,1-2,2.1v0c0,1.1,0.8,2.1,2,2.1
				C130.1,29.3,130.8,28.4,130.8,27.2z"/>
			<path class="st0" d="M138.5,27.2L138.5,27.2c0-2.6,1.7-4,3.5-4c1.2,0,1.9,0.5,2.4,1.1v-3.8h2.2V31h-2.2v-1.1
				c-0.5,0.7-1.3,1.3-2.4,1.3C140.2,31.2,138.5,29.8,138.5,27.2z M144.5,27.2L144.5,27.2c0-1.3-0.8-2.2-1.9-2.2s-1.9,0.8-1.9,2.1v0
				c0,1.3,0.9,2.1,1.9,2.1S144.5,28.5,144.5,27.2z"/>
			<path class="st0" d="M148.2,27.2L148.2,27.2c0-2.2,1.6-4,3.8-4c2.6,0,3.8,2,3.8,4.2c0,0.2,0,0.4,0,0.6h-5.4
				c0.2,1,0.9,1.5,1.9,1.5c0.7,0,1.3-0.2,1.9-0.8l1.3,1.1c-0.7,0.9-1.8,1.4-3.1,1.4C149.9,31.2,148.2,29.6,148.2,27.2z M153.6,26.6
				c-0.1-1-0.7-1.6-1.6-1.6c-0.9,0-1.5,0.6-1.7,1.6H153.6z"/>
			<path class="st0" d="M161.9,21h2.4l2.6,4.3l2.6-4.3h2.4V31h-2.2v-6.6l-2.8,4.3h-0.1l-2.8-4.3V31h-2.2V21z"/>
			<path class="st0" d="M173.8,27.2L173.8,27.2c0-2.2,1.8-4,4.2-4c2.4,0,4.2,1.8,4.2,4v0c0,2.2-1.8,4-4.2,4
				C175.6,31.2,173.8,29.4,173.8,27.2z M180,27.2L180,27.2c0-1.2-0.8-2.2-2-2.2c-1.3,0-2,1-2,2.1v0c0,1.1,0.8,2.1,2,2.1
				C179.2,29.3,180,28.4,180,27.2z"/>
			<path class="st0" d="M183.4,27.2L183.4,27.2c0-2.6,1.7-4,3.5-4c1.2,0,1.9,0.5,2.4,1.1v-3.8h2.2V31h-2.2v-1.1
				c-0.5,0.7-1.3,1.3-2.4,1.3C185.1,31.2,183.4,29.8,183.4,27.2z M189.3,27.2L189.3,27.2c0-1.3-0.8-2.2-1.9-2.2s-1.9,0.8-1.9,2.1v0
				c0,1.3,0.9,2.1,1.9,2.1S189.3,28.5,189.3,27.2z"/>
			<path class="st0" d="M193,27.2L193,27.2c0-2.2,1.6-4,3.8-4c2.6,0,3.8,2,3.8,4.2c0,0.2,0,0.4,0,0.6h-5.4c0.2,1,0.9,1.5,1.9,1.5
				c0.7,0,1.3-0.2,1.9-0.8l1.3,1.1c-0.7,0.9-1.8,1.4-3.1,1.4C194.8,31.2,193,29.6,193,27.2z M198.5,26.6c-0.1-1-0.7-1.6-1.6-1.6
				c-0.9,0-1.5,0.6-1.7,1.6H198.5z"/>
			<path class="st0" d="M202.2,23.3h2.2v1.6c0.4-1.1,1.2-1.8,2.5-1.7v2.3h-0.1c-1.5,0-2.3,0.9-2.3,2.7V31h-2.2V23.3z"/>
			<path class="st0" d="M208.2,23.3h2.2v1.1c0.5-0.6,1.2-1.2,2.3-1.2c1.7,0,2.6,1.1,2.6,2.9v5h-2.2v-4.3c0-1-0.5-1.6-1.3-1.6
				s-1.4,0.5-1.4,1.6V31h-2.2V23.3z"/>
			<path class="st0" d="M217.2,20.5h2.3v1.9h-2.3V20.5z M217.3,23.3h2.2V31h-2.2V23.3z"/>
			<path class="st0" d="M221.3,29.5l4-4.4h-3.9v-1.8h6.6v1.5l-4,4.4h4V31h-6.7V29.5z"/>
			<path class="st0" d="M229.1,28.8L229.1,28.8c0-1.7,1.3-2.5,3.1-2.5c0.8,0,1.3,0.1,1.9,0.3v-0.1c0-0.9-0.6-1.4-1.7-1.4
				c-0.8,0-1.4,0.2-2.1,0.4l-0.5-1.7c0.8-0.4,1.7-0.6,3-0.6c1.2,0,2.1,0.3,2.6,0.9c0.6,0.6,0.8,1.4,0.8,2.5V31h-2.1v-0.8
				c-0.5,0.6-1.3,1-2.3,1C230.3,31.2,229.1,30.3,229.1,28.8z M234.2,28.3v-0.4c-0.4-0.2-0.9-0.3-1.4-0.3c-0.9,0-1.5,0.4-1.5,1.1v0
				c0,0.6,0.5,0.9,1.2,0.9C233.5,29.7,234.2,29.1,234.2,28.3z"/>
			<path class="st0" d="M237.7,27.2L237.7,27.2c0-2.2,1.7-4,4-4c1.5,0,2.4,0.5,3.1,1.3l-1.3,1.4c-0.5-0.5-1-0.8-1.8-0.8
				c-1.1,0-1.9,1-1.9,2.1v0c0,1.2,0.8,2.1,2,2.1c0.7,0,1.2-0.3,1.8-0.8l1.3,1.3c-0.7,0.8-1.6,1.4-3.1,1.4
				C239.4,31.2,237.7,29.4,237.7,27.2z"/>
			<path class="st0" d="M246.4,20.5h2.3v1.9h-2.3V20.5z M246.4,23.3h2.2V31h-2.2V23.3z"/>
			<path class="st0" d="M250.3,27.2L250.3,27.2c0-2.2,1.8-4,4.2-4c2.4,0,4.2,1.8,4.2,4v0c0,2.2-1.8,4-4.2,4
				C252.1,31.2,250.3,29.4,250.3,27.2z M256.5,27.2L256.5,27.2c0-1.2-0.8-2.2-2-2.2c-1.2,0-2,1-2,2.1v0c0,1.1,0.8,2.1,2,2.1
				C255.7,29.3,256.5,28.4,256.5,27.2z M255.2,19.9l1.9,0.8l-1.9,1.7h-1.6L255.2,19.9z"/>
			<path class="st0" d="M260.2,23.3h2.2v1.1c0.5-0.6,1.2-1.2,2.3-1.2c1.7,0,2.6,1.1,2.6,2.9v5h-2.2v-4.3c0-1-0.5-1.6-1.3-1.6
				c-0.8,0-1.4,0.5-1.4,1.6V31h-2.2V23.3z"/>
		</g>
	</g>
	<g>
		<g>
			<path class="st1" d="M63.9,40.8h5.8c3.4,0,5.6,1.9,5.6,4.9v0c0,3.3-2.6,5-5.9,5h-2.9v4.7h-2.6V40.8z M69.4,48.4
				c1.9,0,3.2-1.1,3.2-2.6v0c0-1.7-1.2-2.6-3.2-2.6h-3v5.3H69.4z"/>
			<path class="st1" d="M77.6,44.4h2.5v2.5c0.7-1.7,2-2.8,3.9-2.7v2.7h-0.1c-2.2,0-3.8,1.4-3.8,4.4v4.2h-2.5V44.4z"/>
			<path class="st1" d="M85.6,50L85.6,50c0-3.2,2.2-5.8,5.4-5.8c3.5,0,5.3,2.8,5.3,5.9c0,0.2,0,0.5,0,0.7h-8.1
				c0.3,1.8,1.6,2.8,3.2,2.8c1.2,0,2.1-0.5,3-1.3l1.5,1.3c-1,1.3-2.5,2.1-4.5,2.1C88.1,55.7,85.6,53.4,85.6,50z M93.8,49.1
				c-0.2-1.6-1.1-2.9-2.8-2.9c-1.6,0-2.6,1.2-2.9,2.9H93.8z"/>
			<path class="st1" d="M98,54l1.1-1.7c1.2,0.9,2.5,1.4,3.6,1.4c1.1,0,1.7-0.5,1.7-1.2v0c0-0.9-1.2-1.2-2.5-1.5
				c-1.6-0.5-3.5-1.1-3.5-3.2v0c0-2.1,1.7-3.4,3.9-3.4c1.4,0,2.9,0.5,4.1,1.3l-1,1.8c-1.1-0.6-2.2-1-3.1-1c-1,0-1.6,0.5-1.6,1.1v0
				c0,0.8,1.2,1.2,2.5,1.6c1.6,0.5,3.4,1.2,3.4,3.2v0c0,2.3-1.8,3.5-4.1,3.5C101.1,55.6,99.4,55.1,98,54z"/>
			<path class="st1" d="M109.4,40.3h2.7v2.4h-2.7V40.3z M109.5,44.4h2.5v11.1h-2.5V44.4z"/>
			<path class="st1" d="M114.8,49.9L114.8,49.9c0-3.7,2.5-5.8,5.1-5.8c1.8,0,3,0.9,3.8,1.9v-6h2.5v15.3h-2.5v-1.8
				c-0.8,1.2-2,2.1-3.8,2.1C117.4,55.7,114.8,53.6,114.8,49.9z M123.8,49.9L123.8,49.9c0-2.2-1.5-3.6-3.2-3.6
				c-1.7,0-3.2,1.3-3.2,3.5v0c0,2.1,1.5,3.5,3.2,3.5C122.3,53.5,123.8,52,123.8,49.9z"/>
			<path class="st1" d="M128.8,50L128.8,50c0-3.2,2.2-5.8,5.4-5.8c3.5,0,5.3,2.8,5.3,5.9c0,0.2,0,0.5,0,0.7h-8.1
				c0.3,1.8,1.6,2.8,3.2,2.8c1.2,0,2.1-0.5,3-1.3l1.5,1.3c-1,1.3-2.5,2.1-4.5,2.1C131.3,55.7,128.8,53.4,128.8,50z M137,49.1
				c-0.2-1.6-1.1-2.9-2.8-2.9c-1.6,0-2.6,1.2-2.9,2.9H137z"/>
			<path class="st1" d="M142.1,44.4h2.5v1.7c0.7-1,1.7-1.9,3.5-1.9c2.5,0,3.9,1.7,3.9,4.2v7.1h-2.5v-6.3c0-1.7-0.9-2.7-2.4-2.7
				c-1.5,0-2.5,1-2.5,2.7v6.2h-2.5V44.4z"/>
			<path class="st1" d="M154.5,50L154.5,50c0-3.2,2.4-5.8,5.8-5.8c2.1,0,3.4,0.8,4.4,1.9l-1.6,1.7c-0.8-0.8-1.6-1.4-2.8-1.4
				c-1.8,0-3.2,1.6-3.2,3.5v0c0,2,1.4,3.5,3.3,3.5c1.2,0,2.1-0.5,2.9-1.4l1.5,1.5c-1.1,1.2-2.4,2.1-4.5,2.1
				C156.9,55.7,154.5,53.1,154.5,50z"/>
			<path class="st1" d="M167.1,40.3h2.7v2.4h-2.7V40.3z M167.2,44.4h2.5v11.1h-2.5V44.4z"/>
			<path class="st1" d="M172.3,52.3L172.3,52.3c0-2.4,1.9-3.6,4.6-3.6c1.2,0,2.1,0.2,3,0.5v-0.3c0-1.6-1-2.4-2.7-2.4
				c-1.2,0-2.2,0.3-3.2,0.7l-0.7-2c1.2-0.5,2.4-0.9,4.2-0.9c1.7,0,2.9,0.4,3.7,1.2c0.8,0.8,1.2,2,1.2,3.4v6.6h-2.5v-1.4
				c-0.8,0.9-1.9,1.6-3.6,1.6C174.2,55.7,172.3,54.5,172.3,52.3z M179.9,51.5v-0.8c-0.6-0.3-1.5-0.4-2.5-0.4c-1.6,0-2.6,0.7-2.6,1.8
				v0c0,1.1,0.9,1.7,2.2,1.7C178.6,53.8,179.9,52.9,179.9,51.5z"/>
			<path class="st1" d="M191.1,49.9L191.1,49.9c0-3.7,2.5-5.8,5.1-5.8c1.8,0,3,0.9,3.8,1.9v-6h2.5v15.3H200v-1.8
				c-0.8,1.2-2,2.1-3.8,2.1C193.6,55.7,191.1,53.6,191.1,49.9z M200,49.9L200,49.9c0-2.2-1.5-3.6-3.2-3.6c-1.7,0-3.2,1.3-3.2,3.5v0
				c0,2.1,1.5,3.5,3.2,3.5C198.5,53.5,200,52,200,49.9z"/>
			<path class="st1" d="M205.1,50L205.1,50c0-3.2,2.2-5.8,5.4-5.8c3.5,0,5.3,2.8,5.3,5.9c0,0.2,0,0.5,0,0.7h-8.1
				c0.3,1.8,1.6,2.8,3.2,2.8c1.2,0,2.1-0.5,3-1.3l1.5,1.3c-1,1.3-2.5,2.1-4.5,2.1C207.6,55.7,205.1,53.4,205.1,50z M213.3,49.1
				c-0.2-1.6-1.1-2.9-2.8-2.9c-1.6,0-2.6,1.2-2.9,2.9H213.3z"/>
			<path class="st1" d="M224.8,40.1h2.5v15.3h-2.5V40.1z"/>
			<path class="st1" d="M229.9,52.3L229.9,52.3c0-2.4,1.9-3.6,4.6-3.6c1.2,0,2.1,0.2,3,0.5v-0.3c0-1.6-1-2.4-2.7-2.4
				c-1.2,0-2.2,0.3-3.2,0.7l-0.7-2c1.2-0.5,2.4-0.9,4.2-0.9c1.7,0,2.9,0.4,3.7,1.2c0.8,0.8,1.2,2,1.2,3.4v6.6h-2.5v-1.4
				c-0.8,0.9-1.9,1.6-3.6,1.6C231.7,55.7,229.9,54.5,229.9,52.3z M237.5,51.5v-0.8c-0.6-0.3-1.5-0.4-2.5-0.4c-1.6,0-2.6,0.7-2.6,1.8
				v0c0,1.1,0.9,1.7,2.2,1.7C236.2,53.8,237.5,52.9,237.5,51.5z"/>
			<path class="st1" d="M249.5,40.8h2.4l7.9,10.1V40.8h2.5v14.7h-2.2L252.1,45v10.4h-2.5V40.8z"/>
			<path class="st1" d="M265,52.3L265,52.3c0-2.4,1.9-3.6,4.6-3.6c1.2,0,2.1,0.2,3,0.5v-0.3c0-1.6-1-2.4-2.7-2.4
				c-1.2,0-2.2,0.3-3.2,0.7l-0.7-2c1.2-0.5,2.4-0.9,4.2-0.9c1.7,0,2.9,0.4,3.7,1.2c0.8,0.8,1.2,2,1.2,3.4v6.6h-2.5v-1.4
				c-0.8,0.9-1.9,1.6-3.6,1.6C266.9,55.7,265,54.5,265,52.3z M272.6,51.5v-0.8c-0.7-0.3-1.5-0.4-2.5-0.4c-1.6,0-2.6,0.7-2.6,1.8v0
				c0,1.1,0.9,1.7,2.2,1.7C271.4,53.8,272.6,52.9,272.6,51.5z"/>
			<path class="st1" d="M277.5,50L277.5,50c0-3.2,2.4-5.8,5.8-5.8c2.1,0,3.4,0.8,4.4,1.9l-1.6,1.7c-0.8-0.8-1.6-1.4-2.8-1.4
				c-1.8,0-3.2,1.6-3.2,3.5v0c0,2,1.4,3.5,3.3,3.5c1.2,0,2.1-0.5,2.9-1.4l1.5,1.5c-1.1,1.2-2.4,2.1-4.5,2.1
				C279.9,55.7,277.5,53.1,277.5,50z"/>
			<path class="st1" d="M290.1,40.3h2.7v2.4h-2.7V40.3z M290.2,44.4h2.5v11.1h-2.5V44.4z"/>
			<path class="st1" d="M295.4,50L295.4,50c0-3.2,2.5-5.8,5.9-5.8c3.4,0,5.9,2.6,5.9,5.7v0c0,3.1-2.5,5.8-5.9,5.8
				C297.9,55.7,295.4,53.1,295.4,50z M304.7,50L304.7,50c0-2-1.4-3.6-3.4-3.6c-2,0-3.3,1.6-3.3,3.5v0c0,1.9,1.4,3.5,3.4,3.5
				C303.4,53.5,304.7,51.9,304.7,50z M302.5,39.5l2.3,1l-2.6,2.4h-1.9L302.5,39.5z"/>
			<path class="st1" d="M309.8,44.4h2.5v1.7c0.7-1,1.7-1.9,3.5-1.9c2.5,0,3.9,1.7,3.9,4.2v7.1h-2.5v-6.3c0-1.7-0.9-2.7-2.4-2.7
				c-1.5,0-2.5,1-2.5,2.7v6.2h-2.5V44.4z"/>
		</g>
	</g>
	<g>
		<path class="st2" d="M32.8,54c-7.7,0-13.6-8.4-13.6-18.3h27.2C46.4,45.6,40.5,54,32.8,54"/>
		<path class="st3" d="M35.8,12.9l0.2,0c0,0-0.1-1-1.9-0.9h-0.4c0,0-0.2,0.6-0.2,0.6l1.2-0.1C34.7,12.5,35.5,12.5,35.8,12.9"/>
		<path class="st3" d="M33.8,13.6c0,0,0.3-0.3,0.3-0.3s0,0,0.1,0c0,0-0.1,0.1-0.1,0.1c0,0.2,0.1,0.4,0.3,0.4c0,0,0.3,0,0.3,0
			c0.2-0.1,0.3-0.2,0.3-0.4c0,0,0-0.1,0-0.1c0.2,0,0.4,0.1,0.4,0.3l0.4,0c0,0-0.2-0.9-1.9-0.7c0,0-0.4,0.6-0.4,0.6
			C33.4,13.6,33.8,13.6,33.8,13.6"/>
		<path class="st3" d="M30,13.6l0.4,0c0.1-0.2,0.3-0.3,0.4-0.3c0,0,0,0.1,0,0.1c0,0.2,0.1,0.4,0.3,0.4c0,0,0.3,0,0.3,0
			c0.2-0.1,0.3-0.2,0.3-0.4c0,0,0,0,0-0.1c0.1,0,0.1,0,0.1,0s0.2,0.2,0.2,0.2c0,0,0.4,0,0.4,0c0,0-0.4-0.6-0.4-0.6
			C30.2,12.6,30,13.6,30,13.6"/>
		<path class="st3" d="M31,12.5l1.3,0.1c0,0-0.1-0.5-0.1-0.5h-0.3c-1.9-0.1-2.1,0.9-2.1,0.9l0.2,0C30.2,12.4,31,12.5,31,12.5"/>
		<path class="st3" d="M34.6,25.7C34.6,25.6,34.5,25.6,34.6,25.7C34.6,25.7,34.6,25.7,34.6,25.7"/>
		<path class="st3" d="M34.3,56.4c1.3-0.2,5.2-1.8,6.5-2.9c1.5,0.1,2.1-1,3.1-1.6c-0.1-0.1-0.2-0.1-0.3-0.2c0.6-0.4,0.9-0.9,1.6-1.4
			c-0.1-0.1-0.3-0.2-0.5-0.2c1-0.4,0.3-0.8,1.3-1.5c0-0.1-0.1-0.1-0.2-0.1c0.6-0.4,0.6-1,1.2-1.6c-0.1-0.1-0.3-0.2-0.6-0.2
			c1.1-0.4,1-1.1,1.7-1.8c-0.1,0-0.2,0-0.5,0c0.6-0.5,0.4-1.1,0.9-1.9c-0.2-0.1-0.4-0.1-0.7-0.1c1-0.4,0.9-1.3,1.4-2.2
			c-0.1-0.1-0.2-0.1-0.4-0.1c0.8-0.8-0.2-0.5,0.4-2.1c-0.2-0.1-0.4-0.1-0.6,0c0.8-0.7,0.6-1.5,1.1-2.5c-0.5-0.1-1.7,0.7-2.1,1.4
			v-0.1c0.1-0.2,0.3-0.5,0.7-0.8c1.2-0.9,0.7-1.6,1.1-2.8c-0.6,0-1.6,0.9-1.9,1.6c0-0.1,0-0.1-0.1-0.2c0.2-0.3,0.2-0.7,0.9-1
			c1-0.6,0.7-1.6,1-2.7c-0.2,0-0.4,0-0.6,0.1c0.2-0.7-0.2-1.2-0.2-2.1c-0.6,0-1.3,1.1-1.4,1.8c0-0.1-0.1-0.2-0.2-0.3
			c0.1-0.3,0.1-0.6,0.6-1c1-1.2,0.2-1.8,0.3-3c-0.1,0-0.2,0-0.3,0.1c-0.1-0.6-0.5-1-0.5-1.7c-0.6,0.1-1.1,1.2-1,1.9
			c-0.1-0.1-0.2-0.2-0.3-0.3c0.1-0.3,0.1-0.6,0.5-1c0.6-1.1,0-1.7-0.1-2.8c-0.2,0-0.4,0.1-0.5,0.3c0-0.7-0.4-1.1-0.7-1.9
			c-0.4,0.1-0.7,0.6-0.9,1.1c0-0.2,0-0.5,0.1-0.8c0-1.5-0.6-1.6-1.1-2.8c-0.2,0.1-0.3,0.5-0.5,0.9c-0.2-1-0.6-1.2-1.1-2.2
			c-0.3,0.3-0.5,1.3-0.4,1.9c-0.1-0.2-0.1-0.5,0-0.9c-0.1-1.2-0.7-1.6-1.3-2.3c0.3,0,0.6-0.1,0.9-0.4c0,0-0.5,0-0.8-0.1
			c-0.3-0.1-0.5-0.5-0.8-0.6c-0.3-0.2-0.6,0-1.2-0.3l2.9-0.6c0,0-2.9-0.6-2.9-0.6s0.2-0.2,0.5-0.2c0.3,0,0.6,0,0.9-0.3
			c0.1-0.2,0.5-0.6,1.3-0.5c-0.7-0.4-1-0.3-1.6-0.1c-0.4,0.3-0.6,0-1.3,0.1c0,0,2.4-1.5,2.4-1.6l-2.9,0.6c0.5-0.7,0.9-0.4,1.2-1.2
			c0.1-0.2,0.4-0.6,0.9-0.8c-0.5-0.2-1.1,0.2-1.7,0.8c-0.2,0.1-0.7,0.3-1,0.4c0,0,1.6-2.4,1.6-2.4s-1.7,1.2-2.4,1.6v0
			c0.1-0.7,0.5-0.6,0.6-1.3c0-0.2,0-0.8,0.5-1.4c-0.7,0.2-1,0.6-1.2,1.4c-0.1,0.3-0.5,0.4-0.8,0.7c0,0,0.6-2.9,0.6-2.9l-1.6,2.4
			c0,0-0.1-0.1-0.1-0.4c0.2-0.5,0.2-0.7,0.2-1c-0.2-0.4-0.4-0.9,0-1.5c-0.9,0.6-0.5,1.3-0.8,1.9c-0.1,0.2-0.3,0.5-0.4,0.8L33,6.2
			l-0.6,2.8C32,8.6,32.2,8.4,32.1,8c-0.3-0.5-0.7-0.4-0.7-1.6c-0.2,0.4-0.4,0.7,0.1,1.9c0.1,0.1-0.1,0.7,0,1l-1.6-2.4l0.6,2.9
			c-0.4,0-0.5-0.7-0.8-0.9c-0.4-0.3-1-0.2-1.3-1.2c-0.1,0.6,0.1,1,0.7,1.6c0.2,0.3,0.4,0.8,0.4,1.1L27,8.6l1.7,2.4
			c-0.6,0.1-0.6-0.7-1.6-0.6c-0.7,0-1.1-0.6-1-0.5c0.3,1.3,1.2,0.9,1.6,1.4c0.1,0.1,0.5,0.5,0.5,0.6l-2.8-0.6l2.5,1.6
			c-0.4,0.2-1-0.3-1.5-0.1c-0.9,0.5-1.4,0-1.5,0c0.6,0.7,0.9,0.6,1.5,0.6c0.4,0,0.7,0.2,1.2,0.4l-2.9,0.6l2.9,0.5
			c-0.3,0.3-0.9,0.1-1.3,0.4c-0.9,1-1.7,0.4-1.4,0.6c0.7,0.5,1.1,0.4,1.6,0.2c-0.3,0.2-0.5,0.4-0.7,0.7c0-0.2-0.1-0.4-0.2-0.5
			c-0.5,0.8-1.2,0.9-1.5,1.9c-0.1-0.3-0.2-0.5-0.3-0.6c-0.5,0.9-1,1-1.2,2c-0.1-0.3-0.2-0.5-0.3-0.5c-0.5,1.1-1.3,1.4-1,2.8
			c0.1,0.4,0.1,0.6,0.1,0.8c-0.1-0.6-0.4-1.2-0.8-1.2c-0.4,0.6-0.7,1.1-0.8,1.8c-0.1-0.1-0.3-0.2-0.4-0.2c-0.1,1.1-1,1.5-0.1,2.8
			c0.4,0.4,0.4,0.8,0.4,1.1c-0.1,0-0.1,0.1-0.1,0.2c0.1-0.7-0.6-1.7-1.1-1.8c-0.1,0.8-0.5,1.2-0.4,1.9c-0.2-0.1-0.3-0.1-0.4-0.1
			c0.1,1.1-0.7,1.6,0.3,2.7c0.5,0.4,0.5,0.7,0.6,0.9c-0.1,0.1-0.1,0.2-0.2,0.3c-0.1-0.7-0.8-1.7-1.3-1.7c0.1,1.3-0.5,1.2-0.1,2.1
			c-0.2-0.1-0.4-0.2-0.6-0.2c0.3,1.1,0,2,1,2.7c0.6,0.3,0.7,0.7,0.8,1c0,0.1-0.1,0.1-0.1,0.2c-0.2-0.7-1.3-1.6-1.8-1.6
			c0.3,1,0.1,1.9,0.7,2.5c-0.3-0.2-0.7-0.3-1-0.2c0.5,1.1,0.2,1.7,1.3,2.7c-0.3-0.2-0.7-0.2-0.9-0.1c0.3,0.8,0.2,1.3,0.5,1.9
			c-0.2,0-0.3,0-0.4,0.1c0.6,0.9,0.4,1.6,1.3,2.2c-0.2,0-0.4,0-0.5,0.1c0.4,0.7,0.4,1.2,0.8,1.7c-0.1,0-0.2,0-0.3,0.1
			c0.7,0.7,0.7,1.4,1.5,1.8c-0.2,0-0.4,0-0.5,0.1c0.5,0.6,0.7,1.1,1.3,1.5c-0.2,0-0.4,0.1-0.5,0.2c0.8,0.6,0.9,1.2,1.7,1.5
			c-0.2,0-0.4,0.1-0.5,0.2c1,0.8,0.4,1.1,1.3,1.5c-0.1,0.1-0.1,0.1-0.2,0.1c1.1,0.6,1.2,1.9,3.5,1.9h0c1.1,1.2,4.2,2.7,6.4,2.9
			L34.3,56.4z M48.7,39.1c-0.3,0.7,0,1.2-0.6,1.7c-0.5,0.1-0.4,0.2-0.5,0.4c0.1-0.3,0.2-0.5,0.3-0.7c-0.2,0.1-0.4,0.3-0.5,0.5
			c-0.1-0.1-0.3-0.1-0.5-0.5c-0.3-0.6-0.1-0.9-0.2-1.5c0.3,0.5,0.8,1.1,0.9,1.4C47.7,39.7,48.4,39,48.7,39.1 M47.5,39.4
			c0.1-0.2,0.3-0.4,0.6-0.6c-0.3,0.2-0.5,0.5-0.6,0.8C47.5,39.6,47.5,39.5,47.5,39.4 M49,36.6c-0.4,0.8-0.1,1.2-0.8,1.8
			c-0.5,0.2-0.5,0.3-0.6,0.5c0.1-0.3,0.2-0.5,0.4-0.8c-0.2,0.2-0.4,0.3-0.5,0.5c-0.1-0.1-0.3,0-0.5-0.4c-0.3-0.5,0-0.8-0.1-1.4
			c0.3,0.4,0.8,0.8,0.8,1.2C47.9,37.5,48.8,36.6,49,36.6 M47.7,35.9c0.1-0.6,0.8-1.6,1.1-1.6c-0.2,0.8,0.1,1.1-0.5,1.9
			c-0.5,0.3-0.4,0.4-0.5,0.6c0-0.3,0.1-0.6,0.3-0.8c-0.2,0.2-0.3,0.4-0.4,0.6c-0.1,0-0.3,0-0.6-0.3c-0.4-0.5-0.2-0.8-0.3-1.3
			C47.1,35.2,47.6,35.6,47.7,35.9 M46.9,34.2c0.3,0.3,0.5,0.4,0.6,0.7c-0.2-0.2-0.4-0.3-0.6-0.5C46.9,34.4,46.9,34.3,46.9,34.2
			 M48.8,31.9c-0.2,0.8,0.1,1.1-0.5,1.8c-0.5,0.2-0.4,0.4-0.5,0.5c0.1-0.3,0.1-0.6,0.3-0.8c-0.2,0.2-0.3,0.3-0.4,0.6
			c-0.1-0.1-0.3,0-0.6-0.4c-0.4-0.5-0.2-0.8-0.3-1.3c0.4,0.4,1,0.7,1,1.1C47.8,32.9,48.5,31.9,48.8,31.9 M47.6,31.7
			c0-0.5,0.5-1.6,0.8-1.6c-0.1,0.8,0.3,1.1-0.2,1.8c-0.4,0.3-0.3,0.4-0.4,0.6c0-0.3,0-0.5,0.1-0.8c-0.2,0.2-0.3,0.4-0.3,0.6
			c-0.1-0.1-0.3,0.1-0.7-0.3c-0.5-0.4-0.3-0.7-0.6-1.2C46.8,31.2,47.5,31.4,47.6,31.7 M46,42.3c0-0.1,0.1-0.3,0.1-0.4
			c0,0,0,0.1,0,0.1c0.3,1,0.6,1,0.5,1.7c0,0,0,0.1,0,0.1C46.6,43.3,46.2,42.8,46,42.3 M44.8,47.1c0-0.3-0.2-0.6-0.3-1
			c0-0.1,0.1-0.2,0.2-0.3C44.7,46.5,44.9,46.7,44.8,47.1 M45.8,46.9c-0.4,0.1-0.8,0.3-1,0.5c0,0,0-0.1,0-0.1
			C45.1,47.2,45.2,46.9,45.8,46.9 M43.9,45.5c0,0-2.4,0.4-5.4-1.6c0.2-0.3,0.4-1.1,0.2-1.6c-0.1-0.4-0.1-0.1-0.2,0.2
			c-0.3,0.7-0.5,0.8-0.8,1c-0.9-0.9-1-0.9-2.1-1.6c-0.8-0.4-0.9-0.7-1.3-1c-0.8,0.4-2,1.1-2.6,0.7c-0.5-0.3,0.6-0.6,1-1.2
			c0.4-0.5,0.8-0.7,1.5-0.5c1.2,0.3,1.8,0.7,3.6,1.5c2.2,0.2,3.8,0.8,6.1,1.3c0.4,0.1,0.9,0.2,1.2,0.2
			C44.8,43.7,44.5,44.3,43.9,45.5 M34.2,43.1c0.7,0.7,1.3,0.9,1.7,1.8c-0.1,0.3-0.4,0.3-0.7,0.2c-1-1.1-1.9-1.3-1.5-1.8
			c-0.2,0-0.4,0.2-0.3,0.4c0.2,0.8,1.1,1.1,1.3,1.8c-0.1,0.5-1.2,0.1-1.7-1.3l0-0.1c-0.2,0.4-0.4,0.5,0.3,1.4
			c0.2,0.3,0.3,0.7-0.3,0.6c0.1,0.1-0.3,0-0.1,0h0.1c0,0,0,0-0.1-0.1c0.3-1.4-1-1.1-1-1.1c0.2-0.5-0.5-1-1.2-0.7
			c0.1-0.4-0.7-0.9-1.7-0.5c-0.2-0.4-1.1-0.7-2,0.4c-1.6,0.1-4.2,1.5-5.8,0.8c-0.1,0.1-1-2.6-1-2.6c1.8-0.2,6-0.5,7.5-1.1
			c1.2-0.8,3.3-1.1,3.8-0.9c0,0.4-1,1.1-0.5,1.5c0.8,0.8,2.1,0.4,3-0.1c0.9,0.9,2.4,1.1,3,2.3l-0.2,0.4c-0.3,0.2-0.3,0.2-0.7-0.3
			c-0.9-1.2-1.7-0.9-1.9-1.7C34,42.6,34.2,42.9,34.2,43.1 M30,45.5c-0.3,0.1,0.1-0.2,0.3-0.3l0.1-0.2c0.3-0.3,0.7-0.6,0.9-0.1
			c0.1,0.3-0.9,0.9-1.1,1C30,46,30,46,29.8,45.9C29.7,45.7,29.8,45.5,30,45.5 M29,45.4c-0.2,0-0.3,0.1-0.5-0.1
			c-0.1-0.2,0.3-0.6,0.4-0.7c0.1-0.1,0.2-0.2,0.3-0.2l0.2-0.2c0.4-0.1,0.4,0,0.4,0.2C30,44.6,29.2,45.4,29,45.4 M31.7,45.6
			c0,0,0.4-0.5,0.6,0.2c0.1,0.3-0.4,0.6-0.8,0.7C31.2,46.3,30.7,46.3,31.7,45.6 M27.9,44.7c-0.2,0.1-0.4-0.2-0.3-0.3l0.2-0.3
			c0.3-0.1,0.5-0.3,0.6-0.1C28.5,44.1,28.1,44.6,27.9,44.7 M20.9,45.8c-0.1,0.1-0.1,0.2-0.2,0.3c0-0.1,0.1-0.3,0.1-0.4
			C20.9,45.7,20.9,45.7,20.9,45.8 M20.6,47c-0.1-0.2-0.4-0.3-0.6-0.4c0.2,0.1,0.4,0.2,0.6,0.2C20.6,46.9,20.6,47,20.6,47 M19.1,43.4
			C19,43.4,19,43.4,19.1,43.4c-0.1-0.7,0.1-0.8,0.4-1.7c0,0.1,0.1,0.2,0.1,0.4C19.3,42.5,19,43,19.1,43.4 M19.2,30.3
			c-0.1,0.1-0.3,0.1-0.5,0.2c0.1-0.1,0.3-0.2,0.5-0.4C19.2,30.2,19.2,30.3,19.2,30.3 M19.3,35.9h12.7v3.7c-0.6-0.1-1.6-0.1-2.4,0
			c-2.3,0.4-1.6,1.6-9.6,1.7C19.3,38.9,19.3,35.9,19.3,35.9 M27.2,17.4c0.1-0.1,0.3-0.1,0.3-0.6c0.3-1,0.9-0.9,1.6-1.4
			c0.2,0.3-0.6,1.4-1.1,1.8c0.3-0.1,0.8,0.4,1.3,0.5c-0.6,0.1-0.8,0.4-1.4,0.2c-0.4-0.1-0.4-0.3-0.5-0.4c0.2-0.2,0.3-0.4,0.5-0.6
			C27.7,17.1,27.5,17.2,27.2,17.4 M37,17c-0.2,0-0.4-0.1-0.6-0.2c0.3-0.1,0.6-0.2,0.9-0.4c0.5,0.1,1,0.4,1.1,0.8
			c-0.5-0.1-0.6,0.2-1.2,0.3c-0.6,0.1-1-0.2-1.5-0.4c-0.2-0.1-0.2-0.3-0.2-0.3c0.3,0.1,0.6,0.1,0.9,0l0,0.1
			C36.4,17.1,36.7,17.1,37,17 M34.9,16.2c0.3,0,0.6-0.1,0.8-0.2c-0.2,0-0.4,0-0.6,0c0.4-0.2,0.7-0.6,1.2-0.5c0.7,0,0.7,0.4,1.1,0.2
			C37.5,16.1,35.5,17,34.9,16.2 M33.9,16.1c0.3,0.1,0.7,0.7,1.1,1.1c-0.5-0.2-0.8,0-1.3-0.4c-0.3-0.3-0.3-0.5-0.3-0.6
			c0.2-0.1,0.4-0.2,0.5-0.4c-0.2,0.1-0.5,0.2-0.7,0.2c0.1-0.1,0.3,0,0.5-0.5c0.7-0.6,1-0.3,1.8-0.4C35.3,15.4,34.5,16,33.9,16.1
			 M32.3,16.2c0.3,0,0.7,0.5,1.2,0.8c-0.6,0-0.8,0.2-1.3-0.1c-0.4-0.2-0.4-0.4-0.5-0.5c0.2-0.1,0.4-0.3,0.5-0.5
			c-0.2,0.2-0.4,0.3-0.7,0.4c0.1-0.1,0.3-0.1,0.4-0.6c0.6-0.7,0.8-0.4,1.6-0.8C33.5,15.2,32.8,16,32.3,16.2 M31.1,17.2
			c-0.6,0-0.8,0.3-1.3,0c-0.4-0.2-0.4-0.4-0.5-0.5c0.2-0.1,0.4-0.3,0.5-0.6c-0.2,0.2-0.4,0.3-0.7,0.5c0.1-0.1,0.3-0.1,0.4-0.6
			c0.5-0.8,0.9-0.6,1.6-0.9c0,0.3-0.7,1.2-1.3,1.4C30.2,16.5,30.7,17,31.1,17.2 M40.3,19.9c0.1,0,0.1,0,0.2,0
			C40.5,19.9,40.4,20,40.3,19.9C40.4,20,40.3,19.9,40.3,19.9 M45,26.4c0.1,0.1,0.2,0.2,0.3,0.2c-0.1,0-0.2-0.1-0.3-0.1
			C45.1,26.5,45.1,26.4,45,26.4 M38.3,40.7c-1.3-0.2-2.9-1.7-4.8-1.6v-3.2h12.7c0,0.4-0.2,3.8-0.9,6.1C42.8,42,40.4,40.6,38.3,40.7
			 M46.3,30.2c0.2,0.2,0.4,0.3,0.5,0.4c-0.2-0.1-0.3-0.2-0.5-0.2C46.3,30.3,46.3,30.2,46.3,30.2 M47.8,27.8c0,0.8,0.4,1.1-0.2,1.8
			c-0.4,0.3-0.3,0.4-0.4,0.5c0-0.3,0-0.5,0.1-0.8c-0.1,0.2-0.3,0.4-0.3,0.6c-0.1,0-0.3,0.1-0.7-0.3c-0.5-0.4-0.3-0.7-0.6-1.3
			c0.5,0.4,1.1,0.6,1.2,0.9C47,28.8,47.5,27.8,47.8,27.8 M46.5,27.7c-0.1-0.5,0.2-1.6,0.5-1.7c0.1,0.8,0.6,1,0.2,1.8
			c-0.4,0.3-0.3,0.4-0.3,0.6c0-0.3-0.1-0.5,0-0.8c-0.1,0.2-0.2,0.4-0.2,0.6c-0.2,0-0.3,0.1-0.7-0.2c-0.6-0.4-0.5-0.7-0.8-1.2
			C45.6,27.2,46.3,27.4,46.5,27.7 M45.9,23.8c0.1,0.8,0.5,1,0.2,1.8c-0.4,0.3-0.3,0.4-0.3,0.6c-0.1-0.3-0.1-0.5,0-0.8
			c-0.1,0.2-0.2,0.4-0.2,0.6c-0.1,0-0.3,0.1-0.7-0.2c-0.6-0.4-0.5-0.7-0.8-1.2c0.5,0.3,1.2,0.5,1.4,0.8
			C45.3,24.9,45.7,23.9,45.9,23.8 M44.9,22.1c0.2,0.8,0.7,1,0.5,1.8c-0.3,0.3-0.2,0.4-0.2,0.6C45.1,24.3,45,24,45,23.8
			c-0.1,0.2-0.1,0.4-0.1,0.6c-0.2,0-0.3,0.1-0.7-0.1c-0.6-0.3-0.6-0.6-1.1-1.1c0.6,0.3,1.3,0.4,1.6,0.6
			C44.5,23.3,44.6,22.2,44.9,22.1 M44.3,23.4c-0.1-0.1-0.2-0.2-0.4-0.3C44,23.1,44.1,23.2,44.3,23.4C44.3,23.3,44.3,23.3,44.3,23.4
			 M43.4,20c0.3,0.8,0.6,0.7,0.6,1.7c-0.2,0.5-0.1,0.6,0,0.8c-0.1-0.3-0.3-0.5-0.3-0.8c0,0.2,0,0.5,0,0.8c-0.1,0-0.2,0.2-0.6,0.1
			c-0.6-0.1-0.6-0.5-1.1-0.9c0.5,0.1,1.2,0,1.4,0.2C43.2,21.3,43.2,20.2,43.4,20 M42.1,20.4c-0.3-0.5-0.4-1.5-0.2-1.8
			c0.4,0.7,0.7,0.6,0.8,1.5c-0.1,0.5,0,0.6,0,0.8c-0.2-0.2-0.3-0.5-0.4-0.8c0,0.3,0,0.5,0.1,0.7c-0.1,0-0.2,0.2-0.6,0.2
			c-0.6,0-0.7-0.4-1.2-0.7C41.2,20.4,41.8,20.2,42.1,20.4 M40,16.9c0.5,0.7,0.9,0.6,1,1.6c-0.1,0.5,0,0.5,0,0.7
			c-0.2-0.2-0.3-0.4-0.4-0.7c0,0.3,0,0.5,0.1,0.7c-0.1,0-0.2,0.2-0.7,0.2c-0.6,0-0.7-0.4-1.2-0.6c0.6,0,1.2-0.2,1.5-0.1
			C40.1,18.3,39.9,17.2,40,16.9 M39.7,16.4c0,0.1,0,0.2-0.1,0.3c-0.1-0.1-0.2-0.3-0.3-0.3C39.5,16.4,39.6,16.4,39.7,16.4 M39.5,17.1
			c-0.1,0.6,0.1,0.5,0.2,0.8c-0.1,0-0.1,0-0.1,0c-0.2-0.2-0.4-0.4-0.5-0.6c0.1,0.4,0.1,0.6,0.3,0.8c-0.1,0.1-0.2,0.2-0.4,0.2
			c-0.8,0.1-0.9-0.1-1.2-0.3c0.5-0.2,0.7-0.5,1.2-0.3c0,0,0-0.1,0-0.2c0,0,0,0,0,0l0,0c-0.1-0.2-0.2-0.4-0.4-0.5
			c-0.2-0.4-0.4-0.8-0.3-1C38.7,16.4,39.3,16.2,39.5,17.1 M39,15.8h-0.6c-0.1-0.1-0.1-0.1-0.2-0.2C38.5,15.6,38.9,15.7,39,15.8
			 M28.1,15.2c0.6-0.2,0.7-0.4,0.7-0.4L27,14.4l1.8-0.4c0,0,0-0.1-1.1-0.4c-0.2-0.1,0-0.3-0.9-0.5c0.3-0.1,0.2,0.1,0.8,0.2
			c0.4,0,0.7,0.1,1.3-0.1c0,0-1.1-0.8-1.8-1.2c0,0,1.2,0.3,2.1,0.5c0-0.1-0.7-0.7-1.2-1.3c-0.1-0.1-0.1-0.2-0.3-0.3
			c0.5,0.2,0.5,0.3,0.8,0.5c0.3,0.1,0.9,0.5,1.1,0.4c-0.5-0.7-1.3-1.8-1.3-1.8l1.8,1.3c-0.1-0.5-0.4-0.8-0.4-1
			c-0.2-0.8-0.2-0.7-0.3-1c0.5,0.8,0.7,1.2,1.4,1.6l-0.3-2.3l1.1,2c0.1-0.3,0-0.8,0-1c0.1-1,0.1-0.4,0-1.2c0.1,0.4,0.1,0.4,0.2,0.9
			c0.2,0.4,0.3,0.8,0.6,1.2l0.5-2.1c0,0,0.4,2.1,0.3,2.2c0.2-0.4,0.2-0.7,0.4-1c0.3-0.6,0.5-1.1,0.5-1.1C33.9,9.3,34,9,33.9,9.5
			c0,0.5,0,1.1,0.1,1.2l1.3-1.9L34.8,11c0.1-0.1,0.7-0.7,1.2-1.1c0.1-0.1,0.4-0.5,0.4-0.5c-0.3,0.4-0.4,0.6-0.6,1
			c-0.2,0.5-0.2,0.4-0.4,1.1l1.9-1.3L36,12c0,0,0.1,0,1-0.4c0.5-0.1,0.9-0.3,1.2-0.5c-0.6,0.6-0.9,0.5-1.7,1.6l2.1-0.4
			c0,0-1.8,1.1-1.9,1.1c0.1,0.1,0.8-0.1,1.4,0c0.5,0,0.5,0,1-0.1c-0.6,0.2-0.7,0.1-1.3,0.3c-0.3,0.1-0.8,0.4-0.9,0.5l2.1,0.4
			c0,0-2.1,0.5-2.5,0.6c-0.1,0-0.2,0-0.4,0c-0.1,0-0.2,0-0.3,0c0.1-0.1,0.1-0.3,0.1-0.5c-0.7,0.2-1.4,0-2,0.1c0.1-0.2,0.1-0.3,0-0.4
			c-0.9,0.4-1.6,0.2-2.4,0.8c0-0.2,0-0.4-0.1-0.6c-0.8,0.4-1.4,0.2-2,0.6c0-0.2,0-0.3,0-0.4c-0.8,0.3-1.4,0.4-2,1
			c-0.1,0-0.3,0-0.5-0.1c0,0,0-0.1-0.1-0.1c0,0-0.1,0-0.1,0.1c-0.1,0-0.2,0-0.4,0C27.3,15.5,27.8,15.4,28.1,15.2 M25.6,17.8
			c0.2-0.8,0.7-0.7,1.2-1.3c0.1,0.2-0.3,1.3-0.7,1.6c0.3-0.1,0.9,0.2,1.5,0.3c-0.5,0.1-0.7,0.5-1.3,0.4c-0.5-0.1-0.5-0.3-0.6-0.3
			c0.1-0.2,0.2-0.4,0.2-0.6c-0.1,0.2-0.3,0.4-0.5,0.6C25.5,18.3,25.6,18.3,25.6,17.8 M26.7,17.9C26.7,17.9,26.7,17.9,26.7,17.9
			C26.6,17.9,26.6,17.9,26.7,17.9L26.7,17.9z M24.2,18.9c0.1-0.9,0.5-0.9,1-1.6c0.2,0.2-0.1,1.4-0.4,1.8c0.3-0.2,0.9,0.1,1.5,0.1
			c-0.5,0.2-0.6,0.6-1.2,0.6c-0.5,0-0.5-0.2-0.6-0.2c0.1-0.2,0.1-0.5,0.1-0.7c-0.1,0.3-0.2,0.5-0.4,0.7
			C24.2,19.4,24.3,19.4,24.2,18.9 M23.8,19.7c0,0.1-0.1,0.3-0.1,0.3c0,0,0,0,0,0C23.8,20,23.8,19.8,23.8,19.7 M22.7,20.2
			c0.1-1,0.4-0.9,0.8-1.6c0.2,0.2,0.1,1.3-0.2,1.8c0.3-0.2,0.9,0,1.4,0c-0.5,0.3-0.6,0.7-1.1,0.7c-0.5,0-0.5-0.1-0.6-0.2
			c0.1-0.2,0.1-0.5,0.1-0.7c-0.1,0.3-0.2,0.5-0.4,0.7C22.7,20.7,22.8,20.7,22.7,20.2 M22,20.1c0.2,0.2,0.2,1.3-0.1,1.8
			c0.3-0.2,0.9-0.1,1.4-0.2c-0.4,0.4-0.5,0.7-1.1,0.9c-0.4,0.1-0.5-0.1-0.6-0.1c0.1-0.2,0.1-0.5,0.1-0.7c0,0.3-0.2,0.6-0.3,0.8
			c0-0.2,0.1-0.3,0-0.7C21.4,20.8,21.7,20.9,22,20.1 M21.1,23.4c0.1-0.1,0.2-0.1,0.3-0.2C21.2,23.3,21.1,23.4,21.1,23.4
			C21.1,23.5,21.1,23.4,21.1,23.4 M20.5,22.3c0.3,0.1,0.4,1.1,0.2,1.6c0.3-0.3,0.9-0.4,1.5-0.6c-0.4,0.4-0.4,0.8-1,1.1
			c-0.5,0.2-0.6,0.1-0.7,0.1c0-0.2,0-0.4-0.1-0.6c0,0.2-0.1,0.5-0.2,0.8c0-0.2,0.1-0.2-0.2-0.6C19.8,23.2,20.3,23,20.5,22.3
			 M19.3,25.7c-0.4-0.8,0.1-1,0.2-1.8c0.3,0.1,0.6,1.1,0.5,1.6c0.2-0.3,0.9-0.5,1.4-0.8c-0.3,0.5-0.2,0.8-0.8,1.2
			c-0.4,0.3-0.6,0.2-0.7,0.2c0-0.2-0.1-0.4-0.2-0.6c0.1,0.2,0,0.5,0,0.8C19.6,26.1,19.7,26,19.3,25.7 M20.5,26.4
			c0,0.1,0,0.1-0.1,0.2c-0.2,0.1-0.4,0.2-0.6,0.3C19.9,26.7,20.1,26.6,20.5,26.4 M18.5,26.1c0.3,0.1,0.6,1.1,0.5,1.6
			c0.2-0.3,0.9-0.5,1.4-0.7c-0.3,0.5-0.2,0.8-0.8,1.1c-0.4,0.3-0.6,0.2-0.7,0.2c0-0.2-0.1-0.4-0.2-0.6c0.1,0.2,0,0.5,0,0.8
			c0-0.2,0-0.3-0.3-0.6C18,27.1,18.4,26.9,18.5,26.1 M17.9,29.6c-0.5-0.7-0.1-1-0.2-1.8c0.3,0,0.8,1,0.8,1.5
			c0.1-0.3,0.8-0.6,1.2-0.9c-0.2,0.5-0.1,0.8-0.6,1.3c-0.3,0.3-0.5,0.2-0.7,0.3c0-0.2-0.2-0.4-0.3-0.6c0.1,0.2,0.1,0.5,0.1,0.8
			C18.3,29.9,18.4,29.8,17.9,29.6 M17.1,30.1c0.3,0.1,0.8,1,0.8,1.6c0.2-0.3,0.8-0.5,1.2-0.9c-0.2,0.5-0.1,0.8-0.6,1.2
			c-0.3,0.3-0.5,0.2-0.7,0.2c0-0.2-0.2-0.4-0.3-0.6c0.1,0.2,0.1,0.5,0.1,0.8c-0.1-0.2,0-0.3-0.4-0.5C16.8,31.1,17.2,30.9,17.1,30.1
			 M18,33.9c-0.1-0.2-0.3-0.4-0.4-0.6c0.2,0.2,0.2,0.5,0.3,0.8c-0.1-0.1-0.1-0.3-0.5-0.5c-0.6-0.7-0.4-0.8-0.6-1.6
			c0.3,0,1,0.8,1.1,1.3c0.1-0.3,0.6-0.6,1-1.1c-0.1,0.6,0.1,0.8-0.3,1.3C18.3,34,18.1,33.9,18,33.9 M18.7,34.1v0.3
			c-0.2,0.1-0.4,0.3-0.6,0.5C18.2,34.5,18.4,34.4,18.7,34.1 M16.7,34.3c0.3,0.1,1,0.9,1.1,1.4c0.1-0.3,0.6-0.6,1-1
			c-0.1,0.5,0.1,0.8-0.3,1.3c-0.3,0.3-0.5,0.3-0.6,0.3c-0.1-0.2-0.3-0.4-0.4-0.6c0.1,0.2,0.2,0.5,0.3,0.8c-0.1-0.2-0.1-0.3-0.5-0.5
			C16.7,35.3,16.9,35.2,16.7,34.3 M17.8,37.2L17.8,37.2c-0.1-0.2-0.4-0.5-0.7-0.8C17.6,36.7,17.7,36.9,17.8,37.2 M16.6,36.6
			c0.3,0,1.1,0.7,1.3,1.2c0-0.3,0.5-0.7,0.8-1.2c0,0.6,0.2,0.9-0.1,1.4c-0.2,0.4-0.4,0.3-0.5,0.4c-0.1-0.2-0.3-0.4-0.5-0.5
			c0.2,0.2,0.3,0.5,0.4,0.8c-0.1-0.1-0.1-0.3-0.6-0.5C16.3,37.2,17.5,38.5,16.6,36.6 M18.1,39.3c0,0.1,0,0.1,0,0.2
			c-0.1-0.3-0.4-0.6-0.7-0.8C17.6,38.9,17.9,39.1,18.1,39.3 M18,40.1c0.1-0.4,0.5-0.9,0.9-1.4c-0.1,0.6,0.1,0.8-0.2,1.5
			c-0.2,0.5-0.4,0.4-0.5,0.6c-0.1-0.2-0.3-0.3-0.5-0.5c0.2,0.2,0.3,0.4,0.3,0.7c-0.1-0.1-0.1-0.3-0.5-0.4c-0.7-0.5-0.4-0.7-0.6-1.5
			C17.1,39,17.9,39.6,18,40.1 M17,40.8c0.3-0.1,1.1,0.5,1.4,1c0-0.4,0.4-0.9,0.6-1.5c0,0.6,0.3,0.8,0.1,1.4
			c-0.1,0.5-0.3,0.5-0.4,0.6c-0.2-0.2-0.3-0.3-0.5-0.4c0.2,0.1,0.3,0.4,0.5,0.6c-0.2-0.1-0.1-0.2-0.6-0.2
			C17.2,41.9,17.4,41.4,17,40.8 M19.2,44c0-0.3,0.4-0.9,0.6-1.5c0,0.6,0.3,0.8,0.1,1.4c-0.1,0.5-0.3,0.5-0.4,0.6
			c-0.2-0.2-0.3-0.3-0.5-0.4c0.2,0.2,0.3,0.4,0.5,0.6c-0.2-0.1-0.1-0.2-0.6-0.2c-0.8-0.4-0.6-0.8-1-1.5C18,42.9,18.9,43.5,19.2,44
			 M18.2,44.8c0.2-0.1,1.3,0.3,1.6,0.7c-0.1-0.3,0.2-0.9,0.4-1.5c0.1,0.6,0.4,0.7,0.3,1.3c-0.1,0.5-0.2,0.5-0.3,0.6
			c-0.2-0.2-0.4-0.2-0.6-0.3c0.2,0.1,0.4,0.3,0.6,0.5C20,46.2,20,46,19.5,46.1C18.6,45.9,18.8,45.4,18.2,44.8 M19.2,46.8
			c0.2-0.1,1.3,0.3,1.6,0.8c-0.1-0.3,0.3-0.9,0.4-1.5c0.1,0.6,0.4,0.7,0.3,1.3c-0.1,0.5-0.3,0.5-0.4,0.6c-0.2-0.1-0.4-0.2-0.6-0.3
			c0.2,0.1,0.4,0.3,0.6,0.5c-0.2-0.1-0.2-0.2-0.7-0.2C19.6,47.8,19.7,47.4,19.2,46.8 M20,48.4c0.3-0.1,1.4,0.2,1.8,0.5
			c-0.1-0.3,0.1-0.9,0.2-1.5c0.2,0.5,0.6,0.6,0.5,1.2c0,0.5-0.2,0.5-0.3,0.6c-0.2-0.1-0.4-0.2-0.7-0.2c0.2,0.1,0.5,0.2,0.7,0.4
			c-0.2-0.1-0.2-0.2-0.7-0.1C20.6,49.4,20.6,48.9,20,48.4 M22.5,50.1c0,0.1,0,0.2,0.1,0.3c-0.2-0.2-0.5-0.3-0.9-0.4
			C22,49.9,22.3,50,22.5,50.1 M21,50.2c0.3-0.1,1.4,0.3,1.8,0.6c-0.1-0.3,0.1-0.9,0.2-1.4c0.2,0.5,0.6,0.7,0.5,1.2
			c0,0.4-0.2,0.5-0.3,0.6c-0.2-0.1-0.4-0.2-0.7-0.2c0.3,0.1,0.5,0.3,0.7,0.5c-0.2-0.1-0.2-0.2-0.7-0.1C21.6,51.1,21.7,50.7,21,50.2
			 M25.1,53c-0.2-0.1-0.4-0.3-0.7-0.2c-1-0.1-1.2-0.7-2-1.1c0.2-0.2,1.4,0.1,1.9,0.4c-0.2-0.3,0-0.8-0.1-1.4
			c0.3,0.5,0.7,0.5,0.7,1.1c0.1,0.5,0.1,0.8,0.2,1c-0.1-0.1-0.3-0.3-0.5-0.4C24.8,52.6,24.9,52.8,25.1,53 M23.9,51.6L23.9,51.6
			L23.9,51.6L23.9,51.6z M30.2,55.6c-2.1-0.6-4-1.7-4.5-2.4c-0.2-0.4-0.2-0.9-0.3-1.5c0,0,0,0,0,0c1.5,1.3,3.2,2.2,4.9,2.6h-0.2
			C29.6,55,29.9,55.4,30.2,55.6 M32.7,53.8c-5.9-0.1-9.3-4.9-10.6-7.2c-0.2-0.3,3.3-1.4,4.1-1.6l1-0.2c0,0.4,0.8,0.6,0.7,0.4
			c0.2,0.1-0.1,0.4,0.4,0.7c0.5,0.3,0.8,0.1,0.8,0c-0.3,0.3,0.7,0.8,1.3,0.5c-0.1,0.3,0.4,0.4,0.5,0.4c0.2,0.1,0.7,0.2,1.1,0V50
			c0.1,0.6,0.1,0.7,0.4,0.8c1.3,0.1,1-0.3,1.2-0.7c0-1.4-0.1-3.4-0.1-3.4c0.9-0.1,0.7-0.3,1-0.4c0.4,0.1,0.6,0.1,0.9-0.4
			c0.5,0,0.9-0.1,1-0.5c0.4,0.1,1-0.2,1.3-1c0.9,0.3,4,2,5.5,2.4C42.5,48,38.9,53.8,32.7,53.8 M42.9,50.4c0.1-0.1,0.3-0.1,0.5-0.1
			c-0.2,0.1-0.4,0.2-0.6,0.3C42.9,50.5,42.9,50.5,42.9,50.4 M41.4,51.9C41.4,51.9,41.4,51.9,41.4,51.9
			C41.4,51.9,41.4,51.9,41.4,51.9 M39.9,52c-0.1,0.6-0.2,1-0.3,1.3c-0.5,1-3.2,1.9-4.4,2.3c0.3-0.3,0.5-0.9,0.1-1.3h-0.1
			C36.9,53.9,38.5,53,39.9,52C39.9,51.9,39.9,51.9,39.9,52 M41.3,52.9c-0.4-0.1-0.7,0.2-0.9,0.3c0.2-0.2,0.4-0.5,0.5-0.6
			c-0.2,0.1-0.4,0.2-0.6,0.3c0-0.2,0-0.4,0.1-0.8c0.1-0.6,0.5-0.7,0.8-1.2c0,0.6,0.1,1.1-0.1,1.4c0.5-0.3,1.7-0.5,2-0.4
			C42.3,52.4,42.2,52.9,41.3,52.9 M42.8,51.6c-0.5-0.1-0.5,0.1-0.7,0.1c0.2-0.2,0.4-0.4,0.7-0.5c-0.2,0-0.5,0.1-0.7,0.2
			c-0.1-0.1-0.3-0.2-0.3-0.6c0-0.6,0.3-0.7,0.5-1.2c0.1,0.5,0.3,1.1,0.2,1.5c0.4-0.4,1.6-0.8,1.8-0.6C43.7,51,43.8,51.5,42.8,51.6
			 M43.9,49.9c-0.5-0.1-0.5,0-0.7,0.1c0.2-0.2,0.4-0.4,0.7-0.5c-0.3,0-0.5,0.1-0.7,0.2c0-0.1-0.3-0.2-0.3-0.7c0-0.6,0.3-0.7,0.6-1.2
			c0,0.6,0.3,1.2,0.2,1.5c0.4-0.4,1.5-0.7,1.8-0.5C44.8,49.3,44.9,49.8,43.9,49.9 M45,48.5c-0.5,0-0.5,0.1-0.7,0.2
			c0.2-0.2,0.3-0.4,0.6-0.5c-0.2,0.1-0.5,0.1-0.6,0.3c-0.1-0.1-0.3-0.1-0.4-0.6c-0.1-0.6,0.2-0.8,0.3-1.3c0.1,0.6,0.5,1.1,0.4,1.5
			c0.3-0.5,1.4-0.9,1.6-0.8C45.7,47.7,45.8,48.2,45,48.5 M46.1,46.4c-0.5,0-0.5,0.1-0.7,0.2c0.2-0.2,0.3-0.4,0.6-0.5
			c-0.2,0.1-0.5,0.1-0.6,0.3c-0.1-0.1-0.3-0.2-0.3-0.7c-0.1-0.6,0.2-0.8,0.3-1.4c0.1,0.6,0.5,1.2,0.4,1.5c0.3-0.4,1.4-0.9,1.6-0.7
			C46.8,45.7,46.9,46.2,46.1,46.4 M46.8,44.8c-0.5,0-0.5,0.1-0.6,0.2c0.1-0.2,0.3-0.5,0.5-0.6c-0.2,0.1-0.4,0.2-0.6,0.4
			c-0.1-0.1-0.3-0.1-0.4-0.6c-0.2-0.6,0.1-0.8,0.1-1.4c0.2,0.6,0.6,1.1,0.6,1.5c0.3-0.5,1.2-1,1.4-1C47.4,44,47.6,44.5,46.8,44.8
			 M47,43.3c0.1-0.1,0.2-0.1,0.4-0.2C47.3,43.1,47.1,43.2,47,43.3 M47.6,42.5c-0.5,0-0.5,0.2-0.6,0.3c0.1-0.2,0.3-0.5,0.5-0.6
			c-0.2,0.1-0.4,0.2-0.5,0.4c-0.1-0.1-0.3-0.1-0.4-0.6c-0.2-0.6,0-0.9,0.1-1.5c0.2,0.6,0.6,1.2,0.6,1.5c0.2-0.5,1.1-1.1,1.4-1
			C48.2,41.7,48.4,42.2,47.6,42.5"/>
		<path class="st4" d="M28.1,15.2c0.6-0.2,0.7-0.4,0.7-0.4L27,14.4l1.8-0.4c0,0,0-0.1-1.1-0.4c-0.2-0.1,0-0.3-0.9-0.5
			c0.3-0.1,0.2,0.1,0.8,0.2c0.4,0,0.7,0.1,1.3-0.1c0,0-1.1-0.8-1.8-1.2c0,0,1.2,0.3,2.1,0.5c0-0.1-0.7-0.7-1.2-1.3
			c-0.1-0.1-0.1-0.2-0.3-0.3c0.5,0.2,0.5,0.3,0.8,0.5c0.3,0.1,0.9,0.5,1.1,0.4c-0.5-0.7-1.3-1.8-1.3-1.8l1.9,1.3
			c-0.1-0.5-0.4-0.8-0.5-1c-0.2-0.8-0.2-0.7-0.3-1c0.5,0.8,0.7,1.2,1.5,1.6l-0.3-2.3l1.1,2c0.1-0.3,0-0.8,0-1c0.1-1,0.1-0.4,0-1.2
			c0.1,0.4,0.1,0.4,0.2,0.9c0.2,0.4,0.3,0.8,0.6,1.2l0.5-2.1c0,0,0.4,2.1,0.3,2.2c0.2-0.4,0.2-0.7,0.4-1c0.3-0.6,0.5-1.1,0.5-1.1
			C33.9,9.3,34,9,33.9,9.5c0,0.5,0,1.1,0.1,1.2l1.3-1.9L34.8,11c0.1-0.1,0.7-0.7,1.2-1.1c0.1-0.1,0.4-0.5,0.4-0.5
			c-0.3,0.4-0.4,0.6-0.6,1c-0.2,0.5-0.2,0.4-0.4,1.1l1.9-1.3L36,12c0,0,0.1,0,1-0.4c0.5-0.1,0.9-0.3,1.2-0.5
			c-0.6,0.6-0.9,0.5-1.7,1.6l2.1-0.4c0,0-1.8,1.1-1.9,1.1c0.1,0.1,0.8-0.1,1.4,0c0.5,0,0.5,0,1-0.1c-0.6,0.2-0.7,0.1-1.3,0.3
			c-0.3,0.1-0.8,0.4-0.9,0.5l2.1,0.4c0,0-2.1,0.5-2.5,0.6c-0.1,0-0.2,0-0.4,0c-0.1,0-0.2,0-0.3,0c0.1-0.1,0.1-0.3,0.1-0.5
			c-0.7,0.2-1.4,0-2,0.1c0.1-0.2,0.1-0.3,0-0.4c-0.9,0.4-1.6,0.2-2.4,0.8c0-0.2,0-0.4-0.1-0.6c-0.8,0.4-1.4,0.2-2,0.6
			c0-0.2,0-0.3,0-0.4c-0.8,0.3-1.4,0.4-2,1c-0.1,0-0.3,0-0.5-0.1c0,0,0-0.1-0.1-0.1c0,0-0.1,0-0.1,0.1c-0.1,0-0.2,0-0.4,0
			C27.3,15.5,27.8,15.4,28.1,15.2"/>
		<path class="st3" d="M35.8,12.9l0.2,0c0,0-0.1-1-1.9-0.9h-0.4c0,0-0.2,0.6-0.2,0.6l1.2-0.1C34.7,12.5,35.5,12.5,35.8,12.9"/>
		<path class="st3" d="M33.8,13.6c0,0,0.3-0.3,0.3-0.3s0,0,0.1,0c0,0,0,0.1,0,0.1c0,0.2,0.1,0.4,0.3,0.4c0,0,0.3,0,0.3,0
			c0.2-0.1,0.3-0.2,0.3-0.4c0,0,0-0.1,0-0.1c0.2,0,0.4,0.1,0.4,0.3l0.4,0c0,0-0.2-0.9-1.9-0.7c0,0-0.4,0.6-0.4,0.6
			C33.4,13.6,33.8,13.6,33.8,13.6"/>
		<path class="st3" d="M30,13.6l0.4,0c0.1-0.2,0.3-0.3,0.4-0.3c0,0,0,0.1,0,0.1c0,0.2,0.1,0.4,0.3,0.4c0,0,0.3,0,0.3,0
			c0.2-0.1,0.3-0.2,0.3-0.4c0,0,0,0,0-0.1c0.1,0,0.1,0,0.1,0s0.2,0.2,0.2,0.2c0,0,0.4,0,0.4,0c0,0-0.4-0.6-0.4-0.6
			C30.2,12.6,30,13.6,30,13.6"/>
		<path class="st3" d="M31,12.5l1.3,0.1c0,0-0.1-0.5-0.1-0.5h-0.3c-1.9-0.1-2.1,0.8-2.1,0.8l0.2,0C30.2,12.4,31,12.5,31,12.5"/>
		<path class="st5" d="M48.7,39.1c-0.3,0.7,0,1.2-0.7,1.7c-0.4,0.1-0.4,0.2-0.5,0.4c0.1-0.3,0.2-0.5,0.3-0.7
			c-0.2,0.1-0.4,0.3-0.5,0.5c-0.1-0.1-0.3-0.1-0.5-0.5c-0.3-0.6-0.1-0.9-0.2-1.5c0.3,0.6,0.8,1,0.9,1.4C47.7,39.7,48.5,39,48.7,39.1
			"/>
		<path class="st5" d="M49,36.6c-0.3,0.8-0.1,1.1-0.8,1.8c-0.5,0.2-0.5,0.3-0.6,0.5c0.1-0.3,0.2-0.6,0.4-0.8
			c-0.2,0.2-0.4,0.3-0.5,0.5c-0.1-0.1-0.3,0-0.5-0.4c-0.3-0.5,0-0.8-0.1-1.4c0.3,0.4,0.8,0.9,0.8,1.2C47.9,37.5,48.8,36.6,49,36.6"
			/>
		<path class="st5" d="M47.7,35.9c0.1-0.6,0.8-1.6,1.1-1.6c-0.2,0.8,0.1,1.1-0.5,1.9c-0.5,0.3-0.4,0.4-0.5,0.6
			c0.1-0.3,0.1-0.6,0.3-0.8c-0.2,0.2-0.3,0.4-0.4,0.6c-0.1,0-0.3,0-0.6-0.3c-0.4-0.5-0.2-0.8-0.3-1.3C47.1,35.3,47.6,35.6,47.7,35.9
			"/>
		<path class="st5" d="M48.8,31.9c-0.2,0.8,0.1,1.1-0.5,1.8c-0.5,0.2-0.4,0.4-0.5,0.5c0-0.3,0.1-0.6,0.3-0.8
			c-0.2,0.2-0.3,0.3-0.4,0.6c-0.1,0-0.3,0-0.6-0.4c-0.4-0.5-0.2-0.8-0.3-1.3c0.4,0.4,0.9,0.7,1.1,1.1C47.9,32.9,48.5,31.9,48.8,31.9
			"/>
		<path class="st5" d="M47.6,31.7c0-0.5,0.5-1.5,0.8-1.6c0,0.8,0.3,1.1-0.2,1.8c-0.4,0.3-0.3,0.4-0.4,0.6c0-0.3,0-0.5,0.1-0.8
			c-0.2,0.2-0.3,0.4-0.3,0.6c-0.1,0-0.3,0.1-0.7-0.3c-0.5-0.4-0.3-0.7-0.6-1.2C46.8,31.2,47.5,31.4,47.6,31.7"/>
		<path class="st5" d="M27.2,17.4c0.1-0.1,0.2-0.1,0.3-0.6c0.3-1,0.9-0.9,1.6-1.4c0.2,0.3-0.6,1.4-1.2,1.8c0.3-0.1,0.8,0.4,1.3,0.6
			c-0.6,0.1-0.8,0.4-1.4,0.2c-0.4-0.1-0.4-0.3-0.5-0.4c0.2-0.2,0.3-0.4,0.5-0.6C27.7,17.1,27.5,17.2,27.2,17.4"/>
		<path class="st5" d="M37,17c-0.2,0-0.4-0.1-0.6-0.1c0.3-0.1,0.6-0.2,0.9-0.4c0.6,0.1,1,0.4,1.1,0.8c-0.5-0.1-0.6,0.2-1.2,0.3
			c-0.6,0.1-1-0.2-1.5-0.3c-0.2-0.1-0.2-0.3-0.2-0.4c0.3,0.1,0.6,0.1,0.9,0l0,0.1C36.4,17.1,36.7,17.1,37,17"/>
		<path class="st5" d="M34.9,16.2c0.3,0,0.6-0.1,0.8-0.2c-0.2,0-0.4,0-0.6,0c0.4-0.2,0.6-0.6,1.2-0.5c0.7,0,0.7,0.4,1.2,0.2
			C37.5,16.1,35.5,17,34.9,16.2"/>
		<path class="st5" d="M33.9,16.1c0.3,0.1,0.7,0.7,1.1,1.1c-0.5-0.2-0.8,0-1.3-0.4c-0.4-0.3-0.3-0.5-0.3-0.6
			c0.2-0.1,0.4-0.2,0.5-0.4c-0.2,0.1-0.5,0.2-0.8,0.2c0.1-0.1,0.3,0,0.5-0.5c0.7-0.6,1-0.3,1.8-0.4C35.3,15.4,34.5,16,33.9,16.1"/>
		<path class="st5" d="M32.3,16.2c0.3,0,0.7,0.5,1.2,0.9c-0.6-0.1-0.8,0.2-1.3-0.1c-0.4-0.2-0.3-0.4-0.4-0.5
			c0.2-0.1,0.4-0.3,0.5-0.5c-0.2,0.2-0.5,0.3-0.7,0.4c0.1-0.2,0.3-0.1,0.4-0.6c0.6-0.7,0.8-0.4,1.6-0.8C33.5,15.2,32.8,16,32.3,16.2
			"/>
		<path class="st5" d="M31.1,17.2c-0.6,0-0.8,0.3-1.4,0c-0.4-0.2-0.4-0.4-0.5-0.5c0.2-0.1,0.4-0.3,0.5-0.6c-0.2,0.2-0.4,0.4-0.7,0.5
			c0.1-0.1,0.3-0.1,0.4-0.6c0.5-0.8,0.9-0.6,1.6-0.9c0,0.3-0.7,1.2-1.3,1.4C30.2,16.5,30.7,17,31.1,17.2"/>
		<path class="st5" d="M47.8,27.8c-0.1,0.8,0.4,1.1-0.2,1.8c-0.4,0.3-0.3,0.4-0.4,0.5c0-0.3,0-0.5,0.1-0.8c-0.2,0.2-0.3,0.4-0.3,0.6
			c-0.1-0.1-0.3,0-0.7-0.3c-0.5-0.4-0.4-0.7-0.6-1.3c0.5,0.4,1.1,0.6,1.3,0.9C47,28.8,47.5,27.8,47.8,27.8"/>
		<path class="st5" d="M46.6,27.7c-0.1-0.5,0.2-1.6,0.5-1.7c0.1,0.8,0.6,1,0.2,1.8c-0.4,0.3-0.3,0.4-0.3,0.6c-0.1-0.3-0.1-0.5,0-0.8
			c-0.1,0.2-0.2,0.4-0.2,0.6c-0.1,0-0.3,0.1-0.7-0.2c-0.6-0.4-0.5-0.7-0.8-1.2C45.7,27.2,46.3,27.4,46.6,27.7"/>
		<path class="st5" d="M45.9,23.8c0.1,0.8,0.6,1,0.2,1.8c-0.3,0.3-0.3,0.4-0.3,0.6c0-0.3-0.1-0.5,0-0.8c-0.1,0.2-0.2,0.4-0.2,0.6
			c-0.1,0-0.3,0.1-0.7-0.2c-0.6-0.4-0.5-0.7-0.8-1.2c0.5,0.3,1.2,0.5,1.4,0.8C45.3,24.9,45.7,23.9,45.9,23.8"/>
		<path class="st5" d="M44.9,22.2c0.2,0.8,0.7,0.9,0.5,1.8c-0.3,0.3-0.2,0.4-0.2,0.6C45.1,24.3,45,24,45,23.8
			c-0.1,0.2-0.1,0.4-0.1,0.7c-0.2,0-0.3,0.1-0.7-0.1c-0.6-0.3-0.6-0.6-1-1.1c0.6,0.2,1.3,0.4,1.5,0.7C44.5,23.3,44.6,22.3,44.9,22.2
			"/>
		<path class="st5" d="M43.4,20c0.3,0.8,0.6,0.7,0.6,1.7c-0.2,0.5-0.1,0.6,0,0.8c-0.1-0.3-0.2-0.5-0.3-0.8c0,0.2,0,0.5,0.1,0.8
			c-0.1,0-0.2,0.2-0.6,0.1c-0.6-0.1-0.6-0.5-1.1-0.9c0.5,0.1,1.2,0,1.4,0.2C43.2,21.3,43.2,20.2,43.4,20"/>
		<path class="st5" d="M42.1,20.4c-0.3-0.5-0.4-1.5-0.2-1.8c0.4,0.7,0.7,0.6,0.8,1.5c-0.1,0.5,0,0.6,0,0.7c-0.2-0.2-0.3-0.5-0.4-0.7
			c0,0.3,0,0.5,0.1,0.7c-0.1,0-0.2,0.2-0.6,0.2c-0.6,0-0.7-0.4-1.2-0.7C41.2,20.4,41.8,20.2,42.1,20.4"/>
		<path class="st5" d="M40,17c0.5,0.7,0.9,0.6,1,1.6c-0.1,0.5,0,0.5,0,0.7c-0.2-0.2-0.3-0.4-0.4-0.7c0,0.3,0.1,0.5,0.2,0.7
			c-0.1,0.1-0.2,0.3-0.7,0.2c-0.6,0-0.7-0.3-1.2-0.6c0.6,0,1.2-0.2,1.5-0.1C40.1,18.3,39.9,17.2,40,17"/>
		<path class="st5" d="M39.5,17.1c-0.1,0.5,0.1,0.5,0.2,0.7c-0.1,0-0.1,0-0.1,0c-0.2-0.2-0.4-0.4-0.5-0.6c0.1,0.4,0.1,0.6,0.3,0.8
			c0,0.1-0.2,0.1-0.4,0.2c-0.8,0-0.9-0.1-1.2-0.3c0.5-0.2,0.7-0.5,1.2-0.3c0,0,0-0.1,0-0.1h0c0,0,0,0,0,0c-0.1-0.2-0.2-0.3-0.4-0.5
			c-0.2-0.4-0.4-0.8-0.3-1C38.7,16.4,39.3,16.2,39.5,17.1"/>
		<path class="st5" d="M25.6,17.8c0.2-0.9,0.7-0.7,1.2-1.3c0.1,0.3-0.3,1.3-0.7,1.6c0.3-0.1,0.9,0.2,1.5,0.3
			c-0.5,0.2-0.7,0.5-1.3,0.4c-0.5-0.1-0.5-0.3-0.6-0.3c0.1-0.2,0.2-0.4,0.2-0.6c-0.1,0.2-0.3,0.4-0.5,0.6
			C25.5,18.3,25.6,18.3,25.6,17.8"/>
		<path class="st5" d="M24.2,18.9c0.1-0.9,0.6-0.9,1-1.5c0.1,0.2-0.1,1.4-0.4,1.8c0.3-0.2,0.9,0,1.5,0.1c-0.5,0.2-0.6,0.6-1.2,0.6
			c-0.5,0-0.5-0.2-0.6-0.2c0.1-0.2,0.1-0.4,0.1-0.7c-0.1,0.3-0.2,0.5-0.4,0.7C24.2,19.4,24.3,19.4,24.2,18.9"/>
		<path class="st5" d="M22.7,20.2c0.1-1,0.3-0.9,0.8-1.6c0.2,0.2,0.1,1.4-0.2,1.8c0.3-0.2,0.9,0,1.4,0c-0.5,0.3-0.6,0.7-1.2,0.7
			c-0.5,0-0.5-0.2-0.6-0.2c0.1-0.2,0.1-0.5,0.1-0.7c0,0.3-0.2,0.5-0.4,0.7C22.7,20.7,22.8,20.7,22.7,20.2"/>
		<path class="st5" d="M22,20.1c0.2,0.2,0.2,1.3-0.1,1.8c0.3-0.2,0.9-0.1,1.4-0.2c-0.5,0.4-0.5,0.7-1.1,0.9
			c-0.4,0.1-0.5-0.1-0.6-0.1c0.1-0.2,0.1-0.5,0.1-0.7c0,0.3-0.2,0.5-0.3,0.8c0-0.2,0.1-0.2-0.1-0.7C21.4,20.8,21.7,20.9,22,20.1"/>
		<path class="st5" d="M20.5,22.3c0.3,0.1,0.4,1.1,0.2,1.6c0.3-0.2,1-0.4,1.5-0.6c-0.4,0.4-0.4,0.8-1,1.1c-0.5,0.2-0.6,0.1-0.7,0.1
			c0-0.2,0-0.5-0.1-0.7c0,0.3-0.1,0.5-0.2,0.8c0-0.2,0.1-0.3-0.2-0.6C19.8,23.2,20.3,23,20.5,22.3"/>
		<path class="st5" d="M19.3,25.7c-0.4-0.8,0.1-1,0.2-1.8c0.3,0.1,0.6,1.1,0.5,1.6c0.2-0.3,0.9-0.5,1.4-0.8
			c-0.4,0.5-0.2,0.8-0.8,1.2c-0.4,0.3-0.6,0.2-0.7,0.2c0-0.2-0.1-0.4-0.2-0.6c0.1,0.2,0,0.5,0,0.8C19.6,26.1,19.7,26,19.3,25.7"/>
		<path class="st5" d="M18.5,26.1c0.3,0.1,0.6,1.1,0.5,1.6c0.2-0.3,0.9-0.5,1.4-0.8c-0.4,0.5-0.3,0.8-0.8,1.1
			c-0.4,0.3-0.6,0.2-0.7,0.2c0-0.2-0.1-0.4-0.2-0.6c0.1,0.2,0,0.5,0,0.8c0-0.2,0-0.3-0.3-0.6C18,27.1,18.4,26.9,18.5,26.1"/>
		<path class="st5" d="M18,29.6c-0.5-0.7-0.1-1-0.2-1.8c0.3,0,0.8,1,0.8,1.5c0.1-0.3,0.8-0.6,1.2-0.9c-0.3,0.5-0.1,0.8-0.6,1.2
			c-0.4,0.3-0.5,0.2-0.7,0.3c-0.1-0.2-0.2-0.4-0.3-0.6c0.1,0.2,0.1,0.5,0.1,0.8C18.3,30,18.4,29.8,18,29.6"/>
		<path class="st5" d="M17.2,30.1c0.3,0,0.8,1,0.8,1.6c0.2-0.3,0.8-0.5,1.2-0.9c-0.3,0.5-0.1,0.8-0.6,1.2c-0.4,0.3-0.5,0.2-0.7,0.3
			c0-0.2-0.2-0.4-0.3-0.6c0.1,0.2,0.1,0.5,0.1,0.8c-0.1-0.2,0-0.3-0.4-0.6C16.8,31.1,17.2,30.9,17.2,30.1"/>
		<path class="st5" d="M18,33.9c-0.1-0.2-0.3-0.4-0.4-0.6c0.1,0.2,0.2,0.5,0.3,0.7c-0.1-0.2-0.1-0.3-0.5-0.5
			c-0.6-0.7-0.4-0.9-0.6-1.6c0.3,0,1,0.8,1.1,1.3c0.1-0.3,0.6-0.6,1-1.1c-0.1,0.6,0.1,0.8-0.3,1.3C18.3,34,18.1,33.9,18,33.9"/>
		<path class="st5" d="M16.7,34.3c0.3,0.1,1,0.9,1.1,1.4c0.1-0.3,0.6-0.6,1-1c-0.1,0.5,0.1,0.8-0.3,1.3c-0.3,0.4-0.5,0.2-0.6,0.3
			c-0.1-0.2-0.3-0.4-0.4-0.6c0.1,0.2,0.2,0.5,0.3,0.8c-0.1-0.1-0.1-0.3-0.5-0.5C16.7,35.3,16.9,35.2,16.7,34.3"/>
		<path class="st5" d="M16.6,36.6c0.3,0,1.1,0.7,1.3,1.2c0-0.3,0.5-0.7,0.8-1.2c0,0.6,0.2,0.9-0.1,1.4c-0.2,0.4-0.4,0.3-0.5,0.4
			c-0.1-0.2-0.3-0.4-0.5-0.5c0.2,0.2,0.3,0.5,0.4,0.7c-0.1-0.1-0.1-0.3-0.6-0.5C16.3,37.2,17.5,38.5,16.6,36.6"/>
		<path class="st5" d="M18,40.1c0-0.4,0.5-0.9,0.8-1.4c-0.1,0.6,0.2,0.8-0.2,1.4c-0.2,0.5-0.4,0.4-0.5,0.6c-0.1-0.2-0.3-0.3-0.5-0.5
			c0.2,0.2,0.3,0.4,0.4,0.7c-0.1-0.1-0.1-0.3-0.5-0.4c-0.6-0.5-0.4-0.8-0.6-1.5C17.2,39,17.9,39.6,18,40.1"/>
		<path class="st5" d="M17,40.8c0.3-0.1,1.1,0.5,1.4,1c0-0.4,0.4-0.9,0.6-1.5c0,0.6,0.3,0.8,0.1,1.4c-0.2,0.5-0.4,0.5-0.4,0.6
			c-0.1-0.2-0.3-0.3-0.5-0.4c0.2,0.2,0.3,0.4,0.4,0.6c-0.1-0.1-0.1-0.2-0.6-0.2C17.2,41.9,17.4,41.4,17,40.8"/>
		<path class="st5" d="M19.2,44c0-0.4,0.4-0.9,0.6-1.5c0,0.6,0.3,0.8,0.1,1.4c-0.2,0.5-0.3,0.5-0.4,0.6c-0.1-0.2-0.3-0.3-0.5-0.4
			c0.2,0.2,0.3,0.4,0.5,0.6c-0.2-0.1-0.1-0.2-0.6-0.3c-0.8-0.4-0.6-0.8-1-1.5C18,42.9,18.9,43.5,19.2,44"/>
		<path class="st5" d="M18.3,44.8c0.2-0.1,1.3,0.3,1.6,0.7c-0.1-0.3,0.2-0.9,0.4-1.5c0.1,0.6,0.4,0.7,0.3,1.3
			c-0.1,0.5-0.3,0.5-0.3,0.6c-0.2-0.2-0.4-0.2-0.6-0.3c0.2,0.1,0.4,0.3,0.6,0.5c-0.2,0-0.2-0.2-0.7-0.2
			C18.6,45.9,18.8,45.4,18.3,44.8"/>
		<path class="st5" d="M19.2,46.8c0.2-0.1,1.3,0.3,1.6,0.8c-0.1-0.3,0.3-0.9,0.4-1.4c0.1,0.5,0.4,0.7,0.3,1.3
			c-0.1,0.5-0.3,0.5-0.3,0.6c-0.2-0.1-0.4-0.2-0.6-0.3c0.2,0.1,0.4,0.3,0.6,0.5c-0.2-0.1-0.2-0.2-0.7-0.2
			C19.6,47.8,19.7,47.4,19.2,46.8"/>
		<path class="st5" d="M20,48.4c0.3-0.2,1.3,0.1,1.8,0.5c-0.1-0.3,0.1-0.9,0.2-1.5c0.2,0.5,0.6,0.6,0.5,1.2c0,0.5-0.2,0.5-0.3,0.6
			c-0.2-0.1-0.4-0.2-0.7-0.2c0.2,0.1,0.5,0.2,0.7,0.4c-0.2,0-0.2-0.2-0.7-0.1C20.6,49.4,20.6,48.9,20,48.4"/>
		<path class="st5" d="M21,50.2c0.3-0.1,1.4,0.3,1.8,0.6c-0.1-0.3,0.1-0.9,0.2-1.4c0.2,0.5,0.5,0.7,0.5,1.2c0,0.4-0.2,0.5-0.3,0.6
			c-0.2-0.1-0.4-0.2-0.7-0.2c0.3,0.1,0.5,0.3,0.7,0.5c-0.2-0.1-0.2-0.2-0.7-0.1C21.6,51.1,21.7,50.7,21,50.2"/>
		<path class="st5" d="M25.1,53c-0.2-0.1-0.4-0.3-0.8-0.2c-1-0.1-1.2-0.7-1.9-1.1c0.2-0.2,1.4,0.1,1.9,0.4c-0.2-0.3,0-0.9-0.1-1.4
			c0.3,0.5,0.7,0.6,0.7,1.1c0.1,0.5,0.1,0.8,0.2,1.1c-0.2-0.2-0.3-0.3-0.5-0.4C24.8,52.6,24.9,52.8,25.1,53"/>
		<path class="st5" d="M41.3,52.9c-0.4-0.1-0.7,0.2-0.9,0.3c0.2-0.2,0.4-0.5,0.5-0.6c-0.2,0-0.4,0.1-0.6,0.3c0-0.2,0-0.4,0-0.8
			c0.1-0.6,0.5-0.7,0.8-1.2c-0.1,0.6,0.1,1.2-0.1,1.4c0.5-0.3,1.7-0.5,1.9-0.4C42.3,52.4,42.2,52.9,41.3,52.9"/>
		<path class="st5" d="M42.8,51.6c-0.5-0.1-0.5,0.1-0.7,0.1c0.2-0.2,0.4-0.4,0.7-0.5c-0.3,0-0.5,0.1-0.7,0.2
			c-0.1-0.1-0.3-0.2-0.3-0.6c0-0.6,0.3-0.7,0.6-1.2c0.1,0.6,0.3,1.1,0.2,1.5c0.4-0.4,1.6-0.8,1.8-0.6C43.7,51,43.8,51.5,42.8,51.6"
			/>
		<path class="st5" d="M43.9,49.9c-0.5-0.1-0.5,0-0.7,0.1c0.2-0.2,0.4-0.4,0.7-0.5c-0.2,0-0.5,0.1-0.7,0.2c-0.1-0.1-0.3-0.2-0.3-0.6
			c0-0.6,0.3-0.7,0.6-1.3c0,0.6,0.3,1.2,0.2,1.5c0.4-0.4,1.5-0.7,1.8-0.5C44.8,49.3,44.9,49.8,43.9,49.9"/>
		<path class="st5" d="M45,48.5c-0.5,0-0.5,0.1-0.7,0.2c0.2-0.2,0.3-0.4,0.6-0.5c-0.2,0-0.5,0.1-0.6,0.3c-0.1-0.1-0.3-0.1-0.4-0.6
			c-0.1-0.6,0.2-0.8,0.3-1.3c0.2,0.6,0.5,1.1,0.4,1.5c0.3-0.4,1.4-0.9,1.6-0.8C45.7,47.7,45.8,48.2,45,48.5"/>
		<path class="st5" d="M46.1,46.4c-0.5-0.1-0.5,0.1-0.7,0.2c0.2-0.2,0.4-0.4,0.6-0.5c-0.2,0.1-0.4,0.1-0.6,0.3
			c-0.1-0.1-0.3-0.2-0.3-0.7c-0.1-0.6,0.2-0.8,0.3-1.4c0.1,0.6,0.5,1.2,0.4,1.6c0.3-0.5,1.4-0.9,1.6-0.7
			C46.8,45.7,46.9,46.2,46.1,46.4"/>
		<path class="st5" d="M46.9,44.8c-0.5,0-0.5,0.2-0.6,0.2c0.1-0.2,0.3-0.5,0.5-0.6c-0.2,0.1-0.4,0.2-0.5,0.4
			c-0.1-0.1-0.3-0.1-0.4-0.6c-0.2-0.6,0-0.8,0.1-1.4c0.2,0.6,0.6,1.1,0.6,1.5c0.3-0.5,1.2-1,1.4-1C47.4,44,47.6,44.5,46.9,44.8"/>
		<path class="st5" d="M47.7,42.6c-0.5,0-0.5,0.2-0.6,0.3c0.1-0.2,0.3-0.5,0.5-0.6c-0.2,0.1-0.4,0.2-0.6,0.4
			c-0.1-0.1-0.3-0.1-0.4-0.6c-0.2-0.6,0-0.9,0.1-1.5c0.2,0.6,0.6,1.2,0.6,1.5c0.2-0.5,1.1-1.1,1.4-1C48.2,41.7,48.4,42.2,47.7,42.6"
			/>
		<path class="st6" d="M43.9,45.5c0,0-2.4,0.4-5.4-1.6c0.2-0.3,0.4-1.1,0.2-1.6c-0.1-0.4-0.1-0.1-0.2,0.2c-0.3,0.7-0.5,0.8-0.8,1
			c-0.9-0.9-1-0.9-2.1-1.6c-0.8-0.4-0.9-0.7-1.3-1c-0.8,0.4-2,1.1-2.6,0.7c-0.5-0.3,0.6-0.5,1-1.2c0.4-0.5,0.9-0.7,1.5-0.5
			c1.2,0.3,1.8,0.7,3.6,1.5c2.2,0.2,3.8,0.8,6.1,1.3c0.4,0.1,0.9,0.2,1.2,0.2C44.8,43.7,44.5,44.3,43.9,45.5"/>
		<path class="st6" d="M34.2,43.1c0.7,0.7,1.3,0.9,1.7,1.8c-0.1,0.3-0.4,0.3-0.7,0.2c-1-1.1-1.9-1.3-1.5-1.8c-0.2,0-0.4,0.3-0.3,0.4
			c0.2,0.8,1.1,1.1,1.3,1.8c-0.1,0.5-1.2,0-1.7-1.3l0-0.1c-0.2,0.4-0.4,0.5,0.3,1.4c0.1,0.3,0.2,0.6-0.3,0.6c0.1,0.1-0.3,0-0.1,0
			h0.1c0,0-0.1,0-0.1-0.1c0.3-1.4-1-1.1-1-1.1c0.2-0.5-0.5-1-1.2-0.7c0.1-0.4-0.7-0.9-1.7-0.5c-0.2-0.4-1.1-0.8-2,0.4
			c-1.6,0.1-4.2,1.5-5.8,0.8c-0.1,0.1-1-2.6-1-2.6c1.8-0.2,6-0.5,7.5-1.1c1.2-0.7,3.3-1.1,3.9-0.8c-0.1,0.4-1,1.1-0.5,1.5
			c0.8,0.8,2.1,0.4,3-0.1c0.9,1,2.4,1.1,3,2.3l-0.2,0.4c-0.3,0.2-0.3,0.2-0.7-0.3c-0.9-1.2-1.7-0.9-1.8-1.7
			C34,42.6,34.2,42.9,34.2,43.1"/>
		<path class="st6" d="M30,45.5c-0.3,0.1,0.1-0.2,0.3-0.3l0.1-0.2c0.3-0.3,0.7-0.6,0.9-0.1c0.1,0.3-0.9,0.9-1.1,1
			C30,46,30,46,29.8,45.9C29.7,45.7,29.8,45.6,30,45.5"/>
		<path class="st6" d="M29,45.4c-0.2,0-0.3,0.1-0.5-0.1c-0.1-0.2,0.3-0.6,0.4-0.7c0.1-0.1,0.2-0.2,0.3-0.2l0.2-0.2
			c0.4-0.1,0.4,0,0.4,0.2C29.9,44.6,29.2,45.4,29,45.4"/>
		<path class="st6" d="M31.7,45.6c0,0,0.4-0.5,0.6,0.2c0.1,0.3-0.4,0.6-0.9,0.7C31.2,46.3,30.7,46.3,31.7,45.6"/>
		<path class="st6" d="M27.9,44.7c-0.2,0.1-0.4-0.2-0.3-0.3l0.2-0.3c0.3-0.1,0.5-0.3,0.6-0.1C28.5,44.1,28.1,44.6,27.9,44.7"/>
		<path class="st7" d="M32.8,17.8c-7.3,0-13.2,7.7-13.4,17.3h26.9C45.9,25.5,40,17.8,32.8,17.8"/>
		<path class="st3" d="M33.5,39.1l0-7.6c0,0,2.6,0.1,3.2,0c0,0,0.9-0.4,1.1-1.2c0.1-0.6-0.3-2.3-0.4-2.6c0,0-0.5-0.3-0.5-0.7
			c0,0-0.3-2.9-0.9-3.7c-0.6-0.8-1.5-1.8-3.4-1.7c-2,0-2.9,1.3-3,2.2c-0.2,1.1,1.1,1.1,1.1,1.1s-0.5,0.5-0.7,0.7
			c-0.2,0.3-0.7,0.7-1.2,1.7c-0.5,1-0.9,2.5-0.7,3.1c0.2,0.5,1.1,1.2,2.2,1.3c1,0.1,1.7-0.1,1.7-0.1V39L33.5,39.1z"/>
		<path class="st8" d="M30.7,28.6c-0.8,0-1.1,0.4-1.8,0.5c0,0,0.2-1.4,1.6-3.1c0.6-0.6,1.9-1.4,2.6-1.7l0-0.2
			c-0.6,0.1-2.2,0.4-2.7-0.3c-0.1-0.7,0.9-1.5,2.2-1.6c0.8,0,1.4,0.3,2.1,0.6c0.7,0.5,1.1,1.3,1.2,2.2c-0.9,0.4-1.2,0.6-1.2,0.6
			c0.1,0,0.3,0.1,0.6,0.1c0.3,0,0.5,0,0.7-0.1v0.5c0.1,0.1,0.1,0.1,0.2,0.2c-1.6,0.7-2.4,1-2.5,0.9c0,0,0.3,0.1,0.7,0.1
			c0.5,0,1.3-0.2,1.9-0.4c0,0.3,0,0.6,0.5,0.8l0,0l0,0c-1.6,0.9-2.3,0.8-2.4,0.7L33,28.3c0.3,0.1,0.9,0.7,1.5,0.8
			c0.6,0.1,1.6-0.4,2.2-0.6l0.2,0.7c-1,0-2.1,1.4-3.6,0.9C32.7,29.5,31.8,28.6,30.7,28.6"/>
		<path class="st8" d="M32.1,30.7c-0.8,0-1.9,0-2,0c-0.4-0.1-1.3-0.6-1.2-0.8c0.1,0,0.4,0,1.2-0.3C31.1,29.1,32,30.4,32.1,30.7"/>
		<path class="st8" d="M37.1,29.9c0,0.3-0.3,0.7-0.6,0.8c-0.2,0-1.2,0-1.7,0c0.4,0,0.6-0.1,0.9-0.2C37.3,29.7,37.1,29.9,37.1,29.9"
			/>
		<path class="st2" d="M32,58.1c0.1-0.3,0-0.6,0-0.6s-0.5,0.8-1.3,1.2c-0.6,0.4-1.8,0.6-1.9,0.7c0.1,0.2,0.3,0.3,0.5,0.4
			c0.2,0,1-0.1,1.8-0.6C31.6,58.8,32,58.1,32,58.1"/>
		<path class="st7" d="M33.7,58.1c-0.1-0.3,0-0.6,0-0.6s0.5,0.8,1.3,1.2c0.6,0.4,1.7,0.6,1.9,0.7c0.3-0.3,0.5-0.6,0.5-0.6
			s-1-0.1-2-0.4c-1-0.3-1.4-0.9-1.5-1.1c-0.1-0.2,0.1-0.6,0.2-0.7c0.1-0.1,1.8-0.2,1.7-1.6c-0.1-1.6-2.7-1.2-3.1-1.1
			c-0.3-0.1-3-0.5-3.1,1.1c-0.1,1.4,1.6,1.5,1.7,1.6c0.1,0.1,0.3,0.6,0.2,0.7c-0.1,0.2-0.5,0.8-1.5,1.1c-1,0.3-2,0.4-2,0.4
			s0.2,0.3,0.5,0.6c0.2,0,1.3-0.3,1.9-0.7c0.7-0.4,1.3-1.2,1.3-1.2s0.1,0.3,0,0.6c0,0-0.4,0.8-0.9,1.1c-0.8,0.5-1.7,0.6-1.8,0.6
			c0.3,0.2,0.5,0.3,0.8,0.3c1.7-0.1,2.3-1.9,2.3-1.9s0.2,0.2,0.5,0.2h0h0c0.3,0,0.5-0.2,0.5-0.2s0.7,1.9,2.4,1.9
			c0.3,0,0.5-0.1,0.8-0.3c-0.2,0-1-0.1-1.8-0.6C34.1,58.8,33.7,58.1,33.7,58.1"/>
		<path class="st2" d="M36.9,59.3c-0.2,0-1.3-0.3-1.9-0.7c-0.7-0.4-1.3-1.2-1.3-1.2s-0.1,0.3,0,0.6c0,0,0.4,0.8,0.9,1.1
			c0.8,0.5,1.6,0.6,1.8,0.6h0C36.6,59.6,36.8,59.5,36.9,59.3"/>
		<path class="st2" d="M31.5,54.3c0,0-0.4,0.3-0.5,0.7c0,0.4,0.1,0.8,0.1,0.8s-0.9-0.3-0.9-0.9C30.4,54.1,31.5,54.3,31.5,54.3"/>
		<path class="st2" d="M34.1,54.3c0,0,0.4,0.3,0.5,0.7c0.1,0.4-0.1,0.8-0.1,0.8s0.9-0.3,0.8-0.9C35.2,54.1,34.1,54.3,34.1,54.3"/>
		<path class="st2" d="M32.9,54.6h-0.1c-1.5,0-0.6,1.4-0.6,1.4s0.3-0.2,0.6-0.2h0.2c0.4,0,0.6,0.2,0.6,0.2S34.4,54.6,32.9,54.6"/>
		<path class="st2" d="M32.9,56.4L32.9,56.4L32.9,56.4h-0.2c-0.4,0-0.4,0.2-0.4,0.4c0,0.2,0.1,1,0.4,1h0h0c0.3,0,0.4-0.8,0.4-1
			C33.2,56.7,33.3,56.4,32.9,56.4"/>
	</g>
</g>
</svg>
