<?xml version="1.0" encoding="utf-8"?>
<!-- Generator: Adobe Illustrator 19.1.0, SVG Export Plug-In . SVG Version: 6.00 Build 0)  -->
<svg version="1.1" id="Capa_1" xmlns="http://www.w3.org/2000/svg" xmlns:xlink="http://www.w3.org/1999/xlink" x="0px" y="0px"
	 viewBox="151 -17 337 68" style="enable-background:new 151 -17 337 68;" xml:space="preserve">
<style type="text/css">
	.st0{fill:#595959;}
	.st1{fill:#0072BC;}
	.st2{fill:#FFFFFF;}
	.st3{fill:#231F20;}
	.st4{fill:#FACC63;}
	.st5{fill:#0B9E5C;}
	.st6{fill:#EFB780;}
	.st7{fill:#168FBA;}
	.st8{fill:#D93E26;}
</style>
<g>
	<g>
		<g>
			<path class="st0" d="M203.7,0.7h3.2l3.6,5.8l3.6-5.8h3.2v13.6h-3V5.4l-3.8,5.8h-0.1l-3.8-5.8v8.8h-2.9V0.7z"/>
			<path class="st0" d="M220.3,0.1h3.1v2.6h-3.1V0.1z M220.4,3.9h3v10.4h-3V3.9z"/>
			<path class="st0" d="M226.1,3.9h3v1.5c0.7-0.9,1.6-1.7,3.1-1.7c2.2,0,3.5,1.5,3.5,3.9v6.7h-3V8.5c0-1.4-0.7-2.1-1.8-2.1
				s-1.8,0.7-1.8,2.1v5.8h-3V3.9z"/>
			<path class="st0" d="M238.3,0.1h3.1v2.6h-3.1V0.1z M238.4,3.9h3v10.4h-3V3.9z"/>
			<path class="st0" d="M243.3,12.9l1.3-1.9c1.1,0.8,2.3,1.2,3.3,1.2c0.9,0,1.2-0.3,1.2-0.8v0c0-0.6-1-0.9-2.2-1.2
				c-1.5-0.4-3.1-1.1-3.1-3.1v0c0-2.1,1.7-3.3,3.8-3.3c1.3,0,2.8,0.4,3.9,1.2l-1.1,2c-1-0.6-2.1-1-2.8-1c-0.7,0-1.1,0.3-1.1,0.7v0
				c0,0.6,1,0.9,2.1,1.2c1.5,0.5,3.1,1.2,3.1,3.1v0c0,2.3-1.7,3.4-4,3.4C246.3,14.5,244.7,14,243.3,12.9z"/>
			<path class="st0" d="M254.1,11.4V6.4h-1.2V3.9h1.2V1.2h3v2.7h2.4v2.5h-2.4v4.5c0,0.7,0.3,1,1,1c0.5,0,1-0.1,1.5-0.4v2.4
				c-0.6,0.4-1.3,0.6-2.3,0.6C255.4,14.5,254.1,13.8,254.1,11.4z"/>
			<path class="st0" d="M260.9,9.2L260.9,9.2c0-3,2.1-5.5,5.2-5.5c3.5,0,5.1,2.7,5.1,5.7c0,0.2,0,0.5,0,0.8h-7.3
				c0.3,1.3,1.2,2,2.5,2c1,0,1.7-0.3,2.5-1.1l1.7,1.5c-1,1.2-2.4,1.9-4.3,1.9C263.2,14.6,260.9,12.4,260.9,9.2z M268.3,8.3
				c-0.2-1.3-1-2.2-2.2-2.2c-1.2,0-2,0.9-2.3,2.2H268.3z"/>
			<path class="st0" d="M273.4,3.9h3V6c0.6-1.4,1.6-2.4,3.3-2.3v3.1h-0.2c-2,0-3.2,1.2-3.2,3.7v3.8h-3V3.9z"/>
			<path class="st0" d="M281.5,0.1h3.1v2.6h-3.1V0.1z M281.6,3.9h3v10.4h-3V3.9z"/>
			<path class="st0" d="M286.9,9.2L286.9,9.2c0-3,2.4-5.5,5.7-5.5c3.2,0,5.6,2.4,5.6,5.4v0c0,3-2.4,5.4-5.7,5.4
				C289.2,14.6,286.9,12.2,286.9,9.2z M295.2,9.2L295.2,9.2c0-1.6-1.1-2.9-2.7-2.9c-1.7,0-2.7,1.3-2.7,2.8v0c0,1.5,1.1,2.9,2.7,2.9
				C294.2,12,295.2,10.7,295.2,9.2z"/>
			<path class="st0" d="M305.6,9.1L305.6,9.1c0-3.5,2.3-5.4,4.7-5.4c1.6,0,2.5,0.7,3.2,1.6V0.1h3v14.2h-3v-1.5
				c-0.7,1-1.7,1.7-3.2,1.7C307.9,14.5,305.6,12.6,305.6,9.1z M313.7,9.1L313.7,9.1c0-1.8-1.1-2.9-2.5-2.9c-1.4,0-2.5,1.1-2.5,2.9v0
				c0,1.7,1.2,2.9,2.5,2.9C312.5,12,313.7,10.9,313.7,9.1z"/>
			<path class="st0" d="M318.7,9.2L318.7,9.2c0-3,2.1-5.5,5.2-5.5c3.5,0,5.1,2.7,5.1,5.7c0,0.2,0,0.5,0,0.8h-7.3
				c0.3,1.3,1.2,2,2.5,2c1,0,1.7-0.3,2.5-1.1l1.7,1.5c-1,1.2-2.4,1.9-4.3,1.9C321,14.6,318.7,12.4,318.7,9.2z M326.1,8.3
				c-0.2-1.3-1-2.2-2.2-2.2c-1.2,0-2,0.9-2.3,2.2H326.1z"/>
			<path class="st0" d="M337.3,0.7h3.2l3.6,5.8l3.6-5.8h3.2v13.6h-3V5.4l-3.8,5.8H344l-3.8-5.8v8.8h-2.9V0.7z"/>
			<path class="st0" d="M353.4,9.2L353.4,9.2c0-3,2.4-5.5,5.7-5.5c3.2,0,5.6,2.4,5.6,5.4v0c0,3-2.4,5.4-5.7,5.4
				C355.7,14.6,353.4,12.2,353.4,9.2z M361.7,9.2L361.7,9.2c0-1.6-1.1-2.9-2.7-2.9c-1.7,0-2.7,1.3-2.7,2.8v0c0,1.5,1.1,2.9,2.7,2.9
				C360.7,12,361.7,10.7,361.7,9.2z"/>
			<path class="st0" d="M366.3,9.1L366.3,9.1c0-3.5,2.3-5.4,4.7-5.4c1.6,0,2.5,0.7,3.2,1.6V0.1h3v14.2h-3v-1.5
				c-0.7,1-1.7,1.7-3.2,1.7C368.6,14.5,366.3,12.6,366.3,9.1z M374.3,9.1L374.3,9.1c0-1.8-1.1-2.9-2.5-2.9c-1.4,0-2.5,1.1-2.5,2.9v0
				c0,1.7,1.2,2.9,2.5,2.9C373.2,12,374.3,10.9,374.3,9.1z"/>
			<path class="st0" d="M379.4,9.2L379.4,9.2c0-3,2.1-5.5,5.2-5.5c3.5,0,5.1,2.7,5.1,5.7c0,0.2,0,0.5,0,0.8h-7.3
				c0.3,1.3,1.2,2,2.5,2c1,0,1.7-0.3,2.5-1.1l1.7,1.5c-1,1.2-2.4,1.9-4.3,1.9C381.7,14.6,379.4,12.4,379.4,9.2z M386.7,8.3
				c-0.2-1.3-1-2.2-2.2-2.2c-1.2,0-2,0.9-2.3,2.2H386.7z"/>
			<path class="st0" d="M391.8,3.9h3V6c0.6-1.4,1.6-2.4,3.3-2.3v3.1h-0.2c-2,0-3.2,1.2-3.2,3.7v3.8h-3V3.9z"/>
			<path class="st0" d="M399.9,3.9h3v1.5c0.7-0.9,1.6-1.7,3.1-1.7c2.2,0,3.5,1.5,3.5,3.9v6.7h-3V8.5c0-1.4-0.7-2.1-1.8-2.1
				c-1.1,0-1.8,0.7-1.8,2.1v5.8h-3V3.9z"/>
			<path class="st0" d="M412.1,0.1h3.1v2.6h-3.1V0.1z M412.2,3.9h3v10.4h-3V3.9z"/>
			<path class="st0" d="M417.6,12.2l5.4-5.9h-5.2V3.9h8.9V6l-5.4,5.9h5.4v2.4h-9.1V12.2z"/>
			<path class="st0" d="M428.3,11.3L428.3,11.3c0-2.3,1.7-3.4,4.2-3.4c1,0,1.8,0.2,2.5,0.4V8.2c0-1.2-0.8-1.9-2.2-1.9
				c-1.1,0-1.9,0.2-2.9,0.6l-0.7-2.3c1.1-0.5,2.3-0.8,4-0.8c1.6,0,2.8,0.4,3.5,1.2c0.8,0.8,1.1,1.9,1.1,3.3v6H435v-1.1
				c-0.7,0.8-1.7,1.3-3.1,1.3C429.9,14.5,428.3,13.4,428.3,11.3z M435,10.7v-0.5c-0.5-0.2-1.2-0.4-1.9-0.4c-1.3,0-2,0.5-2,1.4v0
				c0,0.8,0.7,1.3,1.6,1.3C434.1,12.5,435,11.7,435,10.7z"/>
			<path class="st0" d="M439.9,9.2L439.9,9.2c0-3,2.3-5.5,5.5-5.5c2,0,3.2,0.7,4.2,1.8l-1.8,1.9c-0.7-0.7-1.3-1.1-2.4-1.1
				c-1.5,0-2.5,1.3-2.5,2.8v0c0,1.6,1,2.9,2.6,2.9c1,0,1.7-0.4,2.4-1.1l1.7,1.7c-1,1.1-2.2,1.9-4.3,1.9
				C442.2,14.6,439.9,12.1,439.9,9.2z"/>
			<path class="st0" d="M451.5,0.1h3.1v2.6h-3.1V0.1z M451.6,3.9h3v10.4h-3V3.9z"/>
			<path class="st0" d="M456.9,9.2L456.9,9.2c0-3,2.4-5.5,5.7-5.5c3.2,0,5.6,2.4,5.6,5.4v0c0,3-2.4,5.4-5.7,5.4
				C459.2,14.6,456.9,12.2,456.9,9.2z M465.2,9.2L465.2,9.2c0-1.6-1.1-2.9-2.7-2.9c-1.7,0-2.7,1.3-2.7,2.8v0c0,1.5,1.1,2.9,2.7,2.9
				C464.2,12,465.2,10.7,465.2,9.2z M463.5-0.7l2.5,1.1l-2.5,2.3h-2.2L463.5-0.7z"/>
			<path class="st0" d="M470.3,3.9h3v1.5c0.7-0.9,1.6-1.7,3.1-1.7c2.2,0,3.5,1.5,3.5,3.9v6.7h-3V8.5c0-1.4-0.7-2.1-1.8-2.1
				c-1.1,0-1.8,0.7-1.8,2.1v5.8h-3V3.9z"/>
		</g>
	</g>
	<g>
		<g>
			<path class="st1" d="M203.8,24.1h5.4c3.2,0,5.2,1.8,5.2,4.5v0c0,3.1-2.4,4.6-5.4,4.6h-2.7v4.4h-2.4V24.1z M209,31.2
				c1.8,0,2.9-1,2.9-2.4v0c0-1.6-1.1-2.4-2.9-2.4h-2.8v4.9H209z"/>
			<path class="st1" d="M216.5,27.4h2.4v2.3c0.6-1.5,1.8-2.6,3.6-2.5v2.5h-0.1c-2.1,0-3.5,1.3-3.5,4.1v3.9h-2.4V27.4z"/>
			<path class="st1" d="M224,32.6L224,32.6c0-3,2.1-5.4,5-5.4c3.3,0,4.9,2.6,4.9,5.5c0,0.2,0,0.4,0,0.7h-7.5c0.3,1.7,1.4,2.6,3,2.6
				c1.1,0,2-0.4,2.8-1.2l1.4,1.2c-1,1.2-2.3,1.9-4.2,1.9C226.3,37.9,224,35.8,224,32.6z M231.6,31.8c-0.2-1.5-1-2.7-2.6-2.7
				c-1.4,0-2.4,1.1-2.7,2.7H231.6z"/>
			<path class="st1" d="M235.5,36.3l1.1-1.6c1.1,0.8,2.3,1.3,3.4,1.3c1,0,1.6-0.4,1.6-1.1v0c0-0.8-1.1-1.1-2.3-1.4
				c-1.5-0.4-3.2-1-3.2-3v0c0-1.9,1.6-3.1,3.7-3.1c1.3,0,2.7,0.4,3.8,1.2l-0.9,1.7c-1-0.6-2-1-2.9-1c-0.9,0-1.4,0.4-1.4,1v0
				c0,0.7,1.1,1,2.3,1.4c1.5,0.5,3.2,1.1,3.2,3v0c0,2.2-1.7,3.2-3.8,3.2C238.4,37.9,236.7,37.4,235.5,36.3z"/>
			<path class="st1" d="M246.1,23.6h2.5v2.2h-2.5V23.6z M246.1,27.4h2.4v10.3h-2.4V27.4z"/>
			<path class="st1" d="M251,32.6L251,32.6c0-3.4,2.3-5.4,4.8-5.4c1.7,0,2.8,0.9,3.5,1.8v-5.5h2.4v14.2h-2.4V36
				c-0.8,1.1-1.8,1.9-3.5,1.9C253.4,37.9,251,36,251,32.6z M259.3,32.6L259.3,32.6c0-2-1.4-3.3-3-3.3c-1.6,0-3,1.2-3,3.3v0
				c0,2,1.4,3.3,3,3.3C257.9,35.9,259.3,34.5,259.3,32.6z"/>
			<path class="st1" d="M264,32.6L264,32.6c0-3,2.1-5.4,5-5.4c3.3,0,4.9,2.6,4.9,5.5c0,0.2,0,0.4,0,0.7h-7.5c0.3,1.7,1.4,2.6,3,2.6
				c1.1,0,2-0.4,2.8-1.2l1.4,1.2c-1,1.2-2.3,1.9-4.2,1.9C266.3,37.9,264,35.8,264,32.6z M271.6,31.8c-0.2-1.5-1-2.7-2.6-2.7
				c-1.4,0-2.4,1.1-2.7,2.7H271.6z"/>
			<path class="st1" d="M276.3,27.4h2.4V29c0.7-1,1.6-1.8,3.2-1.8c2.3,0,3.7,1.6,3.7,3.9v6.5h-2.4v-5.8c0-1.6-0.8-2.5-2.2-2.5
				c-1.4,0-2.3,1-2.3,2.5v5.8h-2.4V27.4z"/>
			<path class="st1" d="M287.8,32.6L287.8,32.6c0-3,2.3-5.4,5.3-5.4c1.9,0,3.1,0.7,4.1,1.8l-1.5,1.6c-0.7-0.8-1.5-1.3-2.7-1.3
				c-1.7,0-3,1.5-3,3.3v0c0,1.8,1.3,3.3,3.1,3.3c1.1,0,1.9-0.5,2.7-1.3l1.4,1.4c-1,1.1-2.2,1.9-4.2,1.9
				C290.1,37.9,287.8,35.5,287.8,32.6z"/>
			<path class="st1" d="M299.5,23.6h2.5v2.2h-2.5V23.6z M299.6,27.4h2.4v10.3h-2.4V27.4z"/>
			<path class="st1" d="M311.3,37.7v-1.3c-0.7,0.8-1.8,1.5-3.3,1.5c-1.9,0-3.7-1.1-3.7-3.2v0c0-2.3,1.8-3.4,4.2-3.4
				c1.2,0,2,0.2,2.8,0.4v-0.2c0-1.4-0.9-2.2-2.5-2.2c-1.1,0-2,0.3-2.9,0.6l-0.6-1.9c1.1-0.5,2.2-0.9,3.9-0.9c3,0,4.5,1.6,4.5,4.3
				v6.1H311.3z M311.4,33.4c-0.6-0.2-1.4-0.4-2.4-0.4c-1.5,0-2.4,0.6-2.4,1.6v0c0,1,0.9,1.5,2,1.5c1.6,0,2.7-0.9,2.7-2.2V33.4z"/>
			<path class="st1" d="M321.8,32.6L321.8,32.6c0-3.4,2.3-5.4,4.8-5.4c1.7,0,2.8,0.9,3.5,1.8v-5.5h2.4v14.2H330V36
				c-0.8,1.1-1.8,1.9-3.5,1.9C324.1,37.9,321.8,36,321.8,32.6z M330.1,32.6L330.1,32.6c0-2-1.4-3.3-3-3.3c-1.6,0-3,1.2-3,3.3v0
				c0,2,1.4,3.3,3,3.3C328.7,35.9,330.1,34.5,330.1,32.6z"/>
			<path class="st1" d="M334.8,32.6L334.8,32.6c0-3,2.1-5.4,5-5.4c3.3,0,4.9,2.6,4.9,5.5c0,0.2,0,0.4,0,0.7h-7.5
				c0.3,1.7,1.4,2.6,3,2.6c1.1,0,2-0.4,2.8-1.2l1.4,1.2c-1,1.2-2.3,1.9-4.2,1.9C337.1,37.9,334.8,35.8,334.8,32.6z M342.4,31.8
				c-0.2-1.5-1-2.7-2.6-2.7c-1.4,0-2.4,1.1-2.7,2.7H342.4z"/>
			<path class="st1" d="M353.1,23.5h2.4v14.2h-2.4V23.5z"/>
			<path class="st1" d="M364.8,37.7v-1.3c-0.7,0.8-1.8,1.5-3.3,1.5c-1.9,0-3.7-1.1-3.7-3.2v0c0-2.3,1.8-3.4,4.2-3.4
				c1.2,0,2,0.2,2.8,0.4v-0.2c0-1.4-0.9-2.2-2.5-2.2c-1.1,0-2,0.3-2.9,0.6l-0.6-1.9c1.1-0.5,2.2-0.9,3.9-0.9c3,0,4.5,1.6,4.5,4.3
				v6.1H364.8z M364.8,33.4c-0.6-0.2-1.4-0.4-2.4-0.4c-1.5,0-2.4,0.6-2.4,1.6v0c0,1,0.9,1.5,2,1.5c1.6,0,2.7-0.9,2.7-2.2V33.4z"/>
			<path class="st1" d="M376,24.1h2.2l7.3,9.4v-9.4h2.4v13.6h-2l-7.5-9.7v9.7H376V24.1z"/>
			<path class="st1" d="M397.4,37.7v-1.3c-0.7,0.8-1.8,1.5-3.3,1.5c-1.9,0-3.7-1.1-3.7-3.2v0c0-2.3,1.8-3.4,4.2-3.4
				c1.2,0,2,0.2,2.8,0.4v-0.2c0-1.4-0.9-2.2-2.5-2.2c-1.1,0-2,0.3-2.9,0.6l-0.6-1.9c1.1-0.5,2.2-0.9,3.9-0.9c3,0,4.5,1.6,4.5,4.3
				v6.1H397.4z M397.4,33.4c-0.6-0.2-1.4-0.4-2.4-0.4c-1.5,0-2.4,0.6-2.4,1.6v0c0,1,0.9,1.5,2,1.5c1.6,0,2.7-0.9,2.7-2.2V33.4z"/>
			<path class="st1" d="M401.9,32.6L401.9,32.6c0-3,2.3-5.4,5.3-5.4c1.9,0,3.1,0.7,4.1,1.8l-1.5,1.6c-0.7-0.8-1.5-1.3-2.7-1.3
				c-1.7,0-3,1.5-3,3.3v0c0,1.8,1.3,3.3,3.1,3.3c1.1,0,1.9-0.5,2.7-1.3l1.4,1.4c-1,1.1-2.2,1.9-4.2,1.9
				C404.2,37.9,401.9,35.5,401.9,32.6z"/>
			<path class="st1" d="M413.6,23.6h2.5v2.2h-2.5V23.6z M413.7,27.4h2.4v10.3h-2.4V27.4z"/>
			<path class="st1" d="M418.6,32.6L418.6,32.6c0-3,2.3-5.4,5.5-5.4c3.1,0,5.5,2.4,5.5,5.3v0c0,2.9-2.3,5.3-5.5,5.3
				C420.9,37.9,418.6,35.5,418.6,32.6z M427.2,32.6L427.2,32.6c0-1.8-1.3-3.3-3.1-3.3c-1.9,0-3.1,1.5-3.1,3.3v0
				c0,1.8,1.3,3.3,3.1,3.3C426,35.9,427.2,34.4,427.2,32.6z M425.2,22.9l2.1,1l-2.4,2.2h-1.8L425.2,22.9z"/>
			<path class="st1" d="M431.9,27.4h2.4V29c0.7-1,1.6-1.8,3.2-1.8c2.3,0,3.7,1.6,3.7,3.9v6.5h-2.4v-5.8c0-1.6-0.8-2.5-2.2-2.5
				c-1.4,0-2.3,1-2.3,2.5v5.8h-2.4V27.4z"/>
		</g>
	</g>
	<g>
		<path class="st2" d="M174.9,36.3c-7.1,0-12.6-7.8-12.6-16.9h25.2C187.6,28.6,182.1,36.3,174.9,36.3"/>
		<path class="st3" d="M177.7-1.7l0.2,0c0,0-0.1-0.9-1.8-0.8h-0.4c0,0-0.2,0.5-0.2,0.5l1.1-0.1C176.7-2.1,177.5-2.2,177.7-1.7"/>
		<path class="st3" d="M175.9-1.1c0,0,0.3-0.3,0.3-0.3s0,0,0.1,0c0,0,0,0.1,0,0.1c0,0.2,0.1,0.3,0.3,0.4c0,0,0.3,0,0.3,0
			c0.2-0.1,0.3-0.2,0.3-0.4c0,0,0-0.1,0-0.1c0.2,0,0.3,0.1,0.4,0.3l0.4,0c0,0-0.2-0.9-1.8-0.6c0,0-0.4,0.6-0.4,0.6
			C175.6-1.1,175.9-1.1,175.9-1.1"/>
		<path class="st3" d="M172.3-1.1l0.4,0c0.1-0.2,0.3-0.2,0.4-0.3c0,0,0,0.1,0,0.1c0,0.2,0.1,0.3,0.3,0.4c0,0,0.2,0,0.3,0
			c0.2-0.1,0.3-0.2,0.3-0.4c0,0,0,0,0-0.1c0,0,0.1,0,0.1,0s0.2,0.2,0.2,0.2c0,0,0.4,0,0.4,0c0,0-0.4-0.6-0.4-0.6
			C172.5-2,172.3-1.1,172.3-1.1"/>
		<path class="st3" d="M173.3-2.1l1.2,0.1c0,0-0.1-0.5-0.1-0.5H174c-1.8-0.1-1.9,0.8-1.9,0.8l0.2,0C172.5-2.2,173.3-2.1,173.3-2.1"
			/>
		<path class="st3" d="M176.6,10.1C176.6,10,176.6,10,176.6,10.1C176.6,10.1,176.6,10.1,176.6,10.1"/>
		<path class="st3" d="M176.4,38.6c1.2-0.1,4.8-1.7,6.1-2.7c1.4,0.1,1.9-1,2.9-1.5c-0.1-0.1-0.2-0.1-0.3-0.2
			c0.6-0.3,0.9-0.8,1.5-1.3c-0.1-0.1-0.3-0.1-0.5-0.1c0.9-0.3,0.3-0.7,1.2-1.4c0,0-0.1-0.1-0.2-0.1c0.6-0.4,0.6-0.9,1.1-1.5
			c-0.1-0.1-0.3-0.1-0.5-0.1c1-0.3,0.9-1,1.6-1.7c0,0-0.2,0-0.4,0c0.6-0.5,0.4-1.1,0.8-1.7c-0.2-0.1-0.4-0.1-0.6-0.1
			c0.9-0.4,0.8-1.2,1.3-2.1c-0.1-0.1-0.2-0.1-0.4-0.1c0.7-0.7-0.2-0.5,0.4-2c-0.2-0.1-0.4,0-0.6,0c0.7-0.6,0.6-1.4,1-2.3
			c-0.5-0.1-1.6,0.7-1.9,1.3v-0.1c0.1-0.2,0.2-0.5,0.6-0.7c1.1-0.8,0.7-1.5,1-2.6c-0.5,0-1.5,0.8-1.7,1.5c0-0.1,0-0.1,0-0.2
			c0.2-0.3,0.2-0.6,0.8-1c1-0.5,0.7-1.5,1-2.5c-0.1,0-0.3,0-0.5,0.1c0.2-0.7-0.2-1.2-0.1-2c-0.5,0-1.2,1-1.3,1.6
			c0-0.1-0.1-0.2-0.2-0.3c0.1-0.3,0.1-0.6,0.6-0.9c0.9-1.1,0.1-1.7,0.3-2.8c-0.1,0-0.2,0-0.3,0.1c0-0.5-0.4-0.9-0.5-1.6
			c-0.5,0.1-1,1.1-1,1.7c-0.1-0.1-0.2-0.2-0.2-0.3c0.1-0.2,0.1-0.6,0.5-0.9c0.5-1.1,0-1.6-0.1-2.6c-0.2,0-0.3,0.1-0.5,0.2
			c0-0.7-0.4-1-0.6-1.8c-0.3,0.1-0.7,0.5-0.8,1c0-0.2,0-0.5,0.1-0.7c0-1.4-0.5-1.5-1-2.6c-0.2,0.1-0.3,0.4-0.4,0.8
			c-0.2-0.9-0.5-1.2-1-2c-0.3,0.3-0.5,1.2-0.4,1.8c-0.1-0.2-0.1-0.5,0-0.9c-0.1-1.1-0.7-1.4-1.2-2.1c0.3,0,0.5-0.1,0.9-0.3
			c0,0-0.5,0-0.7-0.1c-0.3-0.1-0.5-0.4-0.7-0.6c-0.3-0.1-0.6,0-1.1-0.3l2.7-0.6c0,0-2.7-0.5-2.7-0.5s0.1-0.2,0.5-0.2
			c0.2,0,0.6,0,0.8-0.3c0.1-0.1,0.5-0.5,1.2-0.5c-0.6-0.4-0.9-0.2-1.5,0c-0.4,0.2-0.6,0-1.2,0.1c0,0,2.2-1.4,2.2-1.4l-2.7,0.6
			c0.4-0.7,0.8-0.3,1.1-1.1c0.1-0.2,0.4-0.5,0.8-0.7c-0.5-0.1-1,0.2-1.6,0.7c-0.2,0.1-0.7,0.3-0.9,0.3c0,0,1.5-2.3,1.5-2.3
			s-1.6,1.1-2.3,1.5v0c0.1-0.6,0.5-0.5,0.6-1.2c0-0.2,0-0.8,0.5-1.3c-0.6,0.1-0.9,0.6-1.1,1.3c-0.1,0.3-0.5,0.4-0.7,0.7
			c0,0,0.5-2.7,0.5-2.7l-1.5,2.3c0,0-0.1-0.1-0.1-0.3c0.2-0.5,0.2-0.7,0.2-0.9c-0.2-0.3-0.3-0.8,0-1.4c-0.9,0.5-0.5,1.2-0.7,1.8
			c-0.1,0.2-0.3,0.5-0.4,0.7L175.1-8l-0.5,2.6c-0.3-0.4-0.1-0.6-0.3-1c-0.2-0.5-0.7-0.4-0.7-1.5c-0.2,0.4-0.4,0.6,0.1,1.7
			c0.1,0.1-0.1,0.6,0,1l-1.5-2.3l0.5,2.7c-0.3,0-0.4-0.6-0.7-0.8c-0.4-0.3-0.9-0.2-1.2-1.1c-0.1,0.6,0.1,1,0.7,1.5
			c0.2,0.3,0.3,0.7,0.4,1l-2.3-1.5l1.5,2.3c-0.5,0.1-0.5-0.6-1.5-0.6c-0.6,0-1-0.6-1-0.5c0.3,1.2,1.1,0.8,1.4,1.3
			c0.1,0.1,0.4,0.4,0.5,0.6l-2.6-0.6l2.3,1.5c-0.4,0.2-0.9-0.3-1.4,0c-0.9,0.4-1.3,0-1.4,0c0.5,0.7,0.9,0.5,1.4,0.6
			c0.4,0,0.7,0.2,1.1,0.4l-2.7,0.5l2.7,0.5c-0.3,0.3-0.8,0.1-1.2,0.4c-0.8,0.9-1.6,0.4-1.3,0.6c0.7,0.5,1.1,0.3,1.5,0.2
			c-0.3,0.2-0.5,0.4-0.7,0.7c0-0.2-0.1-0.4-0.2-0.5c-0.5,0.7-1.1,0.8-1.4,1.8c0-0.3-0.1-0.5-0.3-0.6c-0.5,0.8-1,0.9-1.1,1.8
			c-0.1-0.2-0.2-0.4-0.3-0.5c-0.4,1-1.2,1.3-1,2.6c0.1,0.3,0.1,0.6,0.1,0.8c-0.1-0.5-0.3-1.1-0.7-1.2c-0.3,0.6-0.7,1.1-0.7,1.7
			c-0.1-0.1-0.3-0.2-0.4-0.2c-0.1,1-0.9,1.4-0.1,2.6c0.4,0.4,0.4,0.7,0.4,1c-0.1,0-0.1,0.1-0.1,0.2c0.1-0.6-0.5-1.6-1-1.7
			c-0.1,0.8-0.4,1.1-0.4,1.7c-0.1-0.1-0.2-0.1-0.4-0.1c0.1,1.1-0.7,1.5,0.3,2.5c0.5,0.3,0.5,0.6,0.6,0.9c-0.1,0.1-0.1,0.2-0.2,0.3
			c-0.1-0.7-0.7-1.6-1.2-1.6c0.1,1.2-0.5,1.1-0.1,1.9c-0.2-0.1-0.4-0.2-0.5-0.2c0.3,1,0,1.9,1,2.5c0.6,0.3,0.6,0.7,0.8,0.9
			c0,0.1-0.1,0.1-0.1,0.2c-0.2-0.6-1.2-1.5-1.7-1.5c0.3,0.9,0.1,1.8,0.6,2.3c-0.3-0.2-0.6-0.3-0.9-0.2c0.5,1,0.2,1.6,1.2,2.5
			c-0.3-0.2-0.6-0.2-0.8-0.1c0.3,0.7,0.2,1.2,0.4,1.8c-0.2,0-0.3,0-0.4,0.1c0.5,0.9,0.4,1.5,1.2,2c-0.2,0-0.4,0-0.5,0.1
			c0.4,0.6,0.4,1.1,0.7,1.6c-0.1,0-0.2,0-0.3,0.1c0.6,0.6,0.7,1.3,1.4,1.7c-0.2,0-0.4,0-0.5,0.1c0.5,0.5,0.7,1,1.2,1.4
			c-0.2,0-0.4,0.1-0.5,0.2c0.8,0.5,0.8,1.1,1.6,1.4c-0.2,0-0.4,0.1-0.5,0.1c0.9,0.8,0.3,1,1.2,1.4c-0.1,0-0.1,0.1-0.2,0.1
			c1,0.5,1.1,1.8,3.3,1.7h0c1,1.1,3.9,2.5,5.9,2.7L176.4,38.6z M189.7,22.5c-0.2,0.7,0,1.1-0.6,1.6c-0.4,0.1-0.4,0.2-0.5,0.3
			c0.1-0.3,0.2-0.5,0.3-0.7c-0.2,0.1-0.3,0.2-0.4,0.4c-0.1-0.1-0.3-0.1-0.5-0.5c-0.3-0.6-0.1-0.8-0.2-1.4c0.3,0.5,0.8,1,0.8,1.3
			C188.8,23.1,189.5,22.4,189.7,22.5 M188.6,22.8c0.1-0.2,0.3-0.4,0.6-0.5c-0.3,0.2-0.5,0.5-0.6,0.8C188.6,23,188.6,22.9,188.6,22.8
			 M190,20.2c-0.3,0.7-0.1,1.1-0.8,1.7c-0.4,0.2-0.4,0.3-0.6,0.4c0.1-0.3,0.2-0.5,0.4-0.7c-0.2,0.1-0.4,0.3-0.5,0.5
			c-0.1-0.1-0.3,0-0.5-0.4c-0.3-0.5,0-0.8-0.1-1.3c0.3,0.4,0.7,0.8,0.7,1.1C189,21,189.8,20.2,190,20.2 M188.8,19.6
			c0.1-0.5,0.7-1.4,1-1.5c-0.2,0.8,0.1,1.1-0.5,1.7c-0.4,0.2-0.4,0.4-0.5,0.5c0-0.3,0.1-0.5,0.3-0.8c-0.2,0.2-0.3,0.4-0.4,0.6
			c-0.1,0-0.3,0-0.6-0.3c-0.3-0.4-0.2-0.7-0.3-1.2C188.2,18.9,188.7,19.2,188.8,19.6 M188,18c0.3,0.3,0.4,0.4,0.5,0.7
			c-0.1-0.2-0.3-0.3-0.5-0.4C188,18.1,188,18.1,188,18 M189.8,15.9c-0.2,0.7,0.1,1-0.5,1.7c-0.4,0.2-0.4,0.3-0.5,0.5
			c0-0.3,0.1-0.5,0.3-0.7c-0.2,0.1-0.3,0.3-0.4,0.5c-0.1-0.1-0.3,0-0.6-0.3c-0.4-0.4-0.2-0.7-0.3-1.2c0.4,0.4,0.9,0.7,1,1
			C188.9,16.7,189.6,15.9,189.8,15.9 M188.7,15.7c0-0.5,0.5-1.4,0.8-1.5c-0.1,0.7,0.3,1-0.2,1.7c-0.4,0.3-0.3,0.4-0.4,0.5
			c0-0.3,0-0.5,0.1-0.7c-0.2,0.2-0.3,0.3-0.3,0.6c-0.1-0.1-0.3,0.1-0.6-0.3c-0.5-0.4-0.3-0.7-0.5-1.1
			C188,15.2,188.6,15.4,188.7,15.7 M187.2,25.5c0-0.1,0.1-0.3,0.1-0.4c0,0,0,0.1,0,0.1c0.3,0.9,0.5,0.9,0.4,1.5c0,0,0,0,0,0.1
			C187.7,26.4,187.4,25.9,187.2,25.5 M186.1,29.9c0-0.3-0.2-0.6-0.3-0.9c0-0.1,0.1-0.2,0.1-0.3C186,29.4,186.2,29.5,186.1,29.9
			 M187,29.7c-0.4,0.1-0.7,0.3-0.9,0.5c0,0,0-0.1,0-0.1C186.3,30,186.5,29.8,187,29.7 M185.3,28.5c0,0-2.2,0.4-5-1.5
			c0.2-0.3,0.3-1,0.2-1.4c-0.1-0.4-0.1-0.1-0.2,0.2c-0.3,0.6-0.5,0.7-0.7,0.9c-0.8-0.8-0.9-0.8-2-1.4c-0.8-0.4-0.8-0.7-1.2-0.9
			c-0.7,0.3-1.9,1-2.4,0.6c-0.5-0.2,0.5-0.5,1-1.2c0.4-0.5,0.8-0.6,1.4-0.5c1.1,0.2,1.7,0.7,3.4,1.4c2,0.1,3.6,0.8,5.6,1.2
			c0.3,0.1,0.9,0.1,1.1,0.2C186.1,26.8,185.8,27.4,185.3,28.5 M176.3,26.2c0.6,0.7,1.2,0.8,1.5,1.6c-0.1,0.2-0.4,0.3-0.6,0.2
			c-0.9-1-1.8-1.2-1.4-1.7c-0.2,0-0.3,0.2-0.3,0.4c0.2,0.7,1,1,1.2,1.6c-0.1,0.5-1.1,0.1-1.6-1.2l0-0.1c-0.2,0.4-0.3,0.5,0.3,1.3
			c0.1,0.3,0.2,0.6-0.3,0.6c0.1,0.1-0.2,0-0.1,0h0.1c0,0,0,0-0.1-0.1c0.2-1.3-0.9-1-0.9-1c0.2-0.5-0.5-0.9-1.1-0.6
			c0.1-0.3-0.6-0.9-1.6-0.5c-0.1-0.3-1-0.7-1.8,0.3c-1.5,0.1-3.9,1.4-5.3,0.8c-0.1,0.1-0.9-2.4-1-2.4c1.7-0.2,5.6-0.4,6.9-1
			c1.1-0.7,3.1-1,3.6-0.8c0,0.4-0.9,1.1-0.4,1.4c0.7,0.7,2,0.4,2.8-0.1c0.8,0.9,2.2,1,2.8,2.2l-0.2,0.4c-0.3,0.2-0.3,0.2-0.6-0.3
			c-0.8-1.1-1.6-0.8-1.7-1.6C176.1,25.7,176.3,26.1,176.3,26.2 M172.4,28.5c-0.3,0.1,0.1-0.2,0.2-0.2l0.1-0.2
			c0.3-0.2,0.6-0.6,0.8-0.1c0.1,0.3-0.9,0.9-1,0.9c-0.2,0.1-0.2,0.1-0.3-0.1C172.1,28.7,172.2,28.5,172.4,28.5 M171.5,28.4
			c-0.2,0-0.3,0.1-0.4-0.1c-0.1-0.2,0.2-0.5,0.4-0.7c0.1-0.1,0.2-0.1,0.2-0.1l0.2-0.2c0.4-0.1,0.3,0,0.4,0.2
			C172.3,27.6,171.6,28.4,171.5,28.4 M173.9,28.5c0,0,0.4-0.4,0.6,0.2c0.1,0.2-0.4,0.5-0.8,0.6C173.5,29.2,173,29.2,173.9,28.5
			 M170.4,27.7c-0.2,0.1-0.4-0.2-0.3-0.3l0.2-0.3c0.3-0.1,0.4-0.2,0.5-0.1C171,27.1,170.6,27.6,170.4,27.7 M164,28.7
			c-0.1,0.1-0.1,0.2-0.1,0.3c0-0.1,0.1-0.2,0.1-0.4C163.9,28.7,164,28.7,164,28.7 M163.7,29.9c-0.1-0.1-0.3-0.3-0.6-0.4
			c0.2,0.1,0.4,0.2,0.5,0.2C163.6,29.8,163.7,29.8,163.7,29.9 M162.2,26.6C162.2,26.5,162.2,26.5,162.2,26.6
			c-0.1-0.7,0.1-0.7,0.4-1.6c0,0.1,0.1,0.2,0.1,0.3C162.4,25.7,162.1,26.2,162.2,26.6 M162.3,14.4c-0.1,0.1-0.3,0.1-0.4,0.2
			c0.1-0.1,0.3-0.2,0.5-0.4C162.4,14.3,162.4,14.3,162.3,14.4 M162.5,19.6h11.8V23c-0.5-0.1-1.5-0.1-2.3,0c-2.2,0.4-1.5,1.5-9,1.6
			C162.4,22.4,162.5,19.6,162.5,19.6 M169.8,2.3c0.1-0.1,0.2-0.1,0.3-0.6c0.3-0.9,0.8-0.8,1.5-1.3c0.2,0.3-0.6,1.3-1.1,1.7
			c0.3,0,0.7,0.3,1.2,0.5c-0.5,0.1-0.7,0.4-1.3,0.2c-0.4-0.1-0.4-0.3-0.4-0.4c0.2-0.1,0.3-0.3,0.4-0.6C170.2,2.1,170,2.2,169.8,2.3
			 M178.8,2c-0.2,0-0.4-0.1-0.6-0.1c0.3-0.1,0.6-0.2,0.8-0.3c0.5,0.1,0.9,0.3,1,0.8c-0.4-0.1-0.5,0.2-1.2,0.3
			c-0.6,0.1-0.9-0.2-1.4-0.3c-0.2-0.1-0.2-0.2-0.2-0.3c0.3,0.1,0.5,0.1,0.8,0l0,0.1C178.3,2.1,178.6,2.1,178.8,2 M176.9,1.3
			c0.3,0,0.5,0,0.8-0.2c-0.2,0-0.4,0-0.6,0c0.4-0.2,0.6-0.5,1.1-0.5c0.7,0,0.7,0.4,1.1,0.2C179.4,1.2,177.4,2,176.9,1.3 M176,1.2
			c0.3,0.1,0.6,0.6,1,1c-0.5-0.2-0.8,0-1.2-0.4c-0.3-0.3-0.3-0.4-0.3-0.6c0.2-0.1,0.3-0.2,0.5-0.4c-0.2,0.1-0.5,0.2-0.7,0.2
			c0.1-0.1,0.2,0,0.4-0.5c0.6-0.6,0.9-0.3,1.6-0.4C177.3,0.5,176.5,1.1,176,1.2 M174.5,1.3c0.3,0,0.7,0.5,1.1,0.8
			c-0.5,0-0.7,0.2-1.2-0.1c-0.4-0.2-0.3-0.4-0.4-0.5c0.2-0.1,0.3-0.3,0.5-0.5c-0.2,0.2-0.4,0.3-0.7,0.3c0.1-0.1,0.2-0.1,0.4-0.5
			c0.5-0.7,0.8-0.4,1.4-0.7C175.6,0.4,174.9,1.1,174.5,1.3 M173.4,2.2c-0.5,0-0.7,0.3-1.2,0c-0.4-0.2-0.3-0.3-0.4-0.4
			c0.2-0.1,0.3-0.3,0.4-0.5c-0.2,0.2-0.4,0.3-0.6,0.4c0.1-0.1,0.2-0.1,0.4-0.6c0.5-0.7,0.9-0.5,1.5-0.9c0,0.2-0.7,1.1-1.2,1.3
			C172.6,1.6,173,2,173.4,2.2 M182,4.7c0.1,0,0.1,0,0.2,0C182.1,4.7,182,4.8,182,4.7C182,4.8,182,4.7,182,4.7 M186.3,10.7
			c0.1,0.1,0.2,0.1,0.3,0.2c-0.1,0-0.2-0.1-0.3-0.1C186.3,10.8,186.3,10.8,186.3,10.7 M180.1,24c-1.2-0.2-2.7-1.5-4.4-1.4v-3h11.8
			c0,0.4-0.2,3.5-0.8,5.7C184.2,25.2,182,23.9,180.1,24 M187.5,14.3c0.2,0.2,0.4,0.3,0.5,0.4c-0.1-0.1-0.3-0.2-0.4-0.2
			C187.5,14.3,187.5,14.3,187.5,14.3 M188.9,12c0,0.7,0.3,1-0.2,1.7c-0.4,0.2-0.3,0.4-0.4,0.5c0-0.3,0-0.5,0.1-0.7
			c-0.1,0.2-0.2,0.3-0.3,0.5c-0.1,0-0.3,0.1-0.6-0.2c-0.5-0.4-0.3-0.7-0.5-1.2c0.4,0.3,1,0.6,1.1,0.9C188.1,13,188.6,12.1,188.9,12
			 M187.7,11.9c-0.1-0.5,0.2-1.4,0.5-1.5c0.1,0.7,0.5,1,0.2,1.7c-0.3,0.3-0.2,0.4-0.3,0.5c0-0.3-0.1-0.5,0-0.7
			c-0.1,0.2-0.2,0.4-0.2,0.6c-0.2,0-0.3,0.1-0.7-0.2c-0.5-0.3-0.4-0.6-0.8-1.1C186.9,11.5,187.5,11.7,187.7,11.9 M187.1,8.3
			c0.1,0.7,0.5,1,0.1,1.7c-0.3,0.3-0.3,0.4-0.3,0.5c-0.1-0.2-0.1-0.5,0-0.7c-0.1,0.2-0.2,0.4-0.2,0.6c-0.1,0-0.3,0.1-0.7-0.2
			c-0.5-0.3-0.4-0.6-0.8-1.1c0.5,0.3,1.1,0.5,1.3,0.8C186.6,9.3,186.9,8.4,187.1,8.3 M186.2,6.8c0.2,0.7,0.7,0.9,0.5,1.7
			c-0.3,0.3-0.2,0.4-0.2,0.6c-0.1-0.2-0.2-0.5-0.2-0.7c-0.1,0.2-0.1,0.4-0.1,0.6c-0.1,0-0.3,0.1-0.7-0.1c-0.6-0.3-0.6-0.6-1-1
			c0.5,0.2,1.2,0.3,1.4,0.6C185.8,7.9,185.9,6.9,186.2,6.8 M185.6,7.9c-0.1-0.1-0.2-0.2-0.4-0.3C185.4,7.7,185.5,7.7,185.6,7.9
			C185.6,7.9,185.6,7.9,185.6,7.9 M184.8,4.8c0.3,0.7,0.6,0.6,0.5,1.6c-0.2,0.5-0.1,0.5,0,0.7c-0.1-0.2-0.2-0.5-0.3-0.7
			c0,0.2,0,0.5,0,0.7c-0.1,0-0.2,0.2-0.6,0.1c-0.5-0.1-0.6-0.5-1-0.8c0.5,0.1,1.1,0,1.3,0.2C184.6,6,184.6,5,184.8,4.8 M183.6,5.1
			c-0.3-0.4-0.3-1.4-0.2-1.6c0.4,0.7,0.6,0.5,0.7,1.4c-0.1,0.5,0,0.5,0,0.7c-0.2-0.2-0.3-0.4-0.3-0.7c0,0.3,0,0.5,0.1,0.7
			c-0.1,0-0.2,0.2-0.6,0.2c-0.6,0-0.6-0.4-1.1-0.6C182.7,5.1,183.3,5,183.6,5.1 M181.7,2c0.4,0.6,0.9,0.6,0.9,1.5
			c-0.1,0.5,0,0.5,0,0.7c-0.2-0.2-0.3-0.4-0.4-0.7c0,0.2,0,0.5,0.1,0.7c-0.1,0-0.2,0.2-0.6,0.2c-0.6,0-0.6-0.3-1.1-0.6
			c0.5,0,1.1-0.2,1.4-0.1C181.7,3.3,181.5,2.2,181.7,2 M181.4,1.5c0,0.1,0,0.2-0.1,0.3c-0.1-0.1-0.2-0.2-0.3-0.3
			C181.2,1.4,181.3,1.5,181.4,1.5 M181.2,2.1c-0.1,0.5,0.1,0.5,0.2,0.7c-0.1,0-0.1,0-0.1,0c-0.2-0.2-0.4-0.4-0.4-0.5
			c0.1,0.4,0.1,0.5,0.2,0.7c-0.1,0.1-0.2,0.1-0.4,0.2c-0.7,0.1-0.8-0.1-1.1-0.3c0.5-0.2,0.7-0.4,1.1-0.3c0,0,0-0.1,0-0.1
			c0,0,0,0,0,0l0,0c-0.1-0.2-0.2-0.3-0.4-0.5c-0.2-0.4-0.4-0.8-0.3-0.9C180.5,1.5,181,1.3,181.2,2.1 M180.8,0.9h-0.6
			c-0.1-0.1-0.1-0.1-0.2-0.2C180.3,0.7,180.6,0.8,180.8,0.9 M170.6,0.4c0.5-0.2,0.6-0.4,0.6-0.4l-1.6-0.4l1.7-0.3c0,0,0-0.1-1-0.4
			c-0.2-0.1,0-0.3-0.8-0.4c0.3-0.1,0.2,0.1,0.8,0.2c0.4,0,0.7,0.1,1.2,0c0,0-1-0.8-1.7-1.1c0,0,1.1,0.3,2,0.5c0-0.1-0.7-0.6-1.1-1.2
			c-0.1-0.1-0.1-0.2-0.2-0.3c0.5,0.2,0.5,0.3,0.7,0.5c0.3,0.1,0.9,0.4,1.1,0.4c-0.5-0.7-1.2-1.7-1.2-1.7l1.7,1.2
			c-0.1-0.4-0.4-0.8-0.4-1c-0.2-0.7-0.1-0.7-0.3-0.9c0.5,0.7,0.6,1.1,1.3,1.5l-0.3-2.1l1,1.9c0.1-0.3,0-0.8,0-1c0.1-1,0.1-0.4,0-1.1
			c0.1,0.4,0.1,0.3,0.2,0.8c0.2,0.4,0.3,0.7,0.6,1.1l0.4-2c0,0,0.3,2,0.3,2c0.2-0.4,0.2-0.6,0.4-1c0.3-0.5,0.4-1,0.4-1
			C176-5.1,176-5.4,176-5c0,0.4,0,1,0.1,1.1l1.2-1.8l-0.5,2.1c0.1,0,0.6-0.7,1.1-1c0.1-0.1,0.4-0.5,0.4-0.5
			c-0.3,0.4-0.4,0.6-0.5,0.9c-0.2,0.5-0.2,0.3-0.4,1l1.8-1.2l-1.2,1.7c0,0,0.1,0,0.9-0.4c0.5-0.1,0.9-0.3,1.1-0.5
			c-0.6,0.5-0.8,0.5-1.6,1.5l2-0.4c0,0-1.6,1-1.7,1c0.1,0.1,0.8-0.1,1.3,0c0.4,0,0.4,0,0.9,0c-0.5,0.2-0.7,0.1-1.2,0.3
			c-0.2,0.1-0.7,0.3-0.8,0.4l2,0.4c0,0-2,0.5-2.3,0.6c-0.1,0-0.2,0-0.4,0c-0.1,0-0.2,0-0.3,0c0.1-0.1,0.1-0.3,0.1-0.4
			c-0.7,0.2-1.3,0-1.8,0.1c0.1-0.2,0.1-0.3,0-0.4c-0.8,0.4-1.5,0.2-2.2,0.7c0-0.2,0-0.4-0.1-0.5c-0.7,0.4-1.3,0.1-1.8,0.6
			c0-0.2,0-0.3,0-0.4c-0.7,0.3-1.3,0.4-1.9,0.9c-0.1,0-0.3,0-0.5-0.1c0,0,0-0.1,0-0.1c0,0-0.1,0-0.1,0.1c-0.1,0-0.2,0-0.4,0
			C169.9,0.6,170.3,0.6,170.6,0.4 M168.2,2.7c0.2-0.8,0.6-0.7,1.2-1.2c0.1,0.2-0.3,1.2-0.6,1.5c0.3-0.1,0.8,0.2,1.4,0.3
			c-0.5,0.1-0.6,0.4-1.2,0.3c-0.4,0-0.5-0.2-0.6-0.3c0.1-0.2,0.2-0.4,0.2-0.6c-0.1,0.2-0.3,0.4-0.5,0.5
			C168.2,3.2,168.3,3.2,168.2,2.7 M169.3,2.9C169.3,2.9,169.3,2.9,169.3,2.9C169.2,2.9,169.2,2.9,169.3,2.9L169.3,2.9z M167,3.8
			c0.1-0.9,0.5-0.8,0.9-1.4c0.1,0.2-0.1,1.3-0.4,1.7c0.3-0.1,0.9,0,1.4,0.1c-0.5,0.2-0.5,0.5-1.1,0.6c-0.4,0-0.5-0.2-0.6-0.2
			c0.1-0.2,0.1-0.4,0.1-0.7c-0.1,0.2-0.2,0.5-0.4,0.7C167,4.3,167.1,4.2,167,3.8 M166.6,4.5c0,0.1-0.1,0.2-0.1,0.3c0,0,0,0,0,0
			C166.6,4.8,166.6,4.6,166.6,4.5 M165.6,5c0.1-0.9,0.3-0.8,0.7-1.5c0.2,0.2,0.1,1.2-0.2,1.7c0.3-0.2,0.8,0,1.3,0
			c-0.4,0.3-0.5,0.6-1.1,0.6c-0.4,0-0.5-0.1-0.6-0.1c0.1-0.2,0.1-0.4,0.1-0.7c-0.1,0.3-0.2,0.5-0.3,0.7C165.6,5.5,165.7,5.4,165.6,5
			 M164.9,4.9c0.2,0.2,0.2,1.2,0,1.7c0.2-0.2,0.8-0.1,1.3-0.2c-0.4,0.3-0.5,0.7-1,0.8c-0.4,0.1-0.5-0.1-0.6-0.1
			c0.1-0.2,0.1-0.5,0.1-0.7c0,0.2-0.1,0.5-0.3,0.7c0-0.2,0.1-0.2,0-0.7C164.4,5.6,164.6,5.6,164.9,4.9 M164.1,8
			c0.1-0.1,0.2-0.1,0.3-0.2C164.2,7.9,164.1,7.9,164.1,8C164.1,8,164.1,8,164.1,8 M163.5,6.9c0.2,0.1,0.4,1.1,0.2,1.5
			c0.2-0.2,0.9-0.4,1.4-0.6c-0.4,0.4-0.4,0.7-0.9,1c-0.4,0.2-0.6,0.1-0.7,0.1c0-0.2,0-0.4-0.1-0.6c0,0.2-0.1,0.5-0.2,0.7
			c0-0.2,0.1-0.2-0.2-0.5C162.9,7.8,163.3,7.6,163.5,6.9 M162.4,10.1c-0.4-0.7,0.1-0.9,0.1-1.7c0.2,0.1,0.6,1,0.5,1.5
			c0.2-0.3,0.8-0.5,1.3-0.8c-0.3,0.5-0.2,0.8-0.7,1.1c-0.4,0.3-0.5,0.2-0.7,0.2c0-0.2-0.1-0.4-0.2-0.6c0.1,0.2,0,0.5,0,0.7
			C162.7,10.4,162.8,10.3,162.4,10.1 M163.5,10.7c0,0.1,0,0.1-0.1,0.2c-0.2,0.1-0.4,0.1-0.6,0.2C163,11,163.2,10.9,163.5,10.7
			 M161.7,10.5c0.3,0.1,0.5,1,0.5,1.5c0.2-0.3,0.8-0.4,1.3-0.7c-0.3,0.4-0.2,0.7-0.8,1.1c-0.4,0.3-0.5,0.1-0.6,0.2
			c0-0.2-0.1-0.4-0.2-0.6c0.1,0.2,0,0.5,0,0.7c0-0.1,0-0.2-0.3-0.5C161.2,11.4,161.6,11.2,161.7,10.5 M161.2,13.7
			c-0.5-0.7-0.1-0.9-0.2-1.7c0.3,0,0.7,0.9,0.7,1.4c0.1-0.3,0.7-0.5,1.1-0.9c-0.2,0.5-0.1,0.8-0.5,1.2c-0.3,0.3-0.5,0.2-0.6,0.2
			c0-0.2-0.2-0.4-0.3-0.5c0.1,0.2,0.1,0.5,0.1,0.7C161.5,14,161.6,13.9,161.2,13.7 M160.4,14.2c0.3,0.1,0.7,1,0.7,1.5
			c0.2-0.3,0.7-0.5,1.1-0.8c-0.2,0.5-0.1,0.8-0.5,1.1c-0.3,0.3-0.5,0.2-0.6,0.2c0-0.2-0.2-0.4-0.3-0.5c0.1,0.2,0.1,0.5,0.1,0.7
			c-0.1-0.2,0-0.2-0.4-0.5C160.1,15.1,160.5,14.9,160.4,14.2 M161.2,17.7c-0.1-0.2-0.2-0.4-0.4-0.5c0.1,0.2,0.2,0.5,0.3,0.7
			c-0.1-0.1-0.1-0.2-0.5-0.5c-0.6-0.6-0.4-0.8-0.5-1.5c0.3,0,0.9,0.8,1.1,1.2c0.1-0.3,0.6-0.6,0.9-1c-0.1,0.5,0.1,0.8-0.3,1.2
			C161.5,17.8,161.3,17.7,161.2,17.7 M161.9,17.9v0.3c-0.2,0.1-0.4,0.3-0.5,0.4C161.4,18.3,161.6,18.2,161.9,17.9 M160,18.1
			c0.2,0,0.9,0.8,1.1,1.3c0.1-0.3,0.6-0.6,0.9-0.9c-0.1,0.5,0.1,0.8-0.3,1.2c-0.3,0.3-0.4,0.2-0.5,0.3c-0.1-0.2-0.2-0.4-0.4-0.5
			c0.1,0.2,0.2,0.5,0.3,0.7c-0.1-0.1-0.1-0.3-0.5-0.5C160,19,160.2,18.9,160,18.1 M161.1,20.8L161.1,20.8c-0.1-0.2-0.4-0.5-0.7-0.7
			C160.8,20.3,161,20.5,161.1,20.8 M159.9,20.2c0.2,0,1,0.7,1.2,1.1c0-0.3,0.5-0.7,0.7-1.1c0,0.5,0.2,0.8-0.1,1.3
			c-0.2,0.4-0.4,0.3-0.4,0.4c-0.1-0.2-0.3-0.4-0.5-0.5c0.2,0.2,0.3,0.5,0.4,0.7c-0.1-0.1-0.1-0.2-0.5-0.4
			C159.6,20.8,160.7,22,159.9,20.2 M161.3,22.7c0,0,0,0.1,0,0.2c-0.1-0.3-0.4-0.5-0.7-0.7C160.9,22.3,161.1,22.5,161.3,22.7
			 M161.2,23.4c0-0.3,0.5-0.8,0.8-1.3c-0.1,0.6,0.1,0.8-0.2,1.3c-0.2,0.4-0.4,0.4-0.5,0.5c-0.1-0.2-0.2-0.3-0.4-0.4
			c0.2,0.2,0.2,0.4,0.3,0.7c-0.1-0.1-0.1-0.2-0.5-0.3c-0.6-0.5-0.3-0.7-0.6-1.4C160.4,22.4,161.1,23,161.2,23.4 M160.3,24.1
			c0.2-0.1,1.1,0.5,1.3,0.9c0-0.3,0.4-0.8,0.6-1.4c0,0.6,0.3,0.7,0.1,1.3c-0.1,0.5-0.3,0.5-0.4,0.6c-0.1-0.2-0.3-0.3-0.5-0.3
			c0.2,0.1,0.3,0.4,0.4,0.6c-0.1-0.1-0.1-0.2-0.6-0.2C160.5,25.1,160.7,24.7,160.3,24.1 M162.3,27.1c0-0.3,0.4-0.8,0.6-1.4
			c0,0.5,0.3,0.7,0.1,1.3c-0.1,0.4-0.3,0.4-0.4,0.5c-0.1-0.1-0.3-0.3-0.5-0.3c0.2,0.2,0.3,0.4,0.4,0.6c-0.1-0.1-0.1-0.2-0.6-0.2
			c-0.7-0.4-0.5-0.8-0.9-1.4C161.2,26.1,162.1,26.6,162.3,27.1 M161.4,27.8c0.2-0.1,1.2,0.3,1.5,0.7c-0.1-0.3,0.2-0.9,0.3-1.4
			c0.1,0.5,0.4,0.7,0.3,1.2c-0.1,0.4-0.2,0.5-0.3,0.6c-0.2-0.1-0.4-0.2-0.6-0.2c0.2,0.1,0.4,0.3,0.5,0.5c-0.2-0.1-0.2-0.2-0.6-0.1
			C161.8,28.8,161.9,28.4,161.4,27.8 M162.4,29.7c0.2-0.1,1.2,0.3,1.5,0.7c-0.1-0.3,0.2-0.8,0.4-1.4c0.1,0.5,0.4,0.7,0.3,1.2
			c-0.1,0.4-0.3,0.5-0.3,0.6c-0.2-0.1-0.4-0.2-0.6-0.3c0.2,0.1,0.4,0.3,0.5,0.5c-0.2-0.1-0.2-0.2-0.6-0.2
			C162.7,30.6,162.9,30.2,162.4,29.7 M163.1,31.2c0.2-0.1,1.3,0.1,1.6,0.5c-0.1-0.3,0.1-0.8,0.1-1.3c0.2,0.5,0.5,0.6,0.5,1.1
			c0,0.4-0.2,0.5-0.2,0.6c-0.2-0.1-0.4-0.1-0.6-0.2c0.2,0.1,0.4,0.2,0.6,0.4c-0.2,0-0.2-0.2-0.6-0.1
			C163.6,32.1,163.7,31.6,163.1,31.2 M165.4,32.7c0,0.1,0,0.2,0.1,0.2c-0.2-0.2-0.5-0.3-0.8-0.4C164.9,32.5,165.2,32.6,165.4,32.7
			 M164,32.8c0.2-0.1,1.3,0.2,1.7,0.6c-0.1-0.3,0.1-0.8,0.2-1.3c0.2,0.5,0.5,0.6,0.5,1.2c0,0.4-0.2,0.5-0.3,0.6
			c-0.2-0.1-0.4-0.2-0.6-0.2c0.2,0.1,0.4,0.3,0.6,0.4c-0.2-0.1-0.2-0.2-0.7-0.1C164.6,33.7,164.6,33.3,164,32.8 M167.8,35.4
			c-0.2-0.1-0.3-0.3-0.7-0.2c-0.9-0.1-1.1-0.7-1.8-1c0.2-0.1,1.3,0.1,1.8,0.3c-0.2-0.3,0-0.8-0.1-1.3c0.3,0.4,0.6,0.5,0.7,1
			c0.1,0.4,0.1,0.7,0.2,1c-0.1-0.1-0.3-0.2-0.5-0.3C167.5,35.1,167.7,35.2,167.8,35.4 M166.7,34.1L166.7,34.1L166.7,34.1L166.7,34.1
			z M172.5,37.8c-2-0.6-3.7-1.5-4.1-2.2c-0.2-0.4-0.2-0.8-0.3-1.4c0,0,0,0,0,0c1.4,1.2,2.9,2.1,4.6,2.5h-0.1
			C172,37.3,172.3,37.6,172.5,37.8 M174.9,36.2c-5.4-0.1-8.7-4.5-9.9-6.7c-0.2-0.2,3.1-1.3,3.8-1.5l0.9-0.2c0,0.4,0.7,0.5,0.7,0.4
			c0.2,0.1-0.1,0.3,0.4,0.6c0.4,0.3,0.7,0.1,0.8,0c-0.3,0.3,0.7,0.8,1.2,0.4c-0.1,0.3,0.4,0.4,0.5,0.4c0.2,0.1,0.7,0.2,1,0v3
			c0.1,0.6,0.1,0.7,0.3,0.8c1.2,0.1,1-0.3,1.1-0.6c0-1.3-0.1-3.1-0.1-3.1c0.8-0.1,0.6-0.3,0.9-0.4c0.3,0.1,0.5,0,0.8-0.4
			c0.4,0,0.8-0.1,0.9-0.5c0.4,0.1,0.9-0.2,1.2-0.9c0.8,0.3,3.7,1.8,5.1,2.2C184,30.8,180.6,36.2,174.9,36.2 M184.3,33
			c0.1-0.1,0.3-0.1,0.5-0.1c-0.2,0.1-0.4,0.2-0.5,0.3C184.3,33.1,184.3,33.1,184.3,33 M183,34.4C183,34.4,183,34.4,183,34.4
			C183,34.4,183,34.4,183,34.4 M181.6,34.5c-0.1,0.5-0.1,0.9-0.2,1.2c-0.5,0.9-3,1.8-4.1,2.1c0.3-0.3,0.5-0.9,0.1-1.2h-0.1
			C178.8,36.2,180.3,35.5,181.6,34.5C181.6,34.4,181.6,34.4,181.6,34.5 M182.8,35.4c-0.4-0.1-0.7,0.1-0.9,0.3
			c0.2-0.2,0.3-0.5,0.5-0.6c-0.2,0.1-0.4,0.1-0.5,0.2c0-0.2,0-0.4,0-0.8c0.1-0.5,0.4-0.6,0.7-1.1c0,0.5,0.1,1.1-0.1,1.3
			c0.5-0.3,1.6-0.5,1.8-0.3C183.7,34.9,183.7,35.3,182.8,35.4 M184.3,34.2c-0.5-0.1-0.5,0.1-0.7,0.1c0.2-0.2,0.4-0.3,0.6-0.4
			c-0.2,0-0.5,0.1-0.6,0.2c0-0.1-0.2-0.2-0.2-0.6c0-0.6,0.3-0.7,0.5-1.2c0.1,0.5,0.3,1,0.2,1.3c0.4-0.4,1.5-0.7,1.7-0.6
			C185.1,33.6,185.2,34,184.3,34.2 M185.3,32.6c-0.5-0.1-0.5,0-0.7,0.1c0.2-0.2,0.4-0.3,0.6-0.4c-0.2,0-0.4,0.1-0.6,0.2
			c0-0.1-0.2-0.2-0.2-0.6c0-0.6,0.3-0.7,0.5-1.2c0,0.5,0.3,1.1,0.1,1.4c0.4-0.4,1.4-0.6,1.7-0.5C186.1,32,186.2,32.4,185.3,32.6
			 M186.2,31.2c-0.5,0-0.5,0.1-0.6,0.2c0.2-0.2,0.3-0.4,0.5-0.5c-0.2,0-0.4,0.1-0.6,0.3c-0.1-0.1-0.3-0.1-0.4-0.6
			c-0.1-0.6,0.2-0.7,0.3-1.2c0.1,0.5,0.4,1.1,0.4,1.4c0.3-0.4,1.3-0.9,1.5-0.8C186.9,30.5,187.1,31,186.2,31.2 M187.3,29.3
			c-0.5,0-0.5,0.1-0.6,0.2c0.1-0.2,0.3-0.4,0.5-0.5c-0.2,0-0.4,0.1-0.6,0.3c-0.1-0.1-0.2-0.2-0.3-0.6c-0.1-0.6,0.2-0.7,0.3-1.3
			c0.1,0.5,0.4,1.1,0.3,1.4c0.3-0.4,1.3-0.8,1.5-0.7C187.9,28.7,188.1,29.1,187.3,29.3 M188,27.8c-0.4,0-0.4,0.1-0.6,0.2
			c0.1-0.2,0.3-0.4,0.4-0.6c-0.2,0.1-0.4,0.2-0.5,0.3c-0.1-0.1-0.3-0.1-0.4-0.6c-0.2-0.6,0.1-0.8,0.1-1.3c0.2,0.5,0.6,1.1,0.6,1.4
			c0.3-0.4,1.1-1,1.3-0.9C188.5,27,188.7,27.5,188,27.8 M188.2,26.4c0.1-0.1,0.2-0.1,0.3-0.2C188.4,26.3,188.3,26.3,188.2,26.4
			 M188.7,25.7c-0.4,0-0.4,0.2-0.6,0.2c0.1-0.2,0.3-0.4,0.4-0.6c-0.2,0.1-0.4,0.2-0.5,0.3c-0.1-0.1-0.3-0.1-0.4-0.5
			c-0.2-0.6,0-0.8,0.1-1.4c0.2,0.5,0.6,1.1,0.6,1.4c0.2-0.5,1-1,1.3-0.9C189.2,24.9,189.5,25.4,188.7,25.7"/>
		<path class="st4" d="M170.6,0.4c0.5-0.2,0.7-0.4,0.7-0.4l-1.7-0.4l1.7-0.4c0,0,0-0.1-1-0.4c-0.2-0.1,0-0.3-0.8-0.4
			c0.3-0.1,0.2,0.1,0.8,0.2c0.4,0,0.7,0.1,1.2,0c0,0-1-0.8-1.7-1.1c0,0,1.1,0.3,2,0.5c0-0.1-0.7-0.6-1.1-1.2
			c-0.1-0.1-0.1-0.2-0.2-0.3c0.5,0.2,0.5,0.3,0.7,0.5c0.3,0.1,0.9,0.4,1.1,0.4c-0.5-0.7-1.2-1.7-1.2-1.7l1.7,1.2
			c-0.1-0.4-0.4-0.8-0.4-1c-0.2-0.7-0.1-0.7-0.3-0.9c0.5,0.7,0.6,1.1,1.4,1.5l-0.3-2.1l1,1.9c0.1-0.3,0-0.8,0-1c0.1-1,0.1-0.4,0-1.1
			c0.1,0.4,0.1,0.3,0.2,0.8c0.2,0.4,0.3,0.7,0.6,1.1l0.4-2c0,0,0.3,2,0.3,2c0.2-0.4,0.2-0.6,0.4-1c0.3-0.5,0.4-1,0.4-1
			C176-5.1,176-5.4,176-5c0,0.4,0,1,0.1,1.1l1.2-1.8l-0.5,2.1c0.1,0,0.6-0.7,1.1-1c0.1-0.1,0.4-0.5,0.4-0.5
			c-0.3,0.4-0.4,0.6-0.5,0.9c-0.2,0.5-0.2,0.3-0.4,1l1.8-1.2l-1.2,1.7c0,0,0.1,0,0.9-0.4c0.5-0.1,0.9-0.3,1.1-0.5
			c-0.6,0.5-0.8,0.5-1.6,1.5l2-0.4c0,0-1.6,1-1.7,1c0.1,0.1,0.8-0.1,1.3,0c0.4,0,0.4,0,0.9,0c-0.5,0.2-0.7,0.1-1.2,0.3
			c-0.2,0.1-0.7,0.3-0.8,0.4l2,0.4c0,0-2,0.5-2.3,0.6c-0.1,0-0.2,0-0.4,0c-0.1,0-0.2,0-0.3,0c0.1-0.1,0.1-0.3,0.1-0.4
			c-0.7,0.2-1.3,0-1.8,0.1c0.1-0.2,0.1-0.3,0-0.4c-0.8,0.4-1.5,0.2-2.2,0.7c0-0.2,0-0.4-0.1-0.5c-0.7,0.4-1.3,0.1-1.8,0.6
			c0-0.2,0-0.3,0-0.4c-0.7,0.3-1.3,0.4-1.9,0.9c-0.1,0-0.3,0-0.4-0.1c0,0,0-0.1-0.1-0.1c0,0-0.1,0-0.1,0.1c-0.1,0-0.2,0-0.4,0
			C169.9,0.6,170.3,0.6,170.6,0.4"/>
		<path class="st3" d="M177.7-1.7l0.2,0c0,0-0.1-0.9-1.8-0.8h-0.4c0,0-0.2,0.5-0.2,0.5l1.1-0.1C176.7-2.1,177.5-2.2,177.7-1.7"/>
		<path class="st3" d="M175.9-1.1c0,0,0.3-0.3,0.3-0.3s0,0,0.1,0c0,0,0,0.1,0,0.1c0,0.2,0.1,0.3,0.3,0.4c0,0,0.3,0,0.3,0
			c0.2-0.1,0.3-0.2,0.3-0.4c0,0,0-0.1,0-0.1c0.2,0,0.3,0.1,0.4,0.3l0.3,0c0,0-0.2-0.9-1.8-0.6c0,0-0.4,0.6-0.4,0.6
			C175.6-1.1,175.9-1.1,175.9-1.1"/>
		<path class="st3" d="M172.3-1.1l0.4,0c0.1-0.2,0.3-0.2,0.4-0.3c0,0,0,0.1,0,0.1c0,0.2,0.1,0.3,0.3,0.4c0,0,0.2,0,0.3,0
			c0.2-0.1,0.3-0.2,0.3-0.4c0,0,0,0,0-0.1c0,0,0.1,0,0.1,0s0.2,0.2,0.2,0.2c0,0,0.4,0,0.4,0c0,0-0.4-0.6-0.4-0.6
			C172.5-2,172.3-1.1,172.3-1.1"/>
		<path class="st3" d="M173.3-2.1l1.2,0.1c0,0-0.1-0.5-0.1-0.5H174c-1.8-0.1-1.9,0.8-1.9,0.8l0.2,0C172.5-2.2,173.3-2.1,173.3-2.1"
			/>
		<path class="st5" d="M189.8,22.5c-0.3,0.7,0,1.1-0.6,1.6c-0.4,0.1-0.4,0.2-0.5,0.3c0.1-0.3,0.2-0.5,0.3-0.7
			c-0.2,0.1-0.3,0.2-0.4,0.4c-0.1-0.1-0.3-0.1-0.5-0.5c-0.3-0.6-0.1-0.8-0.2-1.4c0.3,0.5,0.8,1,0.8,1.3
			C188.8,23.1,189.5,22.4,189.8,22.5"/>
		<path class="st5" d="M190,20.2c-0.3,0.7-0.1,1.1-0.8,1.7c-0.4,0.2-0.4,0.3-0.5,0.5c0.1-0.3,0.2-0.5,0.4-0.7
			c-0.2,0.2-0.4,0.3-0.5,0.5c-0.1-0.1-0.3,0-0.5-0.4c-0.3-0.5,0-0.8-0.1-1.3c0.3,0.4,0.7,0.8,0.8,1.1C189,21,189.8,20.2,190,20.2"/>
		<path class="st5" d="M188.8,19.6c0.1-0.5,0.8-1.4,1-1.5c-0.2,0.8,0.1,1.1-0.5,1.7c-0.4,0.2-0.4,0.4-0.5,0.5c0-0.3,0.1-0.5,0.3-0.7
			c-0.2,0.2-0.3,0.3-0.4,0.5c-0.1,0-0.3,0-0.5-0.3c-0.3-0.4-0.2-0.7-0.3-1.2C188.2,19,188.7,19.2,188.8,19.6"/>
		<path class="st5" d="M189.8,15.9c-0.2,0.7,0.1,1-0.5,1.7c-0.4,0.2-0.4,0.3-0.5,0.5c0-0.2,0.1-0.5,0.3-0.7
			c-0.2,0.2-0.3,0.3-0.4,0.5c-0.1,0-0.3,0-0.6-0.3c-0.3-0.4-0.2-0.7-0.3-1.2c0.3,0.4,0.9,0.7,1,1C188.9,16.7,189.6,15.9,189.8,15.9"
			/>
		<path class="st5" d="M188.7,15.7c0-0.5,0.5-1.4,0.7-1.5c0,0.7,0.3,1-0.2,1.7c-0.4,0.3-0.3,0.4-0.4,0.5c0-0.3,0-0.5,0.1-0.7
			c-0.1,0.2-0.3,0.3-0.3,0.6c-0.1,0-0.3,0.1-0.6-0.3c-0.4-0.4-0.3-0.7-0.5-1.1C188,15.2,188.6,15.4,188.7,15.7"/>
		<path class="st5" d="M169.8,2.4c0.1-0.1,0.2-0.1,0.3-0.6c0.3-0.9,0.8-0.8,1.5-1.3c0.2,0.3-0.6,1.3-1.1,1.7c0.3,0,0.7,0.3,1.2,0.5
			c-0.5,0.1-0.7,0.3-1.3,0.2c-0.4-0.1-0.4-0.3-0.5-0.4c0.2-0.2,0.3-0.4,0.4-0.6C170.3,2.1,170,2.2,169.8,2.4"/>
		<path class="st5" d="M178.8,2c-0.2,0-0.4-0.1-0.6-0.1c0.3-0.1,0.6-0.2,0.8-0.4c0.5,0.1,1,0.4,1,0.8c-0.4-0.1-0.5,0.1-1.2,0.3
			c-0.6,0.1-0.9-0.2-1.4-0.3c-0.2-0.1-0.2-0.3-0.2-0.3c0.3,0.1,0.5,0.1,0.8,0l0,0.1C178.3,2.1,178.6,2.1,178.8,2"/>
		<path class="st5" d="M176.9,1.3c0.3,0,0.5-0.1,0.8-0.2c-0.2,0-0.4,0-0.6,0c0.3-0.2,0.6-0.5,1.1-0.5c0.7,0,0.7,0.4,1.1,0.2
			C179.4,1.2,177.4,2,176.9,1.3"/>
		<path class="st5" d="M176,1.2c0.3,0.1,0.6,0.6,1,1c-0.5-0.2-0.8,0-1.2-0.3c-0.3-0.3-0.3-0.5-0.3-0.6c0.2-0.1,0.4-0.2,0.5-0.4
			c-0.2,0.1-0.4,0.2-0.7,0.2c0.1-0.1,0.3,0,0.4-0.5c0.6-0.6,0.9-0.3,1.6-0.4C177.3,0.5,176.5,1.1,176,1.2"/>
		<path class="st5" d="M174.5,1.3c0.3,0,0.7,0.5,1.1,0.8c-0.5,0-0.7,0.2-1.2-0.1c-0.4-0.2-0.3-0.4-0.4-0.5c0.2-0.1,0.3-0.3,0.5-0.5
			c-0.2,0.2-0.4,0.3-0.7,0.4c0.1-0.1,0.2-0.1,0.4-0.6c0.5-0.7,0.8-0.4,1.5-0.7C175.6,0.4,174.9,1.1,174.5,1.3"/>
		<path class="st5" d="M173.4,2.2c-0.5,0-0.8,0.3-1.3,0c-0.4-0.2-0.3-0.3-0.4-0.4c0.2-0.1,0.3-0.3,0.5-0.5c-0.2,0.2-0.4,0.3-0.7,0.4
			c0.1-0.1,0.2-0.1,0.4-0.6c0.5-0.7,0.8-0.5,1.5-0.9c0,0.3-0.7,1.1-1.2,1.3C172.6,1.6,173,2,173.4,2.2"/>
		<path class="st5" d="M188.9,12c0,0.7,0.3,1-0.2,1.7c-0.4,0.3-0.3,0.4-0.4,0.5c0-0.2,0-0.5,0.1-0.7c-0.1,0.2-0.2,0.4-0.3,0.6
			c-0.1-0.1-0.3,0-0.6-0.3c-0.5-0.4-0.3-0.7-0.6-1.2c0.4,0.3,1,0.6,1.2,0.9C188.1,13,188.6,12.1,188.9,12"/>
		<path class="st5" d="M187.7,11.9c-0.1-0.5,0.2-1.4,0.5-1.5c0.1,0.7,0.5,0.9,0.2,1.7c-0.3,0.3-0.2,0.4-0.3,0.5
			c-0.1-0.3-0.1-0.5,0-0.7c-0.1,0.2-0.2,0.4-0.2,0.6c-0.1,0-0.3,0.1-0.7-0.2c-0.5-0.3-0.4-0.6-0.8-1.1
			C186.9,11.5,187.5,11.7,187.7,11.9"/>
		<path class="st5" d="M187.1,8.3c0.1,0.7,0.5,1,0.1,1.7c-0.3,0.3-0.2,0.4-0.3,0.5c0-0.2-0.1-0.5,0-0.7c-0.1,0.2-0.2,0.4-0.2,0.6
			c-0.1,0-0.3,0.1-0.7-0.2c-0.5-0.4-0.4-0.6-0.8-1.1c0.5,0.3,1.1,0.5,1.3,0.8C186.6,9.3,186.9,8.4,187.1,8.3"/>
		<path class="st5" d="M186.2,6.8c0.2,0.7,0.7,0.9,0.5,1.6c-0.3,0.3-0.2,0.4-0.2,0.6c-0.1-0.2-0.2-0.5-0.2-0.7
			c-0.1,0.2-0.1,0.4-0.1,0.6c-0.1,0-0.3,0.1-0.7-0.1c-0.6-0.3-0.6-0.6-1-1c0.5,0.2,1.2,0.3,1.4,0.6C185.8,7.9,185.9,6.9,186.2,6.8"
			/>
		<path class="st5" d="M184.8,4.8c0.3,0.7,0.6,0.6,0.5,1.6c-0.2,0.5-0.1,0.5,0,0.7c-0.1-0.2-0.2-0.5-0.3-0.8c0,0.2,0,0.5,0.1,0.7
			c-0.1,0-0.2,0.2-0.6,0.1c-0.5-0.1-0.6-0.5-1-0.8c0.5,0.1,1.1,0,1.3,0.2C184.6,6,184.6,5,184.8,4.8"/>
		<path class="st5" d="M183.6,5.1c-0.3-0.4-0.3-1.4-0.2-1.6c0.4,0.7,0.6,0.5,0.7,1.4c-0.1,0.5,0,0.5,0,0.7c-0.2-0.2-0.3-0.4-0.4-0.7
			c0,0.2,0,0.5,0.1,0.7c-0.1,0-0.2,0.2-0.6,0.2c-0.6,0-0.6-0.4-1.1-0.6C182.7,5.1,183.3,5,183.6,5.1"/>
		<path class="st5" d="M181.7,2c0.4,0.6,0.9,0.6,0.9,1.5c-0.1,0.5,0,0.5,0,0.7c-0.2-0.2-0.3-0.4-0.4-0.7c0,0.2,0.1,0.4,0.1,0.7
			c-0.1,0.1-0.2,0.2-0.6,0.2c-0.6,0-0.7-0.3-1.1-0.6c0.5,0,1.1-0.2,1.4-0.1C181.8,3.3,181.5,2.2,181.7,2"/>
		<path class="st5" d="M181.2,2.1c-0.1,0.5,0.1,0.5,0.1,0.7c-0.1,0-0.1,0-0.1,0c-0.2-0.2-0.3-0.4-0.4-0.5c0.1,0.4,0.1,0.5,0.2,0.7
			c0,0.1-0.1,0.1-0.4,0.2c-0.7,0-0.8-0.1-1.1-0.3c0.5-0.2,0.7-0.4,1.1-0.3c0,0,0-0.1,0-0.1h0c0,0,0,0,0,0c-0.1-0.2-0.2-0.3-0.4-0.5
			C180,1.5,179.9,1.1,180,1C180.5,1.5,181,1.3,181.2,2.1"/>
		<path class="st5" d="M168.2,2.8c0.2-0.8,0.6-0.7,1.1-1.2c0.1,0.2-0.2,1.2-0.6,1.5c0.3-0.1,0.9,0.2,1.4,0.3
			c-0.5,0.1-0.6,0.4-1.2,0.3c-0.4-0.1-0.5-0.2-0.6-0.3c0.1-0.2,0.2-0.4,0.2-0.6c-0.1,0.2-0.3,0.4-0.5,0.6
			C168.2,3.2,168.3,3.2,168.2,2.8"/>
		<path class="st5" d="M167,3.8c0.1-0.8,0.5-0.8,0.9-1.4c0.1,0.2-0.1,1.3-0.4,1.7c0.3-0.1,0.8,0,1.4,0.1c-0.5,0.2-0.5,0.5-1.1,0.6
			c-0.4,0-0.5-0.2-0.6-0.2c0.1-0.2,0.1-0.4,0.1-0.7c-0.1,0.3-0.2,0.5-0.4,0.7C167,4.3,167.1,4.3,167,3.8"/>
		<path class="st5" d="M165.6,5c0.1-0.9,0.3-0.8,0.7-1.5c0.1,0.2,0.1,1.3-0.2,1.7c0.3-0.2,0.8,0,1.3,0c-0.5,0.3-0.5,0.6-1.1,0.7
			c-0.4,0-0.5-0.1-0.6-0.2c0.1-0.2,0.1-0.4,0.1-0.7c0,0.3-0.2,0.5-0.3,0.7C165.6,5.5,165.7,5.4,165.6,5"/>
		<path class="st5" d="M164.9,4.9c0.2,0.2,0.2,1.2,0,1.7c0.3-0.2,0.8-0.1,1.3-0.2c-0.4,0.3-0.5,0.7-1,0.8c-0.4,0.1-0.5-0.1-0.6-0.1
			c0.1-0.2,0.1-0.5,0.1-0.7c0,0.3-0.1,0.5-0.3,0.7c0-0.2,0.1-0.2-0.1-0.7C164.4,5.6,164.6,5.6,164.9,4.9"/>
		<path class="st5" d="M163.6,6.9c0.2,0.1,0.4,1.1,0.2,1.5c0.2-0.2,0.9-0.4,1.4-0.6c-0.4,0.4-0.4,0.7-0.9,1
			c-0.4,0.2-0.6,0.1-0.7,0.1c0-0.2,0-0.4-0.1-0.6c0,0.2-0.1,0.5-0.2,0.7c0-0.2,0.1-0.2-0.2-0.6C162.9,7.8,163.3,7.6,163.6,6.9"/>
		<path class="st5" d="M162.4,10.1c-0.3-0.7,0.1-0.9,0.1-1.6c0.2,0.1,0.6,1,0.5,1.5c0.2-0.3,0.8-0.5,1.3-0.7
			c-0.3,0.4-0.2,0.7-0.8,1.1c-0.4,0.3-0.5,0.2-0.7,0.2c0-0.2-0.1-0.4-0.2-0.6c0.1,0.2,0,0.5,0,0.7C162.7,10.5,162.8,10.4,162.4,10.1
			"/>
		<path class="st5" d="M161.7,10.5c0.2,0.1,0.5,1,0.4,1.5c0.2-0.3,0.8-0.4,1.3-0.7c-0.3,0.4-0.2,0.7-0.8,1.1
			c-0.4,0.3-0.5,0.1-0.6,0.2c0-0.2-0.1-0.4-0.2-0.6c0.1,0.2,0,0.4,0,0.7c0-0.2,0-0.3-0.3-0.5C161.2,11.4,161.6,11.2,161.7,10.5"/>
		<path class="st5" d="M161.2,13.7c-0.5-0.7-0.1-0.9-0.2-1.6c0.3,0,0.7,0.9,0.7,1.4c0.1-0.3,0.7-0.5,1.1-0.9
			c-0.2,0.5-0.1,0.8-0.5,1.2c-0.3,0.3-0.5,0.2-0.6,0.2c-0.1-0.2-0.2-0.4-0.3-0.5c0.1,0.2,0.1,0.4,0.1,0.7
			C161.5,14.1,161.6,13.9,161.2,13.7"/>
		<path class="st5" d="M160.5,14.2c0.3,0,0.7,1,0.7,1.5c0.1-0.3,0.7-0.5,1.1-0.8c-0.2,0.5-0.1,0.8-0.5,1.1c-0.3,0.3-0.5,0.2-0.6,0.2
			c0-0.2-0.2-0.4-0.3-0.6c0.1,0.2,0.1,0.5,0.1,0.7c-0.1-0.2,0-0.3-0.4-0.5C160.1,15.1,160.5,14.9,160.5,14.2"/>
		<path class="st5" d="M161.2,17.7c-0.1-0.2-0.2-0.4-0.4-0.5c0.1,0.2,0.2,0.4,0.2,0.7c-0.1-0.1-0.1-0.3-0.5-0.5
			c-0.6-0.6-0.4-0.8-0.5-1.5c0.3,0,0.9,0.8,1.1,1.2c0.1-0.3,0.6-0.6,0.9-1c-0.1,0.5,0.1,0.8-0.3,1.2
			C161.5,17.8,161.3,17.7,161.2,17.7"/>
		<path class="st5" d="M160,18.1c0.3,0,0.9,0.8,1.1,1.3c0.1-0.3,0.6-0.6,0.9-0.9c-0.1,0.5,0.1,0.8-0.3,1.2c-0.2,0.3-0.4,0.2-0.5,0.3
			c-0.1-0.2-0.2-0.4-0.4-0.5c0.1,0.2,0.2,0.5,0.3,0.7c-0.1-0.1-0.1-0.2-0.5-0.5C160,19,160.2,18.9,160,18.1"/>
		<path class="st5" d="M159.9,20.2c0.2,0,1,0.7,1.2,1.1c0-0.3,0.5-0.7,0.7-1.1c0,0.5,0.2,0.8-0.1,1.3c-0.2,0.4-0.4,0.3-0.4,0.4
			c-0.1-0.2-0.3-0.4-0.5-0.5c0.2,0.2,0.3,0.4,0.4,0.7c-0.1-0.1-0.1-0.3-0.5-0.4C159.6,20.8,160.7,22,159.9,20.2"/>
		<path class="st5" d="M161.3,23.4c0-0.3,0.5-0.8,0.8-1.3c-0.1,0.6,0.1,0.8-0.2,1.3c-0.2,0.4-0.4,0.4-0.5,0.5
			c-0.1-0.2-0.2-0.3-0.4-0.4c0.2,0.2,0.2,0.4,0.3,0.7c-0.1-0.1-0.1-0.2-0.5-0.3c-0.6-0.5-0.3-0.7-0.6-1.4
			C160.5,22.4,161.1,23,161.3,23.4"/>
		<path class="st5" d="M160.3,24.1c0.2-0.1,1,0.5,1.3,0.9c0-0.3,0.4-0.9,0.6-1.4c0,0.6,0.3,0.7,0.1,1.3c-0.1,0.5-0.3,0.5-0.4,0.6
			c-0.1-0.2-0.3-0.3-0.5-0.3c0.2,0.2,0.3,0.4,0.4,0.6c-0.1-0.1-0.1-0.2-0.5-0.2C160.5,25.1,160.7,24.7,160.3,24.1"/>
		<path class="st5" d="M162.3,27.1c0-0.3,0.4-0.9,0.6-1.4c0,0.5,0.3,0.7,0.1,1.3c-0.1,0.5-0.3,0.5-0.4,0.6c-0.1-0.2-0.3-0.2-0.5-0.3
			c0.2,0.1,0.3,0.4,0.4,0.6c-0.1-0.1-0.1-0.2-0.6-0.2c-0.7-0.4-0.5-0.8-0.9-1.4C161.3,26.1,162.1,26.6,162.3,27.1"/>
		<path class="st5" d="M161.5,27.8c0.2-0.1,1.2,0.3,1.5,0.7c-0.1-0.3,0.2-0.9,0.3-1.4c0.1,0.5,0.4,0.7,0.3,1.3
			c-0.1,0.4-0.2,0.5-0.3,0.6c-0.2-0.1-0.4-0.2-0.6-0.2c0.2,0.1,0.4,0.3,0.5,0.5c-0.2,0-0.2-0.2-0.6-0.1
			C161.8,28.8,162,28.4,161.5,27.8"/>
		<path class="st5" d="M162.4,29.7c0.2-0.1,1.2,0.3,1.5,0.7c-0.1-0.3,0.3-0.8,0.4-1.3c0.1,0.5,0.4,0.7,0.3,1.2
			c-0.1,0.4-0.2,0.5-0.3,0.6c-0.2-0.1-0.4-0.2-0.6-0.3c0.2,0.1,0.4,0.3,0.5,0.5c-0.1-0.1-0.2-0.2-0.6-0.2
			C162.7,30.6,162.9,30.2,162.4,29.7"/>
		<path class="st5" d="M163.1,31.2c0.2-0.1,1.3,0.1,1.6,0.5c-0.1-0.3,0.1-0.8,0.1-1.3c0.2,0.5,0.5,0.6,0.5,1.2
			c0,0.4-0.2,0.5-0.2,0.6c-0.2-0.1-0.4-0.1-0.6-0.2c0.2,0.1,0.4,0.2,0.6,0.4c-0.2,0-0.2-0.2-0.7-0.1
			C163.6,32.1,163.7,31.6,163.1,31.2"/>
		<path class="st5" d="M164.1,32.8c0.2-0.1,1.3,0.2,1.7,0.6c-0.1-0.3,0.1-0.8,0.2-1.3c0.2,0.5,0.5,0.6,0.5,1.2
			c0,0.4-0.2,0.5-0.2,0.6c-0.2-0.1-0.4-0.2-0.6-0.2c0.2,0.1,0.4,0.3,0.6,0.4c-0.2-0.1-0.2-0.2-0.7-0.1
			C164.6,33.7,164.6,33.3,164.1,32.8"/>
		<path class="st5" d="M167.8,35.4c-0.2-0.1-0.3-0.3-0.7-0.2c-0.9-0.1-1.1-0.6-1.8-1c0.2-0.1,1.3,0.1,1.8,0.4
			c-0.2-0.3,0-0.8-0.1-1.3c0.3,0.4,0.6,0.5,0.7,1c0.1,0.4,0.1,0.7,0.2,1c-0.1-0.1-0.3-0.3-0.5-0.3C167.5,35.1,167.7,35.3,167.8,35.4
			"/>
		<path class="st5" d="M182.8,35.4c-0.4-0.1-0.6,0.2-0.9,0.3c0.2-0.2,0.3-0.5,0.5-0.6c-0.2,0-0.4,0.1-0.5,0.2c0-0.2,0-0.4,0-0.8
			c0.1-0.5,0.4-0.6,0.7-1.1c-0.1,0.5,0.1,1.1-0.1,1.3c0.5-0.3,1.6-0.5,1.8-0.3C183.7,34.9,183.7,35.3,182.8,35.4"/>
		<path class="st5" d="M184.3,34.2c-0.5-0.1-0.5,0.1-0.7,0.1c0.2-0.2,0.4-0.3,0.7-0.4c-0.2,0-0.5,0.1-0.7,0.2c0-0.1-0.2-0.2-0.3-0.6
			c0-0.6,0.3-0.7,0.5-1.2c0,0.5,0.3,1.1,0.2,1.3c0.4-0.4,1.5-0.7,1.7-0.6C185.1,33.6,185.2,34,184.3,34.2"/>
		<path class="st5" d="M185.3,32.6c-0.5-0.1-0.5,0-0.7,0.1c0.2-0.2,0.4-0.3,0.6-0.4c-0.2,0-0.4,0.1-0.6,0.2
			c-0.1-0.1-0.2-0.2-0.3-0.6c0-0.6,0.3-0.7,0.5-1.2c0,0.5,0.3,1.1,0.1,1.4c0.4-0.4,1.4-0.6,1.7-0.5C186.1,32,186.2,32.4,185.3,32.6"
			/>
		<path class="st5" d="M186.2,31.2c-0.5,0-0.5,0.1-0.6,0.2c0.2-0.2,0.3-0.4,0.5-0.5c-0.2,0-0.4,0.1-0.6,0.3
			c-0.1-0.1-0.3-0.1-0.3-0.6c-0.1-0.6,0.2-0.7,0.3-1.2c0.1,0.5,0.5,1.1,0.4,1.4c0.3-0.4,1.3-0.9,1.5-0.8
			C186.9,30.5,187.1,31,186.2,31.2"/>
		<path class="st5" d="M187.3,29.3c-0.5,0-0.5,0.1-0.6,0.1c0.2-0.2,0.3-0.4,0.5-0.5c-0.2,0-0.4,0.1-0.6,0.3
			c-0.1-0.1-0.2-0.2-0.3-0.6c-0.1-0.6,0.2-0.7,0.3-1.3c0.1,0.6,0.4,1.1,0.3,1.4c0.3-0.4,1.3-0.8,1.5-0.7
			C188,28.7,188.1,29.1,187.3,29.3"/>
		<path class="st5" d="M188,27.8c-0.4,0-0.4,0.2-0.6,0.2c0.1-0.2,0.2-0.4,0.4-0.6c-0.2,0.1-0.4,0.2-0.5,0.3
			c-0.1-0.1-0.3-0.1-0.4-0.6c-0.2-0.6,0-0.8,0.1-1.3c0.2,0.5,0.6,1,0.6,1.4c0.3-0.4,1.1-1,1.3-0.9C188.5,27.1,188.7,27.5,188,27.8"
			/>
		<path class="st5" d="M188.7,25.7c-0.4,0-0.4,0.1-0.6,0.2c0.1-0.2,0.2-0.4,0.4-0.6c-0.2,0.1-0.4,0.2-0.5,0.3
			c-0.1-0.1-0.3-0.1-0.4-0.6c-0.2-0.6,0-0.8,0.1-1.4c0.2,0.5,0.6,1.1,0.6,1.4c0.2-0.5,1-1,1.3-0.9C189.3,24.9,189.5,25.4,188.7,25.7
			"/>
		<path class="st6" d="M185.3,28.5c0,0-2.3,0.4-5-1.5c0.2-0.3,0.3-1,0.2-1.5c-0.1-0.3-0.1-0.1-0.2,0.2c-0.3,0.7-0.5,0.7-0.8,0.9
			c-0.8-0.8-0.9-0.8-2-1.4c-0.8-0.4-0.8-0.7-1.2-0.9c-0.7,0.3-1.9,1-2.4,0.6c-0.5-0.2,0.6-0.5,1-1.1c0.4-0.5,0.8-0.6,1.4-0.5
			c1.1,0.2,1.7,0.6,3.4,1.4c2,0.2,3.6,0.8,5.6,1.2c0.3,0.1,0.9,0.1,1.1,0.2C186.1,26.8,185.8,27.4,185.3,28.5"/>
		<path class="st6" d="M176.3,26.2c0.6,0.7,1.2,0.8,1.5,1.6c-0.1,0.2-0.4,0.3-0.6,0.2c-0.9-1-1.8-1.2-1.4-1.7
			c-0.2,0-0.3,0.2-0.3,0.4c0.2,0.7,1,1,1.2,1.7c-0.1,0.5-1.1,0-1.6-1.2l0-0.1c-0.2,0.4-0.3,0.5,0.3,1.3c0.1,0.3,0.2,0.6-0.3,0.5
			c0.1,0.1-0.2,0-0.1,0h0.1c0,0-0.1,0-0.1-0.1c0.2-1.3-0.9-1-0.9-1c0.2-0.4-0.5-0.9-1.1-0.6c0.1-0.3-0.6-0.9-1.6-0.5
			c-0.1-0.3-1-0.7-1.8,0.4c-1.5,0.1-3.9,1.4-5.4,0.8c-0.1,0.1-0.9-2.4-0.9-2.4c1.7-0.2,5.6-0.4,6.9-1c1.1-0.7,3.1-1,3.6-0.8
			c0,0.4-0.9,1.1-0.5,1.4c0.8,0.7,2,0.4,2.8-0.1c0.8,0.9,2.2,1,2.7,2.2l-0.2,0.4c-0.3,0.2-0.3,0.2-0.6-0.3c-0.8-1.1-1.6-0.8-1.7-1.6
			C176.1,25.7,176.3,26.1,176.3,26.2"/>
		<path class="st6" d="M172.4,28.5c-0.3,0.1,0.1-0.2,0.2-0.3l0.1-0.2c0.3-0.2,0.6-0.6,0.8-0.1c0.1,0.3-0.9,0.9-1,0.9
			c-0.2,0.1-0.2,0.1-0.3-0.1C172.1,28.7,172.2,28.5,172.4,28.5"/>
		<path class="st6" d="M171.5,28.4c-0.2,0-0.3,0.1-0.4-0.1c-0.1-0.2,0.2-0.5,0.4-0.7c0.1-0.1,0.2-0.1,0.2-0.2l0.2-0.2
			c0.4,0,0.3,0,0.4,0.2C172.3,27.6,171.6,28.4,171.5,28.4"/>
		<path class="st6" d="M173.9,28.5c0,0,0.4-0.4,0.6,0.2c0.1,0.2-0.4,0.5-0.8,0.6C173.5,29.2,173,29.2,173.9,28.5"/>
		<path class="st6" d="M170.4,27.7c-0.2,0.1-0.4-0.2-0.3-0.3l0.2-0.3c0.3-0.1,0.5-0.2,0.5-0.1C171,27.1,170.6,27.6,170.4,27.7"/>
		<path class="st7" d="M174.9,2.8c-6.7,0-12.2,7.1-12.5,16.1h24.9C187.1,9.9,181.7,2.8,174.9,2.8"/>
		<path class="st3" d="M175.6,22.5l0-7.1c0,0,2.4,0,3,0c0,0,0.9-0.3,1-1.1c0.1-0.5-0.3-2.1-0.4-2.4c0,0-0.4-0.3-0.5-0.7
			c0,0-0.2-2.7-0.8-3.4c-0.5-0.8-1.3-1.7-3.1-1.6c-1.8,0-2.7,1.2-2.8,2c-0.2,1,1,1,1,1s-0.5,0.4-0.7,0.6c-0.2,0.2-0.6,0.7-1.1,1.6
			c-0.5,0.9-0.8,2.3-0.6,2.8c0.2,0.5,1.1,1.1,2,1.2c1,0.1,1.6-0.1,1.6-0.1v7.1L175.6,22.5z"/>
		<path class="st8" d="M173,12.8c-0.7,0-1,0.4-1.6,0.4c0,0,0.1-1.3,1.4-2.9c0.5-0.6,1.8-1.3,2.4-1.6l0-0.1c-0.6,0.1-2.1,0.4-2.5-0.3
			c-0.1-0.7,0.8-1.4,2.1-1.5c0.8,0,1.3,0.2,1.9,0.6c0.7,0.5,1,1.2,1.1,2c-0.9,0.4-1.1,0.5-1.2,0.6c0.1,0,0.3,0.1,0.6,0.1
			c0.3,0,0.5,0,0.6-0.1v0.5c0.1,0.1,0.1,0.1,0.1,0.2c-1.5,0.6-2.2,0.9-2.4,0.9c0,0,0.3,0.1,0.6,0.1c0.5,0,1.2-0.2,1.8-0.4
			c0,0.3,0,0.5,0.4,0.7l0,0l0,0c-1.5,0.8-2.1,0.7-2.2,0.7l-1.1-0.2c0.3,0.1,0.9,0.6,1.4,0.7c0.5,0.1,1.5-0.4,2.1-0.6l0.2,0.7
			c-0.9,0-1.9,1.3-3.3,0.8C174.8,13.6,174,12.8,173,12.8"/>
		<path class="st8" d="M174.3,14.7c-0.7,0-1.8,0-1.8,0c-0.3-0.1-1.2-0.6-1.1-0.7c0.1,0,0.3,0,1.1-0.3
			C173.4,13.3,174.2,14.5,174.3,14.7"/>
		<path class="st8" d="M179,14c0,0.2-0.3,0.7-0.5,0.7c-0.2,0-1.1,0-1.6,0c0.4,0,0.6-0.1,0.8-0.2C179.1,13.8,179,14,179,14"/>
		<path class="st2" d="M174.2,40.1c0.1-0.2,0-0.5,0-0.5s-0.5,0.7-1.2,1.1c-0.6,0.4-1.6,0.6-1.8,0.6c0.1,0.1,0.3,0.3,0.4,0.4
			c0.2,0,1-0.1,1.7-0.6C173.8,40.8,174.2,40.1,174.2,40.1"/>
		<path class="st7" d="M175.8,40.1c-0.1-0.2,0-0.5,0-0.5s0.5,0.7,1.2,1.1c0.6,0.4,1.6,0.6,1.8,0.6c0.3-0.3,0.5-0.5,0.5-0.5
			s-0.9-0.1-1.8-0.4c-0.9-0.3-1.3-0.8-1.4-1c-0.1-0.2,0.1-0.6,0.2-0.7c0.1-0.1,1.6-0.2,1.6-1.5c-0.1-1.5-2.5-1.1-2.9-1
			c-0.3-0.1-2.8-0.5-2.9,1c-0.1,1.3,1.5,1.4,1.6,1.5c0.1,0.1,0.3,0.5,0.2,0.7c-0.1,0.2-0.5,0.7-1.4,1c-0.9,0.3-1.8,0.4-1.8,0.4
			s0.2,0.3,0.5,0.5c0.2,0,1.2-0.3,1.8-0.6c0.7-0.4,1.2-1.1,1.2-1.1s0.1,0.3,0,0.5c0,0-0.4,0.7-0.9,1c-0.8,0.5-1.5,0.6-1.7,0.6
			c0.2,0.2,0.5,0.3,0.7,0.3c1.6-0.1,2.2-1.8,2.2-1.8s0.2,0.1,0.4,0.2h0h0c0.3,0,0.4-0.2,0.4-0.2s0.6,1.7,2.2,1.8
			c0.2,0,0.5-0.1,0.7-0.3c-0.2,0-1-0.1-1.7-0.6C176.1,40.8,175.8,40.1,175.8,40.1"/>
		<path class="st2" d="M178.8,41.3c-0.2,0-1.2-0.3-1.8-0.6c-0.7-0.4-1.2-1.1-1.2-1.1s-0.1,0.3,0,0.5c0,0,0.4,0.7,0.9,1
			c0.7,0.5,1.5,0.6,1.7,0.6h0C178.5,41.6,178.6,41.5,178.8,41.3"/>
		<path class="st2" d="M173.8,36.6c0,0-0.4,0.3-0.4,0.7c0,0.3,0.1,0.7,0.1,0.7s-0.8-0.3-0.8-0.8C172.7,36.4,173.8,36.6,173.8,36.6"
			/>
		<path class="st2" d="M176.2,36.6c0,0,0.4,0.3,0.4,0.7c0.1,0.3-0.1,0.7-0.1,0.7s0.8-0.3,0.8-0.8C177.2,36.4,176.2,36.6,176.2,36.6"
			/>
		<path class="st2" d="M175,36.9h-0.1c-1.4,0-0.6,1.3-0.6,1.3s0.2-0.2,0.6-0.2h0.2c0.3,0,0.6,0.2,0.6,0.2S176.4,36.9,175,36.9"/>
		<path class="st2" d="M175,38.6L175,38.6L175,38.6h-0.1c-0.4,0-0.4,0.2-0.4,0.4c0,0.2,0.1,0.9,0.4,0.9h0h0c0.3,0,0.4-0.8,0.4-0.9
			C175.4,38.8,175.4,38.6,175,38.6"/>
	</g>
</g>
</svg>
