<?xml version="1.0" encoding="utf-8"?>
<!-- Generator: Adobe Illustrator 19.1.0, SVG Export Plug-In . SVG Version: 6.00 Build 0)  -->
<svg version="1.1" id="Capa_1" xmlns="http://www.w3.org/2000/svg" xmlns:xlink="http://www.w3.org/1999/xlink" x="0px" y="0px"
	 viewBox="-311 247 337 68" style="enable-background:new -311 247 337 68;" xml:space="preserve">
<style type="text/css">
	.st0{enable-background:new    ;}
	.st1{fill:#FFFFFF;}
	.st2{fill:#231F20;}
	.st3{fill:#FACC63;}
	.st4{fill:#0B9E5C;}
	.st5{fill:#EFB780;}
	.st6{fill:#168FBA;}
	.st7{fill:#D93E26;}
</style>
<g>
	<g id="XMLID_5_">
		<g class="st0">
			<path class="st1" d="M-247.8,268h2.4l2.6,4.3l2.6-4.3h2.4V278h-2.2v-6.6l-2.8,4.3h-0.1l-2.8-4.3v6.5h-2.2V268z"/>
			<path class="st1" d="M-235.5,267.5h2.3v1.9h-2.3V267.5z M-235.5,270.3h2.2v7.7h-2.2V270.3z"/>
			<path class="st1" d="M-231.2,270.3h2.2v1.1c0.5-0.6,1.1-1.2,2.3-1.2c1.7,0,2.6,1.1,2.6,2.9v5h-2.2v-4.3c0-1-0.5-1.6-1.3-1.6
				c-0.8,0-1.4,0.5-1.4,1.6v4.3h-2.2V270.3z"/>
			<path class="st1" d="M-222.2,267.5h2.3v1.9h-2.3V267.5z M-222.2,270.3h2.2v7.7h-2.2V270.3z"/>
			<path class="st1" d="M-218.5,277l0.9-1.4c0.8,0.6,1.7,0.9,2.4,0.9c0.6,0,0.9-0.2,0.9-0.6v0c0-0.5-0.7-0.6-1.6-0.9
				c-1.1-0.3-2.3-0.8-2.3-2.3v0c0-1.6,1.3-2.4,2.8-2.4c1,0,2,0.3,2.9,0.9l-0.8,1.5c-0.8-0.4-1.5-0.7-2.1-0.7c-0.5,0-0.8,0.2-0.8,0.5
				v0c0,0.4,0.7,0.6,1.6,0.9c1.1,0.4,2.3,0.9,2.3,2.3v0c0,1.7-1.3,2.5-2.9,2.5C-216.3,278.2-217.5,277.8-218.5,277z"/>
			<path class="st1" d="M-210.5,275.9v-3.7h-0.9v-1.9h0.9v-2h2.2v2h1.8v1.9h-1.8v3.3c0,0.5,0.2,0.7,0.7,0.7c0.4,0,0.8-0.1,1.1-0.3
				v1.8c-0.5,0.3-1,0.4-1.7,0.4C-209.6,278.2-210.5,277.6-210.5,275.9z"/>
			<path class="st1" d="M-205.5,274.2L-205.5,274.2c0-2.2,1.6-4,3.8-4c2.6,0,3.8,2,3.8,4.2c0,0.2,0,0.4,0,0.6h-5.4
				c0.2,1,0.9,1.5,1.9,1.5c0.7,0,1.3-0.2,1.9-0.8l1.3,1.1c-0.7,0.9-1.8,1.4-3.1,1.4C-203.8,278.2-205.5,276.6-205.5,274.2z
				 M-200.1,273.6c-0.1-1-0.7-1.6-1.6-1.6c-0.9,0-1.5,0.6-1.7,1.6H-200.1z"/>
			<path class="st1" d="M-196.3,270.3h2.2v1.6c0.4-1.1,1.2-1.8,2.5-1.7v2.3h-0.1c-1.5,0-2.3,0.9-2.3,2.7v2.8h-2.2V270.3z"/>
			<path class="st1" d="M-190.3,267.5h2.3v1.9h-2.3V267.5z M-190.2,270.3h2.2v7.7h-2.2V270.3z"/>
			<path class="st1" d="M-186.3,274.2L-186.3,274.2c0-2.2,1.8-4,4.2-4c2.4,0,4.2,1.8,4.2,4v0c0,2.2-1.8,4-4.2,4
				C-184.6,278.2-186.3,276.4-186.3,274.2z M-180.2,274.2L-180.2,274.2c0-1.2-0.8-2.2-2-2.2c-1.3,0-2,1-2,2.1v0c0,1.1,0.8,2.1,2,2.1
				C-180.9,276.3-180.2,275.4-180.2,274.2z"/>
			<path class="st1" d="M-172.5,274.2L-172.5,274.2c0-2.6,1.7-4,3.5-4c1.2,0,1.9,0.5,2.4,1.1v-3.8h2.2V278h-2.2v-1.1
				c-0.5,0.7-1.3,1.2-2.4,1.2C-170.8,278.2-172.5,276.8-172.5,274.2z M-166.5,274.2L-166.5,274.2c0-1.3-0.8-2.2-1.9-2.2
				s-1.9,0.8-1.9,2.1v0c0,1.3,0.9,2.1,1.9,2.1S-166.5,275.5-166.5,274.2z"/>
			<path class="st1" d="M-162.8,274.2L-162.8,274.2c0-2.2,1.6-4,3.8-4c2.6,0,3.8,2,3.8,4.2c0,0.2,0,0.4,0,0.6h-5.4
				c0.2,1,0.9,1.5,1.9,1.5c0.7,0,1.3-0.2,1.9-0.8l1.3,1.1c-0.7,0.9-1.8,1.4-3.1,1.4C-161.1,278.2-162.8,276.6-162.8,274.2z
				 M-157.4,273.6c-0.1-1-0.7-1.6-1.6-1.6c-0.9,0-1.5,0.6-1.7,1.6H-157.4z"/>
			<path class="st1" d="M-149.1,268h2.4l2.6,4.3l2.6-4.3h2.4V278h-2.2v-6.6l-2.8,4.3h-0.1l-2.8-4.3v6.5h-2.2V268z"/>
			<path class="st1" d="M-137.2,274.2L-137.2,274.2c0-2.2,1.8-4,4.2-4c2.4,0,4.2,1.8,4.2,4v0c0,2.2-1.8,4-4.2,4
				C-135.4,278.2-137.2,276.4-137.2,274.2z M-131,274.2L-131,274.2c0-1.2-0.8-2.2-2-2.2c-1.2,0-2,1-2,2.1v0c0,1.1,0.8,2.1,2,2.1
				C-131.8,276.3-131,275.4-131,274.2z"/>
			<path class="st1" d="M-127.6,274.2L-127.6,274.2c0-2.6,1.7-4,3.5-4c1.2,0,1.9,0.5,2.4,1.1v-3.8h2.2V278h-2.2v-1.1
				c-0.5,0.7-1.3,1.2-2.4,1.2C-125.9,278.2-127.6,276.8-127.6,274.2z M-121.7,274.2L-121.7,274.2c0-1.3-0.8-2.2-1.9-2.2
				s-1.9,0.8-1.9,2.1v0c0,1.3,0.9,2.1,1.9,2.1S-121.7,275.5-121.7,274.2z"/>
			<path class="st1" d="M-118,274.2L-118,274.2c0-2.2,1.6-4,3.8-4c2.6,0,3.8,2,3.8,4.2c0,0.2,0,0.4,0,0.6h-5.4
				c0.2,1,0.9,1.5,1.9,1.5c0.7,0,1.3-0.2,1.9-0.8l1.2,1.1c-0.7,0.9-1.8,1.4-3.1,1.4C-116.3,278.2-118,276.6-118,274.2z
				 M-112.5,273.6c-0.1-1-0.7-1.6-1.6-1.6c-0.9,0-1.5,0.6-1.7,1.6H-112.5z"/>
			<path class="st1" d="M-108.8,270.3h2.2v1.6c0.4-1.1,1.2-1.8,2.5-1.7v2.3h-0.1c-1.5,0-2.3,0.9-2.3,2.7v2.8h-2.2V270.3z"/>
			<path class="st1" d="M-102.8,270.3h2.2v1.1c0.5-0.6,1.2-1.2,2.3-1.2c1.7,0,2.6,1.1,2.6,2.9v5h-2.2v-4.3c0-1-0.5-1.6-1.3-1.6
				c-0.8,0-1.4,0.5-1.4,1.6v4.3h-2.2V270.3z"/>
			<path class="st1" d="M-93.8,267.5h2.3v1.9h-2.3V267.5z M-93.7,270.3h2.2v7.7h-2.2V270.3z"/>
			<path class="st1" d="M-89.7,276.5l4-4.4h-3.9v-1.8h6.6v1.5l-4,4.4h4v1.8h-6.7V276.5z"/>
			<path class="st1" d="M-81.9,275.8L-81.9,275.8c0-1.7,1.3-2.5,3.1-2.5c0.8,0,1.3,0.1,1.9,0.3v-0.1c0-0.9-0.6-1.4-1.7-1.4
				c-0.8,0-1.4,0.2-2.1,0.4l-0.5-1.7c0.8-0.4,1.7-0.6,3-0.6c1.2,0,2.1,0.3,2.6,0.9c0.6,0.6,0.8,1.4,0.8,2.5v4.5h-2.1v-0.8
				c-0.5,0.6-1.3,1-2.3,1C-80.7,278.2-81.9,277.3-81.9,275.8z M-76.8,275.3v-0.4c-0.4-0.2-0.9-0.3-1.4-0.3c-0.9,0-1.5,0.4-1.5,1.1v0
				c0,0.6,0.5,0.9,1.2,0.9C-77.5,276.7-76.8,276.1-76.8,275.3z"/>
			<path class="st1" d="M-73.3,274.2L-73.3,274.2c0-2.2,1.7-4,4-4c1.5,0,2.4,0.5,3.1,1.3l-1.3,1.4c-0.5-0.5-1-0.8-1.8-0.8
				c-1.1,0-1.9,1-1.9,2.1v0c0,1.2,0.8,2.1,2,2.1c0.7,0,1.2-0.3,1.8-0.8l1.3,1.3c-0.7,0.8-1.6,1.4-3.1,1.4
				C-71.6,278.2-73.3,276.4-73.3,274.2z"/>
			<path class="st1" d="M-64.6,267.5h2.3v1.9h-2.3V267.5z M-64.6,270.3h2.2v7.7h-2.2V270.3z"/>
			<path class="st1" d="M-60.7,274.2L-60.7,274.2c0-2.2,1.8-4,4.2-4c2.4,0,4.2,1.8,4.2,4v0c0,2.2-1.8,4-4.2,4
				C-58.9,278.2-60.7,276.4-60.7,274.2z M-54.5,274.2L-54.5,274.2c0-1.2-0.8-2.2-2-2.2c-1.3,0-2,1-2,2.1v0c0,1.1,0.8,2.1,2,2.1
				C-55.3,276.3-54.5,275.4-54.5,274.2z M-55.8,266.9l1.9,0.8l-1.9,1.7h-1.6L-55.8,266.9z"/>
			<path class="st1" d="M-50.8,270.3h2.2v1.1c0.5-0.6,1.1-1.2,2.3-1.2c1.7,0,2.6,1.1,2.6,2.9v5h-2.2v-4.3c0-1-0.5-1.6-1.3-1.6
				s-1.4,0.5-1.4,1.6v4.3h-2.2V270.3z"/>
		</g>
	</g>
	<g>
		<g class="st0">
			<path class="st1" d="M-247.1,287.8h5.8c3.4,0,5.6,1.9,5.6,4.9v0c0,3.3-2.6,5-5.9,5h-2.9v4.7h-2.6V287.8z M-241.6,295.4
				c1.9,0,3.2-1.1,3.2-2.6v0c0-1.7-1.2-2.6-3.2-2.6h-3v5.3H-241.6z"/>
			<path class="st1" d="M-233.4,291.4h2.5v2.5c0.7-1.7,2-2.8,3.9-2.7v2.7h-0.1c-2.2,0-3.8,1.4-3.8,4.4v4.2h-2.5V291.4z"/>
			<path class="st1" d="M-225.7,297L-225.7,297c0-3.2,2.2-5.8,5.4-5.8c3.5,0,5.3,2.8,5.3,5.9c0,0.2,0,0.5,0,0.7h-8.1
				c0.3,1.8,1.6,2.8,3.2,2.8c1.2,0,2.1-0.5,3-1.3l1.5,1.3c-1,1.3-2.5,2.1-4.5,2.1C-223.3,302.7-225.7,300.4-225.7,297z
				 M-217.6,296.1c-0.2-1.6-1.1-2.9-2.8-2.9c-1.6,0-2.6,1.2-2.9,2.9H-217.6z"/>
			<path class="st1" d="M-213.4,301l1.1-1.7c1.2,0.9,2.5,1.4,3.6,1.4c1.1,0,1.7-0.5,1.7-1.2v0c0-0.9-1.2-1.2-2.5-1.5
				c-1.6-0.5-3.5-1.1-3.5-3.2v0c0-2.1,1.7-3.4,3.9-3.4c1.4,0,2.9,0.5,4.1,1.3l-1,1.8c-1.1-0.6-2.2-1-3.1-1c-1,0-1.6,0.5-1.6,1.1v0
				c0,0.8,1.2,1.2,2.5,1.6c1.6,0.5,3.4,1.2,3.4,3.2v0c0,2.3-1.8,3.5-4.1,3.5C-210.3,302.6-212,302.1-213.4,301z"/>
			<path class="st1" d="M-201.9,287.3h2.7v2.4h-2.7V287.3z M-201.8,291.4h2.5v11.1h-2.5V291.4z"/>
			<path class="st1" d="M-196.6,296.9L-196.6,296.9c0-3.7,2.5-5.8,5.1-5.8c1.8,0,3,0.9,3.8,1.9v-6h2.5v15.3h-2.5v-1.8
				c-0.8,1.2-2,2.1-3.8,2.1C-194,302.7-196.6,300.6-196.6,296.9z M-187.6,296.9L-187.6,296.9c0-2.2-1.5-3.6-3.2-3.6
				c-1.7,0-3.2,1.3-3.2,3.5v0c0,2.1,1.5,3.5,3.2,3.5C-189.1,300.5-187.6,299-187.6,296.9z"/>
			<path class="st1" d="M-182.5,297L-182.5,297c0-3.2,2.2-5.8,5.4-5.8c3.5,0,5.3,2.8,5.3,5.9c0,0.2,0,0.5,0,0.7h-8.1
				c0.3,1.8,1.6,2.8,3.2,2.8c1.2,0,2.1-0.5,3-1.3l1.5,1.3c-1,1.3-2.5,2.1-4.5,2.1C-180.1,302.7-182.5,300.4-182.5,297z
				 M-174.3,296.1c-0.2-1.6-1.1-2.9-2.8-2.9c-1.6,0-2.6,1.2-2.9,2.9H-174.3z"/>
			<path class="st1" d="M-169.3,291.4h2.5v1.7c0.7-1,1.7-1.9,3.5-1.9c2.5,0,3.9,1.7,3.9,4.2v7.1h-2.5v-6.3c0-1.7-0.9-2.7-2.4-2.7
				c-1.5,0-2.5,1-2.5,2.7v6.2h-2.5V291.4z"/>
			<path class="st1" d="M-156.9,297L-156.9,297c0-3.2,2.4-5.8,5.8-5.8c2.1,0,3.4,0.8,4.4,1.9l-1.6,1.7c-0.8-0.8-1.6-1.4-2.8-1.4
				c-1.8,0-3.2,1.6-3.2,3.5v0c0,2,1.4,3.5,3.3,3.5c1.2,0,2.1-0.5,2.9-1.4l1.5,1.5c-1.1,1.2-2.4,2.1-4.5,2.1
				C-154.5,302.7-156.9,300.1-156.9,297z"/>
			<path class="st1" d="M-144.3,287.3h2.7v2.4h-2.7V287.3z M-144.2,291.4h2.5v11.1h-2.5V291.4z"/>
			<path class="st1" d="M-139.1,299.3L-139.1,299.3c0-2.4,1.9-3.6,4.6-3.6c1.2,0,2.1,0.2,3,0.5v-0.3c0-1.6-1-2.4-2.7-2.4
				c-1.2,0-2.2,0.3-3.2,0.7l-0.7-2c1.2-0.5,2.4-0.9,4.2-0.9c1.7,0,2.9,0.4,3.7,1.2c0.8,0.8,1.2,2,1.2,3.4v6.6h-2.5v-1.4
				c-0.8,0.9-1.9,1.6-3.6,1.6C-137.2,302.7-139.1,301.5-139.1,299.3z M-131.5,298.5v-0.8c-0.6-0.3-1.5-0.4-2.5-0.4
				c-1.6,0-2.6,0.7-2.6,1.8v0c0,1.1,0.9,1.7,2.2,1.7C-132.8,300.8-131.5,299.9-131.5,298.5z"/>
			<path class="st1" d="M-120.3,296.9L-120.3,296.9c0-3.7,2.5-5.8,5.1-5.8c1.8,0,3,0.9,3.8,1.9v-6h2.5v15.3h-2.5v-1.8
				c-0.8,1.2-2,2.1-3.8,2.1C-117.8,302.7-120.3,300.6-120.3,296.9z M-111.4,296.9L-111.4,296.9c0-2.2-1.5-3.6-3.2-3.6
				c-1.7,0-3.2,1.3-3.2,3.5v0c0,2.1,1.5,3.5,3.2,3.5C-112.9,300.5-111.4,299-111.4,296.9z"/>
			<path class="st1" d="M-106.3,297L-106.3,297c0-3.2,2.2-5.8,5.4-5.8c3.5,0,5.3,2.8,5.3,5.9c0,0.2,0,0.5,0,0.7h-8.1
				c0.3,1.8,1.6,2.8,3.2,2.8c1.2,0,2.1-0.5,3-1.3l1.5,1.3c-1,1.3-2.5,2.1-4.5,2.1C-103.8,302.7-106.3,300.4-106.3,297z M-98.1,296.1
				c-0.2-1.6-1.1-2.9-2.8-2.9c-1.6,0-2.6,1.2-2.9,2.9H-98.1z"/>
			<path class="st1" d="M-86.6,287.1h2.5v15.3h-2.5V287.1z"/>
			<path class="st1" d="M-81.5,299.3L-81.5,299.3c0-2.4,1.9-3.6,4.6-3.6c1.2,0,2.1,0.2,3,0.5v-0.3c0-1.6-1-2.4-2.7-2.4
				c-1.2,0-2.2,0.3-3.2,0.7l-0.7-2c1.2-0.5,2.4-0.9,4.2-0.9c1.7,0,2.9,0.4,3.7,1.2c0.8,0.8,1.2,2,1.2,3.4v6.6H-74v-1.4
				c-0.8,0.9-1.9,1.6-3.6,1.6C-79.6,302.7-81.5,301.5-81.5,299.3z M-73.9,298.5v-0.8c-0.6-0.3-1.5-0.4-2.5-0.4
				c-1.6,0-2.6,0.7-2.6,1.8v0c0,1.1,0.9,1.7,2.2,1.7C-75.2,300.8-73.9,299.9-73.9,298.5z"/>
			<path class="st1" d="M-61.9,287.8h2.4l7.9,10.1v-10.1h2.5v14.7h-2.2l-8.1-10.4v10.4h-2.5V287.8z"/>
			<path class="st1" d="M-46.3,299.3L-46.3,299.3c0-2.4,1.9-3.6,4.6-3.6c1.2,0,2.1,0.2,3,0.5v-0.3c0-1.6-1-2.4-2.7-2.4
				c-1.2,0-2.2,0.3-3.2,0.7l-0.7-2c1.2-0.5,2.4-0.9,4.2-0.9c1.7,0,2.9,0.4,3.7,1.2c0.8,0.8,1.2,2,1.2,3.4v6.6h-2.5v-1.4
				c-0.8,0.9-1.9,1.6-3.6,1.6C-44.5,302.7-46.3,301.5-46.3,299.3z M-38.7,298.5v-0.8c-0.6-0.3-1.5-0.4-2.5-0.4
				c-1.6,0-2.6,0.7-2.6,1.8v0c0,1.1,0.9,1.7,2.2,1.7C-40,300.8-38.7,299.9-38.7,298.5z"/>
			<path class="st1" d="M-33.9,297L-33.9,297c0-3.2,2.4-5.8,5.8-5.8c2.1,0,3.4,0.8,4.4,1.9l-1.6,1.7c-0.8-0.8-1.6-1.4-2.8-1.4
				c-1.8,0-3.2,1.6-3.2,3.5v0c0,2,1.4,3.5,3.3,3.5c1.2,0,2.1-0.5,2.9-1.4l1.5,1.5c-1.1,1.2-2.4,2.1-4.5,2.1
				C-31.5,302.7-33.9,300.1-33.9,297z"/>
			<path class="st1" d="M-21.3,287.3h2.7v2.4h-2.7V287.3z M-21.2,291.4h2.5v11.1h-2.5V291.4z"/>
			<path class="st1" d="M-15.9,297L-15.9,297c0-3.2,2.5-5.8,5.9-5.8c3.4,0,5.9,2.6,5.9,5.7v0c0,3.1-2.5,5.8-5.9,5.8
				C-13.5,302.7-15.9,300.1-15.9,297z M-6.7,297L-6.7,297c0-2-1.4-3.6-3.4-3.6c-2,0-3.3,1.6-3.3,3.5v0c0,1.9,1.4,3.5,3.4,3.5
				C-8,300.5-6.7,298.9-6.7,297z M-8.9,286.5l2.3,1l-2.6,2.4h-1.9L-8.9,286.5z"/>
			<path class="st1" d="M-1.6,291.4H1v1.7c0.7-1,1.7-1.9,3.5-1.9c2.5,0,3.9,1.7,3.9,4.2v7.1H5.8v-6.3c0-1.7-0.9-2.7-2.4-2.7
				c-1.5,0-2.5,1-2.5,2.7v6.2h-2.5V291.4z"/>
		</g>
	</g>
	<g>
		<path class="st1" d="M-278.2,301c-7.7,0-13.6-8.4-13.6-18.3h27.2C-264.6,292.6-270.5,301-278.2,301"/>
		<path class="st2" d="M-275.2,259.9h0.2c0,0-0.1-1-1.9-0.9h-0.4l-0.2,0.6l1.2-0.1C-276.3,259.5-275.5,259.5-275.2,259.9"/>
		<path class="st2" d="M-277.2,260.6l0.3-0.3c0,0,0,0,0.1,0l-0.1,0.1c0,0.2,0.1,0.4,0.3,0.4h0.3c0.2-0.1,0.3-0.2,0.3-0.4v-0.1
			c0.2,0,0.4,0.1,0.4,0.3h0.4c0,0-0.2-0.9-1.9-0.7l-0.4,0.6C-277.6,260.6-277.2,260.6-277.2,260.6"/>
		<path class="st2" d="M-281,260.6h0.4c0.1-0.2,0.3-0.3,0.4-0.3v0.1c0,0.2,0.1,0.4,0.3,0.4h0.3c0.2-0.1,0.3-0.2,0.3-0.4
			c0,0,0,0,0-0.1c0.1,0,0.1,0,0.1,0l0.2,0.2h0.4l-0.4-0.6C-280.8,259.6-281,260.6-281,260.6"/>
		<path class="st2" d="M-280,259.5l1.3,0.1l-0.1-0.5h-0.3c-1.9-0.1-2.1,0.9-2.1,0.9h0.2C-280.8,259.4-280,259.5-280,259.5"/>
		<path class="st2" d="M-276.4,272.7C-276.4,272.6-276.5,272.6-276.4,272.7L-276.4,272.7"/>
		<path class="st2" d="M-276.7,303.4c1.3-0.2,5.2-1.8,6.5-2.9c1.5,0.1,2.1-1,3.1-1.6c-0.1-0.1-0.2-0.1-0.3-0.2
			c0.6-0.4,0.9-0.9,1.6-1.4c-0.1-0.1-0.3-0.2-0.5-0.2c1-0.4,0.3-0.8,1.3-1.5c0-0.1-0.1-0.1-0.2-0.1c0.6-0.4,0.6-1,1.2-1.6
			c-0.1-0.1-0.3-0.2-0.6-0.2c1.1-0.4,1-1.1,1.7-1.8c-0.1,0-0.2,0-0.5,0c0.6-0.5,0.4-1.1,0.9-1.9c-0.2-0.1-0.4-0.1-0.7-0.1
			c1-0.4,0.9-1.3,1.4-2.2c-0.1-0.1-0.2-0.1-0.4-0.1c0.8-0.8-0.2-0.5,0.4-2.1c-0.2-0.1-0.4-0.1-0.6,0c0.8-0.7,0.6-1.5,1.1-2.5
			c-0.5-0.1-1.7,0.7-2.1,1.4v-0.1c0.1-0.2,0.3-0.5,0.7-0.8c1.2-0.9,0.7-1.6,1.1-2.8c-0.6,0-1.6,0.9-1.9,1.6c0-0.1,0-0.1-0.1-0.2
			c0.2-0.3,0.2-0.7,0.9-1c1-0.6,0.7-1.6,1-2.7c-0.2,0-0.4,0-0.6,0.1c0.2-0.7-0.2-1.2-0.2-2.1c-0.6,0-1.3,1.1-1.4,1.8
			c0-0.1-0.1-0.2-0.2-0.3c0.1-0.3,0.1-0.6,0.6-1c1-1.2,0.2-1.8,0.3-3c-0.1,0-0.2,0-0.3,0.1c-0.1-0.6-0.5-1-0.5-1.7
			c-0.6,0.1-1.1,1.2-1,1.9c-0.1-0.1-0.2-0.2-0.3-0.3c0.1-0.3,0.1-0.6,0.5-1c0.6-1.1,0-1.7-0.1-2.8c-0.2,0-0.4,0.1-0.5,0.3
			c0-0.7-0.4-1.1-0.7-1.9c-0.4,0.1-0.7,0.6-0.9,1.1c0-0.2,0-0.5,0.1-0.8c0-1.5-0.6-1.6-1.1-2.8c-0.2,0.1-0.3,0.5-0.5,0.9
			c-0.2-1-0.6-1.2-1.1-2.2c-0.3,0.3-0.5,1.3-0.4,1.9c-0.1-0.2-0.1-0.5,0-0.9c-0.1-1.2-0.7-1.6-1.3-2.3c0.3,0,0.6-0.1,0.9-0.4
			c0,0-0.5,0-0.8-0.1c-0.3-0.1-0.5-0.5-0.8-0.6c-0.3-0.2-0.6,0-1.2-0.3l2.9-0.6l-2.9-0.6c0,0,0.2-0.2,0.5-0.2c0.3,0,0.6,0,0.9-0.3
			c0.1-0.2,0.5-0.6,1.3-0.5c-0.7-0.4-1-0.3-1.6-0.1c-0.4,0.3-0.6,0-1.3,0.1c0,0,2.4-1.5,2.4-1.6l-2.9,0.6c0.5-0.7,0.9-0.4,1.2-1.2
			c0.1-0.2,0.4-0.6,0.9-0.8c-0.5-0.2-1.1,0.2-1.7,0.8c-0.2,0.1-0.7,0.3-1,0.4l1.6-2.4c0,0-1.7,1.2-2.4,1.6l0,0
			c0.1-0.7,0.5-0.6,0.6-1.3c0-0.2,0-0.8,0.5-1.4c-0.7,0.2-1,0.6-1.2,1.4c-0.1,0.3-0.5,0.4-0.8,0.7l0.6-2.9l-1.6,2.4
			c0,0-0.1-0.1-0.1-0.4c0.2-0.5,0.2-0.7,0.2-1c-0.2-0.4-0.4-0.9,0-1.5c-0.9,0.6-0.5,1.3-0.8,1.9c-0.1,0.2-0.3,0.5-0.4,0.8l0.3-2.7
			l-0.6,2.8c-0.4-0.4-0.2-0.6-0.3-1c-0.3-0.5-0.7-0.4-0.7-1.6c-0.2,0.4-0.4,0.7,0.1,1.9c0.1,0.1-0.1,0.7,0,1l-1.6-2.4l0.6,2.9
			c-0.4,0-0.5-0.7-0.8-0.9c-0.4-0.3-1-0.2-1.3-1.2c-0.1,0.6,0.1,1,0.7,1.6c0.2,0.3,0.4,0.8,0.4,1.1l-2.5-1.8l1.7,2.4
			c-0.6,0.1-0.6-0.7-1.6-0.6c-0.7,0-1.1-0.6-1-0.5c0.3,1.3,1.2,0.9,1.6,1.4c0.1,0.1,0.5,0.5,0.5,0.6l-2.8-0.6l2.5,1.6
			c-0.4,0.2-1-0.3-1.5-0.1c-0.9,0.5-1.4,0-1.5,0c0.6,0.7,0.9,0.6,1.5,0.6c0.4,0,0.7,0.2,1.2,0.4l-2.9,0.6l2.9,0.5
			c-0.3,0.3-0.9,0.1-1.3,0.4c-0.9,1-1.7,0.4-1.4,0.6c0.7,0.5,1.1,0.4,1.6,0.2c-0.3,0.2-0.5,0.4-0.7,0.7c0-0.2-0.1-0.4-0.2-0.5
			c-0.5,0.8-1.2,0.9-1.5,1.9c-0.1-0.3-0.2-0.5-0.3-0.6c-0.5,0.9-1,1-1.2,2c-0.1-0.3-0.2-0.5-0.3-0.5c-0.5,1.1-1.3,1.4-1,2.8
			c0.1,0.4,0.1,0.6,0.1,0.8c-0.1-0.6-0.4-1.2-0.8-1.2c-0.4,0.6-0.7,1.1-0.8,1.8c-0.1-0.1-0.3-0.2-0.4-0.2c-0.1,1.1-1,1.5-0.1,2.8
			c0.4,0.4,0.4,0.8,0.4,1.1c-0.1,0-0.1,0.1-0.1,0.2c0.1-0.7-0.6-1.7-1.1-1.8c-0.1,0.8-0.5,1.2-0.4,1.9c-0.2-0.1-0.3-0.1-0.4-0.1
			c0.1,1.1-0.7,1.6,0.3,2.7c0.5,0.4,0.5,0.7,0.6,0.9c-0.1,0.1-0.1,0.2-0.2,0.3c-0.1-0.7-0.8-1.7-1.3-1.7c0.1,1.3-0.5,1.2-0.1,2.1
			c-0.2-0.1-0.4-0.2-0.6-0.2c0.3,1.1,0,2,1,2.7c0.6,0.3,0.7,0.7,0.8,1c0,0.1-0.1,0.1-0.1,0.2c-0.2-0.7-1.3-1.6-1.8-1.6
			c0.3,1,0.1,1.9,0.7,2.5c-0.3-0.2-0.7-0.3-1-0.2c0.5,1.1,0.2,1.7,1.3,2.7c-0.3-0.2-0.7-0.2-0.9-0.1c0.3,0.8,0.2,1.3,0.5,1.9
			c-0.2,0-0.3,0-0.4,0.1c0.6,0.9,0.4,1.6,1.3,2.2c-0.2,0-0.4,0-0.5,0.1c0.4,0.7,0.4,1.2,0.8,1.7c-0.1,0-0.2,0-0.3,0.1
			c0.7,0.7,0.7,1.4,1.5,1.8c-0.2,0-0.4,0-0.5,0.1c0.5,0.6,0.7,1.1,1.3,1.5c-0.2,0-0.4,0.1-0.5,0.2c0.8,0.6,0.9,1.2,1.7,1.5
			c-0.2,0-0.4,0.1-0.5,0.2c1,0.8,0.4,1.1,1.3,1.5c-0.1,0.1-0.1,0.1-0.2,0.1c1.1,0.6,1.2,1.9,3.5,1.9l0,0c1.1,1.2,4.2,2.7,6.4,2.9
			L-276.7,303.4z M-262.3,286.1c-0.3,0.7,0,1.2-0.6,1.7c-0.5,0.1-0.4,0.2-0.5,0.4c0.1-0.3,0.2-0.5,0.3-0.7c-0.2,0.1-0.4,0.3-0.5,0.5
			c-0.1-0.1-0.3-0.1-0.5-0.5c-0.3-0.6-0.1-0.9-0.2-1.5c0.3,0.5,0.8,1.1,0.9,1.4C-263.3,286.7-262.6,286-262.3,286.1 M-263.5,286.4
			c0.1-0.2,0.3-0.4,0.6-0.6c-0.3,0.2-0.5,0.5-0.6,0.8C-263.5,286.6-263.5,286.5-263.5,286.4 M-262,283.6c-0.4,0.8-0.1,1.2-0.8,1.8
			c-0.5,0.2-0.5,0.3-0.6,0.5c0.1-0.3,0.2-0.5,0.4-0.8c-0.2,0.2-0.4,0.3-0.5,0.5c-0.1-0.1-0.3,0-0.5-0.4c-0.3-0.5,0-0.8-0.1-1.4
			c0.3,0.4,0.8,0.8,0.8,1.2C-263.1,284.5-262.2,283.6-262,283.6 M-263.3,282.9c0.1-0.6,0.8-1.6,1.1-1.6c-0.2,0.8,0.1,1.1-0.5,1.9
			c-0.5,0.3-0.4,0.4-0.5,0.6c0-0.3,0.1-0.6,0.3-0.8c-0.2,0.2-0.3,0.4-0.4,0.6c-0.1,0-0.3,0-0.6-0.3c-0.4-0.5-0.2-0.8-0.3-1.3
			C-263.9,282.2-263.4,282.6-263.3,282.9 M-264.1,281.2c0.3,0.3,0.5,0.4,0.6,0.7c-0.2-0.2-0.4-0.3-0.6-0.5
			C-264.1,281.4-264.1,281.3-264.1,281.2 M-262.2,278.9c-0.2,0.8,0.1,1.1-0.5,1.8c-0.5,0.2-0.4,0.4-0.5,0.5c0.1-0.3,0.1-0.6,0.3-0.8
			c-0.2,0.2-0.3,0.3-0.4,0.6c-0.1-0.1-0.3,0-0.6-0.4c-0.4-0.5-0.2-0.8-0.3-1.3c0.4,0.4,1,0.7,1,1.1
			C-263.2,279.9-262.5,278.9-262.2,278.9 M-263.4,278.7c0-0.5,0.5-1.6,0.8-1.6c-0.1,0.8,0.3,1.1-0.2,1.8c-0.4,0.3-0.3,0.4-0.4,0.6
			c0-0.3,0-0.5,0.1-0.8c-0.2,0.2-0.3,0.4-0.3,0.6c-0.1-0.1-0.3,0.1-0.7-0.3c-0.5-0.4-0.3-0.7-0.6-1.2
			C-264.2,278.2-263.5,278.4-263.4,278.7 M-265,289.3c0-0.1,0.1-0.3,0.1-0.4v0.1c0.3,1,0.6,1,0.5,1.7v0.1
			C-264.4,290.3-264.8,289.8-265,289.3 M-266.2,294.1c0-0.3-0.2-0.6-0.3-1c0-0.1,0.1-0.2,0.2-0.3
			C-266.3,293.5-266.1,293.7-266.2,294.1 M-265.2,293.9c-0.4,0.1-0.8,0.3-1,0.5v-0.1C-265.9,294.2-265.8,293.9-265.2,293.9
			 M-267.1,292.5c0,0-2.4,0.4-5.4-1.6c0.2-0.3,0.4-1.1,0.2-1.6c-0.1-0.4-0.1-0.1-0.2,0.2c-0.3,0.7-0.5,0.8-0.8,1
			c-0.9-0.9-1-0.9-2.1-1.6c-0.8-0.4-0.9-0.7-1.3-1c-0.8,0.4-2,1.1-2.6,0.7c-0.5-0.3,0.6-0.6,1-1.2c0.4-0.5,0.8-0.7,1.5-0.5
			c1.2,0.3,1.8,0.7,3.6,1.5c2.2,0.2,3.8,0.8,6.1,1.3c0.4,0.1,0.9,0.2,1.2,0.2C-266.2,290.7-266.5,291.3-267.1,292.5 M-276.8,290.1
			c0.7,0.7,1.3,0.9,1.7,1.8c-0.1,0.3-0.4,0.3-0.7,0.2c-1-1.1-1.9-1.3-1.5-1.8c-0.2,0-0.4,0.2-0.3,0.4c0.2,0.8,1.1,1.1,1.3,1.8
			c-0.1,0.5-1.2,0.1-1.7-1.3v-0.1c-0.2,0.4-0.4,0.5,0.3,1.4c0.2,0.3,0.3,0.7-0.3,0.6c0.1,0.1-0.3,0-0.1,0h0.1c0,0,0,0-0.1-0.1
			c0.3-1.4-1-1.1-1-1.1c0.2-0.5-0.5-1-1.2-0.7c0.1-0.4-0.7-0.9-1.7-0.5c-0.2-0.4-1.1-0.7-2,0.4c-1.6,0.1-4.2,1.5-5.8,0.8
			c-0.1,0.1-1-2.6-1-2.6c1.8-0.2,6-0.5,7.5-1.1c1.2-0.8,3.3-1.1,3.8-0.9c0,0.4-1,1.1-0.5,1.5c0.8,0.8,2.1,0.4,3-0.1
			c0.9,0.9,2.4,1.1,3,2.3l-0.2,0.4c-0.3,0.2-0.3,0.2-0.7-0.3c-0.9-1.2-1.7-0.9-1.9-1.7C-277,289.6-276.8,289.9-276.8,290.1
			 M-281,292.5c-0.3,0.1,0.1-0.2,0.3-0.3l0.1-0.2c0.3-0.3,0.7-0.6,0.9-0.1c0.1,0.3-0.9,0.9-1.1,1c-0.2,0.1-0.2,0.1-0.4,0
			C-281.3,292.7-281.2,292.5-281,292.5 M-282,292.4c-0.2,0-0.3,0.1-0.5-0.1c-0.1-0.2,0.3-0.6,0.4-0.7s0.2-0.2,0.3-0.2l0.2-0.2
			c0.4-0.1,0.4,0,0.4,0.2C-281,291.6-281.8,292.4-282,292.4 M-279.3,292.6c0,0,0.4-0.5,0.6,0.2c0.1,0.3-0.4,0.6-0.8,0.7
			C-279.8,293.3-280.3,293.3-279.3,292.6 M-283.1,291.7c-0.2,0.1-0.4-0.2-0.3-0.3l0.2-0.3c0.3-0.1,0.5-0.3,0.6-0.1
			C-282.5,291.1-282.9,291.6-283.1,291.7 M-290.1,292.8c-0.1,0.1-0.1,0.2-0.2,0.3c0-0.1,0.1-0.3,0.1-0.4
			C-290.1,292.7-290.1,292.7-290.1,292.8 M-290.4,294c-0.1-0.2-0.4-0.3-0.6-0.4c0.2,0.1,0.4,0.2,0.6,0.2
			C-290.4,293.9-290.4,294-290.4,294 M-291.9,290.4C-292,290.4-292,290.4-291.9,290.4c-0.1-0.7,0.1-0.8,0.4-1.7
			c0,0.1,0.1,0.2,0.1,0.4C-291.7,289.5-292,290-291.9,290.4 M-291.8,277.3c-0.1,0.1-0.3,0.1-0.5,0.2c0.1-0.1,0.3-0.2,0.5-0.4
			C-291.8,277.2-291.8,277.3-291.8,277.3 M-291.7,282.9h12.7v3.7c-0.6-0.1-1.6-0.1-2.4,0c-2.3,0.4-1.6,1.6-9.6,1.7
			C-291.7,285.9-291.7,282.9-291.7,282.9 M-283.8,264.4c0.1-0.1,0.3-0.1,0.3-0.6c0.3-1,0.9-0.9,1.6-1.4c0.2,0.3-0.6,1.4-1.1,1.8
			c0.3-0.1,0.8,0.4,1.3,0.5c-0.6,0.1-0.8,0.4-1.4,0.2c-0.4-0.1-0.4-0.3-0.5-0.4c0.2-0.2,0.3-0.4,0.5-0.6
			C-283.3,264.1-283.5,264.2-283.8,264.4 M-274,264c-0.2,0-0.4-0.1-0.6-0.2c0.3-0.1,0.6-0.2,0.9-0.4c0.5,0.1,1,0.4,1.1,0.8
			c-0.5-0.1-0.6,0.2-1.2,0.3c-0.6,0.1-1-0.2-1.5-0.4c-0.2-0.1-0.2-0.3-0.2-0.3c0.3,0.1,0.6,0.1,0.9,0v0.1
			C-274.6,264.1-274.3,264.1-274,264 M-276.1,263.2c0.3,0,0.6-0.1,0.8-0.2c-0.2,0-0.4,0-0.6,0c0.4-0.2,0.7-0.6,1.2-0.5
			c0.7,0,0.7,0.4,1.1,0.2C-273.5,263.1-275.5,264-276.1,263.2 M-277.1,263.1c0.3,0.1,0.7,0.7,1.1,1.1c-0.5-0.2-0.8,0-1.3-0.4
			c-0.3-0.3-0.3-0.5-0.3-0.6c0.2-0.1,0.4-0.2,0.5-0.4c-0.2,0.1-0.5,0.2-0.7,0.2c0.1-0.1,0.3,0,0.5-0.5c0.7-0.6,1-0.3,1.8-0.4
			C-275.7,262.4-276.5,263-277.1,263.1 M-278.7,263.2c0.3,0,0.7,0.5,1.2,0.8c-0.6,0-0.8,0.2-1.3-0.1c-0.4-0.2-0.4-0.4-0.5-0.5
			c0.2-0.1,0.4-0.3,0.5-0.5c-0.2,0.2-0.4,0.3-0.7,0.4c0.1-0.1,0.3-0.1,0.4-0.6c0.6-0.7,0.8-0.4,1.6-0.8
			C-277.5,262.2-278.2,263-278.7,263.2 M-279.9,264.2c-0.6,0-0.8,0.3-1.3,0c-0.4-0.2-0.4-0.4-0.5-0.5c0.2-0.1,0.4-0.3,0.5-0.6
			c-0.2,0.2-0.4,0.3-0.7,0.5c0.1-0.1,0.3-0.1,0.4-0.6c0.5-0.8,0.9-0.6,1.6-0.9c0,0.3-0.7,1.2-1.3,1.4
			C-280.8,263.5-280.3,264-279.9,264.2 M-270.7,266.9c0.1,0,0.1,0,0.2,0C-270.5,266.9-270.6,267-270.7,266.9
			C-270.6,267-270.7,266.9-270.7,266.9 M-266,273.4c0.1,0.1,0.2,0.2,0.3,0.2c-0.1,0-0.2-0.1-0.3-0.1
			C-265.9,273.5-265.9,273.4-266,273.4 M-272.7,287.7c-1.3-0.2-2.9-1.7-4.8-1.6v-3.2h12.7c0,0.4-0.2,3.8-0.9,6.1
			C-268.2,289-270.6,287.6-272.7,287.7 M-264.7,277.2c0.2,0.2,0.4,0.3,0.5,0.4c-0.2-0.1-0.3-0.2-0.5-0.2
			C-264.7,277.3-264.7,277.2-264.7,277.2 M-263.2,274.8c0,0.8,0.4,1.1-0.2,1.8c-0.4,0.3-0.3,0.4-0.4,0.5c0-0.3,0-0.5,0.1-0.8
			c-0.1,0.2-0.3,0.4-0.3,0.6c-0.1,0-0.3,0.1-0.7-0.3c-0.5-0.4-0.3-0.7-0.6-1.3c0.5,0.4,1.1,0.6,1.2,0.9
			C-264,275.8-263.5,274.8-263.2,274.8 M-264.5,274.7c-0.1-0.5,0.2-1.6,0.5-1.7c0.1,0.8,0.6,1,0.2,1.8c-0.4,0.3-0.3,0.4-0.3,0.6
			c0-0.3-0.1-0.5,0-0.8c-0.1,0.2-0.2,0.4-0.2,0.6c-0.2,0-0.3,0.1-0.7-0.2c-0.6-0.4-0.5-0.7-0.8-1.2
			C-265.4,274.2-264.7,274.4-264.5,274.7 M-265.1,270.8c0.1,0.8,0.5,1,0.2,1.8c-0.4,0.3-0.3,0.4-0.3,0.6c-0.1-0.3-0.1-0.5,0-0.8
			c-0.1,0.2-0.2,0.4-0.2,0.6c-0.1,0-0.3,0.1-0.7-0.2c-0.6-0.4-0.5-0.7-0.8-1.2c0.5,0.3,1.2,0.5,1.4,0.8
			C-265.7,271.9-265.3,270.9-265.1,270.8 M-266.1,269.1c0.2,0.8,0.7,1,0.5,1.8c-0.3,0.3-0.2,0.4-0.2,0.6c-0.1-0.2-0.2-0.5-0.2-0.7
			c-0.1,0.2-0.1,0.4-0.1,0.6c-0.2,0-0.3,0.1-0.7-0.1c-0.6-0.3-0.6-0.6-1.1-1.1c0.6,0.3,1.3,0.4,1.6,0.6
			C-266.5,270.3-266.4,269.2-266.1,269.1 M-266.7,270.4c-0.1-0.1-0.2-0.2-0.4-0.3C-267,270.1-266.9,270.2-266.7,270.4
			C-266.7,270.3-266.7,270.3-266.7,270.4 M-267.6,267c0.3,0.8,0.6,0.7,0.6,1.7c-0.2,0.5-0.1,0.6,0,0.8c-0.1-0.3-0.3-0.5-0.3-0.8
			c0,0.2,0,0.5,0,0.8c-0.1,0-0.2,0.2-0.6,0.1c-0.6-0.1-0.6-0.5-1.1-0.9c0.5,0.1,1.2,0,1.4,0.2C-267.8,268.3-267.8,267.2-267.6,267
			 M-268.9,267.4c-0.3-0.5-0.4-1.5-0.2-1.8c0.4,0.7,0.7,0.6,0.8,1.5c-0.1,0.5,0,0.6,0,0.8c-0.2-0.2-0.3-0.5-0.4-0.8
			c0,0.3,0,0.5,0.1,0.7c-0.1,0-0.2,0.2-0.6,0.2c-0.6,0-0.7-0.4-1.2-0.7C-269.8,267.4-269.2,267.2-268.9,267.4 M-271,263.9
			c0.5,0.7,0.9,0.6,1,1.6c-0.1,0.5,0,0.5,0,0.7c-0.2-0.2-0.3-0.4-0.4-0.7c0,0.3,0,0.5,0.1,0.7c-0.1,0-0.2,0.2-0.7,0.2
			c-0.6,0-0.7-0.4-1.2-0.6c0.6,0,1.2-0.2,1.5-0.1C-270.9,265.3-271.1,264.2-271,263.9 M-271.3,263.4c0,0.1,0,0.2-0.1,0.3
			c-0.1-0.1-0.2-0.3-0.3-0.3C-271.5,263.4-271.4,263.4-271.3,263.4 M-271.5,264.1c-0.1,0.6,0.1,0.5,0.2,0.8c-0.1,0-0.1,0-0.1,0
			c-0.2-0.2-0.4-0.4-0.5-0.6c0.1,0.4,0.1,0.6,0.3,0.8c-0.1,0.1-0.2,0.2-0.4,0.2c-0.8,0.1-0.9-0.1-1.2-0.3c0.5-0.2,0.7-0.5,1.2-0.3
			c0,0,0-0.1,0-0.2l0,0l0,0c-0.1-0.2-0.2-0.4-0.4-0.5c-0.2-0.4-0.4-0.8-0.3-1C-272.3,263.4-271.7,263.2-271.5,264.1 M-272,262.8
			h-0.6c-0.1-0.1-0.1-0.1-0.2-0.2C-272.5,262.6-272.1,262.7-272,262.8 M-282.9,262.2c0.6-0.2,0.7-0.4,0.7-0.4l-1.8-0.4l1.8-0.4
			c0,0,0-0.1-1.1-0.4c-0.2-0.1,0-0.3-0.9-0.5c0.3-0.1,0.2,0.1,0.8,0.2c0.4,0,0.7,0.1,1.3-0.1c0,0-1.1-0.8-1.8-1.2
			c0,0,1.2,0.3,2.1,0.5c0-0.1-0.7-0.7-1.2-1.3c-0.1-0.1-0.1-0.2-0.3-0.3c0.5,0.2,0.5,0.3,0.8,0.5c0.3,0.1,0.9,0.5,1.1,0.4
			c-0.5-0.7-1.3-1.8-1.3-1.8l1.8,1.3c-0.1-0.5-0.4-0.8-0.4-1c-0.2-0.8-0.2-0.7-0.3-1c0.5,0.8,0.7,1.2,1.4,1.6l-0.3-2.3l1.1,2
			c0.1-0.3,0-0.8,0-1c0.1-1,0.1-0.4,0-1.2c0.1,0.4,0.1,0.4,0.2,0.9c0.2,0.4,0.3,0.8,0.6,1.2l0.5-2.1c0,0,0.4,2.1,0.3,2.2
			c0.2-0.4,0.2-0.7,0.4-1c0.3-0.6,0.5-1.1,0.5-1.1c-0.2,0.8-0.1,0.5-0.2,1c0,0.5,0,1.1,0.1,1.2l1.3-1.9l-0.5,2.2
			c0.1-0.1,0.7-0.7,1.2-1.1c0.1-0.1,0.4-0.5,0.4-0.5c-0.3,0.4-0.4,0.6-0.6,1c-0.2,0.5-0.2,0.4-0.4,1.1l1.9-1.3l-1.3,1.8
			c0,0,0.1,0,1-0.4c0.5-0.1,0.9-0.3,1.2-0.5c-0.6,0.6-0.9,0.5-1.7,1.6l2.1-0.4c0,0-1.8,1.1-1.9,1.1c0.1,0.1,0.8-0.1,1.4,0
			c0.5,0,0.5,0,1-0.1c-0.6,0.2-0.7,0.1-1.3,0.3c-0.3,0.1-0.8,0.4-0.9,0.5l2.1,0.4c0,0-2.1,0.5-2.5,0.6c-0.1,0-0.2,0-0.4,0
			c-0.1,0-0.2,0-0.3,0c0.1-0.1,0.1-0.3,0.1-0.5c-0.7,0.2-1.4,0-2,0.1c0.1-0.2,0.1-0.3,0-0.4c-0.9,0.4-1.6,0.2-2.4,0.8
			c0-0.2,0-0.4-0.1-0.6c-0.8,0.4-1.4,0.2-2,0.6c0-0.2,0-0.3,0-0.4c-0.8,0.3-1.4,0.4-2,1c-0.1,0-0.3,0-0.5-0.1c0,0,0-0.1-0.1-0.1
			c0,0-0.1,0-0.1,0.1c-0.1,0-0.2,0-0.4,0C-283.7,262.5-283.2,262.4-282.9,262.2 M-285.4,264.8c0.2-0.8,0.7-0.7,1.2-1.3
			c0.1,0.2-0.3,1.3-0.7,1.6c0.3-0.1,0.9,0.2,1.5,0.3c-0.5,0.1-0.7,0.5-1.3,0.4c-0.5-0.1-0.5-0.3-0.6-0.3c0.1-0.2,0.2-0.4,0.2-0.6
			c-0.1,0.2-0.3,0.4-0.5,0.6C-285.5,265.3-285.4,265.3-285.4,264.8 M-284.3,264.9L-284.3,264.9
			C-284.4,264.9-284.4,264.9-284.3,264.9L-284.3,264.9z M-286.8,265.9c0.1-0.9,0.5-0.9,1-1.6c0.2,0.2-0.1,1.4-0.4,1.8
			c0.3-0.2,0.9,0.1,1.5,0.1c-0.5,0.2-0.6,0.6-1.2,0.6c-0.5,0-0.5-0.2-0.6-0.2c0.1-0.2,0.1-0.5,0.1-0.7c-0.1,0.3-0.2,0.5-0.4,0.7
			C-286.8,266.4-286.7,266.4-286.8,265.9 M-287.2,266.7c0,0.1-0.1,0.3-0.1,0.3l0,0C-287.2,267-287.2,266.8-287.2,266.7
			 M-288.3,267.2c0.1-1,0.4-0.9,0.8-1.6c0.2,0.2,0.1,1.3-0.2,1.8c0.3-0.2,0.9,0,1.4,0c-0.5,0.3-0.6,0.7-1.1,0.7s-0.5-0.1-0.6-0.2
			c0.1-0.2,0.1-0.5,0.1-0.7c-0.1,0.3-0.2,0.5-0.4,0.7C-288.3,267.7-288.2,267.7-288.3,267.2 M-289,267.1c0.2,0.2,0.2,1.3-0.1,1.8
			c0.3-0.2,0.9-0.1,1.4-0.2c-0.4,0.4-0.5,0.7-1.1,0.9c-0.4,0.1-0.5-0.1-0.6-0.1c0.1-0.2,0.1-0.5,0.1-0.7c0,0.3-0.2,0.6-0.3,0.8
			c0-0.2,0.1-0.3,0-0.7C-289.6,267.8-289.3,267.9-289,267.1 M-289.9,270.4c0.1-0.1,0.2-0.1,0.3-0.2
			C-289.8,270.3-289.9,270.4-289.9,270.4C-289.9,270.5-289.9,270.4-289.9,270.4 M-290.5,269.3c0.3,0.1,0.4,1.1,0.2,1.6
			c0.3-0.3,0.9-0.4,1.5-0.6c-0.4,0.4-0.4,0.8-1,1.1c-0.5,0.2-0.6,0.1-0.7,0.1c0-0.2,0-0.4-0.1-0.6c0,0.2-0.1,0.5-0.2,0.8
			c0-0.2,0.1-0.2-0.2-0.6C-291.2,270.2-290.7,270-290.5,269.3 M-291.7,272.7c-0.4-0.8,0.1-1,0.2-1.8c0.3,0.1,0.6,1.1,0.5,1.6
			c0.2-0.3,0.9-0.5,1.4-0.8c-0.3,0.5-0.2,0.8-0.8,1.2c-0.4,0.3-0.6,0.2-0.7,0.2c0-0.2-0.1-0.4-0.2-0.6c0.1,0.2,0,0.5,0,0.8
			C-291.4,273.1-291.3,273-291.7,272.7 M-290.5,273.4c0,0.1,0,0.1-0.1,0.2c-0.2,0.1-0.4,0.2-0.6,0.3
			C-291.1,273.7-290.9,273.6-290.5,273.4 M-292.5,273.1c0.3,0.1,0.6,1.1,0.5,1.6c0.2-0.3,0.9-0.5,1.4-0.7c-0.3,0.5-0.2,0.8-0.8,1.1
			c-0.4,0.3-0.6,0.2-0.7,0.2c0-0.2-0.1-0.4-0.2-0.6c0.1,0.2,0,0.5,0,0.8c0-0.2,0-0.3-0.3-0.6C-293,274.1-292.6,273.9-292.5,273.1
			 M-293.1,276.6c-0.5-0.7-0.1-1-0.2-1.8c0.3,0,0.8,1,0.8,1.5c0.1-0.3,0.8-0.6,1.2-0.9c-0.2,0.5-0.1,0.8-0.6,1.3
			c-0.3,0.3-0.5,0.2-0.7,0.3c0-0.2-0.2-0.4-0.3-0.6c0.1,0.2,0.1,0.5,0.1,0.8C-292.7,276.9-292.6,276.8-293.1,276.6 M-293.9,277.1
			c0.3,0.1,0.8,1,0.8,1.6c0.2-0.3,0.8-0.5,1.2-0.9c-0.2,0.5-0.1,0.8-0.6,1.2c-0.3,0.3-0.5,0.2-0.7,0.2c0-0.2-0.2-0.4-0.3-0.6
			c0.1,0.2,0.1,0.5,0.1,0.8c-0.1-0.2,0-0.3-0.4-0.5C-294.2,278.1-293.8,277.9-293.9,277.1 M-293,280.9c-0.1-0.2-0.3-0.4-0.4-0.6
			c0.2,0.2,0.2,0.5,0.3,0.8c-0.1-0.1-0.1-0.3-0.5-0.5c-0.6-0.7-0.4-0.8-0.6-1.6c0.3,0,1,0.8,1.1,1.3c0.1-0.3,0.6-0.6,1-1.1
			c-0.1,0.6,0.1,0.8-0.3,1.3C-292.7,281-292.9,280.9-293,280.9 M-292.3,281.1v0.3c-0.2,0.1-0.4,0.3-0.6,0.5
			C-292.8,281.5-292.6,281.4-292.3,281.1 M-294.3,281.3c0.3,0.1,1,0.9,1.1,1.4c0.1-0.3,0.6-0.6,1-1c-0.1,0.5,0.1,0.8-0.3,1.3
			c-0.3,0.3-0.5,0.3-0.6,0.3c-0.1-0.2-0.3-0.4-0.4-0.6c0.1,0.2,0.2,0.5,0.3,0.8c-0.1-0.2-0.1-0.3-0.5-0.5
			C-294.3,282.3-294.1,282.2-294.3,281.3 M-293.2,284.2L-293.2,284.2c-0.1-0.2-0.4-0.5-0.7-0.8
			C-293.4,283.7-293.3,283.9-293.2,284.2 M-294.4,283.6c0.3,0,1.1,0.7,1.3,1.2c0-0.3,0.5-0.7,0.8-1.2c0,0.6,0.2,0.9-0.1,1.4
			c-0.2,0.4-0.4,0.3-0.5,0.4c-0.1-0.2-0.3-0.4-0.5-0.5c0.2,0.2,0.3,0.5,0.4,0.8c-0.1-0.1-0.1-0.3-0.6-0.5
			C-294.7,284.2-293.5,285.5-294.4,283.6 M-292.9,286.3c0,0.1,0,0.1,0,0.2c-0.1-0.3-0.4-0.6-0.7-0.8
			C-293.4,285.9-293.1,286.1-292.9,286.3 M-293,287.1c0.1-0.4,0.5-0.9,0.9-1.4c-0.1,0.6,0.1,0.8-0.2,1.5c-0.2,0.5-0.4,0.4-0.5,0.6
			c-0.1-0.2-0.3-0.3-0.5-0.5c0.2,0.2,0.3,0.4,0.3,0.7c-0.1-0.1-0.1-0.3-0.5-0.4c-0.7-0.5-0.4-0.7-0.6-1.5
			C-293.9,286-293.1,286.6-293,287.1 M-294,287.8c0.3-0.1,1.1,0.5,1.4,1c0-0.4,0.4-0.9,0.6-1.5c0,0.6,0.3,0.8,0.1,1.4
			c-0.1,0.5-0.3,0.5-0.4,0.6c-0.2-0.2-0.3-0.3-0.5-0.4c0.2,0.1,0.3,0.4,0.5,0.6c-0.2-0.1-0.1-0.2-0.6-0.2
			C-293.8,288.9-293.6,288.4-294,287.8 M-291.8,291c0-0.3,0.4-0.9,0.6-1.5c0,0.6,0.3,0.8,0.1,1.4c-0.1,0.5-0.3,0.5-0.4,0.6
			c-0.2-0.2-0.3-0.3-0.5-0.4c0.2,0.2,0.3,0.4,0.5,0.6c-0.2-0.1-0.1-0.2-0.6-0.2c-0.8-0.4-0.6-0.8-1-1.5
			C-293,289.9-292.1,290.5-291.8,291 M-292.8,291.8c0.2-0.1,1.3,0.3,1.6,0.7c-0.1-0.3,0.2-0.9,0.4-1.5c0.1,0.6,0.4,0.7,0.3,1.3
			c-0.1,0.5-0.2,0.5-0.3,0.6c-0.2-0.2-0.4-0.2-0.6-0.3c0.2,0.1,0.4,0.3,0.6,0.5c-0.2,0.1-0.2-0.1-0.7,0
			C-292.4,292.9-292.2,292.4-292.8,291.8 M-291.8,293.8c0.2-0.1,1.3,0.3,1.6,0.8c-0.1-0.3,0.3-0.9,0.4-1.5c0.1,0.6,0.4,0.7,0.3,1.3
			c-0.1,0.5-0.3,0.5-0.4,0.6c-0.2-0.1-0.4-0.2-0.6-0.3c0.2,0.1,0.4,0.3,0.6,0.5c-0.2-0.1-0.2-0.2-0.7-0.2
			C-291.4,294.8-291.3,294.4-291.8,293.8 M-291,295.4c0.3-0.1,1.4,0.2,1.8,0.5c-0.1-0.3,0.1-0.9,0.2-1.5c0.2,0.5,0.6,0.6,0.5,1.2
			c0,0.5-0.2,0.5-0.3,0.6c-0.2-0.1-0.4-0.2-0.7-0.2c0.2,0.1,0.5,0.2,0.7,0.4c-0.2-0.1-0.2-0.2-0.7-0.1
			C-290.4,296.4-290.4,295.9-291,295.4 M-288.5,297.1c0,0.1,0,0.2,0.1,0.3c-0.2-0.2-0.5-0.3-0.9-0.4
			C-289,296.9-288.7,297-288.5,297.1 M-290,297.2c0.3-0.1,1.4,0.3,1.8,0.6c-0.1-0.3,0.1-0.9,0.2-1.4c0.2,0.5,0.6,0.7,0.5,1.2
			c0,0.4-0.2,0.5-0.3,0.6c-0.2-0.1-0.4-0.2-0.7-0.2c0.3,0.1,0.5,0.3,0.7,0.5c-0.2-0.1-0.2-0.2-0.7-0.1
			C-289.4,298.1-289.3,297.7-290,297.2 M-285.9,300c-0.2-0.1-0.4-0.3-0.7-0.2c-1-0.1-1.2-0.7-2-1.1c0.2-0.2,1.4,0.1,1.9,0.4
			c-0.2-0.3,0-0.8-0.1-1.4c0.3,0.5,0.7,0.5,0.7,1.1c0.1,0.5,0.1,0.8,0.2,1c-0.1-0.1-0.3-0.3-0.5-0.4
			C-286.2,299.6-286.1,299.8-285.9,300 M-287.1,298.6L-287.1,298.6L-287.1,298.6L-287.1,298.6z M-280.8,302.6
			c-2.1-0.6-4-1.7-4.5-2.4c-0.2-0.4-0.2-0.9-0.3-1.5l0,0c1.5,1.3,3.2,2.2,4.9,2.6h-0.2C-281.4,302-281.1,302.4-280.8,302.6
			 M-278.3,300.8c-5.9-0.1-9.3-4.9-10.6-7.2c-0.2-0.3,3.3-1.4,4.1-1.6l1-0.2c0,0.4,0.8,0.6,0.7,0.4c0.2,0.1-0.1,0.4,0.4,0.7
			c0.5,0.3,0.8,0.1,0.8,0c-0.3,0.3,0.7,0.8,1.3,0.5c-0.1,0.3,0.4,0.4,0.5,0.4c0.2,0.1,0.7,0.2,1.1,0v3.2c0.1,0.6,0.1,0.7,0.4,0.8
			c1.3,0.1,1-0.3,1.2-0.7c0-1.4-0.1-3.4-0.1-3.4c0.9-0.1,0.7-0.3,1-0.4c0.4,0.1,0.6,0.1,0.9-0.4c0.5,0,0.9-0.1,1-0.5
			c0.4,0.1,1-0.2,1.3-1c0.9,0.3,4,2,5.5,2.4C-268.5,295-272.1,300.8-278.3,300.8 M-268.1,297.4c0.1-0.1,0.3-0.1,0.5-0.1
			c-0.2,0.1-0.4,0.2-0.6,0.3C-268.1,297.5-268.1,297.5-268.1,297.4 M-269.6,298.9L-269.6,298.9L-269.6,298.9 M-271.1,299
			c-0.1,0.6-0.2,1-0.3,1.3c-0.5,1-3.2,1.9-4.4,2.3c0.3-0.3,0.5-0.9,0.1-1.3h-0.1C-274.1,300.9-272.5,300-271.1,299
			C-271.1,298.9-271.1,298.9-271.1,299 M-269.7,299.9c-0.4-0.1-0.7,0.2-0.9,0.3c0.2-0.2,0.4-0.5,0.5-0.6c-0.2,0.1-0.4,0.2-0.6,0.3
			c0-0.2,0-0.4,0.1-0.8c0.1-0.6,0.5-0.7,0.8-1.2c0,0.6,0.1,1.1-0.1,1.4c0.5-0.3,1.7-0.5,2-0.4C-268.7,299.4-268.8,299.9-269.7,299.9
			 M-268.2,298.6c-0.5-0.1-0.5,0.1-0.7,0.1c0.2-0.2,0.4-0.4,0.7-0.5c-0.2,0-0.5,0.1-0.7,0.2c-0.1-0.1-0.3-0.2-0.3-0.6
			c0-0.6,0.3-0.7,0.5-1.2c0.1,0.5,0.3,1.1,0.2,1.5c0.4-0.4,1.6-0.8,1.8-0.6C-267.3,298-267.2,298.5-268.2,298.6 M-267.1,296.9
			c-0.5-0.1-0.5,0-0.7,0.1c0.2-0.2,0.4-0.4,0.7-0.5c-0.3,0-0.5,0.1-0.7,0.2c0-0.1-0.3-0.2-0.3-0.7c0-0.6,0.3-0.7,0.6-1.2
			c0,0.6,0.3,1.2,0.2,1.5c0.4-0.4,1.5-0.7,1.8-0.5C-266.2,296.3-266.1,296.8-267.1,296.9 M-266,295.5c-0.5,0-0.5,0.1-0.7,0.2
			c0.2-0.2,0.3-0.4,0.6-0.5c-0.2,0.1-0.5,0.1-0.6,0.3c-0.1-0.1-0.3-0.1-0.4-0.6c-0.1-0.6,0.2-0.8,0.3-1.3c0.1,0.6,0.5,1.1,0.4,1.5
			c0.3-0.5,1.4-0.9,1.6-0.8C-265.3,294.7-265.2,295.2-266,295.5 M-264.9,293.4c-0.5,0-0.5,0.1-0.7,0.2c0.2-0.2,0.3-0.4,0.6-0.5
			c-0.2,0.1-0.5,0.1-0.6,0.3c-0.1-0.1-0.3-0.2-0.3-0.7c-0.1-0.6,0.2-0.8,0.3-1.4c0.1,0.6,0.5,1.2,0.4,1.5c0.3-0.4,1.4-0.9,1.6-0.7
			C-264.2,292.7-264.1,293.2-264.9,293.4 M-264.2,291.8c-0.5,0-0.5,0.1-0.6,0.2c0.1-0.2,0.3-0.5,0.5-0.6c-0.2,0.1-0.4,0.2-0.6,0.4
			c-0.1-0.1-0.3-0.1-0.4-0.6c-0.2-0.6,0.1-0.8,0.1-1.4c0.2,0.6,0.6,1.1,0.6,1.5c0.3-0.5,1.2-1,1.4-1
			C-263.6,291-263.4,291.5-264.2,291.8 M-264,290.3c0.1-0.1,0.2-0.1,0.4-0.2C-263.7,290.1-263.9,290.2-264,290.3 M-263.4,289.5
			c-0.5,0-0.5,0.2-0.6,0.3c0.1-0.2,0.3-0.5,0.5-0.6c-0.2,0.1-0.4,0.2-0.5,0.4c-0.1-0.1-0.3-0.1-0.4-0.6c-0.2-0.6,0-0.9,0.1-1.5
			c0.2,0.6,0.6,1.2,0.6,1.5c0.2-0.5,1.1-1.1,1.4-1C-262.8,288.7-262.6,289.2-263.4,289.5"/>
		<path class="st3" d="M-282.9,262.2c0.6-0.2,0.7-0.4,0.7-0.4l-1.8-0.4l1.8-0.4c0,0,0-0.1-1.1-0.4c-0.2-0.1,0-0.3-0.9-0.5
			c0.3-0.1,0.2,0.1,0.8,0.2c0.4,0,0.7,0.1,1.3-0.1c0,0-1.1-0.8-1.8-1.2c0,0,1.2,0.3,2.1,0.5c0-0.1-0.7-0.7-1.2-1.3
			c-0.1-0.1-0.1-0.2-0.3-0.3c0.5,0.2,0.5,0.3,0.8,0.5c0.3,0.1,0.9,0.5,1.1,0.4c-0.5-0.7-1.3-1.8-1.3-1.8l1.9,1.3
			c-0.1-0.5-0.4-0.8-0.5-1c-0.2-0.8-0.2-0.7-0.3-1c0.5,0.8,0.7,1.2,1.5,1.6l-0.3-2.3l1.1,2c0.1-0.3,0-0.8,0-1c0.1-1,0.1-0.4,0-1.2
			c0.1,0.4,0.1,0.4,0.2,0.9c0.2,0.4,0.3,0.8,0.6,1.2l0.5-2.1c0,0,0.4,2.1,0.3,2.2c0.2-0.4,0.2-0.7,0.4-1c0.3-0.6,0.5-1.1,0.5-1.1
			c-0.3,0.8-0.2,0.5-0.3,1c0,0.5,0,1.1,0.1,1.2l1.3-1.9l-0.5,2.2c0.1-0.1,0.7-0.7,1.2-1.1c0.1-0.1,0.4-0.5,0.4-0.5
			c-0.3,0.4-0.4,0.6-0.6,1c-0.2,0.5-0.2,0.4-0.4,1.1l1.9-1.3l-1.3,1.8c0,0,0.1,0,1-0.4c0.5-0.1,0.9-0.3,1.2-0.5
			c-0.6,0.6-0.9,0.5-1.7,1.6l2.1-0.4c0,0-1.8,1.1-1.9,1.1c0.1,0.1,0.8-0.1,1.4,0c0.5,0,0.5,0,1-0.1c-0.6,0.2-0.7,0.1-1.3,0.3
			c-0.3,0.1-0.8,0.4-0.9,0.5l2.1,0.4c0,0-2.1,0.5-2.5,0.6c-0.1,0-0.2,0-0.4,0c-0.1,0-0.2,0-0.3,0c0.1-0.1,0.1-0.3,0.1-0.5
			c-0.7,0.2-1.4,0-2,0.1c0.1-0.2,0.1-0.3,0-0.4c-0.9,0.4-1.6,0.2-2.4,0.8c0-0.2,0-0.4-0.1-0.6c-0.8,0.4-1.4,0.2-2,0.6
			c0-0.2,0-0.3,0-0.4c-0.8,0.3-1.4,0.4-2,1c-0.1,0-0.3,0-0.5-0.1c0,0,0-0.1-0.1-0.1c0,0-0.1,0-0.1,0.1c-0.1,0-0.2,0-0.4,0
			C-283.7,262.5-283.2,262.4-282.9,262.2"/>
		<path class="st2" d="M-275.2,259.9h0.2c0,0-0.1-1-1.9-0.9h-0.4l-0.2,0.6l1.2-0.1C-276.3,259.5-275.5,259.5-275.2,259.9"/>
		<path class="st2" d="M-277.2,260.6l0.3-0.3c0,0,0,0,0.1,0v0.1c0,0.2,0.1,0.4,0.3,0.4h0.3c0.2-0.1,0.3-0.2,0.3-0.4v-0.1
			c0.2,0,0.4,0.1,0.4,0.3h0.4c0,0-0.2-0.9-1.9-0.7l-0.4,0.6C-277.6,260.6-277.2,260.6-277.2,260.6"/>
		<path class="st2" d="M-281,260.6h0.4c0.1-0.2,0.3-0.3,0.4-0.3v0.1c0,0.2,0.1,0.4,0.3,0.4h0.3c0.2-0.1,0.3-0.2,0.3-0.4
			c0,0,0,0,0-0.1c0.1,0,0.1,0,0.1,0l0.2,0.2h0.4l-0.4-0.6C-280.8,259.6-281,260.6-281,260.6"/>
		<path class="st2" d="M-280,259.5l1.3,0.1l-0.1-0.5h-0.3c-1.9-0.1-2.1,0.8-2.1,0.8h0.2C-280.8,259.4-280,259.5-280,259.5"/>
		<path class="st4" d="M-262.3,286.1c-0.3,0.7,0,1.2-0.7,1.7c-0.4,0.1-0.4,0.2-0.5,0.4c0.1-0.3,0.2-0.5,0.3-0.7
			c-0.2,0.1-0.4,0.3-0.5,0.5c-0.1-0.1-0.3-0.1-0.5-0.5c-0.3-0.6-0.1-0.9-0.2-1.5c0.3,0.6,0.8,1,0.9,1.4
			C-263.3,286.7-262.5,286-262.3,286.1"/>
		<path class="st4" d="M-262,283.6c-0.3,0.8-0.1,1.1-0.8,1.8c-0.5,0.2-0.5,0.3-0.6,0.5c0.1-0.3,0.2-0.6,0.4-0.8
			c-0.2,0.2-0.4,0.3-0.5,0.5c-0.1-0.1-0.3,0-0.5-0.4c-0.3-0.5,0-0.8-0.1-1.4c0.3,0.4,0.8,0.9,0.8,1.2
			C-263.1,284.5-262.2,283.6-262,283.6"/>
		<path class="st4" d="M-263.3,282.9c0.1-0.6,0.8-1.6,1.1-1.6c-0.2,0.8,0.1,1.1-0.5,1.9c-0.5,0.3-0.4,0.4-0.5,0.6
			c0.1-0.3,0.1-0.6,0.3-0.8c-0.2,0.2-0.3,0.4-0.4,0.6c-0.1,0-0.3,0-0.6-0.3c-0.4-0.5-0.2-0.8-0.3-1.3
			C-263.9,282.3-263.4,282.6-263.3,282.9"/>
		<path class="st4" d="M-262.2,278.9c-0.2,0.8,0.1,1.1-0.5,1.8c-0.5,0.2-0.4,0.4-0.5,0.5c0-0.3,0.1-0.6,0.3-0.8
			c-0.2,0.2-0.3,0.3-0.4,0.6c-0.1,0-0.3,0-0.6-0.4c-0.4-0.5-0.2-0.8-0.3-1.3c0.4,0.4,0.9,0.7,1.1,1.1
			C-263.1,279.9-262.5,278.9-262.2,278.9"/>
		<path class="st4" d="M-263.4,278.7c0-0.5,0.5-1.5,0.8-1.6c0,0.8,0.3,1.1-0.2,1.8c-0.4,0.3-0.3,0.4-0.4,0.6c0-0.3,0-0.5,0.1-0.8
			c-0.2,0.2-0.3,0.4-0.3,0.6c-0.1,0-0.3,0.1-0.7-0.3c-0.5-0.4-0.3-0.7-0.6-1.2C-264.2,278.2-263.5,278.4-263.4,278.7"/>
		<path class="st4" d="M-283.8,264.4c0.1-0.1,0.2-0.1,0.3-0.6c0.3-1,0.9-0.9,1.6-1.4c0.2,0.3-0.6,1.4-1.2,1.8
			c0.3-0.1,0.8,0.4,1.3,0.6c-0.6,0.1-0.8,0.4-1.4,0.2c-0.4-0.1-0.4-0.3-0.5-0.4c0.2-0.2,0.3-0.4,0.5-0.6
			C-283.3,264.1-283.5,264.2-283.8,264.4"/>
		<path class="st4" d="M-274,264c-0.2,0-0.4-0.1-0.6-0.1c0.3-0.1,0.6-0.2,0.9-0.4c0.6,0.1,1,0.4,1.1,0.8c-0.5-0.1-0.6,0.2-1.2,0.3
			c-0.6,0.1-1-0.2-1.5-0.3c-0.2-0.1-0.2-0.3-0.2-0.4c0.3,0.1,0.6,0.1,0.9,0v0.1C-274.6,264.1-274.3,264.1-274,264"/>
		<path class="st4" d="M-276.1,263.2c0.3,0,0.6-0.1,0.8-0.2c-0.2,0-0.4,0-0.6,0c0.4-0.2,0.6-0.6,1.2-0.5c0.7,0,0.7,0.4,1.2,0.2
			C-273.5,263.1-275.5,264-276.1,263.2"/>
		<path class="st4" d="M-277.1,263.1c0.3,0.1,0.7,0.7,1.1,1.1c-0.5-0.2-0.8,0-1.3-0.4c-0.4-0.3-0.3-0.5-0.3-0.6
			c0.2-0.1,0.4-0.2,0.5-0.4c-0.2,0.1-0.5,0.2-0.8,0.2c0.1-0.1,0.3,0,0.5-0.5c0.7-0.6,1-0.3,1.8-0.4
			C-275.7,262.4-276.5,263-277.1,263.1"/>
		<path class="st4" d="M-278.7,263.2c0.3,0,0.7,0.5,1.2,0.9c-0.6-0.1-0.8,0.2-1.3-0.1c-0.4-0.2-0.3-0.4-0.4-0.5
			c0.2-0.1,0.4-0.3,0.5-0.5c-0.2,0.2-0.5,0.3-0.7,0.4c0.1-0.2,0.3-0.1,0.4-0.6c0.6-0.7,0.8-0.4,1.6-0.8
			C-277.5,262.2-278.2,263-278.7,263.2"/>
		<path class="st4" d="M-279.9,264.2c-0.6,0-0.8,0.3-1.4,0c-0.4-0.2-0.4-0.4-0.5-0.5c0.2-0.1,0.4-0.3,0.5-0.6
			c-0.2,0.2-0.4,0.4-0.7,0.5c0.1-0.1,0.3-0.1,0.4-0.6c0.5-0.8,0.9-0.6,1.6-0.9c0,0.3-0.7,1.2-1.3,1.4
			C-280.8,263.5-280.3,264-279.9,264.2"/>
		<path class="st4" d="M-263.2,274.8c-0.1,0.8,0.4,1.1-0.2,1.8c-0.4,0.3-0.3,0.4-0.4,0.5c0-0.3,0-0.5,0.1-0.8
			c-0.2,0.2-0.3,0.4-0.3,0.6c-0.1-0.1-0.3,0-0.7-0.3c-0.5-0.4-0.4-0.7-0.6-1.3c0.5,0.4,1.1,0.6,1.3,0.9
			C-264,275.8-263.5,274.8-263.2,274.8"/>
		<path class="st4" d="M-264.4,274.7c-0.1-0.5,0.2-1.6,0.5-1.7c0.1,0.8,0.6,1,0.2,1.8c-0.4,0.3-0.3,0.4-0.3,0.6
			c-0.1-0.3-0.1-0.5,0-0.8c-0.1,0.2-0.2,0.4-0.2,0.6c-0.1,0-0.3,0.1-0.7-0.2c-0.6-0.4-0.5-0.7-0.8-1.2
			C-265.3,274.2-264.7,274.4-264.4,274.7"/>
		<path class="st4" d="M-265.1,270.8c0.1,0.8,0.6,1,0.2,1.8c-0.3,0.3-0.3,0.4-0.3,0.6c0-0.3-0.1-0.5,0-0.8c-0.1,0.2-0.2,0.4-0.2,0.6
			c-0.1,0-0.3,0.1-0.7-0.2c-0.6-0.4-0.5-0.7-0.8-1.2c0.5,0.3,1.2,0.5,1.4,0.8C-265.7,271.9-265.3,270.9-265.1,270.8"/>
		<path class="st4" d="M-266.1,269.2c0.2,0.8,0.7,0.9,0.5,1.8c-0.3,0.3-0.2,0.4-0.2,0.6c-0.1-0.3-0.2-0.6-0.2-0.8
			c-0.1,0.2-0.1,0.4-0.1,0.7c-0.2,0-0.3,0.1-0.7-0.1c-0.6-0.3-0.6-0.6-1-1.1c0.6,0.2,1.3,0.4,1.5,0.7
			C-266.5,270.3-266.4,269.3-266.1,269.2"/>
		<path class="st4" d="M-267.6,267c0.3,0.8,0.6,0.7,0.6,1.7c-0.2,0.5-0.1,0.6,0,0.8c-0.1-0.3-0.2-0.5-0.3-0.8c0,0.2,0,0.5,0.1,0.8
			c-0.1,0-0.2,0.2-0.6,0.1c-0.6-0.1-0.6-0.5-1.1-0.9c0.5,0.1,1.2,0,1.4,0.2C-267.8,268.3-267.8,267.2-267.6,267"/>
		<path class="st4" d="M-268.9,267.4c-0.3-0.5-0.4-1.5-0.2-1.8c0.4,0.7,0.7,0.6,0.8,1.5c-0.1,0.5,0,0.6,0,0.7
			c-0.2-0.2-0.3-0.5-0.4-0.7c0,0.3,0,0.5,0.1,0.7c-0.1,0-0.2,0.2-0.6,0.2c-0.6,0-0.7-0.4-1.2-0.7
			C-269.8,267.4-269.2,267.2-268.9,267.4"/>
		<path class="st4" d="M-271,264c0.5,0.7,0.9,0.6,1,1.6c-0.1,0.5,0,0.5,0,0.7c-0.2-0.2-0.3-0.4-0.4-0.7c0,0.3,0.1,0.5,0.2,0.7
			c-0.1,0.1-0.2,0.3-0.7,0.2c-0.6,0-0.7-0.3-1.2-0.6c0.6,0,1.2-0.2,1.5-0.1C-270.9,265.3-271.1,264.2-271,264"/>
		<path class="st4" d="M-271.5,264.1c-0.1,0.5,0.1,0.5,0.2,0.7c-0.1,0-0.1,0-0.1,0c-0.2-0.2-0.4-0.4-0.5-0.6
			c0.1,0.4,0.1,0.6,0.3,0.8c0,0.1-0.2,0.1-0.4,0.2c-0.8,0-0.9-0.1-1.2-0.3c0.5-0.2,0.7-0.5,1.2-0.3v-0.1l0,0l0,0
			c-0.1-0.2-0.2-0.3-0.4-0.5c-0.2-0.4-0.4-0.8-0.3-1C-272.3,263.4-271.7,263.2-271.5,264.1"/>
		<path class="st4" d="M-285.4,264.8c0.2-0.9,0.7-0.7,1.2-1.3c0.1,0.3-0.3,1.3-0.7,1.6c0.3-0.1,0.9,0.2,1.5,0.3
			c-0.5,0.2-0.7,0.5-1.3,0.4c-0.5-0.1-0.5-0.3-0.6-0.3c0.1-0.2,0.2-0.4,0.2-0.6c-0.1,0.2-0.3,0.4-0.5,0.6
			C-285.5,265.3-285.4,265.3-285.4,264.8"/>
		<path class="st4" d="M-286.8,265.9c0.1-0.9,0.6-0.9,1-1.5c0.1,0.2-0.1,1.4-0.4,1.8c0.3-0.2,0.9,0,1.5,0.1
			c-0.5,0.2-0.6,0.6-1.2,0.6c-0.5,0-0.5-0.2-0.6-0.2c0.1-0.2,0.1-0.4,0.1-0.7c-0.1,0.3-0.2,0.5-0.4,0.7
			C-286.8,266.4-286.7,266.4-286.8,265.9"/>
		<path class="st4" d="M-288.3,267.2c0.1-1,0.3-0.9,0.8-1.6c0.2,0.2,0.1,1.4-0.2,1.8c0.3-0.2,0.9,0,1.4,0c-0.5,0.3-0.6,0.7-1.2,0.7
			c-0.5,0-0.5-0.2-0.6-0.2c0.1-0.2,0.1-0.5,0.1-0.7c0,0.3-0.2,0.5-0.4,0.7C-288.3,267.7-288.2,267.7-288.3,267.2"/>
		<path class="st4" d="M-289,267.1c0.2,0.2,0.2,1.3-0.1,1.8c0.3-0.2,0.9-0.1,1.4-0.2c-0.5,0.4-0.5,0.7-1.1,0.9
			c-0.4,0.1-0.5-0.1-0.6-0.1c0.1-0.2,0.1-0.5,0.1-0.7c0,0.3-0.2,0.5-0.3,0.8c0-0.2,0.1-0.2-0.1-0.7
			C-289.6,267.8-289.3,267.9-289,267.1"/>
		<path class="st4" d="M-290.5,269.3c0.3,0.1,0.4,1.1,0.2,1.6c0.3-0.2,1-0.4,1.5-0.6c-0.4,0.4-0.4,0.8-1,1.1
			c-0.5,0.2-0.6,0.1-0.7,0.1c0-0.2,0-0.5-0.1-0.7c0,0.3-0.1,0.5-0.2,0.8c0-0.2,0.1-0.3-0.2-0.6C-291.2,270.2-290.7,270-290.5,269.3"
			/>
		<path class="st4" d="M-291.7,272.7c-0.4-0.8,0.1-1,0.2-1.8c0.3,0.1,0.6,1.1,0.5,1.6c0.2-0.3,0.9-0.5,1.4-0.8
			c-0.4,0.5-0.2,0.8-0.8,1.2c-0.4,0.3-0.6,0.2-0.7,0.2c0-0.2-0.1-0.4-0.2-0.6c0.1,0.2,0,0.5,0,0.8
			C-291.4,273.1-291.3,273-291.7,272.7"/>
		<path class="st4" d="M-292.5,273.1c0.3,0.1,0.6,1.1,0.5,1.6c0.2-0.3,0.9-0.5,1.4-0.8c-0.4,0.5-0.3,0.8-0.8,1.1
			c-0.4,0.3-0.6,0.2-0.7,0.2c0-0.2-0.1-0.4-0.2-0.6c0.1,0.2,0,0.5,0,0.8c0-0.2,0-0.3-0.3-0.6C-293,274.1-292.6,273.9-292.5,273.1"/>
		<path class="st4" d="M-293,276.6c-0.5-0.7-0.1-1-0.2-1.8c0.3,0,0.8,1,0.8,1.5c0.1-0.3,0.8-0.6,1.2-0.9c-0.3,0.5-0.1,0.8-0.6,1.2
			c-0.4,0.3-0.5,0.2-0.7,0.3c-0.1-0.2-0.2-0.4-0.3-0.6c0.1,0.2,0.1,0.5,0.1,0.8C-292.7,277-292.6,276.8-293,276.6"/>
		<path class="st4" d="M-293.8,277.1c0.3,0,0.8,1,0.8,1.6c0.2-0.3,0.8-0.5,1.2-0.9c-0.3,0.5-0.1,0.8-0.6,1.2
			c-0.4,0.3-0.5,0.2-0.7,0.3c0-0.2-0.2-0.4-0.3-0.6c0.1,0.2,0.1,0.5,0.1,0.8c-0.1-0.2,0-0.3-0.4-0.6
			C-294.2,278.1-293.8,277.9-293.8,277.1"/>
		<path class="st4" d="M-293,280.9c-0.1-0.2-0.3-0.4-0.4-0.6c0.1,0.2,0.2,0.5,0.3,0.7c-0.1-0.2-0.1-0.3-0.5-0.5
			c-0.6-0.7-0.4-0.9-0.6-1.6c0.3,0,1,0.8,1.1,1.3c0.1-0.3,0.6-0.6,1-1.1c-0.1,0.6,0.1,0.8-0.3,1.3C-292.7,281-292.9,280.9-293,280.9
			"/>
		<path class="st4" d="M-294.3,281.3c0.3,0.1,1,0.9,1.1,1.4c0.1-0.3,0.6-0.6,1-1c-0.1,0.5,0.1,0.8-0.3,1.3c-0.3,0.4-0.5,0.2-0.6,0.3
			c-0.1-0.2-0.3-0.4-0.4-0.6c0.1,0.2,0.2,0.5,0.3,0.8c-0.1-0.1-0.1-0.3-0.5-0.5C-294.3,282.3-294.1,282.2-294.3,281.3"/>
		<path class="st4" d="M-294.4,283.6c0.3,0,1.1,0.7,1.3,1.2c0-0.3,0.5-0.7,0.8-1.2c0,0.6,0.2,0.9-0.1,1.4c-0.2,0.4-0.4,0.3-0.5,0.4
			c-0.1-0.2-0.3-0.4-0.5-0.5c0.2,0.2,0.3,0.5,0.4,0.7c-0.1-0.1-0.1-0.3-0.6-0.5C-294.7,284.2-293.5,285.5-294.4,283.6"/>
		<path class="st4" d="M-293,287.1c0-0.4,0.5-0.9,0.8-1.4c-0.1,0.6,0.2,0.8-0.2,1.4c-0.2,0.5-0.4,0.4-0.5,0.6
			c-0.1-0.2-0.3-0.3-0.5-0.5c0.2,0.2,0.3,0.4,0.4,0.7c-0.1-0.1-0.1-0.3-0.5-0.4c-0.6-0.5-0.4-0.8-0.6-1.5
			C-293.8,286-293.1,286.6-293,287.1"/>
		<path class="st4" d="M-294,287.8c0.3-0.1,1.1,0.5,1.4,1c0-0.4,0.4-0.9,0.6-1.5c0,0.6,0.3,0.8,0.1,1.4c-0.2,0.5-0.4,0.5-0.4,0.6
			c-0.1-0.2-0.3-0.3-0.5-0.4c0.2,0.2,0.3,0.4,0.4,0.6c-0.1-0.1-0.1-0.2-0.6-0.2C-293.8,288.9-293.6,288.4-294,287.8"/>
		<path class="st4" d="M-291.8,291c0-0.4,0.4-0.9,0.6-1.5c0,0.6,0.3,0.8,0.1,1.4c-0.2,0.5-0.3,0.5-0.4,0.6c-0.1-0.2-0.3-0.3-0.5-0.4
			c0.2,0.2,0.3,0.4,0.5,0.6c-0.2-0.1-0.1-0.2-0.6-0.3c-0.8-0.4-0.6-0.8-1-1.5C-293,289.9-292.1,290.5-291.8,291"/>
		<path class="st4" d="M-292.7,291.8c0.2-0.1,1.3,0.3,1.6,0.7c-0.1-0.3,0.2-0.9,0.4-1.5c0.1,0.6,0.4,0.7,0.3,1.3
			c-0.1,0.5-0.3,0.5-0.3,0.6c-0.2-0.2-0.4-0.2-0.6-0.3c0.2,0.1,0.4,0.3,0.6,0.5c-0.2,0-0.2-0.2-0.7-0.2
			C-292.4,292.9-292.2,292.4-292.7,291.8"/>
		<path class="st4" d="M-291.8,293.8c0.2-0.1,1.3,0.3,1.6,0.8c-0.1-0.3,0.3-0.9,0.4-1.4c0.1,0.5,0.4,0.7,0.3,1.3
			c-0.1,0.5-0.3,0.5-0.3,0.6c-0.2-0.1-0.4-0.2-0.6-0.3c0.2,0.1,0.4,0.3,0.6,0.5c-0.2-0.1-0.2-0.2-0.7-0.2
			C-291.4,294.8-291.3,294.4-291.8,293.8"/>
		<path class="st4" d="M-291,295.4c0.3-0.2,1.3,0.1,1.8,0.5c-0.1-0.3,0.1-0.9,0.2-1.5c0.2,0.5,0.6,0.6,0.5,1.2
			c0,0.5-0.2,0.5-0.3,0.6c-0.2-0.1-0.4-0.2-0.7-0.2c0.2,0.1,0.5,0.2,0.7,0.4c-0.2,0-0.2-0.2-0.7-0.1
			C-290.4,296.4-290.4,295.9-291,295.4"/>
		<path class="st4" d="M-290,297.2c0.3-0.1,1.4,0.3,1.8,0.6c-0.1-0.3,0.1-0.9,0.2-1.4c0.2,0.5,0.5,0.7,0.5,1.2
			c0,0.4-0.2,0.5-0.3,0.6c-0.2-0.1-0.4-0.2-0.7-0.2c0.3,0.1,0.5,0.3,0.7,0.5c-0.2-0.1-0.2-0.2-0.7-0.1
			C-289.4,298.1-289.3,297.7-290,297.2"/>
		<path class="st4" d="M-285.9,300c-0.2-0.1-0.4-0.3-0.8-0.2c-1-0.1-1.2-0.7-1.9-1.1c0.2-0.2,1.4,0.1,1.9,0.4
			c-0.2-0.3,0-0.9-0.1-1.4c0.3,0.5,0.7,0.6,0.7,1.1c0.1,0.5,0.1,0.8,0.2,1.1c-0.2-0.2-0.3-0.3-0.5-0.4
			C-286.2,299.6-286.1,299.8-285.9,300"/>
		<path class="st4" d="M-269.7,299.9c-0.4-0.1-0.7,0.2-0.9,0.3c0.2-0.2,0.4-0.5,0.5-0.6c-0.2,0-0.4,0.1-0.6,0.3c0-0.2,0-0.4,0-0.8
			c0.1-0.6,0.5-0.7,0.8-1.2c-0.1,0.6,0.1,1.2-0.1,1.4c0.5-0.3,1.7-0.5,1.9-0.4C-268.7,299.4-268.8,299.9-269.7,299.9"/>
		<path class="st4" d="M-268.2,298.6c-0.5-0.1-0.5,0.1-0.7,0.1c0.2-0.2,0.4-0.4,0.7-0.5c-0.3,0-0.5,0.1-0.7,0.2
			c-0.1-0.1-0.3-0.2-0.3-0.6c0-0.6,0.3-0.7,0.6-1.2c0.1,0.6,0.3,1.1,0.2,1.5c0.4-0.4,1.6-0.8,1.8-0.6
			C-267.3,298-267.2,298.5-268.2,298.6"/>
		<path class="st4" d="M-267.1,296.9c-0.5-0.1-0.5,0-0.7,0.1c0.2-0.2,0.4-0.4,0.7-0.5c-0.2,0-0.5,0.1-0.7,0.2
			c-0.1-0.1-0.3-0.2-0.3-0.6c0-0.6,0.3-0.7,0.6-1.3c0,0.6,0.3,1.2,0.2,1.5c0.4-0.4,1.5-0.7,1.8-0.5
			C-266.2,296.3-266.1,296.8-267.1,296.9"/>
		<path class="st4" d="M-266,295.5c-0.5,0-0.5,0.1-0.7,0.2c0.2-0.2,0.3-0.4,0.6-0.5c-0.2,0-0.5,0.1-0.6,0.3
			c-0.1-0.1-0.3-0.1-0.4-0.6c-0.1-0.6,0.2-0.8,0.3-1.3c0.2,0.6,0.5,1.1,0.4,1.5c0.3-0.4,1.4-0.9,1.6-0.8
			C-265.3,294.7-265.2,295.2-266,295.5"/>
		<path class="st4" d="M-264.9,293.4c-0.5-0.1-0.5,0.1-0.7,0.2c0.2-0.2,0.4-0.4,0.6-0.5c-0.2,0.1-0.4,0.1-0.6,0.3
			c-0.1-0.1-0.3-0.2-0.3-0.7c-0.1-0.6,0.2-0.8,0.3-1.4c0.1,0.6,0.5,1.2,0.4,1.6c0.3-0.5,1.4-0.9,1.6-0.7
			C-264.2,292.7-264.1,293.2-264.9,293.4"/>
		<path class="st4" d="M-264.1,291.8c-0.5,0-0.5,0.2-0.6,0.2c0.1-0.2,0.3-0.5,0.5-0.6c-0.2,0.1-0.4,0.2-0.5,0.4
			c-0.1-0.1-0.3-0.1-0.4-0.6c-0.2-0.6,0-0.8,0.1-1.4c0.2,0.6,0.6,1.1,0.6,1.5c0.3-0.5,1.2-1,1.4-1
			C-263.6,291-263.4,291.5-264.1,291.8"/>
		<path class="st4" d="M-263.3,289.6c-0.5,0-0.5,0.2-0.6,0.3c0.1-0.2,0.3-0.5,0.5-0.6c-0.2,0.1-0.4,0.2-0.6,0.4
			c-0.1-0.1-0.3-0.1-0.4-0.6c-0.2-0.6,0-0.9,0.1-1.5c0.2,0.6,0.6,1.2,0.6,1.5c0.2-0.5,1.1-1.1,1.4-1
			C-262.8,288.7-262.6,289.2-263.3,289.6"/>
		<path class="st5" d="M-267.1,292.5c0,0-2.4,0.4-5.4-1.6c0.2-0.3,0.4-1.1,0.2-1.6c-0.1-0.4-0.1-0.1-0.2,0.2c-0.3,0.7-0.5,0.8-0.8,1
			c-0.9-0.9-1-0.9-2.1-1.6c-0.8-0.4-0.9-0.7-1.3-1c-0.8,0.4-2,1.1-2.6,0.7c-0.5-0.3,0.6-0.5,1-1.2c0.4-0.5,0.9-0.7,1.5-0.5
			c1.2,0.3,1.8,0.7,3.6,1.5c2.2,0.2,3.8,0.8,6.1,1.3c0.4,0.1,0.9,0.2,1.2,0.2C-266.2,290.7-266.5,291.3-267.1,292.5"/>
		<path class="st5" d="M-276.8,290.1c0.7,0.7,1.3,0.9,1.7,1.8c-0.1,0.3-0.4,0.3-0.7,0.2c-1-1.1-1.9-1.3-1.5-1.8
			c-0.2,0-0.4,0.3-0.3,0.4c0.2,0.8,1.1,1.1,1.3,1.8c-0.1,0.5-1.2,0-1.7-1.3v-0.1c-0.2,0.4-0.4,0.5,0.3,1.4c0.1,0.3,0.2,0.6-0.3,0.6
			c0.1,0.1-0.3,0-0.1,0h0.1c0,0-0.1,0-0.1-0.1c0.3-1.4-1-1.1-1-1.1c0.2-0.5-0.5-1-1.2-0.7c0.1-0.4-0.7-0.9-1.7-0.5
			c-0.2-0.4-1.1-0.8-2,0.4c-1.6,0.1-4.2,1.5-5.8,0.8c-0.1,0.1-1-2.6-1-2.6c1.8-0.2,6-0.5,7.5-1.1c1.2-0.7,3.3-1.1,3.9-0.8
			c-0.1,0.4-1,1.1-0.5,1.5c0.8,0.8,2.1,0.4,3-0.1c0.9,1,2.4,1.1,3,2.3l-0.2,0.4c-0.3,0.2-0.3,0.2-0.7-0.3c-0.9-1.2-1.7-0.9-1.8-1.7
			C-277,289.6-276.8,289.9-276.8,290.1"/>
		<path class="st5" d="M-281,292.5c-0.3,0.1,0.1-0.2,0.3-0.3l0.1-0.2c0.3-0.3,0.7-0.6,0.9-0.1c0.1,0.3-0.9,0.9-1.1,1
			c-0.2,0.1-0.2,0.1-0.4,0C-281.3,292.7-281.2,292.6-281,292.5"/>
		<path class="st5" d="M-282,292.4c-0.2,0-0.3,0.1-0.5-0.1c-0.1-0.2,0.3-0.6,0.4-0.7s0.2-0.2,0.3-0.2l0.2-0.2c0.4-0.1,0.4,0,0.4,0.2
			C-281.1,291.6-281.8,292.4-282,292.4"/>
		<path class="st5" d="M-279.3,292.6c0,0,0.4-0.5,0.6,0.2c0.1,0.3-0.4,0.6-0.9,0.7C-279.8,293.3-280.3,293.3-279.3,292.6"/>
		<path class="st5" d="M-283.1,291.7c-0.2,0.1-0.4-0.2-0.3-0.3l0.2-0.3c0.3-0.1,0.5-0.3,0.6-0.1
			C-282.5,291.1-282.9,291.6-283.1,291.7"/>
		<path class="st6" d="M-278.2,264.8c-7.3,0-13.2,7.7-13.4,17.3h26.9C-265.1,272.5-271,264.8-278.2,264.8"/>
		<path class="st2" d="M-277.5,286.1v-7.6c0,0,2.6,0.1,3.2,0c0,0,0.9-0.4,1.1-1.2c0.1-0.6-0.3-2.3-0.4-2.6c0,0-0.5-0.3-0.5-0.7
			c0,0-0.3-2.9-0.9-3.7c-0.6-0.8-1.5-1.8-3.4-1.7c-2,0-2.9,1.3-3,2.2c-0.2,1.1,1.1,1.1,1.1,1.1s-0.5,0.5-0.7,0.7
			c-0.2,0.3-0.7,0.7-1.2,1.7s-0.9,2.5-0.7,3.1c0.2,0.5,1.1,1.2,2.2,1.3c1,0.1,1.7-0.1,1.7-0.1v7.4L-277.5,286.1z"/>
		<path class="st7" d="M-280.3,275.6c-0.8,0-1.1,0.4-1.8,0.5c0,0,0.2-1.4,1.6-3.1c0.6-0.6,1.9-1.4,2.6-1.7v-0.2
			c-0.6,0.1-2.2,0.4-2.7-0.3c-0.1-0.7,0.9-1.5,2.2-1.6c0.8,0,1.4,0.3,2.1,0.6c0.7,0.5,1.1,1.3,1.2,2.2c-0.9,0.4-1.2,0.6-1.2,0.6
			c0.1,0,0.3,0.1,0.6,0.1c0.3,0,0.5,0,0.7-0.1v0.5c0.1,0.1,0.1,0.1,0.2,0.2c-1.6,0.7-2.4,1-2.5,0.9c0,0,0.3,0.1,0.7,0.1
			c0.5,0,1.3-0.2,1.9-0.4c0,0.3,0,0.6,0.5,0.8l0,0l0,0c-1.6,0.9-2.3,0.8-2.4,0.7l-1.4-0.1c0.3,0.1,0.9,0.7,1.5,0.8s1.6-0.4,2.2-0.6
			l0.2,0.7c-1,0-2.1,1.4-3.6,0.9C-278.3,276.5-279.2,275.6-280.3,275.6"/>
		<path class="st7" d="M-278.9,277.7c-0.8,0-1.9,0-2,0c-0.4-0.1-1.3-0.6-1.2-0.8c0.1,0,0.4,0,1.2-0.3
			C-279.9,276.1-279,277.4-278.9,277.7"/>
		<path class="st7" d="M-273.9,276.9c0,0.3-0.3,0.7-0.6,0.8c-0.2,0-1.2,0-1.7,0c0.4,0,0.6-0.1,0.9-0.2
			C-273.7,276.7-273.9,276.9-273.9,276.9"/>
		<path class="st1" d="M-279,305.1c0.1-0.3,0-0.6,0-0.6s-0.5,0.8-1.3,1.2c-0.6,0.4-1.8,0.6-1.9,0.7c0.1,0.2,0.3,0.3,0.5,0.4
			c0.2,0,1-0.1,1.8-0.6C-279.4,305.8-279,305.1-279,305.1"/>
		<path class="st6" d="M-277.3,305.1c-0.1-0.3,0-0.6,0-0.6s0.5,0.8,1.3,1.2c0.6,0.4,1.7,0.6,1.9,0.7c0.3-0.3,0.5-0.6,0.5-0.6
			s-1-0.1-2-0.4c-1-0.3-1.4-0.9-1.5-1.1c-0.1-0.2,0.1-0.6,0.2-0.7s1.8-0.2,1.7-1.6c-0.1-1.6-2.7-1.2-3.1-1.1c-0.3-0.1-3-0.5-3.1,1.1
			c-0.1,1.4,1.6,1.5,1.7,1.6c0.1,0.1,0.3,0.6,0.2,0.7c-0.1,0.2-0.5,0.8-1.5,1.1c-1,0.3-2,0.4-2,0.4s0.2,0.3,0.5,0.6
			c0.2,0,1.3-0.3,1.9-0.7c0.7-0.4,1.3-1.2,1.3-1.2s0.1,0.3,0,0.6c0,0-0.4,0.8-0.9,1.1c-0.8,0.5-1.7,0.6-1.8,0.6
			c0.3,0.2,0.5,0.3,0.8,0.3c1.7-0.1,2.3-1.9,2.3-1.9s0.2,0.2,0.5,0.2l0,0l0,0c0.3,0,0.5-0.2,0.5-0.2s0.7,1.9,2.4,1.9
			c0.3,0,0.5-0.1,0.8-0.3c-0.2,0-1-0.1-1.8-0.6C-276.9,305.8-277.3,305.1-277.3,305.1"/>
		<path class="st1" d="M-274.1,306.3c-0.2,0-1.3-0.3-1.9-0.7c-0.7-0.4-1.3-1.2-1.3-1.2s-0.1,0.3,0,0.6c0,0,0.4,0.8,0.9,1.1
			c0.8,0.5,1.6,0.6,1.8,0.6l0,0C-274.4,306.6-274.2,306.5-274.1,306.3"/>
		<path class="st1" d="M-279.5,301.3c0,0-0.4,0.3-0.5,0.7c0,0.4,0.1,0.8,0.1,0.8s-0.9-0.3-0.9-0.9
			C-280.6,301.1-279.5,301.3-279.5,301.3"/>
		<path class="st1" d="M-276.9,301.3c0,0,0.4,0.3,0.5,0.7s-0.1,0.8-0.1,0.8s0.9-0.3,0.8-0.9C-275.8,301.1-276.9,301.3-276.9,301.3"
			/>
		<path class="st1" d="M-278.1,301.6h-0.1c-1.5,0-0.6,1.4-0.6,1.4s0.3-0.2,0.6-0.2h0.2c0.4,0,0.6,0.2,0.6,0.2
			S-276.6,301.6-278.1,301.6"/>
		<path class="st1" d="M-278.1,303.4L-278.1,303.4L-278.1,303.4h-0.2c-0.4,0-0.4,0.2-0.4,0.4c0,0.2,0.1,1,0.4,1l0,0l0,0
			c0.3,0,0.4-0.8,0.4-1C-277.8,303.7-277.7,303.4-278.1,303.4"/>
	</g>
</g>
</svg>
