<svg xmlns="http://www.w3.org/2000/svg" xmlns:xlink="http://www.w3.org/1999/xlink" id="Capa_1" data-name="Capa 1" viewBox="0 0 500 500">
<defs>
    <style>.cls-1{fill:none;}.cls-2{clip-path:url(#clip-path);}.cls-3{fill:#fff;stroke:#fff;stroke-miterlimit:10;stroke-width:0.69px;opacity:0.4;}</style>
    <clipPath id="clip-path">
        <rect class="cls-1" width="499.84" height="499.75"/>
    </clipPath>
</defs>
<title>tramita</title>
<g class="cls-2">
    <line class="cls-3" x1="337.63" y1="-982.79" x2="-983.9" y2="338.74"/>
    <line class="cls-3" x1="248.19" y1="-1072.23" x2="-1073.34" y2="249.3"/>
    <line class="cls-3" x1="299.97" y1="-1020.45" x2="-1021.56" y2="301.08"/>
    <line class="cls-3" x1="318.8" y1="-1001.62" x2="-1002.73" y2="319.91"/>
    <line class="cls-3" x1="229.36" y1="-1091.06" x2="-1092.17" y2="230.47"/>
    <line class="cls-3" x1="281.14" y1="-1039.28" x2="-1040.39" y2="282.25"/>
    <line class="cls-3" x1="347.05" y1="-973.37" x2="-974.48" y2="348.16"/>
    <line class="cls-3" x1="210.53" y1="-1109.9" x2="-1111.01" y2="211.64"/>
    <line class="cls-3" x1="267.02" y1="-1053.4" x2="-1054.51" y2="268.13"/>
    <line class="cls-3" x1="328.22" y1="-992.2" x2="-993.31" y2="329.33"/>
    <line class="cls-3" x1="238.77" y1="-1081.65" x2="-1082.76" y2="239.88"/>
    <line class="cls-3" x1="290.56" y1="-1029.87" x2="-1030.98" y2="291.67"/>
    <line class="cls-3" x1="309.39" y1="-1011.03" x2="-1012.14" y2="310.5"/>
    <line class="cls-3" x1="219.94" y1="-1100.48" x2="-1101.59" y2="221.05"/>
    <line class="cls-3" x1="276.43" y1="-1043.99" x2="-1045.1" y2="277.54"/>
    <line class="cls-3" x1="351.76" y1="-968.67" x2="-969.78" y2="352.87"/>
    <line class="cls-3" x1="332.93" y1="-987.5" x2="-988.61" y2="334.04"/>
    <line class="cls-3" x1="295.26" y1="-1025.16" x2="-1026.27" y2="296.37"/>
    <line class="cls-3" x1="314.1" y1="-1006.33" x2="-1007.44" y2="315.21"/>
    <line class="cls-3" x1="342.34" y1="-978.08" x2="-979.19" y2="343.45"/>
    <line class="cls-3" x1="323.51" y1="-996.91" x2="-998.02" y2="324.62"/>
    <line class="cls-3" x1="285.85" y1="-1034.57" x2="-1035.68" y2="286.96"/>
    <line class="cls-3" x1="304.68" y1="-1015.74" x2="-1016.85" y2="305.79"/>
    <line class="cls-3" x1="356.46" y1="-963.96" x2="-965.07" y2="357.57"/>
    <line class="cls-3" x1="201.11" y1="-1119.31" x2="-1120.42" y2="202.22"/>
    <line class="cls-3" x1="257.6" y1="-1062.82" x2="-1063.93" y2="258.71"/>
    <line class="cls-3" x1="243.48" y1="-1076.94" x2="-1078.05" y2="244.59"/>
    <line class="cls-3" x1="224.65" y1="-1095.77" x2="-1096.88" y2="225.76"/>
    <line class="cls-3" x1="205.82" y1="-1114.6" x2="-1115.71" y2="206.93"/>
    <line class="cls-3" x1="262.31" y1="-1058.11" x2="-1059.22" y2="263.42"/>
    <line class="cls-3" x1="234.07" y1="-1086.36" x2="-1087.47" y2="235.18"/>
    <line class="cls-3" x1="215.23" y1="-1105.19" x2="-1106.3" y2="216.34"/>
    <line class="cls-3" x1="271.73" y1="-1048.7" x2="-1049.81" y2="272.84"/>
    <line class="cls-3" x1="196.4" y1="-1124.02" x2="-1125.13" y2="197.51"/>
    <line class="cls-3" x1="252.9" y1="-1067.53" x2="-1068.64" y2="254.01"/>
    <line class="cls-3" x1="497.7" y1="-822.74" x2="-823.83" y2="498.8"/>
    <line class="cls-3" x1="408.26" y1="-912.18" x2="-913.28" y2="409.35"/>
    <line class="cls-3" x1="460.04" y1="-860.4" x2="-861.49" y2="461.13"/>
    <line class="cls-3" x1="478.87" y1="-841.57" x2="-842.66" y2="479.97"/>
    <line class="cls-3" x1="389.43" y1="-931.01" x2="-932.11" y2="390.52"/>
    <line class="cls-3" x1="441.21" y1="-879.23" x2="-880.32" y2="442.3"/>
    <line class="cls-3" x1="507.12" y1="-813.32" x2="-814.42" y2="508.21"/>
    <line class="cls-3" x1="370.59" y1="-949.84" x2="-950.94" y2="371.69"/>
    <line class="cls-3" x1="427.09" y1="-893.35" x2="-894.45" y2="428.18"/>
    <line class="cls-3" x1="488.29" y1="-832.15" x2="-833.25" y2="489.38"/>
    <line class="cls-3" x1="398.84" y1="-921.6" x2="-922.69" y2="399.94"/>
    <line class="cls-3" x1="450.62" y1="-869.81" x2="-870.91" y2="451.72"/>
    <line class="cls-3" x1="469.46" y1="-850.98" x2="-852.08" y2="470.55"/>
    <line class="cls-3" x1="380.01" y1="-940.43" x2="-941.52" y2="381.1"/>
    <line class="cls-3" x1="436.5" y1="-883.94" x2="-885.03" y2="437.6"/>
    <line class="cls-3" x1="511.82" y1="-808.61" x2="-809.71" y2="512.92"/>
    <line class="cls-3" x1="492.99" y1="-827.44" x2="-828.54" y2="494.09"/>
    <line class="cls-3" x1="455.33" y1="-865.11" x2="-866.2" y2="456.43"/>
    <line class="cls-3" x1="474.16" y1="-846.27" x2="-847.37" y2="475.26"/>
    <line class="cls-3" x1="502.41" y1="-818.03" x2="-819.12" y2="503.5"/>
    <line class="cls-3" x1="483.58" y1="-836.86" x2="-837.95" y2="484.67"/>
    <line class="cls-3" x1="445.92" y1="-874.52" x2="-875.61" y2="447.01"/>
    <line class="cls-3" x1="464.75" y1="-855.69" x2="-856.78" y2="465.84"/>
    <line class="cls-3" x1="516.53" y1="-803.91" x2="-805" y2="517.63"/>
    <line class="cls-3" x1="361.18" y1="-959.26" x2="-960.35" y2="362.27"/>
    <line class="cls-3" x1="417.67" y1="-902.77" x2="-903.86" y2="418.77"/>
    <line class="cls-3" x1="403.55" y1="-916.89" x2="-917.98" y2="404.64"/>
    <line class="cls-3" x1="384.72" y1="-935.72" x2="-936.81" y2="385.81"/>
    <line class="cls-3" x1="365.89" y1="-954.55" x2="-955.65" y2="366.98"/>
    <line class="cls-3" x1="422.38" y1="-898.06" x2="-899.15" y2="423.47"/>
    <line class="cls-3" x1="394.13" y1="-926.3" x2="-927.4" y2="395.23"/>
    <line class="cls-3" x1="375.3" y1="-945.14" x2="-946.23" y2="376.4"/>
    <line class="cls-3" x1="431.79" y1="-888.64" x2="-889.74" y2="432.89"/>
    <line class="cls-3" x1="412.96" y1="-907.47" x2="-908.57" y2="414.06"/>
    <line class="cls-3" x1="657.75" y1="-662.67" x2="-663.78" y2="658.86"/>
    <line class="cls-3" x1="568.31" y1="-752.11" x2="-753.22" y2="569.42"/>
    <line class="cls-3" x1="620.09" y1="-700.33" x2="-701.44" y2="621.2"/>
    <line class="cls-3" x1="638.92" y1="-681.5" x2="-682.61" y2="640.03"/>
    <line class="cls-3" x1="549.48" y1="-770.94" x2="-772.05" y2="550.59"/>
    <line class="cls-3" x1="601.26" y1="-719.16" x2="-720.27" y2="602.37"/>
    <line class="cls-3" x1="667.17" y1="-653.25" x2="-654.36" y2="668.28"/>
    <line class="cls-3" x1="530.65" y1="-789.78" x2="-790.89" y2="531.76"/>
    <line class="cls-3" x1="587.14" y1="-733.28" x2="-734.39" y2="588.25"/>
    <line class="cls-3" x1="648.34" y1="-672.08" x2="-673.19" y2="649.45"/>
    <line class="cls-3" x1="558.89" y1="-761.53" x2="-762.64" y2="560"/>
    <line class="cls-3" x1="610.68" y1="-709.74" x2="-710.86" y2="611.79"/>
    <line class="cls-3" x1="629.51" y1="-690.91" x2="-692.02" y2="630.62"/>
    <line class="cls-3" x1="540.06" y1="-780.36" x2="-781.47" y2="541.17"/>
    <line class="cls-3" x1="596.55" y1="-723.87" x2="-724.98" y2="597.66"/>
    <line class="cls-3" x1="671.88" y1="-648.55" x2="-649.66" y2="672.99"/>
    <line class="cls-3" x1="653.05" y1="-667.38" x2="-668.49" y2="654.16"/>
    <line class="cls-3" x1="615.38" y1="-705.04" x2="-706.15" y2="616.49"/>
    <line class="cls-3" x1="634.22" y1="-686.21" x2="-687.32" y2="635.33"/>
    <line class="cls-3" x1="662.46" y1="-657.96" x2="-659.07" y2="663.57"/>
    <line class="cls-3" x1="643.63" y1="-676.79" x2="-677.9" y2="644.74"/>
    <line class="cls-3" x1="605.97" y1="-714.45" x2="-715.56" y2="607.08"/>
    <line class="cls-3" x1="624.8" y1="-695.62" x2="-696.73" y2="625.91"/>
    <line class="cls-3" x1="676.58" y1="-643.84" x2="-644.95" y2="677.69"/>
    <line class="cls-3" x1="521.23" y1="-799.19" x2="-800.3" y2="522.34"/>
    <line class="cls-3" x1="577.72" y1="-742.7" x2="-743.81" y2="578.83"/>
    <line class="cls-3" x1="563.6" y1="-756.82" x2="-757.93" y2="564.71"/>
    <line class="cls-3" x1="544.77" y1="-775.65" x2="-776.76" y2="545.88"/>
    <line class="cls-3" x1="525.94" y1="-794.48" x2="-795.59" y2="527.05"/>
    <line class="cls-3" x1="582.43" y1="-737.99" x2="-739.1" y2="583.54"/>
    <line class="cls-3" x1="554.19" y1="-766.24" x2="-767.35" y2="555.3"/>
    <line class="cls-3" x1="535.35" y1="-785.07" x2="-786.18" y2="536.46"/>
    <line class="cls-3" x1="591.85" y1="-728.58" x2="-729.69" y2="592.96"/>
    <line class="cls-3" x1="573.02" y1="-747.41" x2="-748.52" y2="574.13"/>
    <line class="cls-3" x1="817.82" y1="-502.62" x2="-503.71" y2="818.92"/>
    <line class="cls-3" x1="728.38" y1="-592.06" x2="-593.16" y2="729.47"/>
    <line class="cls-3" x1="780.16" y1="-540.28" x2="-541.37" y2="781.25"/>
    <line class="cls-3" x1="798.99" y1="-521.45" x2="-522.54" y2="800.09"/>
    <line class="cls-3" x1="709.55" y1="-610.89" x2="-611.99" y2="710.64"/>
    <line class="cls-3" x1="761.33" y1="-559.11" x2="-560.2" y2="762.42"/>
    <line class="cls-3" x1="827.24" y1="-493.2" x2="-494.3" y2="828.33"/>
    <line class="cls-3" x1="690.71" y1="-629.72" x2="-630.82" y2="691.81"/>
    <line class="cls-3" x1="747.21" y1="-573.23" x2="-574.33" y2="748.3"/>
    <line class="cls-3" x1="808.41" y1="-512.03" x2="-513.13" y2="809.5"/>
    <line class="cls-3" x1="718.96" y1="-601.48" x2="-602.57" y2="720.06"/>
    <line class="cls-3" x1="770.74" y1="-549.69" x2="-550.79" y2="771.84"/>
    <line class="cls-3" x1="789.58" y1="-530.86" x2="-531.96" y2="790.67"/>
    <line class="cls-3" x1="700.13" y1="-620.31" x2="-621.4" y2="701.22"/>
    <line class="cls-3" x1="756.62" y1="-563.82" x2="-564.91" y2="757.72"/>
    <line class="cls-3" x1="831.94" y1="-488.49" x2="-489.59" y2="833.04"/>
    <line class="cls-3" x1="813.11" y1="-507.32" x2="-508.42" y2="814.21"/>
    <line class="cls-3" x1="775.45" y1="-544.99" x2="-546.08" y2="776.55"/>
    <line class="cls-3" x1="794.28" y1="-526.15" x2="-527.25" y2="795.38"/>
    <line class="cls-3" x1="822.53" y1="-497.91" x2="-499" y2="823.62"/>
    <line class="cls-3" x1="803.7" y1="-516.74" x2="-517.83" y2="804.79"/>
    <line class="cls-3" x1="766.04" y1="-554.4" x2="-555.49" y2="767.13"/>
    <line class="cls-3" x1="784.87" y1="-535.57" x2="-536.66" y2="785.96"/>
    <line class="cls-3" x1="836.65" y1="-483.79" x2="-484.88" y2="837.75"/>
    <line class="cls-3" x1="681.3" y1="-639.14" x2="-640.23" y2="682.39"/>
    <line class="cls-3" x1="737.79" y1="-582.65" x2="-583.74" y2="738.89"/>
    <line class="cls-3" x1="723.67" y1="-596.77" x2="-597.86" y2="724.76"/>
    <line class="cls-3" x1="704.84" y1="-615.6" x2="-616.69" y2="705.93"/>
    <line class="cls-3" x1="686.01" y1="-634.43" x2="-635.52" y2="687.1"/>
    <line class="cls-3" x1="742.5" y1="-577.94" x2="-579.03" y2="743.59"/>
    <line class="cls-3" x1="714.25" y1="-606.18" x2="-607.28" y2="715.35"/>
    <line class="cls-3" x1="695.42" y1="-625.02" x2="-626.11" y2="696.52"/>
    <line class="cls-3" x1="751.91" y1="-568.52" x2="-569.62" y2="753.01"/>
    <line class="cls-3" x1="733.08" y1="-587.35" x2="-588.45" y2="734.18"/>
    <line class="cls-3" x1="977.88" y1="-342.56" x2="-343.65" y2="978.98"/>
    <line class="cls-3" x1="888.44" y1="-432" x2="-433.1" y2="889.53"/>
    <line class="cls-3" x1="940.22" y1="-380.22" x2="-381.31" y2="941.31"/>
    <line class="cls-3" x1="959.05" y1="-361.39" x2="-362.48" y2="960.15"/>
    <line class="cls-3" x1="869.61" y1="-450.83" x2="-451.93" y2="870.7"/>
    <line class="cls-3" x1="921.39" y1="-399.05" x2="-400.14" y2="922.48"/>
    <line class="cls-3" x1="987.3" y1="-333.14" x2="-334.24" y2="988.39"/>
    <line class="cls-3" x1="850.78" y1="-469.66" x2="-470.76" y2="851.87"/>
    <line class="cls-3" x1="907.27" y1="-413.17" x2="-414.27" y2="908.36"/>
    <line class="cls-3" x1="968.47" y1="-351.97" x2="-353.07" y2="969.56"/>
    <line class="cls-3" x1="879.02" y1="-441.42" x2="-442.51" y2="880.12"/>
    <line class="cls-3" x1="930.81" y1="-389.63" x2="-390.73" y2="931.9"/>
    <line class="cls-3" x1="949.64" y1="-370.8" x2="-371.9" y2="950.73"/>
    <line class="cls-3" x1="860.19" y1="-460.25" x2="-461.34" y2="861.28"/>
    <line class="cls-3" x1="916.68" y1="-403.76" x2="-404.85" y2="917.78"/>
    <line class="cls-3" x1="992" y1="-328.43" x2="-329.53" y2="993.1"/>
    <line class="cls-3" x1="973.17" y1="-347.26" x2="-348.36" y2="974.27"/>
    <line class="cls-3" x1="935.51" y1="-384.92" x2="-386.02" y2="936.61"/>
    <line class="cls-3" x1="954.34" y1="-366.09" x2="-367.19" y2="955.44"/>
    <line class="cls-3" x1="982.59" y1="-337.85" x2="-338.94" y2="983.68"/>
    <line class="cls-3" x1="963.76" y1="-356.68" x2="-357.77" y2="964.85"/>
    <line class="cls-3" x1="926.1" y1="-394.34" x2="-395.43" y2="927.19"/>
    <line class="cls-3" x1="944.93" y1="-375.51" x2="-376.6" y2="946.02"/>
    <line class="cls-3" x1="996.71" y1="-323.73" x2="-324.82" y2="997.81"/>
    <line class="cls-3" x1="841.36" y1="-479.08" x2="-480.17" y2="842.45"/>
    <line class="cls-3" x1="897.85" y1="-422.59" x2="-423.68" y2="898.95"/>
    <line class="cls-3" x1="883.73" y1="-436.71" x2="-437.8" y2="884.82"/>
    <line class="cls-3" x1="864.9" y1="-455.54" x2="-456.63" y2="865.99"/>
    <line class="cls-3" x1="846.07" y1="-474.37" x2="-475.46" y2="847.16"/>
    <line class="cls-3" x1="902.56" y1="-417.88" x2="-418.97" y2="903.65"/>
    <line class="cls-3" x1="874.31" y1="-446.12" x2="-447.22" y2="875.41"/>
    <line class="cls-3" x1="855.48" y1="-464.95" x2="-466.05" y2="856.58"/>
    <line class="cls-3" x1="911.97" y1="-408.46" x2="-409.56" y2="913.07"/>
    <line class="cls-3" x1="893.14" y1="-427.29" x2="-428.39" y2="894.24"/>
    <line class="cls-3" x1="1137.95" y1="-182.5" x2="-183.58" y2="1139.03"/>
    <line class="cls-3" x1="1048.5" y1="-271.95" x2="-273.03" y2="1049.58"/>
    <line class="cls-3" x1="1100.29" y1="-220.17" x2="-221.24" y2="1101.37"/>
    <line class="cls-3" x1="1119.12" y1="-201.33" x2="-202.41" y2="1120.2"/>
    <line class="cls-3" x1="1029.67" y1="-290.78" x2="-291.86" y2="1030.75"/>
    <line class="cls-3" x1="1081.46" y1="-239" x2="-240.07" y2="1082.54"/>
    <line class="cls-3" x1="1147.36" y1="-173.09" x2="-174.17" y2="1148.44"/>
    <line class="cls-3" x1="1010.84" y1="-309.61" x2="-310.69" y2="1011.92"/>
    <line class="cls-3" x1="1067.33" y1="-253.12" x2="-254.2" y2="1068.41"/>
    <line class="cls-3" x1="1128.53" y1="-191.92" x2="-193" y2="1129.61"/>
    <line class="cls-3" x1="1039.09" y1="-281.36" x2="-282.44" y2="1040.17"/>
    <line class="cls-3" x1="1090.87" y1="-229.58" x2="-230.66" y2="1091.95"/>
    <line class="cls-3" x1="1109.7" y1="-210.75" x2="-211.83" y2="1110.78"/>
    <line class="cls-3" x1="1020.26" y1="-300.2" x2="-301.27" y2="1021.34"/>
    <line class="cls-3" x1="1076.75" y1="-243.7" x2="-244.78" y2="1077.83"/>
    <line class="cls-3" x1="1152.07" y1="-168.38" x2="-169.46" y2="1153.15"/>
    <line class="cls-3" x1="1133.24" y1="-187.21" x2="-188.29" y2="1134.32"/>
    <line class="cls-3" x1="1095.58" y1="-224.87" x2="-225.95" y2="1096.66"/>
    <line class="cls-3" x1="1114.41" y1="-206.04" x2="-207.12" y2="1115.49"/>
    <line class="cls-3" x1="1142.66" y1="-177.8" x2="-178.88" y2="1143.74"/>
    <line class="cls-3" x1="1123.83" y1="-196.63" x2="-197.71" y2="1124.91"/>
    <line class="cls-3" x1="1086.17" y1="-234.29" x2="-235.37" y2="1087.24"/>
    <line class="cls-3" x1="1105" y1="-215.46" x2="-216.54" y2="1106.07"/>
    <line class="cls-3" x1="1156.78" y1="-163.67" x2="-164.75" y2="1157.86"/>
    <line class="cls-3" x1="1001.43" y1="-319.03" x2="-320.1" y2="1002.51"/>
    <line class="cls-3" x1="1057.92" y1="-262.53" x2="-263.61" y2="1059"/>
    <line class="cls-3" x1="1043.8" y1="-276.66" x2="-277.74" y2="1044.88"/>
    <line class="cls-3" x1="1024.97" y1="-295.49" x2="-296.57" y2="1026.04"/>
    <line class="cls-3" x1="1006.14" y1="-314.32" x2="-315.4" y2="1007.21"/>
    <line class="cls-3" x1="1062.63" y1="-257.83" x2="-258.91" y2="1063.71"/>
    <line class="cls-3" x1="1034.38" y1="-286.07" x2="-287.15" y2="1035.46"/>
    <line class="cls-3" x1="1015.55" y1="-304.9" x2="-305.98" y2="1016.63"/>
    <line class="cls-3" x1="1072.04" y1="-248.41" x2="-249.49" y2="1073.12"/>
    <line class="cls-3" x1="1053.21" y1="-267.24" x2="-268.32" y2="1054.29"/>
    <line class="cls-3" x1="1298" y1="-22.44" x2="-23.53" y2="1299.1"/>
    <line class="cls-3" x1="1208.56" y1="-111.88" x2="-112.98" y2="1209.65"/>
    <line class="cls-3" x1="1260.34" y1="-60.1" x2="-61.19" y2="1261.43"/>
    <line class="cls-3" x1="1279.17" y1="-41.27" x2="-42.36" y2="1280.27"/>
    <line class="cls-3" x1="1189.73" y1="-130.71" x2="-131.81" y2="1190.82"/>
    <line class="cls-3" x1="1241.51" y1="-78.93" x2="-80.02" y2="1242.6"/>
    <line class="cls-3" x1="1307.42" y1="-13.02" x2="-14.12" y2="1308.51"/>
    <line class="cls-3" x1="1170.9" y1="-149.54" x2="-150.64" y2="1171.99"/>
    <line class="cls-3" x1="1227.39" y1="-93.05" x2="-94.15" y2="1228.48"/>
    <line class="cls-3" x1="1288.59" y1="-31.85" x2="-32.95" y2="1289.68"/>
    <line class="cls-3" x1="1199.14" y1="-121.3" x2="-122.39" y2="1200.24"/>
    <line class="cls-3" x1="1250.93" y1="-69.51" x2="-70.61" y2="1252.02"/>
    <line class="cls-3" x1="1269.76" y1="-50.68" x2="-51.78" y2="1270.85"/>
    <line class="cls-3" x1="1180.31" y1="-140.13" x2="-141.22" y2="1181.4"/>
    <line class="cls-3" x1="1236.8" y1="-83.64" x2="-84.73" y2="1237.9"/>
    <line class="cls-3" x1="1312.12" y1="-8.31" x2="-9.41" y2="1313.22"/>
    <line class="cls-3" x1="1293.29" y1="-27.14" x2="-28.24" y2="1294.39"/>
    <line class="cls-3" x1="1255.63" y1="-64.8" x2="-65.9" y2="1256.73"/>
    <line class="cls-3" x1="1274.46" y1="-45.97" x2="-47.07" y2="1275.56"/>
    <line class="cls-3" x1="1302.71" y1="-17.73" x2="-18.82" y2="1303.8"/>
    <line class="cls-3" x1="1283.88" y1="-36.56" x2="-37.65" y2="1284.97"/>
    <line class="cls-3" x1="1246.22" y1="-74.22" x2="-75.31" y2="1247.31"/>
    <line class="cls-3" x1="1265.05" y1="-55.39" x2="-56.48" y2="1266.14"/>
    <line class="cls-3" x1="1316.83" y1="-3.61" x2="-4.7" y2="1317.93"/>
    <line class="cls-3" x1="1161.48" y1="-158.96" x2="-160.05" y2="1162.57"/>
    <line class="cls-3" x1="1217.97" y1="-102.47" x2="-103.56" y2="1219.07"/>
    <line class="cls-3" x1="1203.85" y1="-116.59" x2="-117.68" y2="1204.94"/>
    <line class="cls-3" x1="1185.02" y1="-135.42" x2="-136.51" y2="1186.11"/>
    <line class="cls-3" x1="1166.19" y1="-154.25" x2="-155.34" y2="1167.28"/>
    <line class="cls-3" x1="1222.68" y1="-97.76" x2="-98.85" y2="1223.77"/>
    <line class="cls-3" x1="1194.43" y1="-126" x2="-127.1" y2="1195.53"/>
    <line class="cls-3" x1="1175.6" y1="-144.83" x2="-145.93" y2="1176.7"/>
    <line class="cls-3" x1="1232.09" y1="-88.34" x2="-89.44" y2="1233.19"/>
    <line class="cls-3" x1="1213.26" y1="-107.17" x2="-108.27" y2="1214.36"/>
    <line class="cls-3" x1="1458.07" y1="137.62" x2="136.54" y2="1459.15"/>
    <line class="cls-3" x1="1368.62" y1="48.17" x2="47.09" y2="1369.7"/>
    <line class="cls-3" x1="1420.41" y1="99.96" x2="98.88" y2="1421.49"/>
    <line class="cls-3" x1="1439.24" y1="118.79" x2="117.71" y2="1440.32"/>
    <line class="cls-3" x1="1349.79" y1="29.34" x2="28.26" y2="1350.87"/>
    <line class="cls-3" x1="1401.58" y1="81.12" x2="80.05" y2="1402.66"/>
    <line class="cls-3" x1="1467.48" y1="147.03" x2="145.95" y2="1468.56"/>
    <line class="cls-3" x1="1330.96" y1="10.51" x2="9.43" y2="1332.04"/>
    <line class="cls-3" x1="1387.45" y1="67" x2="65.92" y2="1388.53"/>
    <line class="cls-3" x1="1448.65" y1="128.2" x2="127.12" y2="1449.73"/>
    <line class="cls-3" x1="1359.21" y1="38.76" x2="37.68" y2="1360.29"/>
    <line class="cls-3" x1="1410.99" y1="90.54" x2="89.46" y2="1412.07"/>
    <line class="cls-3" x1="1429.82" y1="109.37" x2="108.29" y2="1430.9"/>
    <line class="cls-3" x1="1340.38" y1="19.93" x2="18.85" y2="1341.46"/>
    <line class="cls-3" x1="1396.87" y1="76.42" x2="75.34" y2="1397.95"/>
    <line class="cls-3" x1="1472.19" y1="151.74" x2="150.66" y2="1473.27"/>
    <line class="cls-3" x1="1453.36" y1="132.91" x2="131.83" y2="1454.44"/>
    <line class="cls-3" x1="1415.7" y1="95.25" x2="94.17" y2="1416.78"/>
    <line class="cls-3" x1="1434.53" y1="114.08" x2="113" y2="1435.61"/>
    <line class="cls-3" x1="1462.78" y1="142.32" x2="141.25" y2="1463.86"/>
    <line class="cls-3" x1="1443.95" y1="123.49" x2="122.41" y2="1445.03"/>
    <line class="cls-3" x1="1406.29" y1="85.83" x2="84.75" y2="1407.36"/>
    <line class="cls-3" x1="1425.12" y1="104.66" x2="103.58" y2="1426.19"/>
    <line class="cls-3" x1="1476.9" y1="156.45" x2="155.37" y2="1477.98"/>
    <line class="cls-3" x1="1321.55" y1="1.09" x2="0.02" y2="1322.63"/>
    <line class="cls-3" x1="1378.04" y1="57.59" x2="56.51" y2="1379.12"/>
    <line class="cls-3" x1="1363.92" y1="43.46" x2="42.38" y2="1365"/>
    <line class="cls-3" x1="1345.09" y1="24.63" x2="23.55" y2="1346.16"/>
    <line class="cls-3" x1="1326.26" y1="5.8" x2="4.72" y2="1327.33"/>
    <line class="cls-3" x1="1382.75" y1="62.29" x2="61.22" y2="1383.83"/>
    <line class="cls-3" x1="1354.5" y1="34.05" x2="32.97" y2="1355.58"/>
    <line class="cls-3" x1="1335.67" y1="15.22" x2="14.14" y2="1336.75"/>
    <line class="cls-3" x1="1392.16" y1="71.71" x2="70.63" y2="1393.24"/>
    <line class="cls-3" x1="1373.33" y1="52.88" x2="51.8" y2="1374.41"/>
    <line class="cls-3" x1="1613.42" y1="292.97" x2="291.89" y2="1614.5"/>
    <line class="cls-3" x1="1523.98" y1="203.52" x2="202.44" y2="1525.06"/>
    <line class="cls-3" x1="1575.76" y1="255.31" x2="254.23" y2="1576.84"/>
    <line class="cls-3" x1="1594.59" y1="274.14" x2="273.06" y2="1595.67"/>
    <line class="cls-3" x1="1505.15" y1="184.69" x2="183.61" y2="1506.22"/>
    <line class="cls-3" x1="1556.93" y1="236.48" x2="235.4" y2="1558.01"/>
    <line class="cls-3" x1="1622.84" y1="302.38" x2="301.31" y2="1623.92"/>
    <line class="cls-3" x1="1486.32" y1="165.86" x2="164.78" y2="1487.39"/>
    <line class="cls-3" x1="1542.81" y1="222.35" x2="221.28" y2="1543.89"/>
    <line class="cls-3" x1="1604.01" y1="283.55" x2="282.47" y2="1605.09"/>
    <line class="cls-3" x1="1514.56" y1="194.11" x2="193.03" y2="1515.64"/>
    <line class="cls-3" x1="1566.35" y1="245.89" x2="244.81" y2="1567.42"/>
    <line class="cls-3" x1="1585.18" y1="264.72" x2="263.64" y2="1586.25"/>
    <line class="cls-3" x1="1495.73" y1="175.28" x2="174.2" y2="1496.81"/>
    <line class="cls-3" x1="1552.22" y1="231.77" x2="230.69" y2="1553.3"/>
    <line class="cls-3" x1="1627.54" y1="307.09" x2="306.01" y2="1628.62"/>
    <line class="cls-3" x1="1608.71" y1="288.26" x2="287.18" y2="1609.79"/>
    <line class="cls-3" x1="1571.05" y1="250.6" x2="249.52" y2="1572.13"/>
    <line class="cls-3" x1="1589.88" y1="269.43" x2="268.35" y2="1590.96"/>
    <line class="cls-3" x1="1618.13" y1="297.68" x2="296.6" y2="1619.21"/>
    <line class="cls-3" x1="1599.3" y1="278.85" x2="277.77" y2="1600.38"/>
    <line class="cls-3" x1="1561.64" y1="241.18" x2="240.11" y2="1562.72"/>
    <line class="cls-3" x1="1580.47" y1="260.02" x2="258.94" y2="1581.55"/>
    <line class="cls-3" x1="1632.25" y1="311.8" x2="310.72" y2="1633.33"/>
    <line class="cls-3" x1="1533.39" y1="212.94" x2="211.86" y2="1534.47"/>
    <line class="cls-3" x1="1519.27" y1="198.82" x2="197.74" y2="1520.35"/>
    <line class="cls-3" x1="1500.44" y1="179.99" x2="178.91" y2="1501.52"/>
    <line class="cls-3" x1="1481.61" y1="161.15" x2="160.08" y2="1482.69"/>
    <line class="cls-3" x1="1538.1" y1="217.65" x2="216.57" y2="1539.18"/>
    <line class="cls-3" x1="1509.85" y1="189.4" x2="188.32" y2="1510.93"/>
    <line class="cls-3" x1="1491.02" y1="170.57" x2="169.49" y2="1492.1"/>
    <line class="cls-3" x1="1547.51" y1="227.06" x2="225.98" y2="1548.59"/>
    <line class="cls-3" x1="1528.68" y1="208.23" x2="207.15" y2="1529.76"/>
</g>
</svg>
