<?xml version="1.0" encoding="utf-8"?>
<!-- Generator: Adobe Illustrator 19.1.0, SVG Export Plug-In . SVG Version: 6.00 Build 0)  -->
<svg version="1.1" id="comunidad-svg" xmlns="http://www.w3.org/2000/svg" xmlns:xlink="http://www.w3.org/1999/xlink" x="0px" y="0px"
	 viewBox="0 0 210 262.1" style="enable-background:new 0 0 210 262.1;" xml:space="preserve">
<path style="fill:none;stroke:#0695D6;stroke-width:3;stroke-linecap:round;stroke-linejoin:round;stroke-miterlimit:10;" d="
	M58.7,175.8c-3.8,6.4-5.6,13.5-5.6,21.1c0,7.6,1.9,14.7,5.6,21.1c3.8,6.4,8.9,11.5,15.3,15.3c6.4,3.8,13.5,5.6,21.1,5.6
	c7.6,0,14.7-1.9,21.1-5.6c6.4-3.8,11.5-8.9,15.3-15.3c3.8-6.4,5.6-13.5,5.6-21.1c0-7.6-1.9-14.7-5.6-21.1s-8.9-11.5-15.3-15.3
	c-6.4-3.8-13.5-5.6-21.1-5.6c-7.6,0-14.7,1.9-21.1,5.6C67.6,164.3,62.5,169.4,58.7,175.8z"/>
<path style="fill:none;stroke:#0695D6;stroke-width:2;stroke-linecap:round;stroke-linejoin:round;stroke-miterlimit:10;" d="
	M95.1,175.9c4.5,0,8.3,1.6,11.4,4.7c3.2,3.2,4.7,7,4.7,11.4c0,4.5-1.6,8.3-4.7,11.4c-3.1,3.1-7,4.7-11.4,4.7
	c-4.5,0-8.3-1.6-11.4-4.7c-3.2-3.2-4.7-7-4.7-11.4c0-4.5,1.6-8.3,4.7-11.4C86.8,177.5,90.6,175.9,95.1,175.9z"/>
<path style="fill:none;stroke:#0695D6;stroke-width:2;stroke-linecap:round;stroke-linejoin:round;stroke-miterlimit:10;" d="
	M123.4,228c0,0-9.2-20-28.3-20s-28.3,20-28.3,20"/>
<path style="fill:none;stroke:#0695D6;stroke-width:3;stroke-linecap:round;stroke-linejoin:round;stroke-miterlimit:10;" d="
	M40.6,36.2c-3.1,5.3-4.6,11-4.6,17.3s1.5,12,4.6,17.3c3.1,5.3,7.3,9.4,12.5,12.5c5.3,3.1,11,4.6,17.3,4.6c6.2,0,12-1.5,17.3-4.6
	c5.3-3.1,9.4-7.2,12.5-12.5c3.1-5.3,4.6-11,4.6-17.3s-1.5-12-4.6-17.3c-3.1-5.3-7.3-9.4-12.5-12.5c-5.3-3.1-11-4.6-17.3-4.6
	c-6.2,0-12,1.5-17.3,4.6C47.8,26.8,43.7,31,40.6,36.2z"/>
<path style="fill:none;stroke:#0695D6;stroke-width:2;stroke-linecap:round;stroke-linejoin:round;stroke-miterlimit:10;" d="
	M70.4,36.3c3.7,0,6.8,1.3,9.4,3.9c2.6,2.6,3.9,5.7,3.9,9.4c0,3.7-1.3,6.8-3.9,9.4c-2.6,2.6-5.7,3.9-9.4,3.9c-3.7,0-6.8-1.3-9.4-3.9
	c-2.6-2.6-3.9-5.7-3.9-9.4c0-3.7,1.3-6.8,3.9-9.4C63.6,37.6,66.7,36.3,70.4,36.3z"/>
<path style="fill:none;stroke:#0695D6;stroke-width:2;stroke-linecap:round;stroke-linejoin:round;stroke-miterlimit:10;" d="
	M93.6,79c0,0-7.5-16.4-23.2-16.4S47.2,79,47.2,79"/>
<path style="fill:none;stroke:#0695D6;stroke-width:3;stroke-linecap:round;stroke-linejoin:round;stroke-miterlimit:10;" d="
	M139.4,112.8c-2.3,3.9-3.4,8.1-3.4,12.7c0,4.6,1.1,8.8,3.4,12.7s5.3,7,9.2,9.2c3.9,2.3,8.1,3.4,12.7,3.4s8.8-1.1,12.7-3.4
	c3.9-2.3,7-5.3,9.2-9.2s3.4-8.1,3.4-12.7c0-4.6-1.1-8.8-3.4-12.7c-2.3-3.9-5.3-7-9.2-9.2c-3.9-2.3-8.1-3.4-12.7-3.4
	s-8.8,1.1-12.7,3.4C144.8,105.8,141.7,108.9,139.4,112.8z"/>
<path style="fill:none;stroke:#0695D6;stroke-width:2;stroke-linecap:round;stroke-linejoin:round;stroke-miterlimit:10;" d="
	M161.4,112.8c2.7,0,5,1,6.9,2.9c1.9,1.9,2.9,4.2,2.9,6.9c0,2.7-1,5-2.9,6.9c-1.9,1.9-4.2,2.9-6.9,2.9c-2.7,0-5-1-6.9-2.9
	c-1.9-1.9-2.9-4.2-2.9-6.9c0-2.7,1-5,2.9-6.9C156.4,113.8,158.7,112.8,161.4,112.8z"/>
<path style="fill:none;stroke:#0695D6;stroke-width:2;stroke-linecap:round;stroke-linejoin:round;stroke-miterlimit:10;" d="
	M178.5,144.3c0,0-5.5-12.1-17.1-12.1s-17.1,12.1-17.1,12.1"/>
<path style="fill:none;stroke:#0695D6;stroke-width:2;stroke-linecap:round;stroke-linejoin:round;stroke-miterlimit:10;" d="
	M175.9,42.3c1.3,2.2,1.9,4.6,1.9,7.2s-0.6,5-1.9,7.2s-3,4-5.2,5.2c-2.2,1.3-4.6,1.9-7.2,1.9c-2.6,0-5-0.6-7.2-1.9
	c-2.2-1.3-4-3-5.2-5.2c-1.3-2.2-1.9-4.6-1.9-7.2s0.6-5,1.9-7.2c1.3-2.2,3-4,5.2-5.2c2.2-1.3,4.6-1.9,7.2-1.9c2.6,0,5,0.6,7.2,1.9
	C172.8,38.3,174.6,40.1,175.9,42.3z"/>
<g>
	<path style="fill:none;stroke:#0695D6;stroke-width:1.5;stroke-linecap:round;stroke-linejoin:round;stroke-miterlimit:10;" d="
		M170.2,48.6v1.9c0,0.3-0.1,0.5-0.3,0.7c-0.2,0.2-0.4,0.3-0.7,0.3h-4v4c0,0.3-0.1,0.5-0.3,0.7c-0.2,0.2-0.4,0.3-0.7,0.3h-1.9
		c-0.3,0-0.5-0.1-0.7-0.3c-0.2-0.2-0.3-0.4-0.3-0.7v-4h-4c-0.3,0-0.5-0.1-0.7-0.3c-0.2-0.2-0.3-0.4-0.3-0.7v-1.9
		c0-0.3,0.1-0.5,0.3-0.7c0.2-0.2,0.4-0.3,0.7-0.3h4v-4c0-0.3,0.1-0.5,0.3-0.7c0.2-0.2,0.4-0.3,0.7-0.3h1.9c0.3,0,0.5,0.1,0.7,0.3
		c0.2,0.2,0.3,0.4,0.3,0.7v4h4c0.3,0,0.5,0.1,0.7,0.3C170.1,48.1,170.2,48.3,170.2,48.6z"/>
</g>
<path style="fill:none;stroke:#0695D6;stroke-width:2;stroke-linecap:round;stroke-linejoin:round;stroke-miterlimit:10;" d="
	M47.5,120.1c1.3,2.2,1.9,4.6,1.9,7.2c0,2.6-0.6,5-1.9,7.2c-1.3,2.2-3,4-5.2,5.2c-2.2,1.3-4.6,1.9-7.2,1.9s-5-0.6-7.2-1.9
	c-2.2-1.3-4-3-5.2-5.2c-1.3-2.2-1.9-4.6-1.9-7.2c0-2.6,0.6-5,1.9-7.2c1.3-2.2,3-4,5.2-5.2c2.2-1.3,4.6-1.9,7.2-1.9s5,0.6,7.2,1.9
	C44.5,116.1,46.2,117.9,47.5,120.1z"/>
<g>
	<path style="fill:none;stroke:#0695D6;stroke-width:1.5;stroke-linecap:round;stroke-linejoin:round;stroke-miterlimit:10;" d="
		M41.9,126.4v1.9c0,0.3-0.1,0.5-0.3,0.7c-0.2,0.2-0.4,0.3-0.7,0.3h-4v4c0,0.3-0.1,0.5-0.3,0.7c-0.2,0.2-0.4,0.3-0.7,0.3h-1.9
		c-0.3,0-0.5-0.1-0.7-0.3c-0.2-0.2-0.3-0.4-0.3-0.7v-4h-4c-0.3,0-0.5-0.1-0.7-0.3c-0.2-0.2-0.3-0.4-0.3-0.7v-1.9
		c0-0.3,0.1-0.5,0.3-0.7c0.2-0.2,0.4-0.3,0.7-0.3h4v-4c0-0.3,0.1-0.5,0.3-0.7c0.2-0.2,0.4-0.3,0.7-0.3H36c0.3,0,0.5,0.1,0.7,0.3
		c0.2,0.2,0.3,0.4,0.3,0.7v4h4c0.3,0,0.5,0.1,0.7,0.3C41.8,125.9,41.9,126.1,41.9,126.4z"/>
</g>
<path style="fill:#FFFFFF;stroke:#0695D6;stroke-width:2;stroke-linecap:round;stroke-linejoin:round;stroke-miterlimit:10;" d="
	M187.9,138.8c1,1.7,1.5,3.5,1.5,5.5c0,2-0.5,3.8-1.5,5.5c-1,1.7-2.3,3-4,4c-1.7,1-3.5,1.5-5.5,1.5s-3.8-0.5-5.5-1.5
	c-1.7-1-3-2.3-4-4c-1-1.7-1.5-3.5-1.5-5.5c0-2,0.5-3.8,1.5-5.5c1-1.7,2.3-3,4-4c1.7-1,3.5-1.5,5.5-1.5s3.8,0.5,5.5,1.5
	C185.6,135.8,187,137.2,187.9,138.8z"/>
<g>
	<path style="fill:none;stroke:#0695D6;stroke-width:1.5;stroke-linecap:round;stroke-linejoin:round;stroke-miterlimit:10;" d="
		M183.7,143.6v1.4c0,0.2-0.1,0.4-0.2,0.5c-0.1,0.1-0.3,0.2-0.5,0.2h-3.1v3.1c0,0.2-0.1,0.4-0.2,0.5c-0.1,0.1-0.3,0.2-0.5,0.2h-1.4
		c-0.2,0-0.4-0.1-0.5-0.2c-0.1-0.1-0.2-0.3-0.2-0.5v-3.1h-3.1c-0.2,0-0.4-0.1-0.5-0.2c-0.1-0.1-0.2-0.3-0.2-0.5v-1.4
		c0-0.2,0.1-0.4,0.2-0.5c0.1-0.1,0.3-0.2,0.5-0.2h3.1v-3.1c0-0.2,0.1-0.4,0.2-0.5c0.1-0.1,0.3-0.2,0.5-0.2h1.4
		c0.2,0,0.4,0.1,0.5,0.2c0.1,0.1,0.2,0.3,0.2,0.5v3.1h3.1c0.2,0,0.4,0.1,0.5,0.2C183.6,143.2,183.7,143.4,183.7,143.6z"/>
</g>
<path style="fill:#FFFFFF;stroke:#0695D6;stroke-width:2;stroke-linecap:round;stroke-linejoin:round;stroke-miterlimit:10;" d="
	M135.9,223.1c1.3,2.2,1.9,4.6,1.9,7.2c0,2.6-0.6,5-1.9,7.2c-1.3,2.2-3,4-5.2,5.2c-2.2,1.3-4.6,1.9-7.2,1.9s-5-0.6-7.2-1.9
	c-2.2-1.3-4-3-5.2-5.2c-1.3-2.2-1.9-4.6-1.9-7.2c0-2.6,0.6-5,1.9-7.2c1.3-2.2,3-4,5.2-5.2c2.2-1.3,4.6-1.9,7.2-1.9s5,0.6,7.2,1.9
	C132.9,219.2,134.6,220.9,135.9,223.1z"/>
<g>
	<path style="fill:none;stroke:#0695D6;stroke-width:1.5;stroke-linecap:round;stroke-linejoin:round;stroke-miterlimit:10;" d="
		M130.3,229.4v1.9c0,0.3-0.1,0.5-0.3,0.7c-0.2,0.2-0.4,0.3-0.7,0.3h-4v4c0,0.3-0.1,0.5-0.3,0.7c-0.2,0.2-0.4,0.3-0.7,0.3h-1.9
		c-0.3,0-0.5-0.1-0.7-0.3c-0.2-0.2-0.3-0.4-0.3-0.7v-4h-4c-0.3,0-0.5-0.1-0.7-0.3c-0.2-0.2-0.3-0.4-0.3-0.7v-1.9
		c0-0.3,0.1-0.5,0.3-0.7c0.2-0.2,0.4-0.3,0.7-0.3h4v-4c0-0.3,0.1-0.5,0.3-0.7c0.2-0.2,0.4-0.3,0.7-0.3h1.9c0.3,0,0.5,0.1,0.7,0.3
		c0.2,0.2,0.3,0.4,0.3,0.7v4h4c0.3,0,0.5,0.1,0.7,0.3C130.2,228.9,130.3,229.1,130.3,229.4z"/>
</g>
<path style="fill:#FFFFFF;stroke:#0695D6;stroke-width:2;stroke-linecap:round;stroke-linejoin:round;stroke-miterlimit:10;" d="
	M110.5,71.7c1.3,2.2,1.9,4.6,1.9,7.2c0,2.6-0.6,5-1.9,7.2c-1.3,2.2-3,4-5.2,5.2c-2.2,1.3-4.6,1.9-7.2,1.9c-2.6,0-5-0.6-7.2-1.9
	c-2.2-1.3-4-3-5.2-5.2s-1.9-4.6-1.9-7.2c0-2.6,0.6-5,1.9-7.2s3-4,5.2-5.2c2.2-1.3,4.6-1.9,7.2-1.9c2.6,0,5,0.6,7.2,1.9
	C107.5,67.8,109.2,69.5,110.5,71.7z"/>
<g>
	<path style="fill:none;stroke:#0695D6;stroke-width:1.5;stroke-linecap:round;stroke-linejoin:round;stroke-miterlimit:10;" d="
		M104.9,78v1.9c0,0.3-0.1,0.5-0.3,0.7c-0.2,0.2-0.4,0.3-0.7,0.3h-4v4c0,0.3-0.1,0.5-0.3,0.7c-0.2,0.2-0.4,0.3-0.7,0.3h-1.9
		c-0.3,0-0.5-0.1-0.7-0.3c-0.2-0.2-0.3-0.4-0.3-0.7v-4h-4c-0.3,0-0.5-0.1-0.7-0.3c-0.2-0.2-0.3-0.4-0.3-0.7V78
		c0-0.3,0.1-0.5,0.3-0.7c0.2-0.2,0.4-0.3,0.7-0.3h4v-4c0-0.3,0.1-0.5,0.3-0.7c0.2-0.2,0.4-0.3,0.7-0.3H99c0.3,0,0.5,0.1,0.7,0.3
		c0.2,0.2,0.3,0.4,0.3,0.7v4h4c0.3,0,0.5,0.1,0.7,0.3C104.8,77.6,104.9,77.8,104.9,78z"/>
</g>
</svg>
