<svg version="1.1" id="background" xmlns="http://www.w3.org/2000/svg" xmlns:xlink="http://www.w3.org/1999/xlink" x="0px" y="0px"
	 viewBox="216 -323.8 1277.3 1283.8" style="enable-background:new 216 -323.8 1277.3 1283.8;" xml:space="preserve">
    <g class="rotate-adjustment" transform="translate(854.7, 318.1)">
        <g id="dieciseis" class="shape-group">
            <g class="rotate-correction" transform="translate(-854.7, -318.1)">
                <circle class="st0" cx="854.7" cy="318.1" r="631.2"/>
                <path class="st1" d="M1143,607.1c-77.1,77.2-180.6,119.7-289.6,119.7v200c82,0,162.5-16.1,237.6-47.9
                    c72.5-30.7,144.2-73.5,200.1-129.4L1143,607.1z"/>
                <path class="st1" d="M1078.7-247.6c-71.6-28.5-147.3-43-225.3-43v200c53,0,103.7,9.7,151.7,28.8L1078.7-247.6z"/>
                <path class="st1" d="M288.9,93.3l185.8,73.9c20.7-51.9,51.3-98.3,91-138.1L424.3-112.3C365.2-53.2,319.7,16,288.9,93.3z"/>
                <path class="st1" d="M261,183.1l195.1,44.2c2-8.7,4.3-17.5,6.8-26l-191.7-57.1C267.4,157,264,170.1,261,183.1z"/>
                <path class="st1" d="M446,319.2H246c0-31,2.2-60.8,6.6-90.3l197.8,29.6C447.5,278.3,446,298.2,446,319.2z"/>
            </g>
        </g>
    </g>
    <g class="rotate-adjustment" transform="translate(854.7, 318.1)">
        <g id="quince" class="shape-group">
            <g class="rotate-correction" transform="translate(-854.7, -318.1)">
                <circle class="st0" cx="854.7" cy="318.1" r="631.2"/>
                <path class="st1" d="M273.6,494.7c-13.3-43.8-21.7-89.4-24.8-135.5l28.9-2c3,43.9,11,87.3,23.6,129L273.6,494.7z"/>
                <path class="st1" d="M1376.7,68.9c-42.4-88.7-107.4-165.8-187.8-222.8l16.8-23.7c84.5,59.9,152.7,140.8,197.2,234L1376.7,68.9z"/>
            </g>
        </g>
    </g>
    <g class="rotate-adjustment" transform="translate(854.7, 318.1)">
        <g id="catorce" class="shape-group">
            <g class="rotate-correction" transform="translate(-854.7, -318.1)">
                <circle class="st0" cx="854.7" cy="318.1" r="631.2"/>
                <path class="st1" d="M635-187.4l-1.2-2.8c65.1-28.3,134.4-43.6,205.8-45.5l0.1,3C768.6-230.8,699.8-215.6,635-187.4z"/>
                <path class="st1" d="M339.9,523.4c-24.4-61.2-37.6-125.9-39.1-192.2l3-0.1c1.5,66,14.6,130.3,38.9,191.2L339.9,523.4z"/>
                <path class="st1" d="M843.1,872.1c-43-0.9-85.8-6.7-127.2-17.4l0.7-2.9c41.1,10.6,83.7,16.4,126.5,17.3V872.1z"/>
            </g>
        </g>
    </g>
    <g class="rotate-adjustment" transform="translate(854.7, 318.1)">
        <g id="trece" class="shape-group">
            <g class="rotate-correction" transform="translate(-854.7, -318.1)">
                <circle class="st0" cx="854.7" cy="318.1" r="631.2"/>
                <path class="st1" d="M489.7,478.1c-22.2-50.5-33.4-104.3-33.4-159.9c0-53.8,10.5-106,31.3-155.1c20.1-47.4,48.8-90,85.4-126.6
                    c36.6-36.6,79.2-65.3,126.6-85.4c49.1-20.8,101.3-31.3,155.1-31.3s106,10.5,155.1,31.3c47.4,20.1,90,48.8,126.6,85.4
                    s65.3,79.2,85.4,126.6c20.8,49.1,31.3,101.3,31.3,155.1c0,51.2-9.6,101-28.4,148.1l-0.9-0.4c18.8-47,28.3-96.6,28.3-147.7
                    c0-53.6-10.5-105.7-31.2-154.7c-20-47.3-48.7-89.8-85.2-126.3s-79-65.1-126.3-85.2c-49-20.7-101-31.2-154.7-31.2
                    C801.1-79.2,749-68.7,700-48c-47.3,20-89.8,48.7-126.3,85.2s-65.1,79-85.2,126.3c-20.7,49-31.2,101-31.2,154.7
                    c0,55.5,11.2,109.1,33.3,159.5L489.7,478.1z"/>
            </g>
        </g>
    </g>
    <g class="rotate-adjustment" transform="translate(854.7, 318.1)">
        <g id="doce" class="shape-group">
            <g class="rotate-correction" transform="translate(-854.7, -318.1)">
                <circle class="st0" cx="854.7" cy="318.1" r="631.2"/>
                <path class="st1" d="M1245.9,47.9c-45.4-65.5-106.9-119-177.9-154.8l18.9-37.5c77.3,38.9,144.2,97.1,193.5,168.4L1245.9,47.9z"/>
                <path class="st1" d="M667.5-119L651-157.6c39.8-17,81.6-29,124.5-35.6l6.4,41.5C742.5-145.7,704-134.7,667.5-119z"/>
                <path class="st1" d="M826,848.8c-34.1-1.8-68.1-6.9-101-15.2l17-67.9c28.6,7.2,58.1,11.6,87.7,13.2L826,848.8z"/>
                <path class="st1" d="M1366.7,461c-9.1,32.9-21.5,65-36.7,95.3l-62.6-31.3c13.2-26.3,23.9-54.2,31.8-82.8L1366.7,461z"/>
            </g>
        </g>
    </g>
    <g class="rotate-adjustment" transform="translate(854.7, 318.1)">
        <g id="once" class="shape-group">
            <g class="rotate-correction" transform="translate(-854.7, -318.1)">
                <circle class="st0" cx="854.7" cy="318.1" r="631.2"/>
                <path class="st1" d="M1142.9,29.9c-34.4-34.4-74.2-62.2-118.3-82.4l15.4-33.6c48.1,22.1,91.5,52.3,129,89.9L1142.9,29.9z"/>
                <path class="st1" d="M629.2-21.5l-20.5-30.8c46.1-30.7,96.9-52.2,150.9-64l7.9,36.2C718-69.3,671.5-49.6,629.2-21.5z"/>
                <path class="st1" d="M580.2,667.9c-13.9-10.9-27.3-22.9-39.9-35.4l26.2-26.2c11.5,11.5,23.8,22.4,36.6,32.5L580.2,667.9z"/>
                <path class="st1" d="M1298.5,345.8c-3.6,58.2-18.3,114.2-43.8,166.6l-33.3-16.2c23.4-48,36.9-99.4,40.1-152.7L1298.5,345.8z"/>
                <path class="st1" d="M801.5,759.6c-57.9-6.9-113-24.8-163.8-53.3l18.1-32.3c46.6,26.1,97.1,42.5,150.1,48.9L801.5,759.6z"/>
            </g>
        </g>
    </g>
    <g class="rotate-adjustment" transform="translate(854.7, 318.1)">
        <g id="diez" class="shape-group">
            <g class="rotate-correction" transform="translate(-854.7, -318.1)">
                <circle class="st0" cx="854.7" cy="318.1" r="631.2"/>
                <path class="st1" d="M627.9,884.7c-74.5-29.8-141.4-73.4-199.1-129.7c-57.6-56.1-102.9-121.9-134.6-195.5l137.7-59.4
                    c23.9,55.5,58.1,105.1,101.6,147.5s94.1,75.3,150.2,97.8L627.9,884.7z"/>
                <path class="st1" d="M1306.2,407c11.7-59.6,11.7-119.8-0.2-179.1l147.1-29.3c15.7,78.6,15.7,158.4,0.2,237.4L1306.2,407z"/>
            </g>
        </g>
    </g>
    <g class="rotate-adjustment" transform="translate(854.7, 318.1)">
        <g id="nueveb" class="shape-group">
            <g class="rotate-correction" transform="translate(-854.7, -318.1)">
                <circle class="st0" cx="854.7" cy="318.1" r="631.2"/>
                <path class="st1" d="M854.4,699.6c-51,0-101.3-10.1-148.3-30c-45.4-19.2-86.1-46.7-121.2-81.8s-62.5-75.8-81.7-121.2
                    c-19.9-47-29.9-97.5-29.9-148.5h37c0,92,35.7,178.5,100.7,243.6c65.1,65.1,151.4,100.9,243.4,100.9L854.4,699.6L854.4,699.6z"/>
            </g>
        </g>
    </g>
    <g class="rotate-adjustment" transform="translate(854.7, 318.1)">
        <g id="nuevea" class="shape-group">
            <g class="rotate-correction" transform="translate(-854.7, -318.1)">
                <circle class="st0" cx="854.7" cy="318.1" r="631.2"/>
                <path class="st1" d="M1241.2,318.2h-47c0-91-35.3-176-99.4-240.1S945.4-21.3,854.7-21.3c-90.8,0-176.2,35.4-240.4,99.7L581,45.2
                    c35.5-35.6,76.9-63.5,123-83.1c47.7-20.2,98.4-30.5,150.7-30.5c52.2,0,102.8,10.2,150.5,30.4c46,19.5,87.4,47.3,122.8,82.8
                    c35.5,35.5,63.4,76.8,82.8,122.9C1231,215.4,1241.2,266.2,1241.2,318.2z"/>
            </g>
        </g>
    </g>
    <g class="rotate-adjustment" transform="translate(854.7, 318.1)">
        <g id="ocho" class="shape-group">
            <g class="rotate-correction" transform="translate(-854.7, -318.1)">
                <circle class="st0" cx="854.7" cy="318.1" r="631.2"/>
                <path class="st1" d="M854.7,641.6c-86.4,0-167.6-33.6-228.7-94.7s-94.7-142.3-94.7-228.7c0-39.7,7.1-78.5,21.1-115.3l1.9,0.7
                    c-13.9,36.5-21,75.1-21,114.5c0,85.9,33.4,166.6,94.1,227.3c60.7,60.7,141.4,94.1,227.3,94.1s166.6-33.4,227.3-94.1
                    c60.7-60.7,94.1-141.4,94.1-227.3c0-44-8.7-86.6-25.9-126.7l1.8-0.8c17.3,40.3,26.1,83.2,26.1,127.5c0,86.4-33.6,167.6-94.7,228.7
                    S941.1,641.6,854.7,641.6z"/>
            </g>
        </g>
    </g>
    <g class="rotate-adjustment" transform="translate(854.7, 318.1)">
        <g id="siete" class="shape-group">
            <g class="rotate-correction" transform="translate(-854.7, -318.1)">
                <circle class="st0" cx="854.7" cy="318.1" r="631.2"/>
                <path class="st1" d="M1130.7,305c-1.6-33.3-9-65.6-22.1-96.1l18.4-7.9c14.1,32.7,22,67.3,23.7,103L1130.7,305z"/>
                <path class="st1" d="M663.7,544.7c-6.4-5.4-12.6-11.1-18.5-17l14.1-14.1c5.5,5.5,11.3,10.9,17.3,15.9L663.7,544.7z"/>
            </g>
        </g>
    </g>
    <g class="rotate-adjustment" transform="translate(854.7, 318.1)">
        <g id="seis" class="shape-group">
            <g class="rotate-correction" transform="translate(-854.7, -318.1)">
                <circle class="st0" cx="854.7" cy="318.1" r="631.2"/>
                <path class="st1" d="M1131.8,426.4l-37.3-14.5c11.7-29.8,17.6-61.6,17.6-93.6h40C1152.1,355.2,1145.2,391.9,1131.8,426.4z"/>
                <path class="st1" d="M597.2,318.2h-40c0-79,30.8-154.2,87-210.3c56.2-56.2,131.2-87.1,210.2-87.1v40c-68,0-133.3,26.8-181.9,75.4
                    C623.9,184.8,597.2,249.2,597.2,318.2z"/>
                <path class="st1" d="M854.4,615.6v-40c69,0,133.6-26.8,182.2-75.4l28.2,28.3C1008.6,584.6,934.4,615.6,854.4,615.6z"/>
            </g>
        </g>
    </g>
    <g class="rotate-adjustment" transform="translate(854.7, 318.1)">
        <g id="cinco" class="shape-group">
            <g class="rotate-correction" transform="translate(-854.7, -318.1)">
                <circle class="st0" cx="854.7" cy="318.1" r="631.2"/>
                <path class="st1" d="M854.4,543.9h-0.8l-0.1-6h0.9L854.4,543.9L854.4,543.9z M868,543.5l-0.4-6l1-0.1l0.4,6L868,543.5z
                     M840.6,543.5l-1-0.1l0.4-6l1,0.1L840.6,543.5z M882.1,542.3l-0.7-6l1-0.1l0.7,6L882.1,542.3z M826.5,542.2l-1-0.1l0.8-6l1,0.1
                    L826.5,542.2z M896.1,540.1l-1.1-5.9l1-0.2l1.1,5.9L896.1,540.1z M812.5,540l-1-0.2l1.1-5.9l1,0.2L812.5,540z M909.9,537.1
                    l-1.5-5.8l1-0.2l1.5,5.8L909.9,537.1z M798.7,536.9l-1-0.3l1.5-5.8l1,0.2L798.7,536.9z M923.6,533.2l-1.8-5.7l0.9-0.3l1.9,5.7
                    L923.6,533.2z M785,533l-1-0.3l1.9-5.7l0.9,0.3L785,533z M936.9,528.5l-2.2-5.6l0.9-0.4l2.2,5.6L936.9,528.5z M771.7,528.2
                    l-0.9-0.4l2.2-5.6l0.9,0.4L771.7,528.2z M950,522.9l-2.5-5.4l0.9-0.4l2.6,5.4L950,522.9z M758.6,522.5l-0.9-0.4l2.6-5.4l0.9,0.4
                    L758.6,522.5z M962.6,516.5l-2.9-5.3l0.9-0.5l2.9,5.3L962.6,516.5z M746,516.1l-0.9-0.5l2.9-5.2l0.9,0.5L746,516.1z M974.8,509.3
                    l-3.2-5.1l0.8-0.5l3.2,5.1L974.8,509.3z M733.8,508.8l-0.9-0.5l3.2-5l0.8,0.5L733.8,508.8z M986.6,501.4l-3.5-4.9l0.8-0.6l3.5,4.8
                    L986.6,501.4z M722,500.9l-0.8-0.6l3.6-4.8l0.8,0.6L722,500.9z M997.8,492.8l-3.8-4.6l0.8-0.6l3.8,4.6L997.8,492.8z M710.8,492.2
                    l-0.8-0.6l3.8-4.6l0.8,0.6L710.8,492.2z M1008.5,483.4l-4.1-4.4l0.7-0.7l4.1,4.4L1008.5,483.4z M700.2,482.8l-0.7-0.7l4.1-4.4
                    l0.7,0.7L700.2,482.8z M1018.5,473.5l-4.4-4.1l0.7-0.7l4.4,4.1L1018.5,473.5z M690.1,472.7l-0.7-0.7l4.4-4.1l0.7,0.7L690.1,472.7z
                     M1028,462.9l-4.6-3.9l0.6-0.8l4.6,3.8L1028,462.9z M680.8,462.1l-0.7-0.8l4.6-3.8l0.6,0.8L680.8,462.1z M1036.7,451.7l-4.8-3.5
                    l0.6-0.8l4.8,3.5L1036.7,451.7z M672.1,450.9l-0.6-0.8l4.9-3.5l0.6,0.8L672.1,450.9z M1044.8,440l-5-3.3l0.5-0.8l5.1,3.2
                    L1044.8,440z M664.1,439.2l-0.5-0.9l5.1-3.2l0.5,0.8L664.1,439.2z M1052.1,427.8l-5.2-2.9l0.5-0.9l5.3,2.9L1052.1,427.8z
                     M656.9,427l-0.5-0.9l5.3-2.9l0.5,0.9L656.9,427z M1058.6,415.2l-5.4-2.6l0.4-0.9l5.4,2.6L1058.6,415.2z M650.4,414.4l-0.4-0.9
                    l5.4-2.5l0.4,0.9L650.4,414.4z M1064.2,402.2l-5.6-2.2l0.4-0.9l5.6,2.2L1064.2,402.2z M644.8,401.5l-0.4-0.9l5.6-2.2l0.4,0.9
                    L644.8,401.5z M1069.2,388.9l-5.7-1.9l0.3-0.9l5.7,1.9L1069.2,388.9z M640,388.1l-0.3-1l5.7-1.8l0.3,0.9L640,388.1z M1073.2,375.3
                    l-5.8-1.5l0.2-1l5.8,1.5L1073.2,375.3z M636,374.5l-0.3-1l5.8-1.5l0.2,1L636,374.5z M1076.2,361.4l-5.9-1.1l0.2-1l5.9,1.1
                    L1076.2,361.4z M632.9,360.7l-0.2-1l5.9-1.1l0.2,1L632.9,360.7z M1078.6,347.4l-5.9-0.8l0.1-1l6,0.7L1078.6,347.4z M630.7,346.7
                    l-0.1-1l6-0.7l0.1,1L630.7,346.7z M1079.9,333.3l-6-0.4l0.1-1l6,0.4L1079.9,333.3z M629.4,332.5l-0.1-1l6-0.4l0.1,1L629.4,332.5z
                     M1080.4,319.4l-6,0.1v-1.3h6V319.4z M635.4,318.2h-6l0,0l-0.2-0.8h6.1L635.4,318.2L635.4,318.2z M1074.1,304.9l-0.1-1l6-0.4l0.1,1
                    L1074.1,304.9z M635.3,304.6l-6-0.4l0.1-1l6,0.4L635.3,304.6z M1072.8,291.1l-0.1-1l6-0.8l0.1,1L1072.8,291.1z M636.6,290.8l-6-0.7
                    l0.1-1l6,0.8L636.6,290.8z M1070.7,277.5l-0.2-1l5.9-1.1l0.2,1L1070.7,277.5z M638.7,277.2l-5.9-1.1l0.2-1l5.9,1.1L638.7,277.2z
                     M1067.7,264l-0.2-1l5.8-1.5l0.3,1L1067.7,264z M641.7,263.7l-5.8-1.5l0.3-1l5.8,1.5L641.7,263.7z M1063.9,250.8l-0.3-0.9l5.7-1.9
                    l0.3,1L1063.9,250.8z M645.5,250.4l-5.7-1.8l0.3-1l5.7,1.9L645.5,250.4z M1059.2,237.8l-0.4-0.9l5.6-2.2l0.4,0.9L1059.2,237.8z
                     M650.2,237.4l-5.6-2.2l0.4-0.9l5.6,2.2L650.2,237.4z M1053.8,225.1l-0.4-0.9l5.4-2.6l0.4,0.9L1053.8,225.1z M655.7,224.7l-5.4-2.5
                    l0.4-0.9l5.4,2.6L655.7,224.7z M1047.6,212.8l-0.5-0.9l5.2-2.9l0.5,0.9L1047.6,212.8z M662,212.4l-5.3-2.9l0.5-0.9l5.2,2.9
                    L662,212.4z M1040.6,200.9l-0.5-0.8l5.1-3.2l0.5,0.9L1040.6,200.9z M669,200.5l-5.1-3.2l0.5-0.9l5.1,3.2L669,200.5z M1032.9,189.5
                    l-0.6-0.8l4.8-3.5l0.6,0.8L1032.9,189.5z M676.8,189.1l-4.9-3.5l0.6-0.8l4.8,3.6L676.8,189.1z M1024.5,178.6l-0.6-0.8l4.6-3.8
                    l0.7,0.8L1024.5,178.6z M685.2,178.2l-4.6-3.8l0.6-0.8l4.6,3.8L685.2,178.2z M1015.4,168.2l-0.7-0.7l4.4-4.1l0.7,0.7L1015.4,168.2z
                     M694.3,167.8l-4.4-4.1l0.7-0.7l4.4,4.1L694.3,167.8z M1005.6,158.4l-0.7-0.7l4.1-4.4l0.7,0.7L1005.6,158.4z M704.1,158.1l-4.1-4.4
                    l0.7-0.7l4.1,4.4L704.1,158.1z M995.3,149.2l-0.8-0.6l3.8-4.6l0.8,0.6L995.3,149.2z M714.4,148.9l-3.8-4.6l0.8-0.6l3.8,4.6
                    L714.4,148.9z M984.4,140.7l-0.8-0.6l3.5-4.9l0.8,0.6L984.4,140.7z M725.3,140.4l-3.5-4.8l0.8-0.6l3.5,4.9L725.3,140.4z M973,132.9
                    l-0.8-0.5l3.2-5.1l0.9,0.5L973,132.9z M736.7,132.7l-3.2-5.1l0.9-0.5l3.2,5.1L736.7,132.7z M961.2,125.8l-0.9-0.5l2.9-5.3l0.9,0.5
                    L961.2,125.8z M748.6,125.6l-2.9-5.3l0.9-0.5l2.9,5.3L748.6,125.6z M948.9,119.5l-0.9-0.4l2.5-5.4l0.9,0.4L948.9,119.5z
                     M760.8,119.3l-2.6-5.4l0.9-0.4l2.5,5.4L760.8,119.3z M936.2,114l-0.9-0.4l2.2-5.6l0.9,0.4L936.2,114z M773.5,113.9l-2.2-5.6
                    l0.9-0.4l2.2,5.6L773.5,113.9z M923.2,109.3l-0.9-0.3l1.8-5.7l1,0.3L923.2,109.3z M786.5,109.2l-1.9-5.7l1-0.3l1.8,5.7L786.5,109.2
                    z M910,105.4l-1-0.2l1.5-5.8l1,0.3L910,105.4z M799.7,105.3l-1.5-5.8l1-0.3l1.5,5.8L799.7,105.3z M896.5,102.3l-1-0.2l1.1-5.9
                    l1,0.2L896.5,102.3z M813.2,102.3l-1.1-5.9l1-0.2l1.1,5.9L813.2,102.3z M882.9,100.2l-1-0.1l0.7-6l1,0.1L882.9,100.2z M826.8,100.1
                    l-0.8-6l1-0.1l0.7,6L826.8,100.1z M869.1,98.8l-1-0.1l0.4-6l1,0.1L869.1,98.8z M840.5,98.8l-0.4-6l1-0.1l0.4,6L840.5,98.8z
                     M855.3,98.2h-0.7h-0.3v-6h0.3h0.7V98.2z"/>
            </g>
        </g>
    </g>
    <g class="rotate-adjustment" transform="translate(854.7, 318.1)">
        <g id="cuatro" class="shape-group">
            <g class="rotate-correction" transform="translate(-854.7, -318.1)">
                <circle class="st0" cx="854.7" cy="318.1" r="631.2"/>
                <path class="st1" d="M854.4,509.9c-105,0-191.6-86-191.6-191.7c0-11.7,1.1-23.5,3.3-34.9c2.2-12.1,5.7-24,10.2-35.4
                    c14-35.4,38-65.6,69.3-87.3c32.1-22.3,69.8-34,109.1-34c105.7,0,191.7,85.7,191.7,191.7h-4c0-104-84.2-187.7-187.7-187.7
                    c-38.4,0-75.3,11.5-106.8,33.3c-30.7,21.3-54.2,50.9-67.9,85.5c-4.4,11.2-7.8,22.8-9.9,34.7c-2.1,11.2-3.3,22.7-3.3,34.2
                    c0,103.5,84.6,187.7,187.6,187.7L854.4,509.9L854.4,509.9z"/>
            </g>
        </g>
    </g>
    <g class="rotate-adjustment" transform="translate(854.7, 318.1)">
        <g id="tres" class="shape-group">
            <g class="rotate-correction" transform="translate(-854.7, -318.1)">
                <circle class="st0" cx="854.7" cy="318.1" r="631.2"/>
                <path class="st1" d="M1005.1,311.5v-0.9l17-0.8v1.1L1005.1,311.5z M1004.3,301.1l-0.1-0.9l16.9-2l0.1,1L1004.3,301.1z
                     M1002.8,290.9l-0.2-0.9l16.7-3.2l0.2,1L1002.8,290.9z M1000.6,280.7l-0.2-0.9l16.4-4.3l0.3,1L1000.6,280.7z M997.6,270.7l-0.3-0.9
                    l16.1-5.4l0.3,1L997.6,270.7z M994,261l-0.4-0.9l15.7-6.6l0.4,1L994,261z M989.7,251.5l-0.4-0.8l15.2-7.6l0.5,1L989.7,251.5z
                     M984.8,242.3l-0.5-0.8l14.6-8.6l0.5,0.9L984.8,242.3z M979.3,233.6l-0.5-0.8l14-9.6l0.6,0.9L979.3,233.6z M973.1,225.2l-0.6-0.8
                    l13.3-10.6l0.6,0.8L973.1,225.2z M966.4,217.2l-0.6-0.7l12.5-11.5l0.7,0.8L966.4,217.2z M959.2,209.7l-0.7-0.7l11.7-12.3l0.8,0.7
                    L959.2,209.7z M951.4,202.8l-0.7-0.6l10.8-13.1l0.8,0.7L951.4,202.8z M943.2,196.3l-0.8-0.6l9.9-13.8l0.8,0.6L943.2,196.3z
                     M934.6,190.5l-0.8-0.5l8.9-14.5l0.9,0.6L934.6,190.5z M925.6,185.3l-0.8-0.4l7.9-15l0.9,0.5L925.6,185.3z M916.2,180.7l-0.9-0.4
                    l6.9-15.6l1,0.4L916.2,180.7z M906.6,176.7l-0.9-0.3l5.7-16l1,0.4L906.6,176.7z M896.7,173.5l-0.9-0.3l4.6-16.4l1,0.3L896.7,173.5z
                     M886.6,171l-0.9-0.2l3.5-16.6l1,0.2L886.6,171z M876.4,169.1l-0.9-0.1l2.3-16.8l1.1,0.1L876.4,169.1z M866,168l-0.9-0.1l1.1-17
                    l1,0.1L866,168z M855.5,167.6h-1.1v-17h1.1V167.6z"/>
                <path class="st1" d="M854.4,485.7h-0.9v-17h0.9V485.7z M843.1,485.3l-1-0.1l1.2-17l0.9,0.1L843.1,485.3z M831.6,484.1l-1.1-0.1
                    l2.4-16.8l0.9,0.1L831.6,484.1z M820.2,482.2l-1-0.2l3.6-16.6l0.9,0.2L820.2,482.2z M808.9,479.4l-1-0.3l4.7-16.3l0.9,0.3
                    L808.9,479.4z M797.9,475.9l-1-0.4l5.9-16l0.9,0.3L797.9,475.9z M787.1,471.5l-1-0.4l7-15.5l0.9,0.4L787.1,471.5z M776.7,466.5
                    l-0.9-0.5l8-15l0.8,0.4L776.7,466.5z M766.6,460.7l-0.9-0.6l9-14.4l0.8,0.5L766.6,460.7z M757,454.3l-0.9-0.6l10-13.7l0.8,0.6
                    L757,454.3z M747.8,447.2l-0.8-0.7l10.9-13l0.7,0.6L747.8,447.2z M739.1,439.5l-0.8-0.7l11.8-12.2l0.7,0.7L739.1,439.5z M731,431.3
                    l-0.7-0.8l12.6-11.4l0.6,0.7L731,431.3z M723.5,422.5l-0.7-0.8l13.4-10.5l0.6,0.7L723.5,422.5z M716.6,413.2l-0.6-0.9l14.1-9.6
                    l0.5,0.8L716.6,413.2z M710.4,403.4l-0.5-0.9l14.7-8.6l0.5,0.8L710.4,403.4z M704.8,393.3l-0.5-0.9l15.2-7.6l0.4,0.9L704.8,393.3z
                     M700,382.7l-0.4-1l15.7-6.5l0.4,0.9L700,382.7z M695.9,371.9l-0.3-1l16.1-5.3l0.3,0.9L695.9,371.9z M692.6,360.8l-0.3-1l16.5-4.2
                    l0.2,0.9L692.6,360.8z M690,349.5l-0.2-1l16.7-3.1l0.2,0.9L690,349.5z M688.3,338.1l-0.1-1l16.9-1.9l0.1,1L688.3,338.1z
                     M687.3,326.5v-1.1l17-0.7v0.9L687.3,326.5z"/>
            </g>
        </g>
    </g>
    <g class="rotate-adjustment" transform="translate(854.7, 318.1)">
        <g id="dos" class="shape-group">
            <g class="rotate-correction" transform="translate(-854.7, -318.1)">
                <circle class="st0" cx="854.7" cy="318.1" r="631.2"/>
                <path class="st1" d="M851.4,242.6h-0.5l-0.4-8.5h0.5L851.4,242.6z M846.1,243l-0.5,0.1l-1-8.5l0.5-0.1L846.1,243z M841,243.8
                    l-0.5,0.1l-1.6-8.4l0.5-0.1L841,243.8z M835.9,244.9l-0.4,0.1l-2.2-8.3l0.5-0.1L835.9,244.9z M830.9,246.4l-0.5,0.2l-2.7-8.1
                    l0.5-0.2L830.9,246.4z M826,248.2l-0.4,0.2l-3.3-7.9l0.5-0.2L826,248.2z M821.2,250.3l-0.4,0.2l-3.8-7.6l0.5-0.2L821.2,250.3z
                     M816.6,252.8l-0.4,0.2l-4.3-7.3l0.5-0.3L816.6,252.8z M812.2,255.6l-0.4,0.3l-4.8-7l0.4-0.3L812.2,255.6z M808,258.7l-0.4,0.3
                    l-5.3-6.7l0.4-0.3L808,258.7z M804,262l-0.4,0.3l-5.8-6.3l0.4-0.3L804,262z M800.3,265.7L800,266l-6.2-5.9l0.4-0.4L800.3,265.7z
                     M796.8,269.6l-0.3,0.4l-6.6-5.4l0.3-0.4L796.8,269.6z M793.5,273.7l-0.3,0.4l-6.9-5l0.3-0.4L793.5,273.7z M790.6,278l-0.3,0.4
                    l-7.3-4.5l0.3-0.5L790.6,278z M788,282.5l-0.2,0.4l-7.6-4l0.3-0.5L788,282.5z M785.7,287.2l-0.2,0.4l-7.8-3.4l0.2-0.5L785.7,287.2z
                     M783.7,292.1l-0.2,0.4l-8-2.9l0.2-0.5L783.7,292.1z M782.1,297l-0.1,0.5l-8.2-2.3l0.1-0.5L782.1,297z M780.8,302.1l-0.1,0.5
                    l-8.4-1.8l0.1-0.5L780.8,302.1z M779.9,307.2l-0.1,0.5l-8.5-1.2l0.1-0.5L779.9,307.2z M779.3,312.4v0.5l-8.5-0.6v-0.5L779.3,312.4z
                     M779.1,317.7v0.5h-8.5v-0.5H779.1z"/>
                <path class="st1" d="M938.8,318.2v0.5h-8.5v-0.5H938.8z M938.6,323.9v0.5l-8.5-0.6v-0.5L938.6,323.9z M938,329.7l-0.1,0.5l-8.4-1.2
                    l0.1-0.5L938,329.7z M937,335.5l-0.1,0.5l-8.3-1.8l0.1-0.5L937,335.5z M935.6,341.1l-0.1,0.5l-8.2-2.4l0.1-0.5L935.6,341.1z
                     M933.8,346.6l-0.2,0.5l-8-3l0.2-0.4L933.8,346.6z M931.7,352l-0.2,0.5l-7.8-3.5l0.2-0.4L931.7,352z M929.1,357.3l-0.2,0.5l-7.5-4
                    l0.2-0.4L929.1,357.3z M926.3,362.3l-0.3,0.4l-7.2-4.5l0.3-0.4L926.3,362.3z M923,367.2l-0.3,0.4l-6.9-5l0.3-0.4L923,367.2z
                     M919.5,371.8l-0.3,0.4l-6.5-5.5l0.3-0.4L919.5,371.8z M915.6,376.1l-0.4,0.4l-6.1-5.9l0.3-0.3L915.6,376.1z M911.5,380.2l-0.4,0.4
                    l-5.7-6.3l0.4-0.3L911.5,380.2z M907,384l-0.4,0.3l-5.3-6.7l0.4-0.3L907,384z M902.4,387.4l-0.4,0.3l-4.8-7.1l0.4-0.3L902.4,387.4z
                     M897.5,390.6l-0.5,0.3l-4.3-7.4l0.4-0.2L897.5,390.6z M892.4,393.4l-0.5,0.2l-3.8-7.6l0.4-0.2L892.4,393.4z M887.1,395.8l-0.5,0.2
                    l-3.2-7.9l0.4-0.2L887.1,395.8z M881.7,397.8l-0.5,0.2l-2.7-8.1l0.4-0.2L881.7,397.8z M876.1,399.5l-0.5,0.1l-2.1-8.3l0.5-0.1
                    L876.1,399.5z M870.4,400.8l-0.5,0.1l-1.5-8.4l0.5-0.1L870.4,400.8z M864.7,401.7l-0.5,0.1l-1-8.5l0.5-0.1L864.7,401.7z
                     M858.9,402.2h-0.5l-0.4-8.5h0.5L858.9,402.2z"/>
            </g>
        </g>
    </g>
    <g class="rotate-adjustment" transform="translate(854.7, 318.1)">
        <g id="uno" class="shape-group">
            <g class="rotate-correction" transform="translate(-854.7, -318.1)">
                <circle class="st0" cx="854.7" cy="318.1" r="631.2"/>
                <path class="st2" d="M742.1,365.4c-6.3-15-9.5-30.9-9.5-47.3c0-67.3,54.8-122.1,122.1-122.1c15.2,0,30,2.7,44,8.2l-1.1,2.8
                    c-13.7-5.3-28.1-8-42.9-8c-65.7,0-119.1,53.4-119.1,119.1c0,16,3.1,31.5,9.3,46.1L742.1,365.4z"/>
                <path class="st2" d="M854.7,440.2c-16.3,0-32.2-3.2-47.2-9.4l1.2-2.8c14.6,6.1,30.1,9.2,46,9.2c65.7,0,119.1-53.4,119.1-119.1
                    c0-16.2-3.2-32-9.5-46.8l2.8-1.2c6.5,15.2,9.8,31.3,9.8,48C976.8,385.5,922,440.2,854.7,440.2z"/>
            </g>
        </g>
    </g>
</svg>