<?xml version="1.0" encoding="utf-8"?>
<!-- Generator: Adobe Illustrator 19.1.0, SVG Export Plug-In . SVG Version: 6.00 Build 0)  -->
<svg version="1.1" id="kit-svg" xmlns="http://www.w3.org/2000/svg" xmlns:xlink="http://www.w3.org/1999/xlink" x="0px" y="0px"
	 viewBox="0 0 210 262.1" style="enable-background:new 0 0 210 262.1;" xml:space="preserve">
<path style="fill:none;stroke:#0695D6;stroke-width:3;stroke-linejoin:round;stroke-miterlimit:10;" d="M28.4,220.8
	c-5.4-1.9-9.3-7.1-9.3-13.2V33c0-7.7,6.3-14,14-14H168c6.6,0,12.2,4.6,13.6,10.7"/>
<path style="fill:none;stroke:#0695D6;stroke-width:3;stroke-linecap:round;stroke-linejoin:round;stroke-miterlimit:10;" d="
	M176.9,231.5H42c-7.7,0-14-6.3-14-14V42.9c0-7.7,6.3-14,14-14h134.8c7.7,0,14,6.3,14,14v174.6C190.9,225.2,184.6,231.5,176.9,231.5z
	"/>
<g>
	<path style="fill:none;stroke:#0695D6;stroke-linecap:round;stroke-linejoin:round;stroke-miterlimit:10;" d="M49.4,123.8H41v-19
		h8.1c3.3,0,5.7,0.7,7.1,2.2c1.4,1.5,2.2,3.8,2.2,7.1c0,3.2-0.7,5.7-2.1,7.3C54.9,123,52.6,123.8,49.4,123.8z M51.7,114.4
		c0-1.7-0.2-2.8-0.5-3.4c-0.4-0.6-1.1-0.8-2.4-0.8h-1.2v8.3h1.2c1,0,1.7-0.2,2.2-0.7C51.5,117.2,51.7,116.1,51.7,114.4z"/>
	<path style="fill:none;stroke:#0695D6;stroke-linecap:round;stroke-linejoin:round;stroke-miterlimit:10;" d="M59.8,123.8l4.2-19
		h10l4.3,19h-6.7l-0.5-2.2h-4.4l-0.5,2.2H59.8z M68.7,110l-1.1,6.6h2.8l-1-6.6H68.7z"/>
	<path style="fill:none;stroke:#0695D6;stroke-linecap:round;stroke-linejoin:round;stroke-miterlimit:10;" d="M78.5,110.2v-5.4
		h14.3v5.4h-3.7v13.6h-6.6v-13.6H78.5z"/>
	<path style="fill:none;stroke:#0695D6;stroke-linecap:round;stroke-linejoin:round;stroke-miterlimit:10;" d="M113.1,114.3
		c0,3.5-0.7,6-2.2,7.5c-1.4,1.6-3.8,2.3-6.9,2.3c-3.2,0-5.5-0.8-6.9-2.4c-1.5-1.6-2.2-4.1-2.2-7.5c0-3.4,0.7-5.9,2.2-7.5
		c1.4-1.6,3.8-2.3,6.9-2.3c3.2,0,5.5,0.8,6.9,2.3C112.4,108.3,113.1,110.9,113.1,114.3z M101.6,114.3c0,1.6,0.2,2.8,0.5,3.5
		c0.3,0.7,1,1.1,2,1.1c1,0,1.6-0.3,2-1c0.3-0.7,0.5-1.9,0.5-3.5c0-1.6-0.1-2.8-0.4-3.5c-0.3-0.7-0.9-1-2-1c-1,0-1.7,0.4-2,1.1
		C101.7,111.5,101.6,112.7,101.6,114.3z"/>
	<path style="fill:none;stroke:#0695D6;stroke-linecap:round;stroke-linejoin:round;stroke-miterlimit:10;" d="M130.7,110.3
		c-2.7-0.3-4.6-0.4-5.8-0.4c-1.2,0-1.9,0-2.1,0.1c-0.2,0.1-0.3,0.2-0.3,0.4c0,0.2,0.1,0.4,0.3,0.5c0.2,0.1,0.9,0.3,2.2,0.6
		c1.2,0.3,2.2,0.5,3,0.8c0.8,0.3,1.5,0.6,2.1,1.1c0.6,0.5,1,1,1.2,1.7c0.2,0.7,0.3,1.6,0.3,2.7c0,2.3-0.6,4-1.9,5
		c-1.3,1-3.1,1.5-5.7,1.5c-1.2,0-2.5-0.1-3.8-0.3c-1.3-0.2-2.4-0.3-3.1-0.5l-1.1-0.3l0.3-5c2.9,0.4,5.3,0.6,7.2,0.6
		c1,0,1.5-0.2,1.5-0.7c0-0.2-0.1-0.3-0.3-0.4c-0.2-0.1-0.8-0.2-1.9-0.4c-2.7-0.4-4.5-1.1-5.4-1.9c-1-0.9-1.4-2.3-1.4-4.3
		c0-2.5,0.6-4.3,1.9-5.2c1.2-0.9,3.1-1.4,5.7-1.4c1.8,0,3.9,0.2,6.4,0.5l1.2,0.2L130.7,110.3z"/>
	<path style="fill:none;stroke:#0695D6;stroke-linecap:round;stroke-linejoin:round;stroke-miterlimit:10;" d="M40,146.5l4.2-19h10
		l4.3,19h-6.7l-0.5-2.2H47l-0.5,2.2H40z M48.9,132.7l-1.1,6.6h2.8l-1-6.6H48.9z"/>
	<path style="fill:none;stroke:#0695D6;stroke-linecap:round;stroke-linejoin:round;stroke-miterlimit:10;" d="M115.6,141.6H114v4.9
		h-6.6v-19h8c2.9,0,5.1,0.5,6.3,1.5c1.3,1,1.9,2.8,1.9,5.4c0,2.6-0.7,4.5-2.1,5.7l1.9,6.5h-6.7L115.6,141.6z M115.6,136.5
		c0.9,0,1.4-0.6,1.4-1.9c0-1.2-0.5-1.9-1.6-1.9H114v3.7H115.6z"/>
	<path style="fill:none;stroke:#0695D6;stroke-linecap:round;stroke-linejoin:round;stroke-miterlimit:10;" d="M126,132.9v-5.4h14.3
		v5.4h-3.7v13.6h-6.6v-13.6H126z"/>
	<path style="fill:none;stroke:#0695D6;stroke-linecap:round;stroke-linejoin:round;stroke-miterlimit:10;" d="M160.5,137
		c0,3.5-0.7,6-2.2,7.5c-1.4,1.6-3.8,2.3-6.9,2.3c-3.2,0-5.5-0.8-6.9-2.4c-1.5-1.6-2.2-4.1-2.2-7.5c0-3.4,0.7-5.9,2.2-7.5
		c1.4-1.6,3.8-2.3,6.9-2.3c3.2,0,5.5,0.8,6.9,2.3C159.8,131.1,160.5,133.6,160.5,137z M149,137c0,1.6,0.2,2.8,0.5,3.5
		c0.3,0.7,1,1.1,2,1.1c1,0,1.6-0.3,2-1c0.3-0.7,0.5-1.9,0.5-3.5c0-1.6-0.1-2.8-0.4-3.5c-0.3-0.7-0.9-1-2-1c-1,0-1.7,0.4-2,1.1
		C149.2,134.3,149,135.4,149,137z"/>
	<path style="fill:none;stroke:#0695D6;stroke-linecap:round;stroke-linejoin:round;stroke-miterlimit:10;" d="M178.1,133
		c-2.7-0.3-4.6-0.4-5.8-0.4c-1.2,0-1.9,0-2.1,0.1c-0.2,0.1-0.3,0.2-0.3,0.4c0,0.2,0.1,0.4,0.3,0.5c0.2,0.1,0.9,0.3,2.2,0.6
		c1.2,0.3,2.2,0.5,3,0.8c0.8,0.3,1.5,0.6,2.1,1.1c0.6,0.5,1,1,1.2,1.7c0.2,0.7,0.3,1.6,0.3,2.7c0,2.3-0.6,4-1.9,5
		c-1.3,1-3.1,1.5-5.7,1.5c-1.2,0-2.5-0.1-3.8-0.3c-1.3-0.2-2.4-0.3-3.1-0.5l-1.1-0.3l0.3-5c2.9,0.4,5.3,0.6,7.2,0.6
		c1,0,1.5-0.2,1.5-0.7c0-0.2-0.1-0.3-0.3-0.4c-0.2-0.1-0.8-0.2-1.9-0.4c-2.7-0.4-4.5-1.1-5.4-1.9c-1-0.9-1.4-2.3-1.4-4.3
		c0-2.5,0.6-4.3,1.9-5.2c1.2-0.9,3.1-1.4,5.7-1.4c1.8,0,3.9,0.2,6.4,0.5l1.2,0.2L178.1,133z"/>
	<path style="fill:none;stroke:#0695D6;stroke-linecap:round;stroke-linejoin:round;stroke-miterlimit:10;" d="M61,127.6h8.6
		c4.7,0,7,1.6,7,4.7c0,1.2-0.1,2.1-0.4,2.7c-0.3,0.6-0.8,1.2-1.6,1.8c0.9,0.4,1.6,0.9,1.9,1.5c0.4,0.6,0.5,1.5,0.5,2.9
		c0,3.6-2.5,5.4-7.4,5.4H61V127.6z M69,131.9h-1.5v3h1.5c0.6,0,1-0.1,1.2-0.4c0.2-0.2,0.3-0.6,0.3-1.2s-0.1-0.9-0.4-1.1
		C70,132,69.6,131.9,69,131.9z M69.1,139h-1.5v3.1h1.5c0.7,0,1.1-0.1,1.3-0.3c0.2-0.2,0.3-0.6,0.3-1.2c0-0.6-0.1-1-0.4-1.2
		C70.2,139.1,69.8,139,69.1,139z"/>
	<path style="fill:none;stroke:#0695D6;stroke-linecap:round;stroke-linejoin:round;stroke-miterlimit:10;" d="M80,146.5v-19h6.6v19
		H80z"/>
	<path style="fill:none;stroke:#0695D6;stroke-linecap:round;stroke-linejoin:round;stroke-miterlimit:10;" d="M90,146.5v-19h14.3
		v5.2h-7.7v1.6h6v5.2h-6v1.7h7.7v5.2H90z"/>
	<g>
		<g>
			<path style="fill:none;stroke:#0695D6;stroke-width:0.75;stroke-linecap:round;stroke-linejoin:round;stroke-miterlimit:10;" d="
				M43.4,99.3h-2.2V88.7h2.2v4.7l1.4-0.2l1.8-4.5h2.5L46.8,94l2.4,5.3h-2.5l-1.8-4.2l-1.4,0.2V99.3z"/>
			<path style="fill:none;stroke:#0695D6;stroke-width:0.75;stroke-linecap:round;stroke-linejoin:round;stroke-miterlimit:10;" d="
				M51.9,99.3V88.7H54v10.6H51.9z"/>
			<path style="fill:none;stroke:#0695D6;stroke-width:0.75;stroke-linecap:round;stroke-linejoin:round;stroke-miterlimit:10;" d="
				M56.7,90.6v-1.9h7.9v1.9h-2.8v8.7h-2.2v-8.7H56.7z"/>
			<path style="fill:none;stroke:#0695D6;stroke-width:0.75;stroke-linecap:round;stroke-linejoin:round;stroke-miterlimit:10;" d="
				M78.4,88.4v10.9h-2.1V99c-0.7,0.3-1.4,0.5-1.9,0.5c-1.1,0-1.9-0.3-2.4-1c-0.5-0.7-0.7-1.7-0.7-3.1c0-1.4,0.3-2.5,0.8-3.1
				c0.5-0.7,1.4-1,2.4-1c0.3,0,0.8,0.1,1.4,0.2l0.3,0.1v-3.2H78.4z M76,97.5l0.2,0v-4.1c-0.6-0.1-1.1-0.2-1.5-0.2
				c-0.8,0-1.3,0.8-1.3,2.2c0,0.8,0.1,1.4,0.3,1.7c0.2,0.3,0.5,0.5,0.9,0.5S75.6,97.6,76,97.5z"/>
			<path style="fill:none;stroke:#0695D6;stroke-width:0.75;stroke-linecap:round;stroke-linejoin:round;stroke-miterlimit:10;" d="
				M83.7,97.4c0.2,0.2,0.6,0.3,1.1,0.3c1,0,1.8,0,2.6-0.1l0.4,0l0,1.5c-1.2,0.3-2.3,0.4-3.3,0.4c-1.2,0-2-0.3-2.6-0.9
				c-0.5-0.6-0.8-1.6-0.8-3c0-2.8,1.2-4.2,3.5-4.2c2.3,0,3.4,1.2,3.4,3.5l-0.2,1.5h-4.6C83.3,96.8,83.4,97.1,83.7,97.4z M86,94.7
				c0-0.6-0.1-1.1-0.3-1.3c-0.2-0.2-0.5-0.4-1-0.4c-0.5,0-0.8,0.1-1.1,0.4c-0.2,0.3-0.3,0.7-0.3,1.3H86z"/>
		</g>
	</g>
</g>
<circle style="fill:#FFFFFF;stroke:#0695D6;stroke-width:3;stroke-linecap:round;stroke-linejoin:round;stroke-miterlimit:10;" cx="109.5" cy="229" r="22.4"/>
<path style="fill:none;stroke:#0695D6;stroke-width:2;stroke-linecap:round;stroke-linejoin:round;stroke-miterlimit:10;" d="
	M121.2,229.4c0,0.5-0.2,1-0.6,1.4l-9.8,9.8c-0.4,0.4-0.8,0.6-1.4,0.6c-0.5,0-1-0.2-1.4-0.6l-9.8-9.8c-0.4-0.4-0.6-0.8-0.6-1.4
	c0-0.5,0.2-1,0.6-1.4l1.1-1.1c0.4-0.4,0.8-0.6,1.4-0.6c0.5,0,1,0.2,1.4,0.6l4.4,4.4v-12.7c0-0.5,0.2-1,0.6-1.4
	c0.4-0.4,0.8-0.6,1.4-0.6h1.9c0.5,0,1,0.2,1.4,0.6c0.4,0.4,0.6,0.8,0.6,1.4v12.7l4.4-4.4c0.4-0.4,0.8-0.6,1.4-0.6
	c0.5,0,1,0.2,1.4,0.6l1.1,1.1C121,228.4,121.2,228.9,121.2,229.4z"/>
</svg>
