<?xml version="1.0" encoding="utf-8"?>
<!-- Generator: Adobe Illustrator 19.1.0, SVG Export Plug-In . SVG Version: 6.00 Build 0)  -->
<svg version="1.1" id="procesalos-svg" xmlns="http://www.w3.org/2000/svg" xmlns:xlink="http://www.w3.org/1999/xlink" x="0px" y="0px"
	 viewBox="0 0 210 188" style="visibility:hidden;enable-background:new 0 0 210 188;" xml:space="preserve">
<style type="text/css">
	.st0{fill:none;stroke:#0695D6;stroke-width:3;stroke-linecap:round;stroke-linejoin:round;stroke-miterlimit:10;}
	.st1{fill:none;stroke:#0695D6;stroke-width:3;stroke-linejoin:round;stroke-miterlimit:10;}
	.st2{fill:none;stroke:#0695D6;stroke-width:2;stroke-linecap:round;stroke-linejoin:round;stroke-miterlimit:10;}
	.st3{fill:none;stroke:#0695D6;stroke-width:2;stroke-linecap:round;stroke-linejoin:round;}
	.st4{fill:#0695D6;}
</style>
<path class="st0" d="M201,149.4H9c-3.9,0-7-3.1-7-7V14.3c0-3.9,3.1-7,7-7h192c3.9,0,7,3.1,7,7v128.1
	C208,146.2,204.8,149.4,201,149.4z"/>
<path class="st0" d="M196.2,129.8H13.8c-2.8,0-5-2.2-5-5V19.1c0-2.8,2.2-5,5-5h182.3c2.8,0,5,2.2,5,5v105.7
	C201.2,127.6,198.9,129.8,196.2,129.8z"/>
<g>
	<g>
		<line class="st1" x1="84.5" y1="149" x2="84.5" y2="172"/>
		<line class="st1" x1="122.5" y1="149" x2="122.5" y2="172"/>
	</g>
</g>
<path class="st0" d="M144.5,180.7H65.5c-1.1,0-2-0.9-2-2v-3.5c0-1.1,0.9-2,2-2h78.9c1.1,0,2,0.9,2,2v3.5
	C146.5,179.8,145.6,180.7,144.5,180.7z"/>
<circle class="st2" cx="172.7" cy="44.5" r="15.4"/>
<g>
	<g>
		<line class="st2" x1="146.5" y1="114.6" x2="194.2" y2="114.6"/>
		<polyline class="st2" points="148.6,114.6 148.6,93 152.9,93 152.9,114.6 		"/>
		<polyline class="st2" points="188.1,114.6 188.1,93 192.4,93 192.4,114.6 		"/>
		<polyline class="st2" points="172.3,114.6 172.3,90.3 176.6,90.3 176.6,114.6 		"/>
		<polyline class="st2" points="164.4,114.6 164.4,84 168.7,84 168.7,114.6 		"/>
		<polyline class="st2" points="156.5,114.6 156.5,88.5 160.8,88.5 160.8,114.6 		"/>
		<polyline class="st2" points="180.2,114.6 180.2,88.5 184.5,88.5 184.5,114.6 		"/>
	</g>
</g>
<g>
	<g>
		<polyline class="st3" points="26.6,52.3 42,56.9 67.3,43.3 96.7,56.9 138.8,35 		"/>
		<g>
			<circle class="st4" cx="26.6" cy="52.3" r="2.3"/>
		</g>
		<g>
			<circle class="st4" cx="138.8" cy="35" r="2.3"/>
		</g>
	</g>
</g>
<polyline class="st2" points="176.7,29.8 172.2,44.6 183.2,55.4 "/>
<circle class="st2" cx="120" cy="101" r="13.6"/>
<circle class="st2" cx="80.3" cy="101" r="13.6"/>
<circle class="st2" cx="40.7" cy="101" r="13.6"/>
<polyline class="st2" points="39.7,87.4 39.7,100.9 49.2,91.2 "/>
<polyline class="st2" points="79.3,87.4 79.3,100.9 72.8,113 "/>
<polyline class="st2" points="119,87.4 119,100.9 132.2,104.8 "/>
<line class="st2" x1="27.1" y1="67.5" x2="139.2" y2="67.5"/>
</svg>
