<?xml version="1.0" encoding="utf-8"?>
<!-- Generator: Adobe Illustrator 19.1.0, SVG Export Plug-In . SVG Version: 6.00 Build 0)  -->
<svg version="1.1" id="transparencia-svg" xmlns="http://www.w3.org/2000/svg" xmlns:xlink="http://www.w3.org/1999/xlink" x="0px" y="0px"
	 viewBox="0 0 210 262.1" style="enable-background:new 0 0 210 262.1;" xml:space="preserve">
<g>
	<path style="fill:none;stroke:#0695D6;stroke-width:3;stroke-linecap:round;stroke-linejoin:round;stroke-miterlimit:10;" d="
		M26.4,207.6c-6.9-2.7-11.7-9.4-11.7-17.2V38c0-10.2,8.3-18.4,18.4-18.4h77.3l11.7,11.7"/>
</g>
<g>
	<path style="fill:none;stroke:#0695D6;stroke-width:3;stroke-linecap:round;stroke-linejoin:round;stroke-miterlimit:10;" d="
		M178.5,202.1c0,10.2-8.3,18.4-18.4,18.4H44.8c-10.2,0-18.4-8.3-18.4-18.4V49.7c0-10.2,8.3-18.4,18.4-18.4h77.3l56.4,56.4V202.1z"/>

		<polyline style="fill:none;stroke:#0695D6;stroke-width:3;stroke-linecap:round;stroke-linejoin:round;stroke-miterlimit:10;" points="
		122.1,31.3 122.1,87.7 178.5,87.7 	"/>
</g>
<line style="fill:none;stroke:#0695D6;stroke-width:3;stroke-linejoin:round;stroke-miterlimit:10;" x1="109.5" y1="19" x2="109.5" y2="31"/>
<circle style="fill:none;stroke:#0695D6;stroke-width:3;stroke-linecap:round;stroke-linejoin:round;stroke-miterlimit:10;" cx="117.4" cy="163" r="45.8"/>
<circle style="fill:none;stroke:#0695D6;stroke-width:3;stroke-linecap:round;stroke-linejoin:round;stroke-miterlimit:10;" cx="117.4" cy="163" r="33.5"/>
<path style="fill:#FFFFFF;stroke:#0695D6;stroke-width:3;stroke-linecap:round;stroke-linejoin:round;stroke-miterlimit:10;" d="
	M183.8,242l-39.1-41.6l8.7-8.6l41,39.7c1.2,1.2,1.2,3.1,0,4.3l-6.4,6.3C186.9,243.3,185,243.3,183.8,242z"/>
</svg>
