<?xml version="1.0" encoding="utf-8"?>
<!-- Generator: Adobe Illustrator 19.1.0, SVG Export Plug-In . SVG Version: 6.00 Build 0)  -->
<svg version="1.1" id="usalos-svg" xmlns="http://www.w3.org/2000/svg" xmlns:xlink="http://www.w3.org/1999/xlink" x="0px" y="0px"
	 viewBox="0 0 210 188" style="visibility:hidden;enable-background:new 0 0 210 188;" xml:space="preserve">
<style type="text/css">
	.st0{fill:none;stroke:#0695D6;stroke-width:3;stroke-linecap:round;stroke-linejoin:round;stroke-miterlimit:10;}
	.st1{fill:none;stroke:#0695D6;stroke-width:2;stroke-linecap:round;stroke-linejoin:round;stroke-miterlimit:10;}
</style>
<path class="st0" d="M83.2,163.4L61,170.1c-7.4,2.2-15.2-1.9-17.5-9.3L9.9,50.1c-2.2-7.4,1.9-15.2,9.3-17.5l33.8-10.3"/>
<path class="st0" d="M82.6,158.3h-17c-7.7,0-14-6.3-14-14V28.6c0-7.7,6.3-14,14-14h34"/>
<path class="st0" d="M175.4,161.5c-2.2,7.4-10.1,11.6-17.5,9.3l-83.7-25.5c-7.4-2.2-11.6-10.1-9.3-17.5L98.5,17.3
	c2.2-7.4,10.1-11.6,17.5-9.3L172.2,25l28.5,53.4L175.4,161.5z"/>
<polyline class="st0" points="172.2,25 159.7,66 200.7,78.4 "/>
<circle class="st0" cx="105" cy="158.3" r="22.4" style="fill:#f5f5f5;" />
<path class="st1" d="M116.7,158.7c0,0.5-0.2,1-0.6,1.4l-9.8,9.8c-0.4,0.4-0.8,0.6-1.4,0.6c-0.5,0-1-0.2-1.4-0.6l-9.8-9.8
	c-0.4-0.4-0.6-0.8-0.6-1.4c0-0.5,0.2-1,0.6-1.4l1.1-1.1c0.4-0.4,0.8-0.6,1.4-0.6c0.5,0,1,0.2,1.4,0.6l4.4,4.4V148
	c0-0.5,0.2-1,0.6-1.4c0.4-0.4,0.8-0.6,1.4-0.6h1.9c0.5,0,1,0.2,1.4,0.6c0.4,0.4,0.6,0.8,0.6,1.4v12.7l4.4-4.4
	c0.4-0.4,0.8-0.6,1.4-0.6c0.5,0,1,0.2,1.4,0.6l1.1,1.1C116.6,157.8,116.7,158.2,116.7,158.7z"/>
</svg>
